<svg xmlns="http://www.w3.org/2000/svg" id="_1_illust" width="151.102" height="161.565" data-name="1_illust" viewBox="0 0 151.102 161.565">
    <defs>
        <style>
            .cls-1{fill:#f2f2f2}.cls-2,.cls-4{fill:#3f3d56}.cls-3{opacity:.1}.cls-4,.cls-5{stroke:#3f3d56}.cls-10,.cls-12,.cls-4,.cls-5{stroke-miterlimit:10}.cls-10,.cls-4,.cls-5{stroke-width:2px}.cls-10,.cls-12,.cls-5{fill:none}.cls-6{fill:#ff6584}.cls-7{fill:#2f2e41}.cls-8{fill:#fff}.cls-9{fill:#6c63ff}.cls-10{stroke:#6c63ff}.cls-11{fill:#ffb9b9}.cls-12{stroke:#ffb9b9}
        </style>
    </defs>
    <ellipse id="타원_182" cx="70.221" cy="70.221" class="cls-1" data-name="타원 182" rx="70.221" ry="70.221" transform="translate(10.593)"/>
    <g id="ground" transform="translate(4.857 130.318)">
        <path id="패스_949" d="M396.847 705.856c0 1.442-32.724 9.255-73.091 9.255s-73.091-7.813-73.091-9.255 32.724.949 73.091.949 73.091-2.391 73.091-.949z" class="cls-2" data-name="패스 949" transform="translate(-250.665 -703.246)"/>
        <path id="패스_950" d="M396.847 705.856c0 1.442-32.724 9.255-73.091 9.255s-73.091-7.813-73.091-9.255 32.724.949 73.091.949 73.091-2.391 73.091-.949z" class="cls-3" data-name="패스 950" transform="translate(-250.665 -703.246)"/>
        <ellipse id="타원_183" cx="73.091" cy="2.61" class="cls-2" data-name="타원 183" rx="73.091" ry="2.61"/>
    </g>
    <path id="선_15" d="M0 23.494V0" class="cls-4" data-name="선 15" transform="translate(147.779 108.723)"/>
    <ellipse id="타원_184" cx="3.322" cy="3.322" class="cls-2" data-name="타원 184" rx="3.322" ry="3.322" transform="translate(144.457 105.4)"/>
    <path id="패스_951" d="M916.7 623.681s-.475-10.208-10.2-9.021" class="cls-2" data-name="패스 951" transform="translate(-768.918 -500.479)"/>
    <path id="선_16" d="M0 77.305V0" class="cls-4" data-name="선 16" transform="translate(13.527 56.663)"/>
    <ellipse id="타원_185" cx="3.322" cy="3.322" class="cls-2" data-name="타원 185" rx="3.322" ry="3.322" transform="translate(10.204 53.303)"/>
    <ellipse id="타원_186" cx="3.322" cy="3.322" class="cls-2" data-name="타원 186" rx="3.322" ry="3.322" transform="translate(0 109.999)"/>
    <path id="패스_952" d="M253.287 378.552s-.475-10.208-10.2-9.021" class="cls-2" data-name="패스 952" transform="translate(-239.76 -304.956)"/>
    <path id="패스_953" d="M253.287 521.551s-.475-10.208-10.2-9.021" class="cls-2" data-name="패스 953" transform="translate(-239.76 -419.017)"/>
    <path id="패스_954" d="M253.287 630.526s2.136-18.783-10.2-19.733" class="cls-5" data-name="패스 954" transform="translate(-239.76 -497.472)"/>
    <ellipse id="타원_187" cx="3.322" cy="3.322" class="cls-2" data-name="타원 187" rx="3.322" ry="3.322" transform="translate(20.41 109.999)"/>
    <path id="패스_955" d="M292.957 630.526s-2.136-18.783 10.2-19.733" class="cls-5" data-name="패스 955" transform="translate(-279.429 -497.472)"/>
    <ellipse id="타원_188" cx="3.322" cy="3.322" class="cls-2" data-name="타원 188" rx="3.322" ry="3.322" transform="translate(20.612 78.835)"/>
    <path id="패스_956" d="M293.957 476.526s-2.136-18.783 10.2-19.733" class="cls-5" data-name="패스 956" transform="translate(-280.227 -374.636)"/>
    <path id="선_17" d="M0 46.987V0" class="cls-4" data-name="선 17" transform="translate(122.225 84.755)"/>
    <ellipse id="타원_189" cx="3.322" cy="3.322" class="cls-2" data-name="타원 189" rx="3.322" ry="3.322" transform="translate(118.903 81.432)"/>
    <path id="패스_957" d="M830.644 500.551s.475-10.208 10.2-9.021" class="cls-2" data-name="패스 957" transform="translate(-708.419 -402.267)"/>
    <path id="패스_958" d="M830.087 619.526s-2.136-18.783 10.2-19.733" class="cls-5" data-name="패스 958" transform="translate(-707.862 -488.698)"/>
    <ellipse id="타원_190" cx="3.322" cy="3.322" class="cls-2" data-name="타원 190" rx="3.322" ry="3.322" transform="translate(129.107 107.773)"/>
    <ellipse id="타원_191" cx="12.952" cy="12.951" class="cls-6" data-name="타원 191" rx="12.952" ry="12.951" transform="translate(105.301 23.07)"/>
    <ellipse id="타원_192" cx="15.987" cy="15.987" class="cls-7" data-name="타원 192" rx="15.987" ry="15.987" transform="translate(80.895 94.088)"/>
    <path id="사각형_681" d="M0 0h4.857v8.702H0z" class="cls-7" data-name="사각형 681" transform="rotate(180 52.083 65.662)"/>
    <path id="사각형_682" d="M0 0h4.857v8.702H0z" class="cls-7" data-name="사각형 682" transform="rotate(180 47.226 65.662)"/>
    <ellipse id="타원_193" cx="4.047" cy="1.518" class="cls-7" data-name="타원 193" rx="4.047" ry="1.518" transform="rotate(-30 291.452 -95.406)"/>
    <ellipse id="타원_194" cx="4.047" cy="1.518" class="cls-7" data-name="타원 194" rx="4.047" ry="1.518" transform="rotate(-30 296.207 -113.153)"/>
    <ellipse id="타원_195" cx="5.464" cy="5.464" class="cls-8" data-name="타원 195" rx="5.464" ry="5.464" transform="translate(91.013 100.563)"/>
    <ellipse id="타원_196" cx="1.821" cy="1.821" class="cls-2" data-name="타원 196" rx="1.821" ry="1.821" transform="translate(92.795 101.879)"/>
    <path id="패스_959" d="M690.045 468.608c1.291-5.781-2.836-11.623-9.217-13.048s-12.6 2.107-13.891 7.888 2.938 7.913 9.319 9.338 12.498 1.603 13.789-4.178z" class="cls-9" data-name="패스 959" transform="translate(-577.655 -373.401)"/>
    <ellipse id="타원_197" cx="2.509" cy="7.993" class="cls-7" data-name="타원 197" rx="2.509" ry="7.993" transform="rotate(-66.829 115.891 -4.62)"/>
    <ellipse id="타원_198" cx="2.509" cy="7.993" class="cls-7" data-name="타원 198" rx="2.509" ry="7.993" transform="rotate(-66.829 138.996 -21.956)"/>
    <path id="패스_960" d="M692.5 619.676a3.643 3.643 0 1 1-7.285 0c0-2.012 1.631-2.428 3.643-2.428s3.642.417 3.642 2.428z" class="cls-8" data-name="패스 960" transform="translate(-592.417 -502.62)"/>
    <path id="선_18" d="M0 23.494V0" class="cls-10" data-name="선 18" transform="translate(77.827 81.808)"/>
    <ellipse id="타원_199" cx="3.322" cy="3.322" class="cls-9" data-name="타원 199" rx="3.322" ry="3.322" transform="translate(74.505 78.485)"/>
    <path id="패스_961" d="M571.028 490.681s-.475-10.208-10.2-9.021" class="cls-9" data-name="패스 961" transform="translate(-493.201 -394.394)"/>
    <path id="패스_962" d="M406.647 437.434l1.288 3.035h1.141l-1.619-7.69c0-4.936-2.382-9.107-7.318-9.107a6.24 6.24 0 0 0-6.24 6.24v7.542a3.014 3.014 0 0 0 3.014 3.014h8.849z" class="cls-7" data-name="패스 962" transform="translate(-360.056 -348.218)"/>
    <path id="패스_963" d="M418.921 640.312s16.8-2.024 18.82 1.619.607 6.678-2.024 8.5-17.2 10.118-17.2 10.118l-1.214 2.024-2.631-.4-2.631-2.429 1.214-2.226s10.118-6.071 10.321-7.69c0 0-9.309 4.25-10.321 3.44s-12.344-4.654-10.523-6.88 6.476-5.464 6.476-5.464z" class="cls-7" data-name="패스 963" transform="translate(-366.944 -520.57)"/>
    <path id="패스_964" d="M418.921 640.312s16.8-2.024 18.82 1.619.607 6.678-2.024 8.5-17.2 10.118-17.2 10.118l-1.214 2.024-2.631-.4-2.631-2.429 1.214-2.226s10.118-6.071 10.321-7.69c0 0-9.309 4.25-10.321 3.44s-12.344-4.654-10.523-6.88 6.476-5.464 6.476-5.464z" class="cls-3" data-name="패스 964" transform="translate(-366.944 -520.57)"/>
    <path id="패스_965" d="M434.174 726.741s3.036-.607 2.428 1.417-1.012 6.071 0 7.083 4.25 5.464 1.012 5.869-6.678-3.643-6.678-3.643-2.226-6.476-3.845-7.083-3.238-3.035-2.428-3.643 5.666-4.452 6.071-4.25.2 2.428.2 2.428 1.621 2.632 3.24 1.822z" class="cls-7" data-name="패스 965" transform="translate(-384.422 -586.56)"/>
    <path id="패스_966" d="M467.63 482.938l7.488 5.261s5.666-5.869 5.666-9.309 3.036-9.916 4.452-7.285-1.619 8.9-1.619 8.9l-5.666 13.356s-3.238.607-5.059-.81-6.88-4.25-6.88-4.25z" class="cls-11" data-name="패스 966" transform="translate(-417.575 -385.961)"/>
    <ellipse id="타원_200" cx="5.666" cy="5.666" class="cls-11" data-name="타원 200" rx="5.666" ry="5.666" transform="translate(37.002 76.841)"/>
    <path id="패스_967" d="M404.385 474.831s-2.024 5.262-1.214 6.476 1.821 1.214 2.631 1.619c.4.2 4.655 1.821 4.655 3.035a4.829 4.829 0 0 1-.607 2.226l-.607 3.44-5.059 3.238-6.678-.81-5.059-2.833s-.809-7.488 1.417-8.7 4.857-4.047 4.654-5.059-.4-3.44-.4-3.44z" class="cls-11" data-name="패스 967" transform="translate(-358.782 -388.378)"/>
    <path id="패스_968" d="M418.236 532.046s-3.036 3.036-3.036 3.44 2.024 2.226.607 4.654-1.417 8.5-1.417 8.5l-4.857 1.012-9.107-.809-1.417-13.963s3.643.607 4.452 1.214 3.036-.809 4.654-.809a62.083 62.083 0 0 0 6.273-.809l-.4-1.619 1.619-2.833z" class="cls-9" data-name="패스 968" transform="translate(-364.134 -433.046)"/>
    <path id="패스_970" d="M402.814 625.991s20.439-9.106 22.058-3.238 1.821 20.034 1.821 20.034 1.012 9.714 2.226 10.725 0 4.047 0 4.047l-3.035 1.012-2.833-1.214-1.214-3.238s-.4-7.285-2.024-10.928-1.619-12.142-1.417-12.547c0 0-7.892 9.714-15.582 9.107s-8.8-2.327-8.8-2.327 3.741-11.433 8.8-11.433z" class="cls-7" data-name="패스 970" transform="translate(-360.146 -505.439)"/>
    <path id="패스_971" d="M531.617 781.766s.809-2.833 2.631-.607 10.118 5.666 10.321 6.071 3.845 2.631-.4 5.666-9.916 0-9.916 0-4.857-1.619-6.071-1.417-3.643-1.012-3.845-2.024.276-9.907 1.352-9a13.738 13.738 0 0 1 2.291 3.335s4.042 1.01 3.637-2.024z" class="cls-7" data-name="패스 971" transform="translate(-464.058 -632.68)"/>
    <path id="패스_972" d="M399.871 610.919s1.113-.1.911 2.53c0 0-6.982 2.125-8.2 3.946s-6.476 7.285-7.285 11.13c0 0-5.869-1.417-2.631-11.535l3.807-8.254s2.268 4.611 13.398 2.183z" class="cls-7" data-name="패스 972" transform="translate(-350.323 -495.831)"/>
    <path id="패스_973" d="M406.184 541.885l-6.873-3s-3.238-6.678-3.238-9.916a49.9 49.9 0 0 0-.43-5.57 7.19 7.19 0 0 1 2.341-6.3 3.719 3.719 0 0 1 2.339-1.08s2.428 4.452 2.024 8.5a48.452 48.452 0 0 0 .607 10.118l9.144 4.894" class="cls-11" data-name="패스 973" transform="translate(-361.398 -421.878)"/>
    <path id="패스_974" d="M408.122 576.475l-6.873-3s-3.238-6.678-3.238-9.916c0-1.687 7.083-6.678 6.678-2.631a39.675 39.675 0 0 0 .2 8.3l9.144 4.894" class="cls-3" data-name="패스 974" transform="translate(-363.336 -456.468)"/>
    <path id="패스_975" d="M397.713 556.263l-.645 2.737-3.6 1.72h-3.036l-1.417-6.476s2.5-.529 3.78.14a14.548 14.548 0 0 0 4.283.829z" class="cls-9" data-name="패스 975" transform="translate(-356.158 -452.204)"/>
    <path id="패스_976" d="M394.6 423.943a23.838 23.838 0 0 0-4.082-.271 6.988 6.988 0 0 0-6.988 6.988l-2.631 9.808h5.121l.95-3.643 1.349 3.643h2.581l.222-2.189.872 2.189h2.871c-2.15-4.866-3.294-9.3-.469-12.038 1.908.26 3.517-.251 3.779-1.285.298-1.191-1.301-2.625-3.575-3.202z" class="cls-7" data-name="패스 976" transform="translate(-349.686 -348.218)"/>
</svg>
