<svg xmlns="http://www.w3.org/2000/svg" width="140.277" height="117.215" viewBox="0 0 140.277 117.215">
    <defs>
        <style>
            .cls-1{fill:#f2f2f2}.cls-2{fill:#6c63ff}.cls-3{fill:#3f3d56}.cls-4{fill:#2f2e41}.cls-5{fill:#9f616a}.cls-6{opacity:.1}.cls-7{fill:#575a88}
        </style>
    </defs>
    <g id="_2_illust" data-name="2_illust" transform="translate(-.001)">
        <path id="사각형_683" d="M0 0h14.839v14.839H0z" class="cls-1" data-name="사각형 683" transform="rotate(30 -47.276 85.664)"/>
        <ellipse id="타원_201" cx="10.902" cy="10.902" class="cls-2" data-name="타원 201" rx="10.902" ry="10.902" transform="translate(110.083 11.932)"/>
        <path id="패스_977" d="M863.525 95.357a11.164 11.164 0 0 0 4.817 5.072 11.164 11.164 0 0 0-.1-6.994 11.164 11.164 0 0 0-4.817-5.072 11.164 11.164 0 0 0 .1 6.994z" class="cls-3" data-name="패스 977" transform="translate(-750.422 -87.641)"/>
        <path id="패스_978" d="M837.8 117.783a11.165 11.165 0 0 1 3.653 5.965 9.612 9.612 0 0 1-10.382-7.875 11.164 11.164 0 0 1 6.729 1.91z" class="cls-2" data-name="패스 978" transform="translate(-723.488 -110.977)"/>
        <path id="패스_979" d="M899.1 93.331a11.165 11.165 0 0 0-.046 6.995 11.164 11.164 0 0 0 4.775-5.111 11.164 11.164 0 0 0 .047-6.995 11.165 11.165 0 0 0-4.776 5.111z" class="cls-3" data-name="패스 979" transform="translate(-779.415 -87.52)"/>
        <path id="패스_980" d="M884.017 89.637a11.165 11.165 0 0 1-1.5 6.831 11.164 11.164 0 0 1-3.524-6.042 11.164 11.164 0 0 1 1.5-6.831 11.165 11.165 0 0 1 3.524 6.042z" class="cls-2" data-name="패스 980" transform="translate(-762.783 -83.595)"/>
        <ellipse id="타원_202" cx="5.602" cy="5.602" class="cls-1" data-name="타원 202" rx="5.602" ry="5.602" transform="translate(114.783 16.085)"/>
        <ellipse id="타원_203" cx="1.817" cy="1.817" class="cls-3" data-name="타원 203" rx="1.817" ry="1.817" transform="translate(116.215 18.308)"/>
        <path id="패스_981" d="M997.831 641.139a3.331 3.331 0 1 1 3.331-3.331 3.331 3.331 0 0 1-3.331 3.331zm0-6.36a3.028 3.028 0 1 0 3.028 3.028 3.028 3.028 0 0 0-3.028-3.027z" class="cls-3" data-name="패스 981" transform="translate(-860.885 -546.062)"/>
        <path id="패스_982" d="M409.831 414.139a3.331 3.331 0 1 1 3.331-3.331 3.331 3.331 0 0 1-3.331 3.331zm0-6.36a3.028 3.028 0 1 0 3.028 3.028 3.028 3.028 0 0 0-3.028-3.027z" class="cls-3" data-name="패스 982" transform="translate(-367.202 -355.495)"/>
        <path id="패스_983" d="M653.995 245.114l-17.712 19.769a8.78 8.78 0 1 1-11.689 13.046l-24.672 27.537a40.62 40.62 0 0 0 54.073-60.353z" class="cls-1" data-name="패스 983" transform="translate(-526.052 -217.024)"/>
        <ellipse id="타원_204" cx="5.3" cy="5.3" class="cls-1" data-name="타원 204" rx="5.3" ry="5.3" transform="translate(98.022 49.202)"/>
        <ellipse id="타원_205" cx="5.115" cy="5.115" class="cls-4" data-name="타원 205" rx="5.115" ry="5.115" transform="translate(68.794 5.783)"/>
        <path id="패스_984" d="M559.942 394.327l1.187 23.139s-.2 16.613.989 16.81 3.362 1.582 3.955.593 3.56-31.445 3.56-31.445.791 31.643 3.164 31.841 5.142-.989 5.538-.791.2-39.554.2-39.554z" class="cls-4" data-name="패스 984" transform="translate(-495.656 -343.073)"/>
        <path id="패스_985" d="M557.414 656.794s-1.384 0-1.78.593-1.78 3.56-1.78 3.56-2.571 2.361.2 2.559 4.153-.383 4.153-.779 0-1.384.593-1.582a2.3 2.3 0 0 0 1.187-1.582c-.002-.396-.595-2.963-2.573-2.769z" class="cls-4" data-name="패스 985" transform="translate(-489.993 -564.783)"/>
        <path id="패스_986" d="M651.519 656.683s-.989 3.955 0 4.153 1.582.593 1.78 1.187 2.175 1.279 3.758 1.082 2.373-1.279 1.78-1.873a38.077 38.077 0 0 1-3.758-4.549c-.198-.593-3.56 0-3.56 0z" class="cls-4" data-name="패스 986" transform="translate(-572.505 -564.48)"/>
        <path id="패스_987" d="M600.094 179.632s-.4 2.966-1.187 3.362.4 2.571.4 2.571l3.56.593 3.164-2.571s-.593-3.758-.593-3.955a48.092 48.092 0 0 0-5.344 0z" class="cls-5" data-name="패스 987" transform="translate(-528.495 -165.016)"/>
        <path id="패스_988" d="M600.094 179.632s-.4 2.966-1.187 3.362.4 2.571.4 2.571l3.56.593 3.164-2.571s-.593-3.758-.593-3.955a48.092 48.092 0 0 0-5.344 0z" class="cls-6" data-name="패스 988" transform="translate(-528.495 -165.016)"/>
        <ellipse id="타원_206" cx="4.746" cy="4.746" class="cls-5" data-name="타원 206" rx="4.746" ry="4.746" transform="translate(69.028 7.694)"/>
        <path id="패스_989" d="M554.908 200.5s-1.978-3.362-2.966-3.164-4.054.692-4.45.494-2.966 8.9-2.966 8.9-2.769 18-.989 20.172 7.911.989 8.7 3.164 13.25-1.187 13.25-2.373.2-19.381.4-20.766-1.78-8.7-1.78-8.7-4.648-1.286-5.439-.89-1.189 1.578-3.76 3.163z" class="cls-7" data-name="패스 989" transform="translate(-481.248 -178.657)"/>
        <path id="패스_990" d="M481.306 165.041l-.4-.593a32.7 32.7 0 0 1-5.34.4 29.452 29.452 0 0 0-4.746.2s.791-2.175 1.582-2.373a8.17 8.17 0 0 0 1.78-.791s-1.978-2.967 0-3.955c0 0-9.1 3.56-9.691 6.922s13.844 8.5 13.844 8.5z" class="cls-7" data-name="패스 990" transform="translate(-415.641 -146.667)"/>
        <path id="패스_991" d="M672.267 176.322l1.582-.4 7.911.791-2.571-2.769s1.582-1.978.593-2.967c0 0 10.482 3.955 9.295 6.526s-13.646 7.12-14.239 7.317-2.571-8.498-2.571-8.498z" class="cls-7" data-name="패스 991" transform="translate(-589.933 -157.75)"/>
        <path id="패스_992" d="M522.055 161.267a3.4 3.4 0 0 1 1.309.7 12.72 12.72 0 0 1 1.116.9c1.8 1.682 2.46 4.219 3.032 6.613-.407.343-1.072.058-1.346-.4a4.783 4.783 0 0 1-.4-1.537 1.543 1.543 0 0 0-.878-1.243.724.724 0 0 1-.473.822 2.109 2.109 0 0 1-1.031.057 1.424 1.424 0 0 1-.468-.106 1.485 1.485 0 0 1-.571-.669 20.563 20.563 0 0 0-1.254-1.962 1.457 1.457 0 0 0-.4-.414c-.633-.387-1.314-.892-1-1.811.268-.761 1.673-1.087 2.364-.95z" class="cls-5" data-name="패스 992" transform="translate(-462.144 -149.48)"/>
        <path id="패스_993" d="M676.663 169.2a3.087 3.087 0 0 0-1.847.985 12.945 12.945 0 0 0-3.975 7.755.623.623 0 0 0 .119.564.439.439 0 0 0 .594-.116 1.446 1.446 0 0 0 .225-.631 7.048 7.048 0 0 1 .7-1.926 1.172 1.172 0 0 1 .747-.691c.518-.082.905.467 1.4.641a1.475 1.475 0 0 0 1.593-.669 6.443 6.443 0 0 0 .689-1.716 2.614 2.614 0 0 1 1.019-1.5c.568-.333 1.877-.565 1.322-1.5a3.558 3.558 0 0 0-2.586-1.196z" class="cls-5" data-name="패스 993" transform="translate(-589.06 -156.238)"/>
        <path id="패스_994" d="M586.308 119.615s-1.261-3.279.568-4.351l.5 1.45s4.6-2.775 5.8-2.144l-1.135 1.514s5.36 0 5.739 2.081l-1.892.063a4.821 4.821 0 0 1 2.081 3.469l-4.036.252 1.955 1.135s-7.315 1.009-9.081-1.892z" class="cls-4" data-name="패스 994" transform="translate(-517.641 -109.801)"/>
        <path id="패스_995" d="M503.918 159.641l2.967-2.373s-.989 2.967 0 3.955l-3.758.791z" class="cls-7" data-name="패스 995" transform="translate(-448.398 -146.112)"/>
        <path id="패스_996" d="M719.543 171l-2.571-1.978s.4 2.571-.4 3.164 2.176.791 2.176.791z" class="cls-7" data-name="패스 996" transform="translate(-627.565 -156.088)"/>
        <ellipse id="타원_207" cx="10.902" cy="10.902" class="cls-2" data-name="타원 207" rx="10.902" ry="10.902" transform="translate(16.298 83.239)"/>
        <path id="패스_997" d="M262.059 541.231a11.164 11.164 0 0 0 5.964 3.655 9.612 9.612 0 0 0-7.872-10.384 11.164 11.164 0 0 0 1.908 6.729z" class="cls-3" data-name="패스 997" transform="translate(-245.205 -461.981)"/>
        <path id="패스_998" d="M240.215 567.408a11.164 11.164 0 0 1 5.07 4.818 9.612 9.612 0 0 1-12.064-4.924 11.164 11.164 0 0 1 6.994.106z" class="cls-2" data-name="패스 998" transform="translate(-222.361 -489.254)"/>
        <path id="패스_999" d="M303.465 523.058a11.164 11.164 0 0 0 1.763 6.769 9.612 9.612 0 0 0 1.53-12.941 11.165 11.165 0 0 0-3.293 6.172z" class="cls-3" data-name="패스 999" transform="translate(-280.663 -447.092)"/>
        <path id="패스_1000" d="M283.84 528.859a11.165 11.165 0 0 1 .312 6.988 9.612 9.612 0 0 1-5.277-11.914 11.164 11.164 0 0 1 4.965 4.926z" class="cls-2" data-name="패스 1000" transform="translate(-260.739 -453.048)"/>
        <ellipse id="타원_208" cx="5.602" cy="5.602" class="cls-1" data-name="타원 208" rx="5.602" ry="5.602" transform="translate(17.391 88.04)"/>
        <ellipse id="타원_209" cx="1.817" cy="1.817" class="cls-3" data-name="타원 209" rx="1.817" ry="1.817" transform="translate(19.051 93.561)"/>
        <ellipse id="타원_210" cx="10.902" cy="10.902" class="cls-2" data-name="타원 210" rx="10.902" ry="10.902" transform="translate(63.196 76.95)"/>
        <path id="패스_1001" d="M591.474 487.017a11.165 11.165 0 0 0 4.158 5.625 9.612 9.612 0 0 0-3.4-12.579 11.163 11.163 0 0 0-.758 6.954z" class="cls-3" data-name="패스 1001" transform="translate(-522.302 -416.214)"/>
        <path id="패스_1002" d="M566.069 505.809a11.165 11.165 0 0 1 2.893 6.368 9.612 9.612 0 0 1-9.337-9.089 11.165 11.165 0 0 1 6.444 2.721z" class="cls-2" data-name="패스 1002" transform="translate(-495.688 -435.669)"/>
        <path id="패스_1003" d="M623.578 492.709a11.164 11.164 0 0 0-.9 6.936 9.612 9.612 0 0 0 6.271-11.422 11.164 11.164 0 0 0-5.371 4.486z" class="cls-3" data-name="패스 1003" transform="translate(-548.534 -423.105)"/>
        <path id="패스_1004" d="M611.209 484.594a11.165 11.165 0 0 1-2.332 6.595 9.612 9.612 0 0 1-.424-13.024 11.163 11.163 0 0 1 2.756 6.429z" class="cls-2" data-name="패스 1004" transform="translate(-534.849 -414.605)"/>
        <ellipse id="타원_211" cx="5.602" cy="5.602" class="cls-1" data-name="타원 211" rx="5.602" ry="5.602" transform="translate(67.992 80.758)"/>
        <ellipse id="타원_212" cx="1.817" cy="1.817" class="cls-3" data-name="타원 212" rx="1.817" ry="1.817" transform="translate(71.766 81.063)"/>
        <path id="사각형_684" d="M0 0h56.781v.303H0z" class="cls-4" data-name="사각형 684" transform="translate(47.736 99.661)"/>
        <ellipse id="타원_213" cx="3.104" cy="2.423" class="cls-2" data-name="타원 213" rx="3.104" ry="2.423" transform="translate(127.558 27.079)"/>
        <path id="패스_1005" d="M408.639 584.227l4.965-3.976" class="cls-3" data-name="패스 1005" transform="translate(-369.027 -500.652)"/>
        <path id="패스_1006" d="M410.737 607.529q2.251-1.819 4.66-3.429" class="cls-3" data-name="패스 1006" transform="translate(-370.794 -520.702)"/>
        <path id="패스_1007" d="M432.607 605.973a17.21 17.21 0 0 0 4.732-3.326" class="cls-3" data-name="패스 1007" transform="translate(-389.158 -519.487)"/>
        <ellipse id="타원_214" cx="2.726" cy="2.726" class="cls-3" data-name="타원 214" rx="2.726" ry="2.726" transform="translate(27.414 99.056)"/>
        <ellipse id="타원_215" cx="14.99" cy="1.806" class="cls-1" data-name="타원 215" rx="14.99" ry="1.806" transform="translate(0 113.603)"/>
        <path id="패스_1008" d="M774.831 664.139a3.331 3.331 0 1 1 3.331-3.331 3.331 3.331 0 0 1-3.331 3.331zm0-6.36a3.028 3.028 0 1 0 3.028 3.028 3.028 3.028 0 0 0-3.028-3.027z" class="cls-3" data-name="패스 1008" transform="translate(-673.655 -565.37)"/>
    </g>
</svg>
