<svg xmlns="http://www.w3.org/2000/svg" width="126.379" height="106.815"><defs><style>.cls-1{fill:#2f2e41}.cls-2{fill:#ffb8b8}.cls-4{fill:#d0cde1}.cls-5{fill:#6c63ff}.cls-6{fill:#3f3d56}.cls-7{fill:#f2f2f2}.cls-8{fill:#ff6584}.cls-9{fill:#fff}</style></defs><g id="_3_illust" data-name="3_illust"><g id="undraw_popular_7nrh"><path id="사각형_685" d="M0 0h10.824v13.711H0z" class="cls-1" data-name="사각형 685" transform="translate(61.313 16.026)"/><path id="패스_1009" d="M597.893 161.484c-.969 2.87-2.455 5.485-5.484 5.485a5.6 5.6 0 0 1-5.484-5.485c-.218-3.864 2.386-5.5 5.484-5.485 3.66.019 6.634 2.079 5.484 5.485z" class="cls-1" data-name="패스 1009" transform="translate(-525.612 -145.024)"/><path id="패스_1010" d="M612.015 223.541s-.866 5.2-.433 5.34-4.907.722-4.907.722 1.588-3.9 1.155-4.619 4.185-1.443 4.185-1.443z" class="cls-2" data-name="패스 1010" transform="translate(-542.523 -202.818)"/><path id="패스_1011" d="M612.015 223.541s-.866 5.2-.433 5.34-4.907.722-4.907.722 1.588-3.9 1.155-4.619 4.185-1.443 4.185-1.443z" data-name="패스 1011" transform="translate(-542.523 -202.818)" opacity=".1"/><path id="패스_1012" d="M693.433 270.672l2.385 1.893s-1.971-9.985-2.026-10.719-1.909-5.761-3.894-4.987 1.409 6.281 1.409 6.281l2.218 7.98z" class="cls-2" data-name="패스 1012" transform="translate(-613.201 -231.258)"/><ellipse id="타원_216" cx="4.185" cy="4.186" class="cls-2" data-name="타원 216" rx="4.185" ry="4.186" transform="translate(62.276 15.094)"/><path id="패스_1013" d="M569.623 250.407l-1.876-.866s-1.01 1.876-1.588 1.876-5.484 1.01-5.484 2.021 1.443 8.227 1.443 8.227 2.886 6.928 3.031 6.928 10.391-1.3 10.391-1.3l.577-1.588.866-9.381s-3.464-2.309-3.464-3.031-.289-3.175-.866-3.175-1.588.866-1.588.866z" class="cls-4" data-name="패스 1013" transform="translate(-503.162 -225.065)"/><path id="패스_1014" d="M662.108 297.118l1.3-.577a11.617 11.617 0 0 0 1.3 2.021 1.983 1.983 0 0 1 .722 1.155c0 .289.866 2.6 1.588 2.742s1.876.722 1.732 1.155a1 1 0 0 0 0 .722l.577-.722 3.031 2.309s1.588 4.907-.722 4.763a12.629 12.629 0 0 1-5.34-1.876c-1.01-.577-1.01-.289-1.588-1.155a15.827 15.827 0 0 0-3.031-2.454z" class="cls-4" data-name="패스 1014" transform="translate(-589.585 -265.282)"/><path id="패스_1015" d="M503.9 362.57l-1.155.577.289 2.165s-16.02 56.721-13.711 57.154 8.8 1.588 12.268 2.454 8.371 1.01 8.371 0 1.443-36.948 1.443-36.948.433 38.1 1.732 38.1 11.979 2.309 12.7 0-3.464-54.268-8.659-60.33c0 0-2.6-3.32-2.453-3.753a1.594 1.594 0 0 0-.144-1.01s.144-.289-1.443.144a5.092 5.092 0 0 1-2.742.289c-.433-.144-1.155-.722-1.588-.289a3.716 3.716 0 0 1-2.309 1.01c-.577-.144-.866-1.01-1.443-.433a4.987 4.987 0 0 1-1.155.866z" class="cls-1" data-name="패스 1015" transform="translate(-441.915 -320.342)"/><path id="패스_1016" d="M494.393 784.541s-.866 4.619 0 4.763 5.2.433 5.34.144-1.01-4.33-1.443-4.619a19.789 19.789 0 0 0-3.897-.288z" class="cls-1" data-name="패스 1016" transform="translate(-446.117 -682.849)"/><path id="패스_1017" d="M671.942 788.541s.866 4.041 0 4.186-5.2.433-5.34.144a11.38 11.38 0 0 1 1.443-4.041 19.789 19.789 0 0 1 3.897-.289z" class="cls-1" data-name="패스 1017" transform="translate(-593.79 -686.272)"/><path id="패스_1018" d="M503.175 348.484s5.917 1.588 7.361 1.876a5.2 5.2 0 0 1 3.175 2.309c.144.577 1.443 3.175 2.454 2.6s0-5.485-.722-5.629-9.525-2.6-9.525-2.6z" class="cls-2" data-name="패스 1018" transform="translate(-453.96 -308.493)"/><path id="패스_1019" d="M488.416 274.541h-1.588l-9.237 6.928s-2.165.577-2.021 1.01-2.165 3.031-.722 3.608a22.894 22.894 0 0 1 3.175 1.155c.577.433 4.185-2.021 4.185-2.021l-.577-.433s6.639-2.309 7.216-2.021-.431-8.226-.431-8.226z" class="cls-4" data-name="패스 1019" transform="translate(-429.316 -246.457)"/><path id="패스_1020" d="M439 174.8l3.464 2.165-.289 7.794 1.01-1.876.577 1.876v-7.794h2.453l-.144-1.3-2.887.433-3.752-2.021z" class="cls-5" data-name="패스 1020" transform="translate(-375.641 -148.957)"/><path id="패스_1021" d="M575.1 171.548s-.048-.265-1.908.433-2.976 5.848-2.046 8.872a2.771 2.771 0 0 1-.428 2.712 4.481 4.481 0 0 0 1.589 6.959l.235.1 1.163.7a5.32 5.32 0 0 1-.741-4.447 12.8 12.8 0 0 0 .231-6.55 23.547 23.547 0 0 0-.292-1.127c-.931-3.257-.478-2.881 2.779-6.137a20.7 20.7 0 0 0 3.489 2.094c1.628.7 3.024 1.4 1.861 3.722s-3.955 4.42-2.094 7.444 2.094 1.861 1.861 3.024l-.233 1.163 1.4-1.4-.93 1.861s3.024 0 3.955-2.326l.465.465s1.861-3.257-1.628-6.281c0 0-1.163-.7.465-3.024s.378-7.328-1.716-8.258-7.477.001-7.477.001z" class="cls-1" data-name="패스 1021" transform="translate(-510.868 -157.975)"/><ellipse id="타원_217" cx="2.165" cy="2.165" class="cls-1" data-name="타원 217" rx="2.165" ry="2.165" transform="translate(64.632 7.8)"/><path id="패스_1022" d="M604.433 128.165a2.165 2.165 0 0 1 1.948-2.154 2.2 2.2 0 0 0-.216-.011 2.165 2.165 0 0 0 0 4.33c.073 0 .145 0 .216-.011a2.165 2.165 0 0 1-1.948-2.154z" class="cls-1" data-name="패스 1022" transform="translate(-540.234 -119.355)"/><ellipse id="타원_218" cx=".289" cy=".577" class="cls-2" data-name="타원 218" rx=".289" ry=".577" transform="translate(70.405 18.191)"/><path id="패스_1023" d="M301.683 711.851a11.5 11.5 0 0 0 4.283 5.794 9.9 9.9 0 0 0-3.505-12.957 11.5 11.5 0 0 0-.778 7.163z" class="cls-6" data-name="패스 1023" transform="translate(-281.299 -614.521)"/><path id="패스_1024" d="M273.918 732.374a11.5 11.5 0 0 1 2.98 6.56 9.9 9.9 0 0 1-9.618-9.363 11.5 11.5 0 0 1 6.638 2.803z" class="cls-5" data-name="패스 1024" transform="translate(-252.111 -635.813)"/><path id="사각형_686" d="M0 0h93.522v.289H0z" class="cls-1" data-name="사각형 686" transform="translate(17.771 106.527)"/><path id="패스_1025" d="M319.927 796.794h-3.752v-3.753h3.752zm-3.464-.289h3.175v-3.175h-3.175z" class="cls-6" data-name="패스 1025" transform="translate(-293.949 -690.122)"/><path id="패스_1026" d="M31.824 366.711H0v-19.629h36.225v13.759" class="cls-7" data-name="패스 1026" transform="translate(0 -296.988)"/><path id="패스_1027" d="M42.969 355H11v-19.918h36.514v13.9h-.289v-13.611H11.289v19.34h31.68z" data-name="패스 1027" transform="translate(-9.412 -286.72)"/><path id="패스_1028" d="M271.638 445.546H263v-.289h7.526L263 441.069l.14-.252z" data-name="패스 1028" transform="translate(-225.043 -377.194)"/><path id="사각형_687" d="M0 0h28.143v.289H0z" data-name="사각형 687" transform="translate(5.773 55.29)"/><path id="사각형_688" d="M0 0h28.143v.289H0z" data-name="사각형 688" transform="translate(5.773 58.176)"/><path id="사각형_689" d="M0 0h28.143v.289H0z" data-name="사각형 689" transform="translate(5.773 61.063)"/><ellipse id="타원_219" cx="1.185" cy="1.185" class="cls-5" data-name="타원 219" rx="1.185" ry="1.185" transform="translate(44.853 66.971)"/><path id="패스_1029" d="M292.053 367.537l-.593-.194c-2.115-.713-3.505-1.169-4-2.285a1.737 1.737 0 0 1 .889-2.327 1.868 1.868 0 0 0 2.627-1.165 1.737 1.737 0 0 1 2.322.9c.5 1.116-.1 2.452-.991 4.5z" class="cls-8" data-name="패스 1029" transform="translate(-269.24 -320.787)"/><path id="사각형_690" d="M0 0h13.463v9.263H0z" class="cls-7" data-name="사각형 690" transform="translate(27.133 17.298)"/><path id="패스_1030" d="M369.644 201.645h-13.752v-9.552h13.752zm-13.463-.289h13.174v-8.974h-13.174z" data-name="패스 1030" transform="translate(-327.934 -175.909)"/><path id="패스_1031" d="M200.905 117.234l-6.759-4.688.165-.237 6.6 4.575 6.7-4.576.163.238z" data-name="패스 1031" transform="translate(-166.126 -96.099)"/><ellipse id="타원_220" cx="1.185" cy="1.185" class="cls-5" data-name="타원 220" rx="1.185" ry="1.185" transform="translate(33.595 19.775)"/><path id="패스_1032" d="M370.79 152.852l-.4-.132c-1.44-.485-2.386-.8-2.723-1.555a1.182 1.182 0 0 1 .6-1.584 1.271 1.271 0 0 0 1.788-.793 1.182 1.182 0 0 1 1.58.615c.337.76-.068 1.669-.674 3.062z" class="cls-8" data-name="패스 1032" transform="translate(-337.913 -138.762)"/><path id="사각형_691" d="M0 0h13.463v9.263H0z" class="cls-7" data-name="사각형 691" transform="translate(96.842 64.638)"/><path id="사각형_692" d="M0 0h2.886v.866H0z" class="cls-5" data-name="사각형 692" transform="translate(106.944 65.682)"/><path id="사각형_693" d="M0 0h6.639v.577H0z" class="cls-9" data-name="사각형 693" transform="translate(103.192 68.135)"/><path id="사각형_694" d="M0 0h9.67v.577H0z" class="cls-9" data-name="사각형 694" transform="translate(100.161 69.29)"/><path id="사각형_695" d="M0 0h9.67v.577H0z" class="cls-9" data-name="사각형 695" transform="translate(100.161 70.445)"/><path id="패스_1033" d="M894.053 498.316l-.133-.275c-.468-.989-.779-1.634-.554-2.188a.851.851 0 0 1 1.123-.478.915.915 0 0 0 1.3.531.851.851 0 0 1 .471 1.126c-.226.554-.9.8-1.924 1.18z" class="cls-8" data-name="패스 1033" transform="translate(-787.773 -435.362)"/><path id="패스_1034" d="M623.4 92.711h31.824V73.082H619v13.759" class="cls-7" data-name="패스 1034" transform="translate(-529.663 -62.534)"/><path id="패스_1035" d="M642.514 81h-31.968v-.289h31.68v-19.34h-35.937v13.614H606v-13.9h36.514z" data-name="패스 1035" transform="translate(-518.539 -52.266)"/><path id="패스_1036" d="M555.785 171.546h-8.638l8.5-4.729.14.252-7.524 4.188h7.526z" data-name="패스 1036" transform="translate(-468.18 -142.741)"/><path id="사각형_696" d="M0 0h28.143v.289H0z" data-name="사각형 696" transform="translate(91.646 15.744)"/><path id="사각형_697" d="M0 0h28.143v.289H0z" data-name="사각형 697" transform="translate(91.646 18.63)"/><path id="사각형_698" d="M0 0h28.143v.289H0z" data-name="사각형 698" transform="translate(91.646 21.517)"/><ellipse id="타원_221" cx="1.185" cy="1.185" class="cls-5" data-name="타원 221" rx="1.185" ry="1.185" transform="translate(78.336 27.425)"/><path id="패스_1037" d="M1003.985 84.9l-.091-.514c-.308-1.842-.52-3.046.108-3.851a1.452 1.452 0 0 1 2.067-.262 1.58 1.58 0 0 1 .6 1.184 1.58 1.58 0 0 1 1.294.294 1.452 1.452 0 0 1 .25 2.069c-.628.805-1.848.893-3.709 1.043z" class="cls-8" data-name="패스 1037" transform="translate(-882.158 -79.96)"/></g></g></svg>