<svg xmlns="http://www.w3.org/2000/svg" width="16" height="16.302"><defs><style>.cls-1{fill:#79a879}.cls-2{fill:#5d895d}.cls-3{fill:#82d182}</style></defs><g id="bamboo"><path id="패스_2117" d="M77.2 34.489h-2.606a16.2 16.2 0 0 0 0-5.122H77.2a16.194 16.194 0 0 0 0 5.122zm0 0" class="cls-1" data-name="패스 2117" transform="translate(-72.219 -28.432)"/><path id="패스_2118" d="M77.2 195.368h-2.606a16.2 16.2 0 0 0 0-5.122H77.2a16.193 16.193 0 0 0 0 5.122zm0 0" class="cls-1" data-name="패스 2118" transform="translate(-72.219 -184.189)"/><path id="패스_2119" d="M77.2 356.243h-2.606a16.2 16.2 0 0 0 0-5.122H77.2a16.194 16.194 0 0 0 0 5.122zm0 0" class="cls-1" data-name="패스 2119" transform="translate(-72.219 -339.941)"/><path id="패스_2120" d="M75.536 356.251h-.943a16.2 16.2 0 0 0 0-5.122h.943a57.561 57.561 0 0 1 0 5.122zm0 0" class="cls-2" data-name="패스 2120" transform="translate(-72.219 -339.949)"/><path id="패스_2121" d="M75.536 195.372h-.943a16.2 16.2 0 0 0 0-5.122h.943a57.561 57.561 0 0 1 0 5.122zm0 0" class="cls-2" data-name="패스 2121" transform="translate(-72.219 -184.192)"/><path id="패스_2122" d="M75.536 34.5h-.943a16.2 16.2 0 0 0 0-5.122h.943a57.561 57.561 0 0 1 0 5.122zm0 0" class="cls-2" data-name="패스 2122" transform="translate(-72.219 -28.44)"/><path id="패스_2123" d="M235.4 8.673h-2.606a17.989 17.989 0 0 0 0-5.4h2.606a17.989 17.989 0 0 0 0 5.4zm0 0" class="cls-1" data-name="패스 2123" transform="translate(-225.381 -3.17)"/><path id="패스_2124" d="M235.4 178.247h-2.606a17.989 17.989 0 0 0 0-5.4h2.606a17.989 17.989 0 0 0 0 5.4zm0 0" class="cls-1" data-name="패스 2124" transform="translate(-225.381 -167.344)"/><path id="패스_2125" d="M235.4 347.825h-2.606a17.989 17.989 0 0 0 0-5.4h2.606a17.989 17.989 0 0 0 0 5.4zm0 0" class="cls-1" data-name="패스 2125" transform="translate(-225.381 -331.523)"/><path id="패스_2126" d="M233.735 347.829h-.943a17.98 17.98 0 0 0 0-5.4h.943c.076 1.79.076 3.612 0 5.4zm0 0" class="cls-2" data-name="패스 2126" transform="translate(-225.381 -331.527)"/><path id="패스_2127" d="M233.735 178.255h-.943a17.979 17.979 0 0 0 0-5.4h.943c.076 1.79.076 3.612 0 5.4zm0 0" class="cls-2" data-name="패스 2127" transform="translate(-225.381 -167.352)"/><path id="패스_2128" d="M233.735 8.677h-.943a17.98 17.98 0 0 0 0-5.4h.943c.076 1.79.076 3.612 0 5.4zm0 0" class="cls-2" data-name="패스 2128" transform="translate(-225.381 -3.174)"/><path id="패스_2129" d="M364.024 178.247h-2.606a17.989 17.989 0 0 0 0-5.4h2.606a17.981 17.981 0 0 0 0 5.4zm0 0" class="cls-1" data-name="패스 2129" transform="translate(-349.91 -167.344)"/><path id="패스_2130" d="M364.024 347.825h-2.606a17.989 17.989 0 0 0 0-5.4h2.606a17.981 17.981 0 0 0 0 5.4zm0 0" class="cls-1" data-name="패스 2130" transform="translate(-349.91 -331.523)"/><path id="패스_2131" d="M362.36 347.829h-.943a17.988 17.988 0 0 0 0-5.4h.943c.076 1.79.076 3.612 0 5.4zm0 0" class="cls-2" data-name="패스 2131" transform="translate(-349.91 -331.527)"/><path id="패스_2132" d="M362.36 178.255h-.943a17.987 17.987 0 0 0 0-5.4h.943c.076 1.79.076 3.612 0 5.4zm0 0" class="cls-2" data-name="패스 2132" transform="translate(-349.91 -167.352)"/><path id="패스_2133" d="M.325 206.493a3.608 3.608 0 0 0 2.05 1.9 3.609 3.609 0 0 0-.085-2.793 3.609 3.609 0 0 0-2.05-1.9 3.609 3.609 0 0 0 .085 2.793zm0 0" class="cls-3" data-name="패스 2133" transform="translate(0 -197.213)"/><path id="패스_2134" d="M152.257 75.391a2.866 2.866 0 0 1-1.627 1.509 2.873 2.873 0 0 1 1.695-3.728 2.866 2.866 0 0 1-.068 2.219zm0 0" class="cls-3" data-name="패스 2134" transform="translate(-145.649 -70.842)"/><path id="패스_2135" d="M439.082 58a2.865 2.865 0 0 1-1.628 1.509 2.873 2.873 0 0 1 1.695-3.728 2.866 2.866 0 0 1-.067 2.219zm0 0" class="cls-3" data-name="패스 2135" transform="translate(-423.341 -54.001)"/><path id="패스_2136" d="M309.372 367.372a3.609 3.609 0 0 1-2.05 1.9 3.618 3.618 0 0 1 2.134-4.694 3.609 3.609 0 0 1-.084 2.794zm0 0" class="cls-3" data-name="패스 2136" transform="translate(-297.304 -352.97)"/><path id="패스_2137" d="M187.155 253.549a2.217 2.217 0 0 0 1.26 1.168 2.223 2.223 0 0 0-1.311-2.885 2.217 2.217 0 0 0 .051 1.717zm0 0" class="cls-3" data-name="패스 2137" transform="translate(-181.003 -243.814)"/><g id="그룹_181" data-name="그룹 181" transform="translate(2.127)"><path id="패스_2138" d="M227.862 165.559h-2.606a.248.248 0 0 1 0-.5h2.606a.248.248 0 0 1 0 .5zm0 0" class="cls-2" data-name="패스 2138" transform="translate(-219.97 -159.807)"/><path id="패스_2139" d="M227.862.5h-2.606a.248.248 0 0 1 0-.5h2.606a.248.248 0 0 1 0 .5zm0 0" class="cls-2" data-name="패스 2139" transform="translate(-219.97)"/><path id="패스_2140" d="M69.659 182.953h-2.607a.248.248 0 1 1 0-.5h2.606a.248.248 0 0 1 0 .5zm0 0" class="cls-2" data-name="패스 2140" transform="translate(-66.804 -176.647)"/><path id="패스_2141" d="M69.659 23.3h-2.607a.248.248 0 1 1 0-.5h2.606a.248.248 0 0 1 0 .5zm0 0" class="cls-2" data-name="패스 2141" transform="translate(-66.804 -22.082)"/><path id="패스_2142" d="M69.659 343.832h-2.607a.248.248 0 1 1 0-.5h2.606a.248.248 0 0 1 0 .5zm0 0" class="cls-2" data-name="패스 2142" transform="translate(-66.804 -332.404)"/><path id="패스_2143" d="M227.862 335.133h-2.606a.248.248 0 0 1 0-.5h2.606a.248.248 0 0 1 0 .5zm0 0" class="cls-2" data-name="패스 2143" transform="translate(-219.97 -323.982)"/><path id="패스_2144" d="M356.483 335.133h-2.606a.248.248 0 1 1 0-.5h2.606a.248.248 0 0 1 0 .5zm0 0" class="cls-2" data-name="패스 2144" transform="translate(-344.496 -323.982)"/><path id="패스_2145" d="M356.483 166.012h-2.606a.248.248 0 1 1 0-.5h2.606a.248.248 0 0 1 0 .5zm0 0" class="cls-2" data-name="패스 2145" transform="translate(-344.496 -160.246)"/></g></g></svg>