<svg xmlns="http://www.w3.org/2000/svg" width="16" height="13.012"><defs><style>.cls-2{fill:#ff6243}.cls-3{fill:#a258cd}.cls-4{fill:#8034ad}.cls-5{fill:#acabb1}.cls-6{fill:#787680}.cls-7{fill:#c70024}.cls-8{fill:#1d1d1f}.cls-9{fill:#fff}</style></defs><g id="calendar" transform="translate(0 -47.808)"><path id="사각형_773" d="M0 0h15.531v9.208H0z" data-name="사각형 773" transform="translate(.234 51.377)" fill="#ffa733"/><g id="그룹_182" data-name="그룹 182" transform="translate(.234 51.377)"><path id="사각형_774" d="M0 0h1.587v1.587H0z" class="cls-2" data-name="사각형 774" transform="translate(5.325 1.426)"/><path id="사각형_775" d="M0 0h1.587v1.587H0z" class="cls-2" data-name="사각형 775" transform="translate(7.766 1.426)"/><path id="사각형_776" d="M0 0h1.587v1.587H0z" class="cls-2" data-name="사각형 776" transform="translate(10.206 1.426)"/><path id="사각형_777" d="M0 0h1.587v1.587H0z" class="cls-2" data-name="사각형 777" transform="translate(12.646 1.426)"/><path id="사각형_778" d="M0 0h1.587v1.587H0z" class="cls-2" data-name="사각형 778" transform="translate(2.885 3.843)"/><path id="사각형_779" d="M0 0h1.587v1.587H0z" class="cls-2" data-name="사각형 779" transform="translate(5.325 3.843)"/><path id="사각형_780" d="M0 0h1.587v1.587H0z" class="cls-2" data-name="사각형 780" transform="translate(7.766 3.843)"/><path id="사각형_781" d="M0 0h1.587v1.587H0z" class="cls-2" data-name="사각형 781" transform="translate(10.206 3.843)"/><path id="사각형_782" d="M0 0h1.587v1.587H0z" class="cls-2" data-name="사각형 782" transform="translate(12.646 3.843)"/><path id="사각형_783" d="M0 0h1.587v1.587H0z" class="cls-2" data-name="사각형 783" transform="translate(2.885 6.261)"/><path id="사각형_784" d="M0 0h1.587v1.587H0z" class="cls-2" data-name="사각형 784" transform="translate(5.325 6.261)"/><path id="사각형_785" d="M0 0h1.587v1.587H0z" class="cls-2" data-name="사각형 785" transform="translate(7.766 6.261)"/><path id="사각형_786" d="M0 0h1.587v1.587H0z" class="cls-2" data-name="사각형 786" transform="translate(10.206 6.261)"/><path id="사각형_787" d="M0 0h1.519v9.208H0z" class="cls-2" data-name="사각형 787"/></g><g id="그룹_183" data-name="그룹 183" transform="translate(2.326 52.803)"><path id="사각형_788" d="M0 0h1.587v1.587H0z" class="cls-3" data-name="사각형 788" transform="translate(2.44)"/><path id="사각형_789" d="M0 0h1.587v1.587H0z" class="cls-3" data-name="사각형 789" transform="translate(4.881)"/><path id="사각형_790" d="M0 0h1.587v1.587H0z" class="cls-3" data-name="사각형 790" transform="translate(7.321)"/><path id="사각형_791" d="M0 0h1.587v1.587H0z" class="cls-3" data-name="사각형 791" transform="translate(9.761)"/><path id="사각형_792" d="M0 0h1.587v1.587H0z" class="cls-3" data-name="사각형 792" transform="translate(0 2.418)"/><path id="사각형_793" d="M0 0h1.587v1.587H0z" class="cls-3" data-name="사각형 793" transform="translate(2.44 2.418)"/><path id="사각형_794" d="M0 0h1.587v1.587H0z" class="cls-3" data-name="사각형 794" transform="translate(4.881 2.418)"/><path id="사각형_795" d="M0 0h1.587v1.587H0z" class="cls-3" data-name="사각형 795" transform="translate(7.321 2.418)"/><path id="사각형_796" d="M0 0h1.587v1.587H0z" class="cls-3" data-name="사각형 796" transform="translate(9.761 2.418)"/><path id="사각형_797" d="M0 0h1.587v1.587H0z" class="cls-3" data-name="사각형 797" transform="translate(0 4.835)"/><path id="사각형_798" d="M0 0h1.587v1.587H0z" class="cls-3" data-name="사각형 798" transform="translate(2.44 4.835)"/><path id="사각형_799" d="M0 0h1.587v1.587H0z" class="cls-3" data-name="사각형 799" transform="translate(4.881 4.835)"/><path id="사각형_800" d="M0 0h1.587v1.587H0z" class="cls-3" data-name="사각형 800" transform="translate(7.321 4.835)"/></g><g id="그룹_184" data-name="그룹 184" transform="translate(2.326 52.803)"><path id="사각형_801" d="M0 0h.794v1.587H0z" class="cls-4" data-name="사각형 801" transform="translate(4.881 2.418)"/><path id="사각형_802" d="M0 0h.794v1.587H0z" class="cls-4" data-name="사각형 802" transform="translate(4.881)"/><path id="사각형_803" d="M0 0h.794v1.587H0z" class="cls-4" data-name="사각형 803" transform="translate(9.761)"/><path id="사각형_804" d="M0 0h.794v1.587H0z" class="cls-4" data-name="사각형 804" transform="translate(2.44)"/><path id="사각형_805" d="M0 0h.794v1.587H0z" class="cls-4" data-name="사각형 805" transform="translate(7.321)"/><path id="사각형_806" d="M0 0h.794v1.587H0z" class="cls-4" data-name="사각형 806" transform="translate(7.321 2.418)"/><path id="사각형_807" d="M0 0h.794v1.587H0z" class="cls-4" data-name="사각형 807" transform="translate(2.44 4.835)"/><path id="사각형_808" d="M0 0h.794v1.587H0z" class="cls-4" data-name="사각형 808" transform="translate(4.881 4.835)"/><path id="사각형_809" d="M0 0h.794v1.587H0z" class="cls-4" data-name="사각형 809" transform="translate(7.321 4.835)"/><path id="사각형_810" d="M0 0h.794v1.587H0z" class="cls-4" data-name="사각형 810" transform="translate(9.761 2.418)"/><path id="사각형_811" d="M0 0h.794v1.587H0z" class="cls-4" data-name="사각형 811" transform="translate(2.44 2.418)"/><path id="사각형_812" d="M0 0h.794v1.587H0z" class="cls-4" data-name="사각형 812" transform="translate(0 2.418)"/><path id="사각형_813" d="M0 0h.794v1.587H0z" class="cls-4" data-name="사각형 813" transform="translate(0 4.835)"/></g><g id="그룹_185" data-name="그룹 185" transform="translate(2.451 48.042)"><path id="사각형_814" d="M0 0h1.125v1.937H0z" class="cls-5" data-name="사각형 814"/><path id="사각형_815" d="M0 0h1.125v1.937H0z" class="cls-5" data-name="사각형 815" transform="translate(3.324)"/><path id="사각형_816" d="M0 0h1.125v1.937H0z" class="cls-5" data-name="사각형 816" transform="translate(6.648)"/><path id="사각형_817" d="M0 0h1.125v1.937H0z" class="cls-5" data-name="사각형 817" transform="translate(9.972)"/></g><g id="그룹_186" data-name="그룹 186" transform="translate(2.451 48.042)"><path id="사각형_818" d="M0 0h.559v1.937H0z" class="cls-6" data-name="사각형 818" transform="translate(3.324)"/><path id="사각형_819" d="M0 0h.559v1.937H0z" class="cls-6" data-name="사각형 819"/><path id="사각형_820" d="M0 0h.559v1.937H0z" class="cls-6" data-name="사각형 820" transform="translate(6.648)"/><path id="사각형_821" d="M0 0h.559v1.937H0z" class="cls-6" data-name="사각형 821" transform="translate(9.972)"/></g><path id="패스_2146" d="M20.814 86.3v.968h-1.125V86.3h-2.2v.968h-1.124V86.3h-2.2v.968h-1.124V86.3h-2.2v.968H9.717V86.3H7.5v2.366h15.531V86.3z" class="cls-2" data-name="패스 2146" transform="translate(-7.266 -37.285)"/><g id="그룹_187" data-name="그룹 187" transform="translate(.234 49.011)"><path id="사각형_822" d="M0 0h.869v.968H0z" class="cls-7" data-name="사각형 822" transform="translate(9.99)"/><path id="사각형_823" d="M0 0h.869v.968H0z" class="cls-7" data-name="사각형 823" transform="translate(13.314)"/><path id="사각형_824" d="M0 0h.869v2.367H0z" class="cls-7" data-name="사각형 824"/><path id="사각형_825" d="M0 0h.869v.968H0z" class="cls-7" data-name="사각형 825" transform="translate(3.342)"/><path id="사각형_826" d="M0 0h.869v.968H0z" class="cls-7" data-name="사각형 826" transform="translate(6.666)"/></g><g id="그룹_188" data-name="그룹 188" transform="translate(0 47.808)"><path id="패스_2147" d="M15.531 190.372H.469v-8.349H0v8.818h16v-8.818h-.469z" class="cls-8" data-name="패스 2147" transform="translate(0 -177.829)"/><path id="패스_2148" d="M147.076 200.142h-2.056v2.058h2.056v-2.056zm-.469 1.587h-1.118v-1.118h1.118v1.118z" class="cls-8" data-name="패스 2148" transform="translate(-140.488 -195.382)"/><path id="패스_2149" d="M225.164 200.142h-2.056v2.058h2.056zm-.469 1.587h-1.118v-1.118h1.123z" class="cls-8" data-name="패스 2149" transform="translate(-216.136 -195.382)"/><path id="패스_2150" d="M303.251 200.142H301.2v2.058h2.056zm-.469 1.587h-1.118v-1.118h1.118z" class="cls-8" data-name="패스 2150" transform="translate(-291.783 -195.382)"/><path id="패스_2151" d="M379.283 202.2h2.056v-2.056h-2.056zm.469-1.587h1.118v1.118h-1.118z" class="cls-8" data-name="패스 2151" transform="translate(-367.43 -195.382)"/><path id="패스_2152" d="M68.988 277.506h-2.056v2.056h2.056v-2.056zm-.469 1.587H67.4v-1.118h1.118z" class="cls-8" data-name="패스 2152" transform="translate(-64.84 -270.328)"/><path id="패스_2153" d="M145.02 279.562h2.056v-2.056h-2.056zm.469-1.587h1.118v1.118h-1.118z" class="cls-8" data-name="패스 2153" transform="translate(-140.488 -270.328)"/><path id="패스_2154" d="M223.107 279.562h2.056v-2.056h-2.056zm.469-1.587h1.118v1.118h-1.118z" class="cls-8" data-name="패스 2154" transform="translate(-216.135 -270.328)"/><path id="패스_2155" d="M301.2 279.562h2.056v-2.056H301.2zm.469-1.587h1.118v1.118h-1.118z" class="cls-8" data-name="패스 2155" transform="translate(-291.783 -270.328)"/><path id="패스_2156" d="M379.283 279.562h2.056v-2.056h-2.056zm.469-1.587h1.118v1.118h-1.118z" class="cls-8" data-name="패스 2156" transform="translate(-367.43 -270.328)"/><path id="패스_2157" d="M66.932 356.926h2.056v-2.056h-2.056zm.469-1.587h1.118v1.118H67.4z" class="cls-8" data-name="패스 2157" transform="translate(-64.84 -345.274)"/><path id="패스_2158" d="M145.02 356.926h2.056v-2.056h-2.056zm.469-1.587h1.118v1.118h-1.118z" class="cls-8" data-name="패스 2158" transform="translate(-140.488 -345.274)"/><path id="패스_2159" d="M223.107 356.926h2.056v-2.056h-2.056zm.469-1.587h1.118v1.118h-1.118z" class="cls-8" data-name="패스 2159" transform="translate(-216.135 -345.274)"/><path id="패스_2160" d="M301.2 356.926h2.056v-2.056H301.2zm.469-1.587h1.118v1.118h-1.118z" class="cls-8" data-name="패스 2160" transform="translate(-291.783 -345.274)"/><path id="패스_2161" d="M72.539 47.808h-1.594v2.405h1.594zm-.469 1.937h-.656v-1.468h.656z" class="cls-8" data-name="패스 2161" transform="translate(-68.728 -47.808)"/><path id="패스_2162" d="M178.908 47.808h-1.594v2.405h1.594v-2.405zm-.469 1.937h-.656v-1.468h.656z" class="cls-8" data-name="패스 2162" transform="translate(-171.773 -47.808)"/><path id="패스_2163" d="M285.277 47.808h-1.594v2.405h1.594zm-.469 1.937h-.656v-1.468h.656z" class="cls-8" data-name="패스 2163" transform="translate(-274.818 -47.808)"/><path id="패스_2164" d="M391.645 47.808h-1.594v2.405h1.594zm-.469 1.937h-.656v-1.468h.656z" class="cls-8" data-name="패스 2164" transform="translate(-377.862 -47.808)"/><path id="사각형_827" d="M0 0h.469v2.123H0z" class="cls-8" data-name="사각형 827" transform="translate(.953 9.83)"/></g><g id="그룹_189" data-name="그룹 189" transform="translate(14.682 51.932)"><path id="사각형_828" d="M0 0h.469v2.332H0z" class="cls-9" data-name="사각형 828" transform="translate(0 1.562)"/><path id="사각형_829" d="M0 0h.469v.469H0z" class="cls-9" data-name="사각형 829" transform="translate(0 .781)"/><path id="사각형_830" d="M0 0h.469v.469H0z" class="cls-9" data-name="사각형 830"/></g><g id="그룹_190" data-name="그룹 190" transform="translate(0 48.776)"><path id="사각형_831" d="M0 0h.469v.469H0z" class="cls-8" data-name="사각형 831" transform="translate(13.653 10.584)"/><path id="사각형_832" d="M0 0h.469v.469H0z" class="cls-8" data-name="사각형 832" transform="translate(12.872 10.584)"/><path id="사각형_833" d="M0 0h.469v.469H0z" class="cls-8" data-name="사각형 833" transform="translate(14.434 10.584)"/><path id="사각형_834" d="M0 0h.469v.469H0z" class="cls-8" data-name="사각형 834" transform="translate(13.767 1.667)"/><path id="사각형_835" d="M0 0h.469v.469H0z" class="cls-8" data-name="사각형 835" transform="translate(14.548 1.667)"/><path id="사각형_836" d="M0 0h.469v.469H0z" class="cls-8" data-name="사각형 836" transform="translate(12.986 1.667)"/><path id="패스_2165" d="M14.174 78.8v.469h1.358v1.9H.469v-1.9h1.357V78.8H0v2.835h16V78.8z" class="cls-8" data-name="패스 2165" transform="translate(0 -78.796)"/><path id="사각형_837" d="M0 0h.949v.469H0z" class="cls-8" data-name="사각형 837" transform="translate(4.202)"/><path id="사각형_838" d="M0 0h.949v.469H0z" class="cls-8" data-name="사각형 838" transform="translate(7.526)"/><path id="사각형_839" d="M0 0h.949v.469H0z" class="cls-8" data-name="사각형 839" transform="translate(10.85)"/></g><g id="그룹_191" data-name="그룹 191" transform="translate(.738 50.444)"><path id="사각형_840" d="M0 0h.469v.469H0z" class="cls-9" data-name="사각형 840" transform="translate(.781)"/><path id="사각형_841" d="M0 0h.469v.469H0z" class="cls-9" data-name="사각형 841"/><path id="사각형_842" d="M0 0h2.512v.469H0z" class="cls-9" data-name="사각형 842" transform="translate(1.563)"/></g><path id="패스_2166" d="M30.8 186.493v.469h.361v.594a.862.862 0 1 0 1.724 0v-.594h.361v-.469h-.83v1.063a.393.393 0 1 1-.786 0v-1.063z" class="cls-8" data-name="패스 2166" transform="translate(-29.841 -134.351)"/></g></svg>