<svg xmlns="http://www.w3.org/2000/svg" xmlns:xlink="http://www.w3.org/1999/xlink" width="255.082" height="127.08" viewBox="0 0 255.082 127.08">
    <defs>
        <style>
            .cls-1,.cls-23{opacity:.1}.cls-2{fill:#6c63ff}.cls-17,.cls-3{fill:none;stroke:#535461;stroke-miterlimit:10}.cls-4,.cls-5{fill:#f5f5f5}.cls-16,.cls-4{opacity:.2}.cls-6{fill:#ededf4}.cls-7{fill:#1a2246}.cls-8{fill:#fff}.cls-9{fill:#fe5858}.cls-10{fill:#f1c413}.cls-11{fill:url(#linear-gradient)}.cls-12{fill:#965d7b}.cls-13{fill:#fc6681}.cls-14{fill:#f7c4a7}.cls-15{fill:#a8a8a8}.cls-17{stroke-width:2px}.cls-18{fill:url(#linear-gradient-2)}.cls-19{fill:#59495d}.cls-20{fill:#f0b9bb}.cls-21{fill:#524d64}.cls-22{fill:#e2e8f0}.cls-24{fill:#575168}
        </style>
        <linearGradient id="linear-gradient" x1=".5" x2=".5" y1="1" gradientUnits="objectBoundingBox">
            <stop offset="0" stop-color="gray" stop-opacity=".251"/>
            <stop offset=".54" stop-color="gray" stop-opacity=".122"/>
            <stop offset="1" stop-color="gray" stop-opacity=".102"/>
        </linearGradient>
        <linearGradient id="linear-gradient-2" x1="-5.321" x2="-5.321" xlink:href="#linear-gradient"/>
    </defs>
    <g id="car_illust" transform="translate(-.007 .01)">
        <ellipse id="타원_182" cx="122.007" cy="34.861" class="cls-1" data-name="타원 182" rx="122.007" ry="34.861" transform="translate(11.074 57.349)"/>
        <path id="패스_973" d="M961.224 370.83a11.743 11.743 0 0 1 2.142 12.216c-2.776 7.3 4.761 19.437 4.761 19.437l-.23-.038a14.319 14.319 0 0 1-9.505-21.919c2.088-3.19 3.802-6.936 2.832-9.696z" class="cls-2" data-name="패스 973" transform="translate(-738.334 -327.349)"/>
        <path id="패스_974" d="M973.1 370.83s2.786 6.029 0 10.948-.474 18.723 6.9 20.706" class="cls-3" data-name="패스 974" transform="translate(-750.21 -327.349)"/>
        <path id="패스_975" d="M941.88 449.2s5.612-.894 6.123 4.136 10.8 5.726 10.8 5.726l-.189.129c-8.489 5.571-16.6 3.546-15.38-3.849.449-2.752.406-5.516-1.354-6.142z" class="cls-2" data-name="패스 975" transform="translate(-727.749 -385.825)"/>
        <path id="패스_976" d="M941.88 449.2s5.612-.894 6.123 4.136 10.8 5.726 10.8 5.726l-.189.129c-8.489 5.571-16.6 3.546-15.38-3.849.449-2.752.406-5.516-1.354-6.142z" class="cls-4" data-name="패스 976" transform="translate(-727.749 -385.825)"/>
        <path id="패스_977" d="M941.88 449.38s4.356.957 4 4.918 6.471 8.712 12.916 4.946" class="cls-3" data-name="패스 977" transform="translate(-727.749 -386.006)"/>
        <path id="패스_978" d="M297.651 304.943l-12.121-.9H126.14V280.7h171.511z" class="cls-5" data-name="패스 978" transform="translate(-94.189 -209.62)"/>
        <path id="패스_979" d="M185.13 213.13h-10.47v-6.164a4.305 4.305 0 0 1 4.305-4.305h1.859a4.305 4.305 0 0 1 4.305 4.305z" class="cls-6" data-name="패스 979" transform="translate(-154.831 -201.769)"/>
        <path id="패스_980" d="M338.258 305.75v35.62l-11.691-.152c0-.253.018-.507.018-.744a23.046 23.046 0 1 0-46.092 0v.15l-11.668-.152h-60.474a23.066 23.066 0 0 0-.142-2.532c-.043-.405-.095-.8-.165-1.2a22.645 22.645 0 0 0-.694-3c-.121-.405-.253-.8-.4-1.2a23.188 23.188 0 0 0-1.348-2.993 24.98 24.98 0 0 0-.694-1.2 23.091 23.091 0 0 0-2.206-2.993q-.54-.62-1.117-1.2a23.046 23.046 0 0 0-32.566 0q-.58.58-1.117 1.2a23.1 23.1 0 0 0-2.206 2.993c-.253.393-.473.79-.694 1.2a23.188 23.188 0 0 0-1.348 2.993c-.144.395-.278.793-.4 1.2a22.641 22.641 0 0 0-.694 2.993 19.25 19.25 0 0 0-.165 1.2 23.056 23.056 0 0 0-.142 2.532H139.21V261.75h162.535l16.124 35.159 20.04 8.691z" class="cls-2" data-name="패스 980" transform="translate(-128.358 -245.893)"/>
        <path id="패스_981" d="M46.411 33.09h152.611a6.332 6.332 0 0 1 6.332 6.332v1.152H42.82v-3.9a3.588 3.588 0 0 1 3.591-3.588z" class="cls-5" data-name="패스 981" transform="translate(-31.971 -24.717)"/>
        <path id="패스_982" d="M527.337 207.483H490.22v-1.4a6.985 6.985 0 0 1 6.989-6.985h21.45z" class="cls-6" data-name="패스 982" transform="translate(-390.473 -199.11)"/>
        <rect id="사각형_683" width="20.952" height="14.367" class="cls-1" data-name="사각형 683" rx="7.183" transform="translate(7.557 82.903)"/>
        <path id="패스_983" d="M502.8 140.771h-17.36V62.05h34.121v54.475z" class="cls-1" data-name="패스 983" transform="translate(-362.496 -46.343)"/>
        <rect id="사각형_684" width="20.952" height="14.367" class="cls-5" data-name="사각형 684" rx="7.183" transform="translate(7.258 83.503)"/>
        <rect id="사각형_685" width="11.373" height="16.763" class="cls-1" data-name="사각형 685" rx="5.687" transform="translate(203.61 82.305)"/>
        <rect id="사각형_686" width="11.373" height="16.763" class="cls-5" data-name="사각형 686" rx="5.687" transform="translate(204.208 82.603)"/>
        <path id="사각형_687" d="M0 0h68.543v37.114H0z" class="cls-7" data-name="사각형 687" transform="translate(32.399 23.937)"/>
        <path id="사각형_688" d="M0 0h36.218v32.026H0z" class="cls-5" data-name="사각형 688" transform="translate(64.876 27.081)"/>
        <path id="패스_984" d="M256.15 151.085l26.042-19.305 3.594.9-29.633 21.4z" class="cls-8" data-name="패스 984" transform="translate(-191.274 -98.413)"/>
        <path id="패스_985" d="M256.15 132.714l14.068-15.114 6.584 1.5-20.652 19.452z" class="cls-8" data-name="패스 985" transform="translate(-191.274 -87.825)"/>
        <rect id="사각형_689" width="25.143" height="34.721" class="cls-5" data-name="사각형 689" rx="12.571" transform="translate(127.883 21.544)"/>
        <path id="사각형_690" d="M0 0h3.293v7.185H0z" class="cls-7" data-name="사각형 690" transform="translate(148.236 59.256)"/>
        <path id="패스_986" d="M740.78 299.582v24.793a1.4 1.4 0 0 0 1.4 1.4h15.259a1.4 1.4 0 0 0 1.19-2.13l-15.261-24.795a1.4 1.4 0 0 0-2.588.732z" class="cls-5" data-name="패스 986" transform="translate(-577.578 -273.101)"/>
        <path id="패스_987" d="M513.022 85.1l-8.082 7.182v3.743L516.463 85.1z" class="cls-8" data-name="패스 987" transform="translate(-377.057 -63.556)"/>
        <path id="패스_988" d="M504.94 100.361v4.339l19.16-19.6h-3.743z" class="cls-8" data-name="패스 988" transform="translate(-377.057 -63.556)"/>
        <path id="패스_989" d="M649.465 117.6l-5.065 7.03v2.7l6.724-7.033z" class="cls-8" data-name="패스 989" transform="translate(-481.198 -87.825)"/>
        <path id="패스_990" d="M653.429 145.36l-9.029 7.708v2.178l11.052-7.185z" class="cls-8" data-name="패스 990" transform="translate(-481.198 -108.555)"/>
        <circle id="타원_183" cx="16.162" cy="16.162" r="16.162" class="cls-7" data-name="타원 183" transform="translate(40.781 78.415)"/>
        <circle id="타원_184" cx="8.98" cy="8.98" r="8.98" class="cls-8" data-name="타원 184" transform="translate(47.963 85.597)"/>
        <circle id="타원_185" cx="2.396" cy="2.396" r="2.396" class="cls-7" data-name="타원 185" transform="translate(54.399 92.033)"/>
        <circle id="타원_186" cx="16.162" cy="16.162" r="16.162" class="cls-7" data-name="타원 186" transform="translate(159.013 78.415)"/>
        <circle id="타원_187" cx="8.98" cy="8.98" r="8.98" class="cls-8" data-name="타원 187" transform="translate(166.195 85.597)"/>
        <circle id="타원_188" cx="2.396" cy="2.396" r="2.396" class="cls-7" data-name="타원 188" transform="translate(172.929 92.033)"/>
        <path id="사각형_691" d="M0 0h112.245v1.198H0z" class="cls-1" data-name="사각형 691" transform="translate(10.699 69.882)"/>
        <path id="패스_991" d="M669.142 277.168H617.81l.6-.9v-.3h50.734" class="cls-1" data-name="패스 991" transform="translate(-461.342 -206.088)"/>
        <path id="패스_992" d="M670.9 257.078h-50.73v-1.2h50.73" class="cls-1" data-name="패스 992" transform="translate(-463.105 -191.085)"/>
        <path id="패스_993" d="M670.9 236.985h-50.73v-1.2h50.39" class="cls-1" data-name="패스 993" transform="translate(-463.105 -176.083)"/>
        <path id="패스_994" d="M174.316 491.63a22.978 22.978 0 0 0-2.054 1.2H138.61v-1.2z" class="cls-1" data-name="패스 994" transform="translate(-127.911 -417.556)"/>
        <path id="패스_995" d="M418.29 491.63v1.2h-53.405a22.95 22.95 0 0 0-2.054-1.2z" class="cls-1" data-name="패스 995" transform="translate(-295.345 -417.556)"/>
        <path id="패스_996" d="M168.573 508.18q-.58.58-1.117 1.2H138.61v-1.2z" class="cls-1" data-name="패스 996" transform="translate(-127.911 -429.915)"/>
        <path id="패스_997" d="M435.226 508.18v1.2h-48.6q-.54-.62-1.116-1.2z" class="cls-1" data-name="패스 997" transform="translate(-312.282 -429.915)"/>
        <path id="패스_998" d="M165.25 524.72c-.253.393-.473.79-.694 1.2h-25.948v-1.2z" class="cls-1" data-name="패스 998" transform="translate(-127.91 -442.265)"/>
        <path id="패스_999" d="M445.024 524.72v1.2h-45.7a24.98 24.98 0 0 0-.694-1.2z" class="cls-1" data-name="패스 999" transform="translate(-322.079 -442.265)"/>
        <path id="패스_1000" d="M216.16 541.27c-.144.395-.278.793-.4 1.2h-6.24v-1.2z" class="cls-1" data-name="패스 1000" transform="translate(-180.862 -454.624)"/>
        <path id="패스_1001" d="M451.042 541.27v1.2h-43.951c-.121-.405-.253-.8-.4-1.2z" class="cls-1" data-name="패스 1001" transform="translate(-328.098 -454.624)"/>
        <path id="패스_1002" d="M215.064 557.82a19.25 19.25 0 0 0-.165 1.2h-5.379v-1.2z" class="cls-1" data-name="패스 1002" transform="translate(-180.862 -466.983)"/>
        <path id="패스_1003" d="M454.268 557.82v1.2h-43.093c-.043-.405-.095-.8-.165-1.2z" class="cls-1" data-name="패스 1003" transform="translate(-331.324 -466.983)"/>
        <path id="패스_1004" d="M478.425 402.62h-1.8v-4.309l.758-1.5a.168.168 0 0 1 .3 0l.758 1.5z" class="cls-9" data-name="패스 1004" transform="translate(-380.325 -346.686)"/>
        <path id="사각형_692" d="M0 0h1.795v.18H0z" class="cls-1" data-name="사각형 692" transform="translate(96.304 51.633)"/>
        <path id="패스_1005" d="M489.065 402.62h-1.8v-4.309l.758-1.5a.168.168 0 0 1 .3 0l.758 1.5z" class="cls-10" data-name="패스 1005" transform="translate(-388.27 -346.686)"/>
        <path id="사각형_693" d="M0 0h1.795v.18H0z" class="cls-1" data-name="사각형 693" transform="translate(99 51.633)"/>
        <path id="패스_1006" d="M275.138 356.017a.759.759 0 0 0-.038-.114c.1-1.074.408-4.63-.03-5.48-.342-.663-1.266-.663-2.358-.431 0-.114.015-.228.015-.345v-3.635a4.161 4.161 0 0 0-4.222-4.095h-.684a4.161 4.161 0 0 0-4.222 4.095v3.635a2.678 2.678 0 0 0 .012.319c-1.183.081-2.3.82-2.044 3.477v3.021h.238a2.725 2.725 0 0 0 .253.151l.557 5.134h1.818l-.023.253h7.117c.582.043 1.163.074 1.616.071a3.357 3.357 0 0 0 .874-.071c.78-.253.78-1.773.78-1.773l.253-3.781a.507.507 0 0 0 .087-.432zm-10.267.927h.026v.048l-.026-.02zm6.818.634l.129 1.909h-.129zm-7.252 1.653l.436-2.224h.027l-.21 2.251z" class="cls-11" data-name="패스 1006" transform="translate(-219.7 -305.759)"/>
        <rect id="사각형_694" width="8.762" height="11.703" class="cls-12" data-name="사각형 694" rx="4.381" transform="translate(44.081 36.223)"/>
        <path id="패스_1007" d="M266.887 373.754s-4.763-2.279-4.261 2.958v2.988h3.239l-.507 5.483h6.977V379.7s2.741.253 3.239-.253c0 0 .507-4.735 0-5.731s-2.257-.466-4 .03a13.81 13.81 0 0 1-4.686.012z" class="cls-13" data-name="패스 1007" transform="translate(-220.488 -329.079)"/>
        <path id="패스_1008" d="M264.49 399l.549 5.237h5.483s2.243-1.494 1-1.989a3.148 3.148 0 0 0-1.989-.253l-2.741-.253.518-2.742z" class="cls-14" data-name="패스 1008" transform="translate(-221.91 -348.385)"/>
        <path id="패스_1009" d="M292.713 398l-.253 3.992s0 1.494-.758 1.745-4.735-.253-4.735-.253-1.494 0-1.246-1.246a1.979 1.979 0 0 1 1.989-1.494 3.037 3.037 0 0 1 1.246.507h.758l-.2-3z" class="cls-1" data-name="패스 1009" transform="translate(-237.742 -347.638)"/>
        <path id="패스_1010" d="M293.213 398l-.253 3.992s0 1.494-.758 1.745-4.735-.253-4.735-.253-1.494 0-1.246-1.246a1.98 1.98 0 0 1 1.989-1.494 3.037 3.037 0 0 1 1.246.507h.758l-.2-3z" class="cls-14" data-name="패스 1010" transform="translate(-238.115 -347.638)"/>
        <path id="패스_1011" d="M263 398.209a3.614 3.614 0 0 0 3.115.663c.225-.035-2.736-1.101-3.115-.663z" class="cls-1" data-name="패스 1011" transform="translate(-220.798 -347.715)"/>
        <path id="패스_1012" d="M300.08 396.378s3.883-.063 3.568-1.314-3.314-.562-3.314-.562z" class="cls-1" data-name="패스 1012" transform="translate(-248.488 -344.884)"/>
        <path id="패스_1013" d="M263 397.593s1.251 1.251 3.816.507-3.437-.945-3.816-.507z" class="cls-13" data-name="패스 1013" transform="translate(-220.798 -347.163)"/>
        <path id="패스_1014" d="M299.83 396.138s3.883-.063 3.568-1.314-3.314-.562-3.314-.562z" class="cls-13" data-name="패스 1014" transform="translate(-248.3 -344.705)"/>
        <path id="패스_1015" d="M278.47 360.4s.758 2.741.253 3.49 1.57 2.3 2.469 2.279c.534 0 2.426-1.332 2.267-2.279-.129-.777-1.246-2.991-1-3.986z" class="cls-14" data-name="패스 1015" transform="translate(-232.35 -319.187)"/>
        <path id="패스_1016" d="M280.816 364.194a3.475 3.475 0 0 0 2.279-.852 6.746 6.746 0 0 1-.669-2.948l-3.986.507a12.17 12.17 0 0 1 .42 2.712 3.473 3.473 0 0 0 1.956.585z" class="cls-1" data-name="패스 1016" transform="translate(-232.328 -319.553)"/>
        <circle id="타원_189" cx="3.49" cy="3.49" r="3.49" class="cls-14" data-name="타원 189" transform="translate(44.998 37.537)"/>
        <path id="패스_1017" d="M274.427 351.6c-.086-.33-.221-.643-.284-.975a2.687 2.687 0 0 1 1.646-2.978 1.078 1.078 0 0 1 .54-.079c.74.119.852 1.266 1.55 1.537.139.053.292.063.433.112a1.357 1.357 0 0 1 .758.894 3.173 3.173 0 0 1 .162 1.314c-.038.423-.159.836-.189 1.266a1.549 1.549 0 0 0 .33 1.19 2.025 2.025 0 0 0 .507.354c.129.071.292.142.413.061a.351.351 0 0 0 .116-.168 3.071 3.071 0 0 0 .05-1.434 14.5 14.5 0 0 1 .023-2.219 4.127 4.127 0 0 0-.142-1.773 3.875 3.875 0 0 0-.649-1.013 4.531 4.531 0 0 0-.788-.811 3.27 3.27 0 0 0-1.915-.568 9.586 9.586 0 0 0-2.01.253 1.544 1.544 0 0 0-1.6 1.326l-.2.729a9.69 9.69 0 0 0-.443 2.381c0 .59.095 1.867.758 2.122.866.344 1.078-.949.934-1.521z" class="cls-1" data-name="패스 1017" transform="translate(-228.064 -309.044)"/>
        <path id="패스_1018" d="M274.427 351.119c-.086-.33-.221-.643-.284-.975a2.687 2.687 0 0 1 1.646-2.978 1.079 1.079 0 0 1 .54-.079c.74.119.852 1.266 1.55 1.537.139.053.292.063.433.112a1.357 1.357 0 0 1 .758.894 3.174 3.174 0 0 1 .162 1.314c-.038.423-.159.836-.189 1.266a1.55 1.55 0 0 0 .33 1.19 2.027 2.027 0 0 0 .507.354c.129.071.292.142.413.061a.349.349 0 0 0 .116-.167 3.072 3.072 0 0 0 .05-1.434 14.508 14.508 0 0 1 .021-2.214 4.127 4.127 0 0 0-.142-1.773 3.876 3.876 0 0 0-.649-1.013 4.533 4.533 0 0 0-.788-.811 3.27 3.27 0 0 0-1.915-.568 9.582 9.582 0 0 0-2.01.253 1.544 1.544 0 0 0-1.6 1.326l-.2.729a9.692 9.692 0 0 0-.443 2.381c0 .59.095 1.867.758 2.122.868.317 1.08-.946.936-1.527z" class="cls-12" data-name="패스 1018" transform="translate(-228.064 -308.678)"/>
        <path id="패스_1019" d="M223.71 340.35s2.993 6.286 10.925 0" class="cls-2" data-name="패스 1019" transform="translate(-191.458 -304.587)"/>
        <path id="패스_1020" d="M266.26 340.35s2.993 6.286 10.925 0" class="cls-2" data-name="패스 1020" transform="translate(-223.232 -304.587)"/>
        <path id="패스_1021" d="M308.8 340.35s2.993 6.286 10.925 0" class="cls-2" data-name="패스 1021" transform="translate(-254.999 -304.587)"/>
        <path id="패스_1022" d="M351.35 340.35s2.993 6.286 10.925 0" class="cls-2" data-name="패스 1022" transform="translate(-286.773 -304.587)"/>
        <path id="패스_1023" d="M393.9 340.35s2.993 6.286 10.925 0" class="cls-2" data-name="패스 1023" transform="translate(-318.547 -304.587)"/>
        <path id="패스_1024" d="M436.45 340.35s2.993 6.286 10.925 0" class="cls-2" data-name="패스 1024" transform="translate(-350.321 -304.587)"/>
        <path id="패스_1025" d="M479 340.35s2.993 6.286 10.925 0" class="cls-2" data-name="패스 1025" transform="translate(-382.095 -304.587)"/>
        <path id="패스_1026" d="M521.54 340.35s2.993 4.491 5.088.3" class="cls-2" data-name="패스 1026" transform="translate(-413.862 -304.587)"/>
        <path id="패스_1027" d="M223.71 340.35s2.993 6.286 10.925 0" class="cls-1" data-name="패스 1027" transform="translate(-191.458 -304.587)"/>
        <path id="패스_1028" d="M266.26 340.35s2.993 6.286 10.925 0" class="cls-1" data-name="패스 1028" transform="translate(-223.232 -304.587)"/>
        <path id="패스_1029" d="M308.8 340.35s2.993 6.286 10.925 0" class="cls-1" data-name="패스 1029" transform="translate(-254.999 -304.587)"/>
        <path id="패스_1030" d="M351.35 340.35s2.993 6.286 10.925 0" class="cls-1" data-name="패스 1030" transform="translate(-286.773 -304.587)"/>
        <path id="패스_1031" d="M393.9 340.35s2.993 6.286 10.925 0" class="cls-1" data-name="패스 1031" transform="translate(-318.547 -304.587)"/>
        <path id="패스_1032" d="M436.45 340.35s2.993 6.286 10.925 0" class="cls-1" data-name="패스 1032" transform="translate(-350.321 -304.587)"/>
        <path id="패스_1033" d="M479 340.35s2.993 6.286 10.925 0" class="cls-1" data-name="패스 1033" transform="translate(-382.095 -304.587)"/>
        <path id="패스_1034" d="M521.54 340.35s2.993 4.491 5.088.3" class="cls-1" data-name="패스 1034" transform="translate(-413.862 -304.587)"/>
        <path id="패스_1035" d="M176.361 99.467H85.37L91.954 85.1h77.523z" class="cls-2" data-name="패스 1035" transform="translate(-63.745 -63.556)"/>
        <path id="패스_1036" d="M176.361 99.467H85.37L91.954 85.1h77.523z" class="cls-1" data-name="패스 1036" transform="translate(-63.745 -63.556)"/>
        <path id="패스_1037" d="M181.16 340.35s2.993 6.286 10.925 0" class="cls-2" data-name="패스 1037" transform="translate(-159.684 -304.587)"/>
        <path id="패스_1038" d="M181.16 340.35s2.993 6.286 10.925 0" class="cls-1" data-name="패스 1038" transform="translate(-159.684 -304.587)"/>
        <path id="사각형_695" d="M0 0h73.633v5.386H0z" class="cls-6" data-name="사각형 695" transform="translate(30.304 61.055)"/>
        <path id="사각형_696" d="M0 0h84.108v7.185H0z" class="cls-6" data-name="사각형 696" transform="translate(24.918 55.665)"/>
        <path id="사각형_697" d="M0 0h73.633v.899H0z" class="cls-1" data-name="사각형 697" transform="translate(30.304 62.85)"/>
        <path id="패스_1039" d="M985.731 481.882s-3.53-.706-4.47-1.646-5.176-2.588-5.648-1.411-6.354 5.176-2.352 5.883 9.413.942 10.588.473 1.882-3.299 1.882-3.299z" class="cls-15" data-name="패스 1039" transform="translate(-750.148 -407.689)"/>
        <path id="패스_1040" d="M973.28 494.421c4 .706 9.413.942 10.588.473.9-.36 1.515-2.083 1.773-2.882l.117.026s-.706 2.824-1.882 3.293-6.584.236-10.588-.473c-1.154-.2-1.484-.681-1.36-1.289.09.397.494.704 1.352.852z" class="cls-16" data-name="패스 1040" transform="translate(-750.169 -417.84)"/>
        <path id="패스_1041" d="M1058.135 464.131s3.346-11.364-.628-19.726a17.946 17.946 0 0 1-1.451-11.26 30.169 30.169 0 0 1 1.593-5.285" class="cls-17" data-name="패스 1041" transform="translate(-812.756 -369.936)"/>
        <path id="패스_1042" d="M1053.57 400.239c0 1.393 2.532 5.43 2.532 5.43s2.532-4.04 2.532-5.43a2.532 2.532 0 0 0-5.043 0z" class="cls-2" data-name="패스 1042" transform="translate(-811.153 -347.599)"/>
        <path id="패스_1043" d="M1035.5 425.371c.758 1.169 5.065 3.189 5.065 3.189s-.079-4.761-.836-5.929a2.532 2.532 0 1 0-4.234 2.741z" class="cls-2" data-name="패스 1043" transform="translate(-797.25 -365.015)"/>
        <path id="패스_1044" d="M1033.131 475.108c1.243.628 5.984.2 5.984.2s-2.472-4.072-3.715-4.7a2.532 2.532 0 1 0-2.279 4.5z" class="cls-2" data-name="패스 1044" transform="translate(-794.699 -401.574)"/>
        <path id="패스_1045" d="M1044.783 515.744c1.119.829 5.866 1.2 5.866 1.2s-1.747-4.429-2.866-5.258a2.532 2.532 0 0 0-3 4.052z" class="cls-2" data-name="패스 1045" transform="translate(-803.967 -432.266)"/>
        <path id="패스_1046" d="M1061.333 437.829c-1 .97-5.652 1.975-5.652 1.975s1.136-4.622 2.137-5.587a2.532 2.532 0 1 1 3.515 3.617z" class="cls-2" data-name="패스 1046" transform="translate(-812.729 -374.017)"/>
        <path id="패스_1047" d="M1070.805 483.337c-1.243.628-5.984.2-5.984.2s2.472-4.072 3.715-4.7a2.532 2.532 0 0 1 2.279 4.5z" class="cls-2" data-name="패스 1047" transform="translate(-819.554 -407.863)"/>
        <path id="패스_1048" d="M1075.142 530.295c-1.119.828-5.866 1.2-5.866 1.2s1.747-4.429 2.866-5.258a2.532 2.532 0 0 1 3 4.052z" class="cls-2" data-name="패스 1048" transform="translate(-822.884 -443.132)"/>
        <path id="패스_1049" d="M1023.2 549s-6.116-1.224-7.747-2.854-8.97-4.485-9.785-2.446-11.009 8.97-4.078 10.193 16.31 1.631 18.346.815S1023.2 549 1023.2 549z" class="cls-15" data-name="패스 1049" transform="translate(-770.542 -455.914)"/>
        <path id="패스_1050" d="M1001.6 570.679c6.932 1.224 16.309 1.631 18.346.815 1.552-.62 2.632-3.6 3.057-4.994l.206.044s-1.224 4.893-3.261 5.708-11.417.408-18.346-.815c-2-.352-2.573-1.183-2.358-2.231.156.694.856 1.219 2.356 1.473z" class="cls-16" data-name="패스 1050" transform="translate(-770.547 -473.465)"/>
        <path id="패스_1051" d="M96.58 395.579a2.6 2.6 0 0 0 .694 2.054s2.581 3.4 3.865 5.318c-.074.522-.124.838-.124.838v.071h.033l-.033.213h.035a40.618 40.618 0 0 0-1.013 6.44v.274s.3 4.371.309 7.76a11.444 11.444 0 0 1-.309 3.464c-.284.563-.379 3.323-.379 6.456 0 4.546.213 10 .379 10.655a.679.679 0 0 0 .2.316c-.253 1.013-.737 2.434-1.446 2.694a1.357 1.357 0 0 0-.884 1.175v.223a.114.114 0 0 0 .018.074v.026a.2.2 0 0 0 .026.071v.023c0 .026.023.048.035.071v.018a.853.853 0 0 0 .127.165l.068.061.027.02.063.043.038.023.066.035.045.02.071.027.05.018.079.023.056.015.089.018h.39c1.8 0 2.773-.41 3.328-1.231l1.109-.274V442.462l.026-.132v-.008l.012-.073c.012-.079.027-.162.043-.254v-.015c.015-.095.027-.189.043-.284.015-.1.027-.206.041-.314v-.012c0-.106.023-.215.033-.327v-.143a1.506 1.506 0 0 1 .015-.213v-.346h.109l.97-15.33 3.464-13.675 1.661 11.48v2.115c0 3.269.063 9.295.568 10.087a3.709 3.709 0 0 1 .307 1.723 26.062 26.062 0 0 1-.307 3.343h.041l-.041.277h.127a27.99 27.99 0 0 0-.124 2.332v.274s2.358.274 2.773.274c2.325 0 5.268 1.094 6.238.41l.083-.065.018-.015.05-.048.012-.015.038-.048v-.012a.386.386 0 0 0 .027-.05.3.3 0 0 0 .015-.053.274.274 0 0 0 0-.056.284.284 0 0 0 0-.058c-.134-.484-1.507-.906-2.469-1.326-.831-.365-1.537-1.76-1.917-2.652a.626.626 0 0 0 .139-.547.646.646 0 0 0-.023-.36c-.507-1.515-.669-14.335-.691-16.307l1.246-8.879a5.777 5.777 0 0 0 .142-1.618 65.949 65.949 0 0 0-.646-7.41h.365l-.045-.274h.045l-.555-3.293v-4.3l.694-7.53.831.547c.063 0 .183-.095.337-.253 1.773.777 4.052 1.773 5.346 2.295 2.358.957 2.494 0 2.494 0l4.574-8.9s8.041-3.293 5.407-4.654-6.377 1.367-6.932 2.738a49.537 49.537 0 0 1-4.437 6.569c-.694.82-1.109.274-1.8-.41a19.635 19.635 0 0 0-1.851-1.439l.05-.068a2.071 2.071 0 0 1-.729-.549c-1.1-1.239-3.464-3.728-4.812-3.83-1.679-.127-3.837-1.8-4.125-2.026a6.534 6.534 0 0 1 .015-1.21h.012a.436.436 0 0 1 .015-.139 4.261 4.261 0 0 0 3.388-4.148 2.686 2.686 0 0 0-.012-.319.127.127 0 0 0 .076 0 6.548 6.548 0 0 0 .274-1.963 1.449 1.449 0 0 1 .1-.455c.059-.127.154-.236.21-.365a.74.74 0 0 0 .048-.352 1.686 1.686 0 0 0-.2-.777 13.543 13.543 0 0 0-1.484-2.741.909.909 0 0 0-.337-.307 1.231 1.231 0 0 0-.484-.053 7.158 7.158 0 0 1-2.19-.605 2.517 2.517 0 0 0-2.2.079c-.623.431-.859 1.284-1.515 1.626-.183.095-.385.139-.568.238a2.178 2.178 0 0 0-.469.6 4.559 4.559 0 0 0-.889 1.461 3.832 3.832 0 0 0-.121 1.136v.379a2.462 2.462 0 0 0 .7 2.083 1.459 1.459 0 0 1 .36.372 1.13 1.13 0 0 1 .167.616c.03.423.2.846.228 1.266a.852.852 0 0 0 .121.458.3.3 0 0 0 .423.081l.026-.106c.045.066.095.132.139.2a7.676 7.676 0 0 1-.811 2.532h-.095a3.173 3.173 0 0 0-1.836.6 19.805 19.805 0 0 1-4.763 2 1.466 1.466 0 0 0-.438.861 26.173 26.173 0 0 0-1.428 4.2 10.059 10.059 0 0 0-.408 2.2v.056h.02l-.023.121.491.119c-.376 2.056-.922 5.728-.434 7.08zm3.039-.684a28.6 28.6 0 0 0 .947-2.765 6.886 6.886 0 0 0 .859 1.945 3.652 3.652 0 0 1 .345 2 32.681 32.681 0 0 1-.2 3.277 29.7 29.7 0 0 1-1.935-4.451z" class="cls-18" data-name="패스 1051" transform="translate(-96.38 -323.077)"/>
        <path id="패스_1052" d="M157.979 651.96s.947 2.834 2.158 3.373 3.1 1.079 2.158 1.753-3.8-.405-6.078-.405c-.405 0-2.7-.271-2.7-.271s0-3.642.54-4.3 3.922-.15 3.922-.15z" class="cls-19" data-name="패스 1052" transform="translate(-139.044 -537.137)"/>
        <path id="패스_1053" d="M106.83 652.53s-.54 3.237-1.618 3.642-1.349 2.158.405 2.158 2.7-.405 3.237-1.213l1.079-.271s.673-3.1 0-3.913z" class="cls-19" data-name="패스 1053" transform="translate(-102.328 -537.707)"/>
        <path id="패스_1054" d="M157.979 651.96s.947 2.834 2.158 3.373 3.1 1.079 2.158 1.753-3.8-.405-6.078-.405c-.405 0-2.7-.271-2.7-.271s0-3.642.54-4.3 3.922-.15 3.922-.15z" class="cls-19" data-name="패스 1054" transform="translate(-139.044 -537.137)"/>
        <path id="패스_1055" d="M106.83 652.53s-.54 3.237-1.618 3.642-1.349 2.158.405 2.158 2.7-.405 3.237-1.213l1.079-.271s.673-3.1 0-3.913z" class="cls-19" data-name="패스 1055" transform="translate(-102.328 -537.707)"/>
        <path id="패스_1056" d="M173.308 421.817a38.771 38.771 0 0 1 3.237 2.429c.673.676 1.079 1.213 1.753.405a47.981 47.981 0 0 0 4.305-6.475c.529-1.349 4.181-4.052 6.744-2.7s-5.261 4.586-5.261 4.586l-4.439 8.767s-.134.947-2.429 0-7.689-3.368-7.689-3.368z" class="cls-20" data-name="패스 1056" transform="translate(-151 -360.414)"/>
        <path id="패스_1057" d="M126.569 511.021s1.213 8.357.673 9.983l-1.213 8.767s.134 14.7.673 16.322-4.857 1.755-4.857 1.755.673-4.181 0-5.26-.54-12.007-.54-12.007l-1.626-11.334-3.371 13.489-.932 15.112s-3.642-.135-3.913-1.213-.673-15.246 0-16.593 0-11.331 0-11.331.54-7.689 2.158-8.634 12.948.944 12.948.944z" class="cls-1" data-name="패스 1057" transform="translate(-107.362 -431.135)"/>
        <path id="패스_1058" d="M126.569 509.944s1.213 8.357.673 9.983l-1.213 8.767s.134 14.7.673 16.322-4.857 1.753-4.857 1.753.673-4.181 0-5.261-.54-12.007-.54-12.007l-1.626-11.331-3.371 13.49-.932 15.109s-3.642-.135-3.913-1.213-.673-15.246 0-16.593 0-11.331 0-11.331.54-7.689 2.158-8.634 12.948.946 12.948.946z" class="cls-21" data-name="패스 1058" transform="translate(-107.362 -430.33)"/>
        <path id="패스_1059" d="M130.013 400.06s-.271 6.475-2.563 5.26l2.026 6.078 4.586-.271 2.7-3.642-2.026-1.213s-1.484.54-.405-4.451z" class="cls-20" data-name="패스 1059" transform="translate(-119.576 -349.176)"/>
        <path id="패스_1060" d="M117.789 420.165s2.292 1.894 4.052 2.026c1.314.1 3.617 2.557 4.685 3.776a2.027 2.027 0 0 0 .709.542s-2.7 3.776-3.1 3.776l-.811-.54-.673 7.421v4.451l.54 3.237s-8.5.134-9.307-.54-5.4.54-5.4.54 1.349-8.767.405-9.849-2.563-8.634-2.563-8.634-1.079-3.1 0-4.052a19.1 19.1 0 0 0 4.635-1.968 3.061 3.061 0 0 1 1.785-.595h.095a2.652 2.652 0 0 0 2.115 2.429c2.027.406 3.309-.338 2.833-2.02z" class="cls-1" data-name="패스 1060" transform="translate(-103.444 -363.887)"/>
        <path id="패스_1061" d="M117.789 419.1s2.292 1.889 4.052 2.026c1.314.1 3.617 2.557 4.685 3.776a2.026 2.026 0 0 0 .709.542s-2.7 3.776-3.1 3.776l-.811-.54-.673 7.421v4.451l.54 3.237s-8.5.134-9.307-.54-5.4.54-5.4.54 1.349-8.767.405-9.849-2.563-8.634-2.563-8.634-1.079-3.1 0-4.052a19.093 19.093 0 0 0 4.635-1.968 3.062 3.062 0 0 1 1.785-.595h.095a2.652 2.652 0 0 0 2.115 2.429c2.027.401 3.309-.326 2.833-2.02z" class="cls-22" data-name="패스 1061" transform="translate(-103.444 -363.088)"/>
        <path id="패스_1062" d="M103.5 436.357s-4.052-.54-4.451-.54 1.349-6.61 2.292-7.283 2.158 2.429 2.158 2.429z" class="cls-22" data-name="패스 1062" transform="translate(-98.323 -370.37)"/>
        <g id="그룹_211" class="cls-23" data-name="그룹 211" transform="translate(2.885 56.074)">
            <path id="패스_1063" d="M148.737 420.917c.165 1.206-.694 1.826-2.1 1.76 1.287-.071 1.989-.811 1.616-2.127-.002.003.185.15.484.367z" data-name="패스 1063" transform="translate(-136.791 -420.551)"/>
            <path id="패스_1064" d="M176.393 458.38l.616.41a.443.443 0 0 1-.21.129l-.428-.284z" data-name="패스 1064" transform="translate(-158.992 -448.8)"/>
            <path id="패스_1065" d="M107.75 445.07s2.026 7.554 2.968 8.634c.884 1.013-.241 8.747-.387 9.743l-.42.106s1.349-8.767.405-9.849-2.566-8.634-2.566-8.634z" data-name="패스 1065" transform="translate(-107.75 -438.862)"/>
            <path id="패스_1066" d="M135.66 515.3c.568.474 4.857.547 7.413.549-2.476 0-7.223-.056-7.815-.549a1.391 1.391 0 0 0-.788-.2 1.894 1.894 0 0 1 1.19.2z" data-name="패스 1066" transform="translate(-127.703 -491.147)"/>
        </g>
        <path id="패스_1067" d="M99.345 452.533s-1.349 6.476-.673 8.357a2.6 2.6 0 0 0 .673 2.026s4.451 5.937 4.451 6.476 1.349 3.1 3.642.947c0 0 1.079-1.484-1.349-2.7s-4.451-7.421-4.451-7.421 2.026-4.992 1.213-6.61-3.506-1.075-3.506-1.075z" class="cls-20" data-name="패스 1067" transform="translate(-97.944 -388.295)"/>
        <path id="패스_1068" d="M7.562 252.4l-4.992-1.217.407-2.225 2.155-.337 2.834.942z" class="cls-1" data-name="패스 1068" transform="translate(-1.914 -185.664)"/>
        <path id="패스_1069" d="M7.562 251.858l-4.992-1.215.407-2.225 2.155-.337 2.834.947z" class="cls-22" data-name="패스 1069" transform="translate(-1.914 -185.26)"/>
        <path id="패스_1070" d="M136.809 400.59l4.305 1.753a18.945 18.945 0 0 0-.345 2.066 4.184 4.184 0 0 1-4.219-1.588 19.607 19.607 0 0 0 .259-2.231z" class="cls-1" data-name="패스 1070" transform="translate(-126.371 -349.572)"/>
        <circle id="타원_190" cx="4.181" cy="4.181" r="4.181" class="cls-20" data-name="타원 190" transform="translate(9.358 46.431)"/>
        <path id="패스_1071" d="M138.167 373.484a1.446 1.446 0 0 1 .095-.448c.059-.124.152-.233.2-.36a1.251 1.251 0 0 0-.144-.977 13.4 13.4 0 0 0-1.446-2.7.889.889 0 0 0-.327-.3 1.189 1.189 0 0 0-.473-.053 6.9 6.9 0 0 1-2.13-.595 2.436 2.436 0 0 0-2.14.076c-.62.423-.833 1.266-1.49 1.6-.177.095-.379.136-.549.236a2.13 2.13 0 0 0-.593.58 3.373 3.373 0 0 0-.98 2.8 2.436 2.436 0 0 0 .681 2.049 1.431 1.431 0 0 1 .349.367 1.124 1.124 0 0 1 .162.605c.03.418.189.833.223 1.251a.852.852 0 0 0 .119.454.294.294 0 0 0 .413.081l.423-1.74a2.373 2.373 0 0 1 .393-.968c.314-.384.874-.578 1.042-1.048.119-.337.015-.773.278-1.013a.859.859 0 0 1 .387-.168 9.175 9.175 0 0 1 3.7-.114 1.057 1.057 0 0 1 .379.119 1.136 1.136 0 0 1 .4.628c.089.253.416 1.669.758 1.573a6.806 6.806 0 0 0 .267-1.939z" class="cls-1" data-name="패스 1071" transform="translate(-120.118 -325.119)"/>
        <path id="패스_1072" d="M138.17 372.948a1.444 1.444 0 0 1 .095-.448c.059-.124.152-.233.2-.36a1.251 1.251 0 0 0-.144-.977 13.4 13.4 0 0 0-1.446-2.7.889.889 0 0 0-.327-.3 1.187 1.187 0 0 0-.474-.053 6.9 6.9 0 0 1-2.13-.595 2.436 2.436 0 0 0-2.14.076c-.62.423-.833 1.266-1.489 1.6-.177.095-.379.136-.549.236a2.131 2.131 0 0 0-.593.58 3.373 3.373 0 0 0-.98 2.791 2.436 2.436 0 0 0 .681 2.048 1.432 1.432 0 0 1 .349.367 1.124 1.124 0 0 1 .167.623c.03.418.189.833.223 1.251a.852.852 0 0 0 .119.454.294.294 0 0 0 .418.068l.423-1.74a2.373 2.373 0 0 1 .393-.968c.314-.384.874-.578 1.042-1.048.119-.337.015-.773.278-1.013a.859.859 0 0 1 .387-.168 9.175 9.175 0 0 1 3.7-.114 1.059 1.059 0 0 1 .379.119 1.136 1.136 0 0 1 .4.628c.089.253.416 1.669.758 1.573a7.123 7.123 0 0 0 .257-1.933z" class="cls-24" data-name="패스 1072" transform="translate(-120.121 -324.716)"/>
        <ellipse id="타원_191" cx=".405" cy=".945" class="cls-20" data-name="타원 191" rx=".405" ry=".945" transform="translate(10.368 49.465)"/>
        <path id="패스_1073" d="M156.257 669.326c2.261 0 5.126 1.079 6.078.405a.675.675 0 0 0 .221-.233c.079.16.026.327-.221.507-.947.673-3.8-.405-6.078-.405-.405 0-2.7-.271-2.7-.271v-.268c.056.002 2.3.265 2.7.265z" class="cls-1" data-name="패스 1073" transform="translate(-139.074 -550.051)"/>
        <path id="패스_1074" d="M105.587 662.907c1.753 0 2.7-.405 3.237-1.213l1.079-.271a14.621 14.621 0 0 0 .3-2.4 13.8 13.8 0 0 1-.3 2.674l-1.079.271c-.54.811-1.484 1.213-3.237 1.213-.977 0-1.326-.547-1.266-1.1.079.444.453.826 1.266.826z" class="cls-1" data-name="패스 1074" transform="translate(-102.299 -542.553)"/>
        <path id="사각형_698" d="M0 0h4.857v1.889H0z" class="cls-21" data-name="사각형 698" transform="rotate(160.913 -1.502 42.012)"/>
        <path id="사각형_699" d="M0 0h4.857v1.889H0z" class="cls-1" data-name="사각형 699" transform="rotate(160.913 -1.502 42.012)"/>
    </g>
</svg>
