<svg xmlns="http://www.w3.org/2000/svg" xmlns:xlink="http://www.w3.org/1999/xlink" width="213.958" height="223.43" viewBox="0 0 213.958 223.43">
    <defs>
        <style>
            .cls-1{fill:none;stroke:#ff4077;stroke-miterlimit:10;stroke-width:2px;stroke-dasharray:12}.cls-2{fill:url(#linear-gradient)}.cls-3{fill:#ffbea0}.cls-4{fill:url(#linear-gradient-2)}.cls-5{fill:#fcac87}.cls-6{fill:url(#linear-gradient-3)}.cls-7{fill:#fff}.cls-8{fill:#4470ff}.cls-9{fill:#dbdbdb}.cls-10{fill:url(#linear-gradient-4)}.cls-11{fill:url(#linear-gradient-5)}.cls-12{fill:#4d8af0}.cls-13{fill:url(#linear-gradient-6)}.cls-14{fill:url(#linear-gradient-7)}.cls-15{opacity:.5}.cls-16{fill:url(#linear-gradient-8)}.cls-17{fill:#69f0ae}.cls-18{fill:url(#linear-gradient-9)}
        </style>
        <linearGradient id="linear-gradient" x1=".5" x2=".5" y1="1" gradientUnits="objectBoundingBox">
            <stop offset="0" stop-color="gray" stop-opacity=".251"/>
            <stop offset=".54" stop-color="gray" stop-opacity=".122"/>
            <stop offset="1" stop-color="gray" stop-opacity=".102"/>
        </linearGradient>
        <linearGradient id="linear-gradient-2" x1=".5" x2=".5" y1="1" xlink:href="#linear-gradient"/>
        <linearGradient id="linear-gradient-3" x1="1.241" x2="1.241" y1="1.124" y2=".124" xlink:href="#linear-gradient"/>
        <linearGradient id="linear-gradient-4" x1=".5" x2=".5" y1="1" xlink:href="#linear-gradient"/>
        <linearGradient id="linear-gradient-5" x1="1.307" x2="1.307" y1="2.047" y2="1.047" xlink:href="#linear-gradient"/>
        <linearGradient id="linear-gradient-6" x1=".5" x2=".5" y1="1" xlink:href="#linear-gradient"/>
        <linearGradient id="linear-gradient-7" x1=".5" x2=".5" y1="1" xlink:href="#linear-gradient"/>
        <linearGradient id="linear-gradient-8" x1=".5" x2=".5" y1="1" xlink:href="#linear-gradient"/>
        <linearGradient id="linear-gradient-9" x1=".5" x2=".5" y1="1" xlink:href="#linear-gradient"/>
    </defs>
    <g id="undraw_confirmed_81ex_1_" data-name="undraw_confirmed_81ex (1)">
        <circle id="타원_80" cx="87.433" cy="87.433" r="87.433" class="cls-1" data-name="타원 80" transform="translate(19.546 29.018)"/>
        <circle id="타원_81" cx="105.979" cy="105.979" r="105.979" class="cls-1" data-name="타원 81" transform="translate(1 10.471)"/>
        <path id="패스_325" d="M551.222 525.149a23.907 23.907 0 0 0-47.4-4.457L430.35 518.7l.807 12.623s-10.477 24.175 44.588 30.616v24.434H539.4v-40.626a23.892 23.892 0 0 0 11.822-20.598z" class="cls-2" data-name="패스 325" transform="translate(-373.313 -374.935)"/>
        <path id="패스_326" d="M439.783 576.26s-10.033 23.151 42.7 29.327V629h60.965v-62L439 564.17z" class="cls-3" data-name="패스 326" transform="translate(-379.417 -419.343)"/>
        <path id="패스_327" d="M417.135 184.233a11.24 11.24 0 0 1-15.455 3.512l-32.733-21.57a11.24 11.24 0 0 1-3.512-15.455 11.24 11.24 0 0 1 15.444-3.512l32.733 21.57a11.24 11.24 0 0 1 3.523 15.455z" class="cls-4" data-name="패스 327" transform="translate(-326.3 -123.925)"/>
        <path id="패스_328" d="M419.972 186.726a10.448 10.448 0 0 1-14.366 3.265l-30.437-20.065a10.448 10.448 0 0 1-3.265-14.366 10.448 10.448 0 0 1 14.366-3.265l30.43 20.053a10.448 10.448 0 0 1 3.272 14.378z" class="cls-3" data-name="패스 328" transform="translate(-330.95 -127.596)"/>
        <circle id="타원_82" cx="22.894" cy="22.894" r="22.894" class="cls-5" data-name="타원 82" transform="translate(129.565 128.108)"/>
        <rect id="사각형_557" width="94.916" height="171.321" class="cls-6" data-name="사각형 557" rx="12.25" transform="translate(57.028)"/>
        <rect id="사각형_558" width="92.349" height="166.694" class="cls-7" data-name="사각형 558" rx="13.64" transform="translate(58.308 2.317)"/>
        <path id="패스_329" d="M509.6 94.28a7.486 7.486 0 0 1-7.38 6.368h-31.896a7.486 7.486 0 0 1-7.377-6.368h-16.9a3.506 3.506 0 0 0-3.509 3.506V249.1a3.506 3.506 0 0 0 3.506 3.509h80.7a3.506 3.506 0 0 0 3.509-3.506V97.789a3.506 3.506 0 0 0-3.506-3.509z" class="cls-8" data-name="패스 329" transform="translate(-381.915 -87.783)"/>
        <rect id="사각형_559" width="20.581" height="1.286" class="cls-9" data-name="사각형 559" rx=".643" transform="translate(94.324 8.49)"/>
        <circle id="타원_83" cx=".771" cy=".771" r=".771" class="cls-9" data-name="타원 83" transform="translate(118.505 8.234)"/>
        <path id="패스_330" d="M736.877 403.977c-6.644 1.537-11.2-2.8-12.741-9.438l-15.267-56.69a12.435 12.435 0 0 1 9.288-14.869 12.435 12.435 0 0 1 14.87 9.288l12.458 58.153c1.536 6.643-1.967 12.019-8.608 13.556z" class="cls-10" data-name="패스 330" transform="translate(-569.619 -248.935)"/>
        <rect id="사각형_560" width="20.837" height="83.197" class="cls-3" data-name="사각형 560" rx="10.418" transform="rotate(-13.01 417.082 -570.097)"/>
        <path id="사각형_561" d="M0 0h87.139v20.313H0z" class="cls-11" data-name="사각형 561" transform="translate(88.118 201.994)"/>
        <path id="사각형_562" d="M0 0h82.428v15.897H0z" class="cls-12" data-name="사각형 562" transform="translate(90.473 204.349)"/>
        <path id="패스_331" d="M400.407 408.948a11.1 11.1 0 0 1-15.27 3.471l-21.952-14.2a11.1 11.1 0 0 1-3.471-15.27 11.1 11.1 0 0 1 15.27-3.471l21.952 14.2a11.1 11.1 0 0 1 3.471 15.27z" class="cls-13" data-name="패스 331" transform="translate(-322.278 -287.826)"/>
        <path id="패스_332" d="M401.267 520.991a11.2 11.2 0 0 1-15.408 3.5l-13.6-9.915a11.2 11.2 0 0 1-3.5-15.408 11.2 11.2 0 0 1 15.408-3.5l13.6 9.918a11.2 11.2 0 0 1 3.5 15.405z" class="cls-14" data-name="패스 332" transform="translate(-328.648 -369.803)"/>
        <g id="그룹_42" class="cls-15" data-name="그룹 42" transform="translate(78.006 59.187)">
            <circle id="타원_84" cx="26.477" cy="26.477" r="26.477" class="cls-16" data-name="타원 84"/>
        </g>
        <circle id="타원_85" cx="24.92" cy="24.92" r="24.92" class="cls-17" data-name="타원 85" transform="translate(79.563 60.744)"/>
        <path id="패스_333" d="M306.445 253.561l9.344 8.567 13.239-19.468 4.675 3.895-17.913 23.363-13.239-14.8z" class="cls-7" data-name="패스 333" transform="translate(-212.778 -171.224)"/>
        <path id="패스_334" d="M403.078 522.893a10.448 10.448 0 0 1-14.366 3.265l-12.682-9.232a10.448 10.448 0 0 1-3.265-14.366 10.448 10.448 0 0 1 14.366-3.265l12.679 9.25a10.448 10.448 0 0 1 3.268 14.348z" class="cls-3" data-name="패스 334" transform="translate(-331.557 -372.443)"/>
        <path id="패스_335" d="M402.32 410.716a10.448 10.448 0 0 1-14.366 3.265L367.3 400.615a10.448 10.448 0 0 1-3.265-14.366 10.448 10.448 0 0 1 14.366-3.265l20.654 13.365a10.448 10.448 0 0 1 3.265 14.367z" class="cls-3" data-name="패스 335" transform="translate(-325.397 -290.373)"/>
        <path id="패스_336" d="M405.4 297.74a11.157 11.157 0 0 1-15.34 3.486l-27.82-18.114a11.157 11.157 0 0 1-3.486-15.34 11.157 11.157 0 0 1 15.341-3.486l27.82 18.114a11.157 11.157 0 0 1 3.485 15.34z" class="cls-18" data-name="패스 336" transform="translate(-321.597 -206.542)"/>
        <path id="패스_337" d="M407.732 299.886a10.448 10.448 0 0 1-14.366 3.265l-26.056-16.966a10.448 10.448 0 0 1-3.265-14.366 10.448 10.448 0 0 1 14.366-3.265l26.053 16.966a10.448 10.448 0 0 1 3.268 14.366z" class="cls-3" data-name="패스 337" transform="translate(-325.404 -209.63)"/>
    </g>
</svg>
