<svg xmlns="http://www.w3.org/2000/svg" width="48" height="39.182"><g data-name="그룹 112"><path d="M26.954 27.514a5.208 5.208 0 0 1-5.909 0L7.669 17.837s-1.207-.873-1.207 1.1V28.6c0 5.09 7.852 10.578 17.537 10.578S41.536 33.691 41.536 28.6V18.397c0-1.587-.858-.812-.858-.812z" data-name="패스 905"/><path d="M47.2 12.712a1.189 1.189 0 0 0 0-2.249l-21.248-10a4.325 4.325 0 0 0-3.9 0L.8 10.462a1.189 1.189 0 0 0 0 2.249l21.251 12.264a4.325 4.325 0 0 0 3.9 0" data-name="패스 906"/><path d="M46.096 31.99V15.709s.011-.771-.446-.516a13.3 13.3 0 0 0-1.584.982 1.366 1.366 0 0 0-.283 1.032v14.784a.434.434 0 0 1-.266.361 2.813 2.813 0 1 0 2.837-.006.419.419 0 0 1-.258-.356z" data-name="패스 907"/></g></svg>