<svg xmlns="http://www.w3.org/2000/svg" width="402" height="515.001" viewBox="0 0 402 515.001">
    <defs>
        <style>
            .cls-1{fill:#bdbdbd}.cls-2{filter:url(#교차_2)}
        </style>
        <filter id="교차_2" width="402" height="515.001" x="0" y="0" filterUnits="userSpaceOnUse">
            <feOffset dy="6"/>
            <feGaussianBlur result="blur" stdDeviation="15"/>
            <feFlood flood-opacity=".078"/>
            <feComposite in2="blur" operator="in"/>
            <feComposite in="SourceGraphic"/>
        </filter>
    </defs>
    <g class="cls-2">
        <path id="교차_2-2" d="M8 425a8 8 0 0 1-8-8v-34.77a61.481 61.481 0 0 0 21.446-14.61c22.092-23.208 56.887-19.34 44.737 10.5-9.55 23.452 6.147 32.909 5.26 46.882zm216.5-99.542c23.335-14.942 15.868-38.288 33.6-87.781 8.819-24.611 32.406-41.139 53.9-51.538v226.9c-55.752-2.033-106.817-75.211-87.5-87.58zM0 8a8 8 0 0 1 8-8h171.49c18.644 24.133 37.02 66.209 8.037 122.887C147.111 201.917 38.28 211.46 0 254.443z" class="cls-1" data-name="교차 2" transform="translate(45 39)"/>
    </g>
</svg>
