<svg xmlns="http://www.w3.org/2000/svg" width="14" height="15.741" viewBox="0 0 14 15.741">
    <g data-name="그룹 238">
        <path d="M13.563 2.265h-3.275v-.534A1.733 1.733 0 0 0 8.557 0H5.443a1.733 1.733 0 0 0-1.731 1.731v.534H.437a.437.437 0 1 0 0 .874h.79V13.4a2.34 2.34 0 0 0 2.337 2.337h6.874a2.34 2.34 0 0 0 2.335-2.337V3.139h.79a.437.437 0 0 0 0-.874zm-8.977-.534a.859.859 0 0 1 .858-.858h3.113a.859.859 0 0 1 .858.858v.534H4.586zM11.9 13.4a1.465 1.465 0 0 1-1.463 1.463H3.563A1.465 1.465 0 0 1 2.1 13.4V3.139h9.8V13.4z" data-name="패스 1096"/>
        <path d="M7 13.306a.435.435 0 0 0 .437-.437V5.147a.437.437 0 1 0-.874 0v7.718a.438.438 0 0 0 .437.441z" data-name="패스 1097"/>
        <path d="M4.149 12.818a.435.435 0 0 0 .437-.437v-6.76a.437.437 0 1 0-.874 0v6.76a.437.437 0 0 0 .437.437z" data-name="패스 1098"/>
        <path d="M9.851 12.818a.435.435 0 0 0 .437-.437v-6.76a.437.437 0 0 0-.874 0v6.76a.435.435 0 0 0 .437.437z" data-name="패스 1099"/>
    </g>
</svg>
