<svg xmlns="http://www.w3.org/2000/svg" width="24" height="24" viewBox="0 0 24 24">
    <defs>
        <style>
            .cls-1{fill:#bebebe}
        </style>
    </defs>
    <path id="Disabled_password" d="M.4 15.2c-.2-.4-.4-.6-.4-1a1.528 1.528 0 0 1 .4-1l13-13a.2.2 0 0 1 .2-.2h8.8a1.528 1.528 0 0 1 1 .4 1.425 1.425 0 0 1 .6 1.2v8.8c0 .2 0 .2-.2.4l-13 13a8.662 8.662 0 0 1-1 .2 1.528 1.528 0 0 1-1-.4zM17.2 3.6a2.469 2.469 0 0 0-.8 1.6 2.271 2.271 0 0 0 .6 1.6 2.433 2.433 0 0 0 3.2 0 2.271 2.271 0 0 0 .6-1.6 2.155 2.155 0 0 0-.4-1.6 2.433 2.433 0 0 0-3.2 0z" class="cls-1"/>
</svg>
