<svg xmlns="http://www.w3.org/2000/svg" width="24" height="26" viewBox="0 0 24 26">
    <defs>
        <style>
            .cls-1{fill:none}.cls-2{fill:#bebebe;fill-rule:evenodd}
        </style>
    </defs>
    <g id="Disabled_password" transform="translate(-22 -339)">
        <path id="사각형_118" d="M0 0h24v24H0z" class="cls-1" data-name="사각형 118" transform="translate(22 339)"/>
        <path id="패스_49" d="M11 12a3.083 3.083 0 0 1 3.143 3A3.083 3.083 0 0 1 11 18a3.083 3.083 0 0 1-3.143-3A3.083 3.083 0 0 1 11 12zm0-9a3.083 3.083 0 0 0-3.143 3h6.286A3.083 3.083 0 0 0 11 3zm7.857 21H3.143A3.083 3.083 0 0 1 0 21V9a3.083 3.083 0 0 1 3.143-3h1.571A6.166 6.166 0 0 1 11 0a6.166 6.166 0 0 1 6.286 6h1.571A3.083 3.083 0 0 1 22 9v12a3.083 3.083 0 0 1-3.143 3z" class="cls-2" data-name="패스 49" transform="translate(23 341)"/>
    </g>
</svg>
