<svg xmlns="http://www.w3.org/2000/svg" width="24" height="26"><path d="M0 0h24v24H0z" data-name="사각형 118" fill="none"/><path d="M12 14a3.083 3.083 0 0 1 3.143 3A3.083 3.083 0 0 1 12 20a3.083 3.083 0 0 1-3.143-3A3.083 3.083 0 0 1 12 14zm0-9a3.083 3.083 0 0 0-3.143 3h6.286A3.083 3.083 0 0 0 12 5zm7.857 21H4.143A3.083 3.083 0 0 1 1 23V11a3.083 3.083 0 0 1 3.143-3h1.571A6.166 6.166 0 0 1 12 2a6.166 6.166 0 0 1 6.286 6h1.571A3.083 3.083 0 0 1 23 11v12a3.083 3.083 0 0 1-3.143 3z" data-name="패스 49" fill="#bebebe" fill-rule="evenodd"/></svg>