<svg xmlns="http://www.w3.org/2000/svg" xmlns:xlink="http://www.w3.org/1999/xlink" width="255" height="140.7"><defs><style>.cls-6{fill:#795548}.cls-7,.cls-8{fill:#fff}.cls-7{opacity:.05}.cls-11,.cls-8{opacity:.1}.cls-9{fill:#f55f44}.cls-13{fill:#f3ad55}.cls-14{fill:#fbdca3}.cls-15{fill:#383f4d}</style><linearGradient id="linear-gradient" x1=".5" x2=".5" y1="1" gradientUnits="objectBoundingBox"><stop offset="0" stop-color="gray" stop-opacity=".251"/><stop offset=".54" stop-color="gray" stop-opacity=".122"/><stop offset="1" stop-color="gray" stop-opacity=".102"/></linearGradient><linearGradient id="linear-gradient-2" x2="1" y1=".5" y2=".5" xlink:href="#linear-gradient"/></defs><g id="dog" transform="translate(0 -.027)"><g id="그룹_215" data-name="그룹 215" transform="translate(0 64.611)" opacity=".7"><ellipse id="타원_208" cx="127.5" cy="38.058" data-name="타원 208" rx="127.5" ry="38.058" fill="url(#linear-gradient)"/></g><ellipse id="타원_209" cx="121.982" cy="35.355" data-name="타원 209" rx="121.982" ry="35.355" transform="translate(5.518 67.313)" fill="#f5f5f5"/><g id="그룹_216" data-name="그룹 216" transform="translate(154.772 74.017)" opacity=".5"><path id="패스_1244" d="M765.78 498.642l-2.179-3.267-4.328-14.306-1.78-6.324h-1.811a3.269 3.269 0 0 0 .03-.41 2.874 2.874 0 0 0-1.4-2.467 2.445 2.445 0 0 0 .017-.277 2.882 2.882 0 0 0-.637-1.805 2.8 2.8 0 0 0-.443-.443h-.019a3.261 3.261 0 0 0-.221-.161l-.064-.039a2.119 2.119 0 0 0-.2-.108l-.089-.044-.188-.08-.1-.036c-.064-.022-.13-.039-.194-.058l-.108-.025a2.36 2.36 0 0 0-.21-.039h-.1a3.009 3.009 0 0 0-.318-.019 1.12 1.12 0 0 1-2.187-.252 3.044 3.044 0 0 0-.443-.443.049.049 0 0 1-.019 0q-.108-.083-.224-.158l-.064-.042a2.453 2.453 0 0 0-.194-.108l-.089-.042c-.061-.03-.125-.055-.188-.08l-.1-.039-.194-.055-.1-.028a1.855 1.855 0 0 0-.21-.036l-.1-.017a3.015 3.015 0 0 0-.318-.017 1.96 1.96 0 0 0-.338.019 2.874 2.874 0 0 0-.3-3.156 2.912 2.912 0 0 0-.388-.457 2.871 2.871 0 0 0 .177-3.807 2.8 2.8 0 0 0-.443-.443l-.011-.014a3.261 3.261 0 0 0-.221-.161l-.064-.039a2.119 2.119 0 0 0-.2-.108l-.086-.044-.191-.08-.1-.036c-.064-.022-.13-.039-.194-.058a.528.528 0 0 0-.1-.025c-.036-.006-.141-.028-.213-.039l-.1-.014a3.025 3.025 0 0 0-.318-.019h-.227c-.058-.091-.119-.177-.185-.277a3.042 3.042 0 0 0-.443-.443.049.049 0 0 1-.019-.014 2.514 2.514 0 0 0-.224-.158l-.064-.042a2.453 2.453 0 0 0-.194-.108l-.089-.042c-.061-.03-.125-.055-.188-.08l-.1-.039-.194-.055-.1-.028c-.069-.017-.141-.028-.21-.039l-.122.008a3.025 3.025 0 0 0-.318-.017 2.849 2.849 0 0 0-2.45 1.4 2.65 2.65 0 0 0-.213-.039l-.1-.014a3.017 3.017 0 0 0-.318-.019H738a2.891 2.891 0 0 0-.493-2.7 3.049 3.049 0 0 0-.443-.443l-.019-.014a2.545 2.545 0 0 0-.224-.161l-.064-.039a2.453 2.453 0 0 0-.194-.108l-.089-.044-.188-.08-.1-.036c-.064-.022-.127-.039-.194-.058l-.1-.025c-.069-.017-.141-.028-.21-.039l-.1-.014a2.923 2.923 0 0 0-.316-.019 2.882 2.882 0 0 0-2.492 1.456c-.05-.036-.1-.072-.149-.1l-.064-.039a2.218 2.218 0 0 0-.2-.111l-.086-.042c-.061-.03-.125-.055-.188-.08l-.069-.028a2.88 2.88 0 0 0 .623-4.186 2.794 2.794 0 0 0-.443-.443h-.019a2.484 2.484 0 0 0-.222-.161l-.064-.039a3.152 3.152 0 0 0-.2-.111l-.086-.042-.191-.08-.1-.036c-.064-.022-.127-.039-.194-.058l-.1-.028-.213-.036h-.1a3.016 3.016 0 0 0-.318-.019 2.882 2.882 0 0 0-2.882 2.885v.078c-.064.017-.13.03-.194.05a2.888 2.888 0 0 0-1.9 1.9 2.837 2.837 0 0 0-.13.858 3.008 3.008 0 0 0 .017.318l.017.1v.066l-.033-.019-.064-.039-.194-.111-.089-.042-.188-.08-.1-.036a1.981 1.981 0 0 0-.194-.058l-.1-.028-.21-.036-.1-.014a3.042 3.042 0 0 0-.318-.019 2.885 2.885 0 0 0-2.885 2.885 2.987 2.987 0 0 0 .019.316v.1a.933.933 0 0 0 .039.213c.017.069.017.069.028.105l.055.194.039.1c.025.066.05.127.08.191l.042.086c.033.066.069.133.108.2l.042.064a2.467 2.467 0 0 0 .158.222l.014.019.042.053h-.05a2.427 2.427 0 0 0-.213-.039l-.1-.014a3.008 3.008 0 0 0-.318-.019 2.882 2.882 0 0 0-2.752 2.026 2.965 2.965 0 0 0-.1.446h-.022l-.066-.042a2.453 2.453 0 0 0-.194-.108l-.089-.042c-.061-.03-.125-.055-.188-.08l-.1-.039-.194-.055-.1-.028a2.65 2.65 0 0 0-.213-.039l-.1-.014a3.015 3.015 0 0 0-.318-.019 2.885 2.885 0 0 0-2.893 2.878 2.992 2.992 0 0 0 .017.318l.017.1a1.113 1.113 0 0 0 .036.21.958.958 0 0 0 .028.1c.008.033.036.133.058.2a.955.955 0 0 0 .036.1c.014.034.05.127.08.188l.042.089c.033.066.072.13.111.194a.492.492 0 0 0 .039.064q.075.116.158.224l.017.019v.017a2.868 2.868 0 0 0-.426 1.506 2.938 2.938 0 0 0 .017.316l.017.1a1.109 1.109 0 0 0 .036.213 1.013 1.013 0 0 0 .028.105c.009.036.036.13.058.194s.022.066.036.1.053.13.08.191l.042.086a2.25 2.25 0 0 0 .111.2c0 .022.025.044.039.064a2.874 2.874 0 0 0-2.55 2.016 2.838 2.838 0 0 0-.13.858 3.041 3.041 0 0 0 .017.318l.017.1a1.881 1.881 0 0 0 .036.21l.025.1h-4.317l-6.221 20.544-2.572 3.309zm-38.729-32.585l-.055-.086.133-.036zm13.514-2.675l.047-.08.1.022c-.049.019-.1.036-.152.058z" data-name="패스 1244" transform="translate(-698.5 -450.97)" fill="url(#linear-gradient-2)"/></g><circle id="타원_210" cx="2.73" cy="2.73" r="2.73" class="cls-6" data-name="타원 210" transform="translate(165.265 102.775)"/><path id="패스_1245" d="M736.814 557.992a2.724 2.724 0 0 1 4.43-2.126 2.727 2.727 0 1 0-3.835 3.832 2.7 2.7 0 0 1-.595-1.706z" class="cls-7" data-name="패스 1245" transform="translate(-571.125 -452.065)"/><circle id="타원_211" cx="2.73" cy="2.73" r="2.73" class="cls-6" data-name="타원 211" transform="translate(174.712 103.407)"/><path id="패스_1246" d="M770.9 560.282a2.727 2.727 0 0 1 4.43-2.126 2.727 2.727 0 1 0-3.835 3.835 2.727 2.727 0 0 1-.595-1.709z" class="cls-7" data-name="패스 1246" transform="translate(-595.778 -453.727)"/><circle id="타원_212" cx="2.73" cy="2.73" r="2.73" class="cls-6" data-name="타원 212" transform="translate(180.17 103.825)"/><path id="패스_1247" d="M790.65 561.792a2.724 2.724 0 0 1 4.43-2.126 2.727 2.727 0 1 0-3.835 3.835 2.732 2.732 0 0 1-.595-1.709z" class="cls-7" data-name="패스 1247" transform="translate(-610.06 -454.819)"/><circle id="타원_213" cx="2.73" cy="2.73" r="2.73" class="cls-6" data-name="타원 213" transform="translate(182.897 102.775)"/><path id="패스_1248" d="M800.484 557.992a2.727 2.727 0 0 1 4.43-2.126 2.727 2.727 0 1 0-3.835 3.832 2.7 2.7 0 0 1-.595-1.706z" class="cls-7" data-name="패스 1248" transform="translate(-617.166 -452.065)"/><circle id="타원_214" cx="2.73" cy="2.73" r="2.73" class="cls-6" data-name="타원 214" transform="translate(204.097 102.775)"/><path id="패스_1249" d="M877.054 557.992a2.724 2.724 0 0 1 4.43-2.126 2.727 2.727 0 1 0-3.835 3.832 2.719 2.719 0 0 1-.595-1.706z" class="cls-7" data-name="패스 1249" transform="translate(-672.536 -452.065)"/><circle id="타원_215" cx="2.73" cy="2.73" r="2.73" class="cls-6" data-name="타원 215" transform="translate(193.393 102.568)"/><path id="패스_1250" d="M838.41 557.252a2.727 2.727 0 0 1 4.43-2.126 2.727 2.727 0 1 0-3.84 3.835 2.71 2.71 0 0 1-.595-1.709z" class="cls-7" data-name="패스 1250" transform="translate(-644.596 -451.536)"/><circle id="타원_216" cx="2.73" cy="2.73" r="2.73" class="cls-6" data-name="타원 216" transform="translate(169.255 100.259)"/><path id="패스_1251" d="M751.23 548.912a2.727 2.727 0 0 1 4.43-2.126 2.727 2.727 0 1 0-3.835 3.835 2.727 2.727 0 0 1-.595-1.709z" class="cls-7" data-name="패스 1251" transform="translate(-581.554 -445.505)"/><circle id="타원_217" cx="2.73" cy="2.73" r="2.73" class="cls-6" data-name="타원 217" transform="translate(191.294 94.591)"/><path id="패스_1252" d="M830.881 528.464a2.727 2.727 0 0 1 4.449-2.118 2.727 2.727 0 1 0-3.835 3.835 2.71 2.71 0 0 1-.614-1.717z" class="cls-7" data-name="패스 1252" transform="translate(-639.166 -430.725)"/><circle id="타원_218" cx="2.73" cy="2.73" r="2.73" class="cls-6" data-name="타원 218" transform="translate(182.897 88.295)"/><circle id="타원_219" cx="2.73" cy="2.73" r="2.73" class="cls-6" data-name="타원 219" transform="translate(185.616 84.095)"/><path id="패스_1253" d="M800.5 505.7a2.73 2.73 0 0 1 4.43-2.126 2.727 2.727 0 1 0-3.835 3.835 2.713 2.713 0 0 1-.595-1.709z" class="cls-7" data-name="패스 1253" transform="translate(-617.183 -414.259)"/><circle id="타원_220" cx="2.73" cy="2.73" r="2.73" class="cls-6" data-name="타원 220" transform="translate(174.081 90.394)"/><path id="패스_1254" d="M768.67 513.282a2.727 2.727 0 0 1 4.43-2.126 2.727 2.727 0 1 0-3.835 3.835 2.71 2.71 0 0 1-.595-1.709z" class="cls-7" data-name="패스 1254" transform="translate(-594.166 -419.74)"/><circle id="타원_221" cx="2.73" cy="2.73" r="2.73" class="cls-6" data-name="타원 221" transform="translate(168.624 94.381)"/><path id="패스_1255" d="M748.95 527.685a2.73 2.73 0 0 1 4.43-2.129 2.727 2.727 0 1 0-3.835 3.835 2.71 2.71 0 0 1-.595-1.706z" class="cls-7" data-name="패스 1255" transform="translate(-579.905 -430.153)"/><circle id="타원_222" cx="2.73" cy="2.73" r="2.73" class="cls-6" data-name="타원 222" transform="translate(184.995 95.851)"/><path id="패스_1256" d="M808.091 532.992a2.727 2.727 0 0 1 4.43-2.126 2.727 2.727 0 1 0-3.835 3.835 2.711 2.711 0 0 1-.6-1.708z" class="cls-7" data-name="패스 1256" transform="translate(-622.671 -433.993)"/><circle id="타원_223" cx="2.73" cy="2.73" r="2.73" class="cls-6" data-name="타원 223" transform="translate(191.084 82.838)"/><path id="패스_1257" d="M830.07 485.992a2.727 2.727 0 0 1 4.43-2.126 2.727 2.727 0 1 0-3.835 3.835 2.727 2.727 0 0 1-.595-1.709z" class="cls-7" data-name="패스 1257" transform="translate(-638.566 -400.006)"/><circle id="타원_224" cx="2.73" cy="2.73" r="2.73" class="cls-6" data-name="타원 224" transform="translate(184.367 80.108)"/><path id="패스_1258" d="M805.81 476.135a2.727 2.727 0 0 1 4.43-2.129 2.727 2.727 0 1 0-3.835 3.835 2.724 2.724 0 0 1-.6-1.706z" class="cls-7" data-name="패스 1258" transform="translate(-621.023 -392.876)"/><circle id="타원_225" cx="2.73" cy="2.73" r="2.73" class="cls-6" data-name="타원 225" transform="translate(177.44 80.739)"/><path id="패스_1259" d="M780.79 478.412a2.73 2.73 0 0 1 4.43-2.126 2.727 2.727 0 1 0-3.835 3.835 2.713 2.713 0 0 1-.6-1.709z" class="cls-7" data-name="패스 1259" transform="translate(-602.93 -394.525)"/><circle id="타원_226" cx="2.73" cy="2.73" r="2.73" class="cls-6" data-name="타원 226" transform="translate(177.44 85.147)"/><path id="패스_1260" d="M780.79 494.332a2.73 2.73 0 0 1 4.43-2.126 2.727 2.727 0 1 0-3.835 3.835 2.713 2.713 0 0 1-.595-1.709z" class="cls-7" data-name="패스 1260" transform="translate(-602.93 -406.037)"/><circle id="타원_227" cx="2.73" cy="2.73" r="2.73" class="cls-6" data-name="타원 227" transform="translate(188.775 92.071)"/><path id="패스_1261" d="M821.689 519.3a2.724 2.724 0 0 1 4.43-2.126 2.727 2.727 0 1 0-3.829 3.832 2.724 2.724 0 0 1-.6-1.706z" class="cls-7" data-name="패스 1261" transform="translate(-632.494 -424.078)"/><circle id="타원_228" cx="2.73" cy="2.73" r="2.73" class="cls-6" data-name="타원 228" transform="translate(191.923 90.604)"/><path id="패스_1262" d="M833.087 514.026a2.727 2.727 0 0 1 4.43-2.126 2.727 2.727 0 1 0-3.832 3.835 2.714 2.714 0 0 1-.6-1.709z" class="cls-7" data-name="패스 1262" transform="translate(-640.743 -420.273)"/><circle id="타원_229" cx="2.73" cy="2.73" r="2.73" class="cls-6" data-name="타원 229" transform="translate(174.081 100.048)"/><circle id="타원_230" cx="2.73" cy="2.73" r="2.73" class="cls-8" data-name="타원 230" transform="translate(174.081 100.048)"/><path id="패스_1263" d="M768.67 548.152a2.727 2.727 0 0 1 4.43-2.126 2.727 2.727 0 1 0-3.835 3.835 2.711 2.711 0 0 1-.6-1.708z" class="cls-7" data-name="패스 1263" transform="translate(-594.166 -444.956)"/><circle id="타원_231" cx="2.73" cy="2.73" r="2.73" class="cls-6" data-name="타원 231" transform="translate(182.689 98.578)"/><circle id="타원_232" cx="2.73" cy="2.73" r="2.73" class="cls-8" data-name="타원 232" transform="translate(182.689 98.578)"/><path id="패스_1264" d="M799.734 542.831a2.724 2.724 0 0 1 4.43-2.126 2.727 2.727 0 1 0-3.835 3.832 2.711 2.711 0 0 1-.595-1.706z" class="cls-7" data-name="패스 1264" transform="translate(-616.624 -441.102)"/><circle id="타원_233" cx="2.73" cy="2.73" r="2.73" class="cls-6" data-name="타원 233" transform="translate(179.538 101.097)"/><circle id="타원_234" cx="2.73" cy="2.73" r="2.73" class="cls-8" data-name="타원 234" transform="translate(179.538 101.097)"/><path id="패스_1265" d="M788.38 551.942a2.727 2.727 0 0 1 4.43-2.126 2.727 2.727 0 1 0-3.835 3.835 2.71 2.71 0 0 1-.595-1.709z" class="cls-7" data-name="패스 1265" transform="translate(-608.418 -447.696)"/><circle id="타원_235" cx="2.73" cy="2.73" r="2.73" class="cls-6" data-name="타원 235" transform="translate(169.255 103.196)"/><circle id="타원_236" cx="2.73" cy="2.73" r="2.73" class="cls-8" data-name="타원 236" transform="translate(169.255 103.196)"/><path id="패스_1266" d="M751.2 559.493a2.727 2.727 0 0 1 4.43-2.129 2.727 2.727 0 1 0-3.83 3.836 2.724 2.724 0 0 1-.6-1.706z" class="cls-7" data-name="패스 1266" transform="translate(-581.528 -453.146)"/><circle id="타원_237" cx="2.73" cy="2.73" r="2.73" class="cls-6" data-name="타원 237" transform="translate(171.982 101.097)"/><circle id="타원_238" cx="2.73" cy="2.73" r="2.73" class="cls-8" data-name="타원 238" transform="translate(171.982 101.097)"/><path id="패스_1267" d="M761.067 551.926a2.727 2.727 0 0 1 4.43-2.126 2.727 2.727 0 1 0-3.832 3.835 2.712 2.712 0 0 1-.6-1.709z" class="cls-7" data-name="패스 1267" transform="translate(-588.664 -447.68)"/><circle id="타원_239" cx="2.73" cy="2.73" r="2.73" class="cls-6" data-name="타원 239" transform="translate(171.982 96.479)"/><circle id="타원_240" cx="2.73" cy="2.73" r="2.73" class="cls-8" data-name="타원 240" transform="translate(171.982 96.479)"/><path id="패스_1268" d="M761.051 535.236a2.724 2.724 0 0 1 4.43-2.126 2.727 2.727 0 1 0-3.832 3.832 2.711 2.711 0 0 1-.598-1.706z" class="cls-7" data-name="패스 1268" transform="translate(-588.648 -435.606)"/><circle id="타원_241" cx="2.73" cy="2.73" r="2.73" class="cls-6" data-name="타원 241" transform="translate(177.232 92.282)"/><circle id="타원_242" cx="2.73" cy="2.73" r="2.73" class="cls-8" data-name="타원 242" transform="translate(177.232 92.282)"/><path id="패스_1269" d="M780.04 520.1a2.727 2.727 0 0 1 4.43-2.129 2.727 2.727 0 1 0-3.835 3.835 2.71 2.71 0 0 1-.595-1.706z" class="cls-7" data-name="패스 1269" transform="translate(-602.387 -424.672)"/><circle id="타원_243" cx="2.73" cy="2.73" r="2.73" class="cls-6" data-name="타원 243" transform="translate(186.466 102.568)"/><circle id="타원_244" cx="2.73" cy="2.73" r="2.73" class="cls-8" data-name="타원 244" transform="translate(186.466 102.568)"/><path id="패스_1270" d="M813.377 557.236a2.727 2.727 0 0 1 4.43-2.126 2.727 2.727 0 1 0-3.832 3.835 2.713 2.713 0 0 1-.6-1.709z" class="cls-7" data-name="패스 1270" transform="translate(-626.491 -451.52)"/><circle id="타원_245" cx="2.73" cy="2.73" r="2.73" class="cls-6" data-name="타원 245" transform="translate(194.021 94.17)"/><circle id="타원_246" cx="2.73" cy="2.73" r="2.73" class="cls-8" data-name="타원 246" transform="translate(194.021 94.17)"/><path id="패스_1271" d="M840.583 526.809a2.724 2.724 0 0 1 4.43-2.126 2.727 2.727 0 1 0-3.815 3.832 2.711 2.711 0 0 1-.615-1.706z" class="cls-7" data-name="패스 1271" transform="translate(-646.141 -429.488)"/><circle id="타원_247" cx="2.73" cy="2.73" r="2.73" class="cls-6" data-name="타원 247" transform="translate(194.021 81.578)"/><circle id="타원_248" cx="2.73" cy="2.73" r="2.73" class="cls-8" data-name="타원 248" transform="translate(194.021 81.578)"/><path id="패스_1272" d="M840.6 481.337a2.727 2.727 0 0 1 4.43-2.126 2.727 2.727 0 1 0-3.815 3.835 2.715 2.715 0 0 1-.615-1.708z" class="cls-7" data-name="패스 1272" transform="translate(-646.155 -396.611)"/><circle id="타원_249" cx="2.73" cy="2.73" r="2.73" class="cls-6" data-name="타원 249" transform="translate(196.751 86.825)"/><circle id="타원_250" cx="2.73" cy="2.73" r="2.73" class="cls-8" data-name="타원 250" transform="translate(196.751 86.825)"/><path id="패스_1273" d="M850.54 500.395a2.727 2.727 0 0 1 4.43-2.129 2.727 2.727 0 1 0-3.835 3.835 2.711 2.711 0 0 1-.595-1.706z" class="cls-7" data-name="패스 1273" transform="translate(-653.368 -410.419)"/><circle id="타원_251" cx="2.73" cy="2.73" r="2.73" class="cls-6" data-name="타원 251" transform="translate(199.479 90.812)"/><circle id="타원_252" cx="2.73" cy="2.73" r="2.73" class="cls-8" data-name="타원 252" transform="translate(199.479 90.812)"/><path id="패스_1274" d="M860.361 514.756a2.724 2.724 0 0 1 4.43-2.126 2.727 2.727 0 1 0-3.832 3.832 2.7 2.7 0 0 1-.6-1.706z" class="cls-7" data-name="패스 1274" transform="translate(-660.462 -420.796)"/><circle id="타원_253" cx="2.73" cy="2.73" r="2.73" class="cls-6" data-name="타원 253" transform="translate(186.466 86.196)"/><circle id="타원_254" cx="2.73" cy="2.73" r="2.73" class="cls-8" data-name="타원 254" transform="translate(186.466 86.196)"/><path id="패스_1275" d="M813.377 498.106a2.727 2.727 0 0 1 4.43-2.126 2.727 2.727 0 1 0-3.832 3.835 2.713 2.713 0 0 1-.6-1.709z" class="cls-7" data-name="패스 1275" transform="translate(-626.491 -408.762)"/><circle id="타원_255" cx="2.73" cy="2.73" r="2.73" class="cls-6" data-name="타원 255" transform="translate(178.281 88.295)"/><circle id="타원_256" cx="2.73" cy="2.73" r="2.73" class="cls-8" data-name="타원 256" transform="translate(178.281 88.295)"/><path id="패스_1276" d="M783.83 505.7a2.727 2.727 0 0 1 4.43-2.126 2.727 2.727 0 1 0-3.835 3.835 2.71 2.71 0 0 1-.595-1.709z" class="cls-7" data-name="패스 1276" transform="translate(-605.128 -414.259)"/><circle id="타원_257" cx="2.73" cy="2.73" r="2.73" class="cls-6" data-name="타원 257" transform="translate(183.528 85.147)"/><circle id="타원_258" cx="2.73" cy="2.73" r="2.73" class="cls-8" data-name="타원 258" transform="translate(183.528 85.147)"/><path id="패스_1277" d="M802.78 494.332a2.727 2.727 0 0 1 4.43-2.126 2.727 2.727 0 1 0-3.835 3.835 2.711 2.711 0 0 1-.595-1.709z" class="cls-7" data-name="패스 1277" transform="translate(-618.832 -406.037)"/><circle id="타원_259" cx="2.73" cy="2.73" r="2.73" class="cls-6" data-name="타원 259" transform="translate(188.354 82.838)"/><circle id="타원_260" cx="2.73" cy="2.73" r="2.73" class="cls-8" data-name="타원 260" transform="translate(188.354 82.838)"/><path id="패스_1278" d="M820.21 485.992a2.73 2.73 0 0 1 4.43-2.126 2.727 2.727 0 1 0-3.84 3.834 2.713 2.713 0 0 1-.6-1.708z" class="cls-7" data-name="패스 1278" transform="translate(-631.435 -400.006)"/><circle id="타원_261" cx="2.73" cy="2.73" r="2.73" class="cls-6" data-name="타원 261" transform="translate(174.712 85.147)"/><circle id="타원_262" cx="2.73" cy="2.73" r="2.73" class="cls-8" data-name="타원 262" transform="translate(174.712 85.147)"/><path id="패스_1279" d="M770.9 494.332a2.727 2.727 0 0 1 4.43-2.126 2.727 2.727 0 1 0-3.835 3.835 2.727 2.727 0 0 1-.6-1.708z" class="cls-7" data-name="패스 1279" transform="translate(-595.778 -406.037)"/><circle id="타원_263" cx="2.73" cy="2.73" r="2.73" class="cls-6" data-name="타원 263" transform="translate(184.367 93.96)"/><circle id="타원_264" cx="2.73" cy="2.73" r="2.73" class="cls-8" data-name="타원 264" transform="translate(184.367 93.96)"/><path id="패스_1280" d="M805.81 526.172a2.724 2.724 0 0 1 4.43-2.126 2.727 2.727 0 1 0-3.835 3.835 2.732 2.732 0 0 1-.595-1.709z" class="cls-7" data-name="패스 1280" transform="translate(-621.022 -429.061)"/><circle id="타원_265" cx="2.73" cy="2.73" r="2.73" class="cls-6" data-name="타원 265" transform="translate(172.824 93.752)"/><circle id="타원_266" cx="2.73" cy="2.73" r="2.73" class="cls-8" data-name="타원 266" transform="translate(172.824 93.752)"/><path id="패스_1281" d="M764.12 525.412a2.727 2.727 0 0 1 4.43-2.126 2.727 2.727 0 1 0-3.835 3.835 2.711 2.711 0 0 1-.595-1.709z" class="cls-7" data-name="패스 1281" transform="translate(-590.875 -428.512)"/><circle id="타원_267" cx="2.73" cy="2.73" r="2.73" class="cls-6" data-name="타원 267" transform="translate(190.453 97.739)"/><circle id="타원_268" cx="2.73" cy="2.73" r="2.73" class="cls-8" data-name="타원 268" transform="translate(190.453 97.739)"/><path id="패스_1282" d="M827.8 539.785a2.727 2.727 0 0 1 4.43-2.129 2.727 2.727 0 1 0-3.835 3.835 2.709 2.709 0 0 1-.595-1.706z" class="cls-7" data-name="패스 1282" transform="translate(-636.924 -438.903)"/><circle id="타원_269" cx="2.73" cy="2.73" r="2.73" class="cls-6" data-name="타원 269" transform="translate(194.653 99.209)"/><circle id="타원_270" cx="2.73" cy="2.73" r="2.73" class="cls-8" data-name="타원 270" transform="translate(194.653 99.209)"/><path id="패스_1283" d="M842.96 545.122a2.727 2.727 0 0 1 4.43-2.122 2.727 2.727 0 1 0-3.835 3.835 2.711 2.711 0 0 1-.6-1.713z" class="cls-7" data-name="패스 1283" transform="translate(-647.887 -442.765)"/><circle id="타원_271" cx="2.73" cy="2.73" r="2.73" class="cls-6" data-name="타원 271" transform="translate(198.219 101.936)"/><circle id="타원_272" cx="2.73" cy="2.73" r="2.73" class="cls-8" data-name="타원 272" transform="translate(198.219 101.936)"/><path id="패스_1284" d="M855.824 554.962a2.727 2.727 0 0 1 4.43-2.126 2.727 2.727 0 1 0-3.835 3.832 2.71 2.71 0 0 1-.595-1.706z" class="cls-7" data-name="패스 1284" transform="translate(-657.184 -449.874)"/><circle id="타원_273" cx="2.73" cy="2.73" r="2.73" class="cls-6" data-name="타원 273" transform="translate(204.097 98.368)"/><circle id="타원_274" cx="2.73" cy="2.73" r="2.73" class="cls-8" data-name="타원 274" transform="translate(204.097 98.368)"/><path id="패스_1285" d="M877.07 542.092a2.724 2.724 0 0 1 4.43-2.126 2.727 2.727 0 1 0-3.835 3.835 2.733 2.733 0 0 1-.595-1.709z" class="cls-7" data-name="패스 1285" transform="translate(-672.552 -440.573)"/><circle id="타원_275" cx="2.73" cy="2.73" r="2.73" class="cls-6" data-name="타원 275" transform="translate(200.949 95.219)"/><circle id="타원_276" cx="2.73" cy="2.73" r="2.73" class="cls-8" data-name="타원 276" transform="translate(200.949 95.219)"/><path id="패스_1286" d="M865.625 530.626a2.724 2.724 0 0 1 4.43-2.126 2.727 2.727 0 1 0-3.821 3.832 2.719 2.719 0 0 1-.609-1.706z" class="cls-7" data-name="패스 1286" transform="translate(-664.255 -432.256)"/><circle id="타원_277" cx="2.73" cy="2.73" r="2.73" class="cls-6" data-name="타원 277" transform="translate(181.637 78.009)"/><circle id="타원_278" cx="2.73" cy="2.73" r="2.73" class="cls-8" data-name="타원 278" transform="translate(181.637 78.009)"/><path id="패스_1287" d="M795.96 468.555a2.727 2.727 0 0 1 4.43-2.129 2.727 2.727 0 1 0-3.835 3.835 2.711 2.711 0 0 1-.6-1.706z" class="cls-7" data-name="패스 1287" transform="translate(-613.9 -387.395)"/><circle id="타원_279" cx="2.73" cy="2.73" r="2.73" class="cls-6" data-name="타원 279" transform="translate(170.723 90.183)"/><circle id="타원_280" cx="2.73" cy="2.73" r="2.73" class="cls-8" data-name="타원 280" transform="translate(170.723 90.183)"/><path id="패스_1288" d="M756.54 512.522a2.727 2.727 0 0 1 4.43-2.126 2.727 2.727 0 1 0-3.835 3.835 2.711 2.711 0 0 1-.595-1.709z" class="cls-7" data-name="패스 1288" transform="translate(-585.394 -419.191)"/><circle id="타원_281" cx="2.73" cy="2.73" r="2.73" class="cls-6" data-name="타원 281" transform="translate(166.525 97.949)"/><circle id="타원_282" cx="2.73" cy="2.73" r="2.73" class="cls-8" data-name="타원 282" transform="translate(166.525 97.949)"/><path id="패스_1289" d="M741.415 540.626a2.727 2.727 0 0 1 4.43-2.126 2.727 2.727 0 1 0-3.826 3.849 2.713 2.713 0 0 1-.6-1.723z" class="cls-7" data-name="패스 1289" transform="translate(-574.469 -439.529)"/><circle id="타원_283" cx="2.73" cy="2.73" r="2.73" class="cls-6" data-name="타원 283" transform="translate(179.538 95.219)"/><circle id="타원_284" cx="2.73" cy="2.73" r="2.73" class="cls-8" data-name="타원 284" transform="translate(179.538 95.219)"/><path id="패스_1290" d="M788.364 530.7a2.724 2.724 0 0 1 4.43-2.126 2.727 2.727 0 1 0-3.835 3.832 2.7 2.7 0 0 1-.595-1.706z" class="cls-7" data-name="패스 1290" transform="translate(-608.402 -432.331)"/><circle id="타원_285" cx="2.73" cy="2.73" r="2.73" class="cls-6" data-name="타원 285" transform="translate(179.959 84.097)"/><circle id="타원_286" cx="2.73" cy="2.73" r="2.73" class="cls-8" data-name="타원 286" transform="translate(179.959 84.097)"/><path id="패스_1291" d="M789.9 490.542a2.727 2.727 0 0 1 4.43-2.126 2.727 2.727 0 1 0-3.835 3.835 2.727 2.727 0 0 1-.595-1.709z" class="cls-7" data-name="패스 1291" transform="translate(-609.518 -403.296)"/><circle id="타원_287" cx="2.73" cy="2.73" r="2.73" class="cls-6" data-name="타원 287" transform="translate(181.008 81.157)"/><circle id="타원_288" cx="2.73" cy="2.73" r="2.73" class="cls-8" data-name="타원 288" transform="translate(181.008 81.157)"/><path id="패스_1292" d="M793.584 479.809a2.724 2.724 0 0 1 4.43-2.126 2.727 2.727 0 1 0-3.815 3.832 2.724 2.724 0 0 1-.615-1.706z" class="cls-7" data-name="패스 1292" transform="translate(-612.154 -395.501)"/><circle id="타원_289" cx="2.73" cy="2.73" r="2.73" class="cls-6" data-name="타원 289" transform="translate(177.44 98.368)"/><path id="패스_1293" d="M780.79 542.092a2.727 2.727 0 0 1 4.43-2.126 2.727 2.727 0 1 0-3.835 3.835 2.719 2.719 0 0 1-.595-1.709z" class="cls-7" data-name="패스 1293" transform="translate(-602.93 -440.574)"/><circle id="타원_290" cx="2.73" cy="2.73" r="2.73" class="cls-6" data-name="타원 290" transform="translate(170.515 87.035)"/><path id="패스_1294" d="M755.78 501.152a2.727 2.727 0 0 1 4.43-2.126 2.727 2.727 0 1 0-3.835 3.835 2.71 2.71 0 0 1-.595-1.709z" class="cls-7" data-name="패스 1294" transform="translate(-584.844 -410.969)"/><circle id="타원_291" cx="2.73" cy="2.73" r="2.73" class="cls-6" data-name="타원 291" transform="translate(173.873 95.012)"/><path id="패스_1295" d="M767.9 529.962a2.727 2.727 0 0 1 4.43-2.126 2.727 2.727 0 1 0-3.835 3.835 2.71 2.71 0 0 1-.595-1.709z" class="cls-7" data-name="패스 1295" transform="translate(-593.609 -431.802)"/><circle id="타원_292" cx="2.73" cy="2.73" r="2.73" class="cls-6" data-name="타원 292" transform="translate(183.738 75.282)"/><path id="패스_1296" d="M803.54 458.7a2.727 2.727 0 0 1 4.43-2.126 2.727 2.727 0 1 0-3.835 3.835 2.711 2.711 0 0 1-.595-1.709z" class="cls-7" data-name="패스 1296" transform="translate(-619.381 -380.272)"/><circle id="타원_293" cx="2.73" cy="2.73" r="2.73" class="cls-6" data-name="타원 293" transform="translate(183.528 81.368)"/><path id="패스_1297" d="M802.78 480.685a2.727 2.727 0 0 1 4.43-2.129 2.727 2.727 0 1 0-3.835 3.835 2.711 2.711 0 0 1-.6-1.706z" class="cls-7" data-name="패스 1297" transform="translate(-618.831 -396.166)"/><circle id="타원_294" cx="2.73" cy="2.73" r="2.73" class="cls-6" data-name="타원 294" transform="translate(188.354 79.269)"/><path id="패스_1298" d="M820.21 473.1a2.73 2.73 0 0 1 4.43-2.126 2.727 2.727 0 1 0-3.835 3.835 2.713 2.713 0 0 1-.595-1.709z" class="cls-7" data-name="패스 1298" transform="translate(-631.436 -390.685)"/><circle id="타원_295" cx="2.73" cy="2.73" r="2.73" class="cls-6" data-name="타원 295" transform="translate(186.255 91.022)"/><circle id="타원_296" cx="2.73" cy="2.73" r="2.73" class="cls-6" data-name="타원 296" transform="translate(187.736 89.787)"/><path id="패스_1299" d="M812.6 515.526a2.724 2.724 0 0 1 4.43-2.126 2.727 2.727 0 1 0-3.832 3.832 2.711 2.711 0 0 1-.598-1.706z" class="cls-7" data-name="패스 1299" transform="translate(-625.925 -421.353)"/><circle id="타원_297" cx="2.73" cy="2.73" r="2.73" class="cls-6" data-name="타원 297" transform="translate(184.788 98.578)"/><path id="패스_1300" d="M807.314 542.832a2.724 2.724 0 0 1 4.43-2.126 2.727 2.727 0 1 0-3.835 3.832 2.71 2.71 0 0 1-.6-1.706z" class="cls-7" data-name="패스 1300" transform="translate(-622.105 -441.103)"/><circle id="타원_298" cx="2.73" cy="2.73" r="2.73" class="cls-6" data-name="타원 298" transform="translate(185.837 93.121)"/><path id="패스_1301" d="M811.1 523.121a2.724 2.724 0 0 1 4.43-2.126 2.727 2.727 0 1 0-3.835 3.832 2.71 2.71 0 0 1-.595-1.706z" class="cls-7" data-name="패스 1301" transform="translate(-624.846 -426.85)"/><circle id="타원_299" cx="2.73" cy="2.73" r="2.73" class="cls-6" data-name="타원 299" transform="translate(190.663 88.503)"/><circle id="타원_300" cx="2.73" cy="2.73" r="2.73" class="cls-6" data-name="타원 300" transform="translate(204.988 94.68)"/><path id="패스_1302" d="M828.537 506.445a2.724 2.724 0 0 1 4.43-2.126 2.727 2.727 0 1 0-3.832 3.835 2.719 2.719 0 0 1-.6-1.709z" class="cls-7" data-name="패스 1302" transform="translate(-637.453 -414.792)"/><circle id="타원_301" cx="2.73" cy="2.73" r="2.73" class="cls-6" data-name="타원 301" transform="translate(187.936 95.851)"/><path id="패스_1303" d="M818.639 532.915a2.727 2.727 0 0 1 4.43-2.126 2.727 2.727 0 1 0-3.821 3.835 2.711 2.711 0 0 1-.609-1.709z" class="cls-7" data-name="패스 1303" transform="translate(-630.283 -433.916)"/><circle id="타원_302" cx="2.73" cy="2.73" r="2.73" class="cls-6" data-name="타원 302" transform="translate(196.541 82.838)"/><path id="패스_1304" d="M849.78 485.992a2.727 2.727 0 0 1 4.43-2.126 2.727 2.727 0 1 0-3.835 3.835 2.727 2.727 0 0 1-.6-1.709z" class="cls-7" data-name="패스 1304" transform="translate(-652.818 -400.006)"/><circle id="타원_303" cx="2.73" cy="2.73" r="2.73" class="cls-6" data-name="타원 303" transform="translate(194.442 86.825)"/><path id="패스_1305" d="M842.2 500.395a2.727 2.727 0 0 1 4.43-2.129 2.727 2.727 0 1 0-3.83 3.834 2.725 2.725 0 0 1-.6-1.706z" class="cls-7" data-name="패스 1305" transform="translate(-647.337 -410.419)"/><circle id="타원_304" cx="2.73" cy="2.73" r="2.73" class="cls-6" data-name="타원 304" transform="translate(196.12 90.604)"/><path id="패스_1306" d="M848.247 514.026a2.727 2.727 0 0 1 4.43-2.126 2.727 2.727 0 1 0-3.832 3.835 2.714 2.714 0 0 1-.598-1.709z" class="cls-7" data-name="패스 1306" transform="translate(-651.706 -420.274)"/><circle id="타원_305" cx="2.73" cy="2.73" r="2.73" class="cls-6" data-name="타원 305" transform="translate(200.318 98.368)"/><path id="패스_1307" d="M863.43 542.092a2.724 2.724 0 0 1 4.43-2.126 2.727 2.727 0 1 0-3.835 3.835 2.717 2.717 0 0 1-.6-1.709z" class="cls-7" data-name="패스 1307" transform="translate(-662.689 -440.573)"/><circle id="타원_306" cx="2.73" cy="2.73" r="2.73" class="cls-6" data-name="타원 306" transform="translate(203.676 92.071)"/><circle id="타원_307" cx="2.73" cy="2.73" r="2.73" class="cls-6" data-name="타원 307" transform="translate(174.532 88.367)"/><path id="패스_1308" d="M875.534 519.332a2.727 2.727 0 0 1 4.43-2.126 2.727 2.727 0 1 0-3.835 3.832 2.711 2.711 0 0 1-.595-1.706z" class="cls-7" data-name="패스 1308" transform="translate(-671.437 -424.109)"/><circle id="타원_308" cx="2.73" cy="2.73" r="2.73" class="cls-6" data-name="타원 308" transform="translate(196.751 95.012)"/><path id="패스_1309" d="M850.54 529.962a2.727 2.727 0 0 1 4.43-2.126 2.727 2.727 0 1 0-3.835 3.835 2.711 2.711 0 0 1-.595-1.709z" class="cls-7" data-name="패스 1309" transform="translate(-653.368 -431.802)"/><circle id="타원_309" cx="2.73" cy="2.73" r="2.73" class="cls-6" data-name="타원 309" transform="translate(197.17 98.368)"/><path id="패스_1310" d="M852.037 542.075a2.724 2.724 0 0 1 4.43-2.126 2.727 2.727 0 1 0-3.832 3.835 2.719 2.719 0 0 1-.6-1.708z" class="cls-7" data-name="패스 1310" transform="translate(-654.447 -440.557)"/><circle id="타원_310" cx="2.73" cy="2.73" r="2.73" class="cls-6" data-name="타원 310" transform="translate(189.196 100.677)"/><path id="패스_1311" d="M823.234 550.412a2.724 2.724 0 0 1 4.43-2.126 2.727 2.727 0 1 0-3.835 3.832 2.7 2.7 0 0 1-.595-1.706z" class="cls-7" data-name="패스 1311" transform="translate(-633.618 -446.584)"/><circle id="타원_311" cx="2.73" cy="2.73" r="2.73" class="cls-6" data-name="타원 311" transform="translate(180.17 91.861)"/><path id="패스_1312" d="M790.674 518.621a2.724 2.724 0 0 1 4.43-2.126 2.727 2.727 0 1 0-3.829 3.843 2.718 2.718 0 0 1-.6-1.717z" class="cls-7" data-name="패스 1312" transform="translate(-610.083 -423.609)"/><circle id="타원_312" cx="2.73" cy="2.73" r="2.73" class="cls-6" data-name="타원 312" transform="translate(182.897 91.653)"/><path id="패스_1313" d="M800.5 517.792a2.73 2.73 0 0 1 4.43-2.126 2.727 2.727 0 1 0-3.83 3.834 2.713 2.713 0 0 1-.6-1.708z" class="cls-7" data-name="패스 1313" transform="translate(-617.183 -423.002)"/><circle id="타원_313" cx="2.73" cy="2.73" r="2.73" class="cls-6" data-name="타원 313" transform="translate(177.232 95.012)"/><path id="패스_1314" d="M780.04 529.962a2.727 2.727 0 0 1 4.43-2.126 2.727 2.727 0 1 0-3.835 3.835 2.711 2.711 0 0 1-.595-1.709z" class="cls-7" data-name="패스 1314" transform="translate(-602.388 -431.802)"/><circle id="타원_314" cx="2.73" cy="2.73" r="2.73" class="cls-6" data-name="타원 314" transform="translate(200.949 101.936)"/><circle id="타원_315" cx="2.73" cy="2.73" r="2.73" class="cls-8" data-name="타원 315" transform="translate(200.949 101.936)"/><path id="패스_1315" d="M865.625 554.886a2.724 2.724 0 0 1 4.43-2.126 2.727 2.727 0 1 0-3.821 3.832 2.725 2.725 0 0 1-.609-1.706z" class="cls-7" data-name="패스 1315" transform="translate(-664.255 -449.799)"/><circle id="타원_316" cx="2.73" cy="2.73" r="2.73" class="cls-6" data-name="타원 316" transform="translate(198.219 92.071)"/><circle id="타원_317" cx="2.73" cy="2.73" r="2.73" class="cls-8" data-name="타원 317" transform="translate(198.219 92.071)"/><path id="패스_1316" d="M855.824 519.332a2.727 2.727 0 0 1 4.43-2.126 2.727 2.727 0 1 0-3.835 3.832 2.71 2.71 0 0 1-.6-1.706z" class="cls-7" data-name="패스 1316" transform="translate(-657.184 -424.109)"/><circle id="타원_318" cx="2.73" cy="2.73" r="2.73" class="cls-6" data-name="타원 318" transform="translate(190.453 85.147)"/><circle id="타원_319" cx="2.73" cy="2.73" r="2.73" class="cls-8" data-name="타원 319" transform="translate(190.453 85.147)"/><path id="패스_1317" d="M827.8 494.332a2.727 2.727 0 0 1 4.43-2.126 2.727 2.727 0 1 0-3.835 3.835 2.71 2.71 0 0 1-.6-1.708z" class="cls-7" data-name="패스 1317" transform="translate(-636.924 -406.037)"/><path id="패스_1318" d="M632.618 374.4H572.39l6.421-21.25H626.2z" class="cls-9" data-name="패스 1318" transform="translate(-413.911 -255.35)"/><path id="패스_1319" d="M580.619 354.958l43.859.091-.36-1.808-45.307-.091-6.421 21.25h2.353z" class="cls-7" data-name="패스 1319" transform="translate(-413.911 -255.35)"/><path id="패스_1320" d="M629.194 426.3H565.53l2.531-3.253h58.963z" data-name="패스 1320" transform="translate(-408.95 -305.897)" fill="#6c63ff"/><path id="패스_1321" d="M629.194 426.3H565.53l2.531-3.253h58.963z" class="cls-9" data-name="패스 1321" transform="translate(-408.95 -305.897)"/><path id="패스_1322" d="M629.194 426.3H565.53l2.531-3.253h58.963z" class="cls-11" data-name="패스 1322" transform="translate(-408.95 -305.897)"/><path id="패스_1323" d="M759.5 352.52l5.446 19.528 2.583.13-6.091-19.658z" data-name="패스 1323" transform="translate(-549.215 -254.894)" opacity=".05"/><path id="패스_1324" d="M439.6 208.882a17.206 17.206 0 0 1-17.335 16.709h-1.3a4.388 4.388 0 0 0-3.073 1.24 4.272 4.272 0 0 0-1.249 2.179 4 4 0 0 0-.13 1.033v16.471a16.5 16.5 0 0 1-2.6 8.935 23.591 23.591 0 0 0-3.876 12.711 7.943 7.943 0 0 1-8.087 7.938 8.114 8.114 0 0 1-7.786-8.2v-4.12l-2.162.255v4.125a7.946 7.946 0 0 1-8.09 7.938 8.111 8.111 0 0 1-7.783-8.2v-2.085c-2.165.9-14.431.9-17.836.03l-.925-.072v2.387a7.943 7.943 0 0 1-8.087 7.938 8.112 8.112 0 0 1-7.786-8.2v-3.425l-.723-.066v3.752a8.107 8.107 0 0 1-.243 1.97 7.955 7.955 0 0 1-7.844 5.968 8.077 8.077 0 0 1-7.714-7.085 9.8 9.8 0 0 1-.072-1.107v-17.236a26.4 26.4 0 0 1 5.629-16.335 4.9 4.9 0 0 0 .136-5.781c-4.04-5.917-10.014-15.9-9.818-22.98a7.751 7.751 0 0 1 1.891-5.238c.078-.086.158-.172.238-.252a8.843 8.843 0 0 1 15.164 7.071 23.493 23.493 0 0 0 .615 8.37 25.658 25.658 0 0 0 1.622 4.488 7.609 7.609 0 0 0 7.786 4.328 26.84 26.84 0 0 1 3.253-.194h33.355a9.372 9.372 0 0 0 8.86-6.368 9.092 9.092 0 0 0 .5-3.023V188.8a5.05 5.05 0 0 1 5.211-5.05 4.906 4.906 0 0 1 3.494 1.614 5.441 5.441 0 0 1 1.407 3.636 2.675 2.675 0 0 0 2.677 2.675h15.721a16.947 16.947 0 0 1 16.953 17.2z" class="cls-13" data-name="패스 1324" transform="translate(-270.634 -183.72)"/><path id="패스_1325" d="M351.258 489.759a7.955 7.955 0 0 1-7.844 5.967 8.077 8.077 0 0 1-7.714-7.085c4.807-1.302 11.465-2.194 15.558 1.118z" class="cls-14" data-name="패스 1325" transform="translate(-281.378 -403.347)"/><path id="패스_1326" d="M411.2 489.759a7.949 7.949 0 0 1-7.841 5.967 8.066 8.066 0 0 1-7.714-7.085c4.802-1.302 11.46-2.194 15.555 1.118z" class="cls-14" data-name="패스 1326" transform="translate(-324.722 -403.347)"/><path id="패스_1327" d="M536.285 489.759a7.952 7.952 0 0 1-7.844 5.967 8.061 8.061 0 0 1-7.711-7.085c4.804-1.302 11.463-2.194 15.555 1.118z" class="cls-14" data-name="패스 1327" transform="translate(-415.178 -403.347)"/><path id="패스_1328" d="M601.427 489.759a7.954 7.954 0 0 1-7.844 5.967 8.066 8.066 0 0 1-7.714-7.085c4.808-1.302 11.466-2.194 15.558 1.118z" class="cls-14" data-name="패스 1328" transform="translate(-462.282 -403.347)"/><path id="패스_1329" d="M338.708 251.022c-5.607-2.251-12.459-6.368-17.908-9.951a7.751 7.751 0 0 1 1.891-5.238c.078-.086.158-.172.238-.252a8.843 8.843 0 0 1 15.164 7.071 23.492 23.492 0 0 0 .615 8.37z" class="cls-14" data-name="패스 1329" transform="translate(-270.603 -219.215)"/><path id="패스_1330" d="M410 329.71s15.436 19.431 40.7-.05" class="cls-14" data-name="패스 1330" transform="translate(-335.106 -289.231)"/><path id="패스_1331" d="M585.61 199.36s9.38 12.265 0 27.41" class="cls-14" data-name="패스 1331" transform="translate(-462.094 -195.007)"/><path id="패스_1332" d="M656.724 350.51s-8.262 10.264-.111 18.409" class="cls-14" data-name="패스 1332" transform="translate(-510.839 -304.308)"/><path id="패스_1333" d="M597.41 318.552c-.612.576-.4 1.132-.59 1.977L570 313.5c1.443-1.107 3.231-2.431 3.824-4.192 3.211 2.492 9.568 6.683 23.586 9.244z" class="cls-11" data-name="패스 1333" transform="translate(-450.806 -274.515)"/><path id="패스_1334" d="M599.827 315.74a4.271 4.271 0 0 0-1.249 2.179L572.43 311.1a9.333 9.333 0 0 0 3.145-4.4c3.218 2.5 10.231 6.479 24.252 9.04z" class="cls-15" data-name="패스 1334" transform="translate(-452.563 -272.628)"/><path id="패스_1335" d="M587.34 311.91s8.182 6.152 21.89 8.054" class="cls-11" data-name="패스 1335" transform="translate(-463.345 -276.395)"/><path id="패스_1336" d="M587.34 309.31s8.182 6.152 21.89 8.057" class="cls-13" data-name="패스 1336" transform="translate(-463.345 -274.515)"/><ellipse id="타원_320" cx="1.443" cy="2.525" class="cls-15" data-name="타원 320" rx="1.443" ry="2.525" transform="translate(167.53 20.948)"/><path id="패스_1339" d="M349.814 395.748l2.886-23.088s-8.661 13.708-2.885 23.088" class="cls-11" data-name="패스 1339" transform="translate(-290.147 -320.325)"/><path id="패스_1340" d="M355.279 372.66s-8.658 13.708-2.888 23.088z" class="cls-14" data-name="패스 1340" transform="translate(-292.013 -320.325)"/></g></svg>