<svg xmlns="http://www.w3.org/2000/svg" width="15.998" height="16" viewBox="0 0 15.998 16">
    <path d="M10.276 11.523c-.168-.1-.341-.2-.514-.3a4.471 4.471 0 0 0 0-1.041c.173-.1.346-.2.513-.3a.674.674 0 0 0 .273-.831l-.368-.888a.674.674 0 0 0-.781-.395c-.19.047-.384.1-.577.149a4.472 4.472 0 0 0-.736-.736c.052-.193.1-.387.149-.577a.674.674 0 0 0-.395-.781l-.888-.368a.674.674 0 0 0-.831.273c-.1.168-.2.341-.3.514a4.473 4.473 0 0 0-1.041 0c-.1-.173-.2-.346-.3-.513a.675.675 0 0 0-.831-.273l-.888.368a.675.675 0 0 0-.395.781c.047.19.1.384.149.577a4.47 4.47 0 0 0-.736.736c-.194-.052-.388-.1-.577-.149a.674.674 0 0 0-.781.395l-.368.888a.675.675 0 0 0 .273.831c.168.1.341.2.514.3a4.474 4.474 0 0 0 0 1.041c-.173.1-.346.2-.513.3a.675.675 0 0 0-.273.831l.368.888a.674.674 0 0 0 .781.395c.189-.047.383-.1.577-.149a4.474 4.474 0 0 0 .736.736c-.052.193-.1.387-.149.577a.674.674 0 0 0 .395.781l.888.368a.664.664 0 0 0 .254.05.674.674 0 0 0 .577-.324c.1-.167.2-.339.3-.513a4.48 4.48 0 0 0 1.041 0c.1.172.2.345.3.513a.675.675 0 0 0 .831.273l.888-.368a.675.675 0 0 0 .395-.781c-.047-.189-.1-.382-.149-.577a4.474 4.474 0 0 0 .736-.736c.193.052.387.1.577.149a.674.674 0 0 0 .781-.395l.368-.888a.675.675 0 0 0-.273-.831zm-.741 1.409a34.944 34.944 0 0 1-.553-.144.669.669 0 0 0-.7.235 3.755 3.755 0 0 1-.655.655.669.669 0 0 0-.234.7c.05.186.1.372.144.553l-.816.338c-.1-.162-.194-.328-.289-.493a.669.669 0 0 0-.663-.332 3.759 3.759 0 0 1-.927 0 .669.669 0 0 0-.663.332c-.1.167-.193.333-.289.493l-.816-.338c.046-.182.094-.368.144-.553a.669.669 0 0 0-.235-.7 3.755 3.755 0 0 1-.655-.655.669.669 0 0 0-.7-.234c-.185.05-.371.1-.553.144l-.338-.816c.161-.1.327-.194.493-.289a.669.669 0 0 0 .332-.663 3.76 3.76 0 0 1 0-.927.669.669 0 0 0-.332-.664c-.166-.1-.331-.193-.493-.29l.338-.816c.182.046.368.094.553.144a.669.669 0 0 0 .7-.235 3.754 3.754 0 0 1 .655-.655.669.669 0 0 0 .234-.7c-.05-.184-.1-.37-.144-.553l.816-.338c.1.161.194.326.289.493a.669.669 0 0 0 .663.332 3.753 3.753 0 0 1 .927 0 .669.669 0 0 0 .663-.332c.1-.166.193-.331.289-.493l.816.338c-.046.182-.094.368-.144.553a.669.669 0 0 0 .235.7 3.756 3.756 0 0 1 .655.655.669.669 0 0 0 .7.234c.185-.05.371-.1.553-.144l.338.816c-.161.1-.327.194-.493.289a.669.669 0 0 0-.332.663 3.755 3.755 0 0 1 0 .927.669.669 0 0 0 .332.663c.165.1.331.193.493.289z" data-name="패스 1100"/>
    <path d="M7.555 9.766a2.444 2.444 0 1 0-1.321 3.189 2.444 2.444 0 0 0 1.32-3.189zm-1.6 2.527a1.725 1.725 0 1 1 .933-2.253 1.713 1.713 0 0 1-.929 2.253z" data-name="패스 1101"/>
    <path d="M15.517 3.154c-.124-.019-.251-.036-.378-.054a3.335 3.335 0 0 0-.257-.619c.078-.1.155-.2.23-.306a.571.571 0 0 0-.056-.738l-.494-.494a.571.571 0 0 0-.739-.055c-.1.075-.2.152-.306.23a3.333 3.333 0 0 0-.619-.257 28.826 28.826 0 0 0-.053-.378.571.571 0 0 0-.561-.483h-.7a.571.571 0 0 0-.561.483l-.053.378a3.331 3.331 0 0 0-.619.257c-.1-.078-.2-.155-.306-.23a.571.571 0 0 0-.738.056l-.494.494a.571.571 0 0 0-.056.738c.074.1.152.2.23.306a3.337 3.337 0 0 0-.257.619c-.128.017-.255.035-.378.054a.571.571 0 0 0-.483.561v.7a.571.571 0 0 0 .483.561l.378.054a3.336 3.336 0 0 0 .257.619c-.078.1-.155.2-.23.306a.571.571 0 0 0 .056.738l.494.494a.571.571 0 0 0 .738.056c.1-.075.2-.152.306-.23a3.334 3.334 0 0 0 .619.257l.053.378a.571.571 0 0 0 .561.483h.7a.571.571 0 0 0 .561-.483l.053-.378a3.33 3.33 0 0 0 .619-.257c.1.078.2.155.306.23a.571.571 0 0 0 .738-.056l.494-.494a.571.571 0 0 0 .056-.738c-.075-.1-.152-.2-.23-.306a3.338 3.338 0 0 0 .257-.619c.128-.017.255-.035.378-.054a.571.571 0 0 0 .483-.561v-.7a.571.571 0 0 0-.482-.562zm-.2 1.163l-.342.047a.566.566 0 0 0-.474.411 2.648 2.648 0 0 1-.25.6.566.566 0 0 0 .044.626l.208.275-.356.356a24.845 24.845 0 0 1-.275-.208.566.566 0 0 0-.626-.044 2.649 2.649 0 0 1-.6.25.566.566 0 0 0-.411.474l-.047.342h-.5a28.391 28.391 0 0 1-.047-.342.566.566 0 0 0-.411-.474 2.649 2.649 0 0 1-.6-.25.566.566 0 0 0-.626.044l-.275.208-.356-.356.208-.275a.566.566 0 0 0 .044-.626 2.649 2.649 0 0 1-.25-.6.566.566 0 0 0-.474-.411l-.342-.047v-.5l.342-.047a.566.566 0 0 0 .474-.411 2.648 2.648 0 0 1 .25-.6.566.566 0 0 0-.044-.626c-.071-.092-.14-.184-.208-.275l.356-.356.275.208a.566.566 0 0 0 .626.044 2.65 2.65 0 0 1 .6-.25.566.566 0 0 0 .411-.474l.047-.342h.5l.047.342a.566.566 0 0 0 .411.474 2.65 2.65 0 0 1 .6.25.566.566 0 0 0 .626-.044l.275-.208.356.356-.208.275a.566.566 0 0 0-.044.626 2.651 2.651 0 0 1 .25.6.566.566 0 0 0 .474.411l.342.047z" data-name="패스 1102"/>
    <path d="M11.935 2.615a1.45 1.45 0 1 0 1.45 1.45 1.452 1.452 0 0 0-1.45-1.45zm0 2.255a.805.805 0 1 1 .805-.805.806.806 0 0 1-.805.805z" data-name="패스 1103"/>
</svg>
