<svg xmlns="http://www.w3.org/2000/svg" id="그룹_202" width="14.5" height="14" data-name="그룹 202" viewBox="0 0 14.5 14">

    <defs>
        <style>
            .cls-1{fill:#3c92ca}
        </style>
    </defs>
    <path id="XMLID_1929_" d="M12.658 203.924z" class="cls-1" transform="translate(-9.271 -197.965)"/>
    <path id="패스_1091" d="M8.508 8.6a2.538 2.538 0 0 0-2.057-.248.269.269 0 0 0-.188.257v2.564a2.618 2.618 0 0 1-1.229 2.187 4.745 4.745 0 0 1-1.282.64c-.006 0-.009 0-.015.006l-.152.051a.506.506 0 0 0-.433-.245H.505a.506.506 0 0 0-.505.5V21.5a.506.506 0 0 0 .505.5h2.649a.5.5 0 0 0 .49-.388 1.945 1.945 0 0 0 1.423.618h6.272a2.111 2.111 0 0 0 2.335-1.912l.8-5.085a1.967 1.967 0 0 0-.771-1.9 1.926 1.926 0 0 0-1.133-.365H9.309v-2.375A2.32 2.32 0 0 0 8.508 8.6zM3.115 21.463H.541v-7.111h2.574zm9.456-7.951a1.378 1.378 0 0 1 .816.263 1.426 1.426 0 0 1 .55 1.38l-.8 5.088v.009a1.6 1.6 0 0 1-1.8 1.44h-6.27a1.408 1.408 0 0 1-1.408-1.407V14.6l.248-.084a5.083 5.083 0 0 0 1.429-.708A3.177 3.177 0 0 0 6.8 11.175V8.827a1.845 1.845 0 0 1 1.387.212 1.822 1.822 0 0 1 .577 1.554v2.65a.273.273 0 0 0 .272.272h3.531z" data-name="패스 1091" transform="translate(0 -8.237)"/>
</svg>
