<svg xmlns="http://www.w3.org/2000/svg" id="end_time_illust" width="715.001" height="392" viewBox="0 0 715.001 392">
    <defs>
        <style>
            .cls-1{fill:#f2f2f2}.cls-2{fill:#ff6584}.cls-3{fill:#fff}.cls-4{fill:#4470ff}.cls-5,.cls-9{fill:none}.cls-5{stroke:#2f2e41;stroke-miterlimit:10;stroke-width:2px}.cls-6{fill:#2f2e41}.cls-7{fill:#ffb8b8}.cls-8{fill:#f7ecee}.cls-9{stroke:#e7e7e7}.cls-10{fill:#3f3d56}
        </style>
    </defs>
    <g id="그룹_82" data-name="그룹 82" transform="translate(112.012 192.531)">
        <ellipse id="타원_121" cx="120.607" cy="7.935" class="cls-1" data-name="타원 121" rx="120.607" ry="7.935" transform="translate(0 145.204)"/>
        <path id="사각형_603" d="M0 0h116.639v153.139H0z" class="cls-2" data-name="사각형 603" transform="translate(68.238)"/>
        <path id="사각형_604" d="M0 0h92.042v6.348H0z" class="cls-3" data-name="사각형 604" transform="translate(80.536 87.678)"/>
        <path id="사각형_605" d="M0 0h92.042v6.348H0z" class="cls-3" data-name="사각형 605" transform="translate(80.536 105.134)"/>
        <path id="사각형_606" d="M0 0h92.042v6.348H0z" class="cls-3" data-name="사각형 606" transform="translate(80.536 122.59)"/>
        <path id="패스_858" d="M240.5 383.715s7.179-1.026 9.572-7.521 4.444-11.965 8.547-10.94 1.709 14.017 1.709 14.017 8.547-1.026 8.889 2.051c.283 2.548.1 12.36.025 15.661a6.764 6.764 0 0 1-1.179 3.74 4.932 4.932 0 0 1-5 2.137 39.91 39.91 0 0 0-5.718-.3 17.433 17.433 0 0 1-9.666-2.778l-7.179-.342z" class="cls-1" data-name="패스 858" transform="translate(-126.043 -340.38)"/>
        <path id="패스_859" d="M0 0h14.7v24.956H0z" class="cls-4" data-name="패스 859" transform="translate(103.517 38.549)"/>
    </g>
    <path id="선_5" d="M0 0h710.27" class="cls-5" data-name="선 5" transform="translate(4.73 359.806)"/>
    <g id="그룹_81" data-name="그룹 81">
        <path id="패스_848" d="M149.62 381.281a6.786 6.786 0 0 1 6.078-6.749 6.785 6.785 0 1 0 0 13.5 6.786 6.786 0 0 1-6.078-6.751z" class="cls-6" data-name="패스 848" transform="translate(-106.654 -274.525)"/>
        <circle id="타원_122" cx="16.398" cy="16.398" r="16.398" class="cls-6" data-name="타원 122" transform="translate(41.146 111.288)"/>
        <path id="패스_843" d="M158.676 429.707s.247 10.122-.741 10.369 13.578 4.2 13.578 4.2l1.481-13.825z" class="cls-7" data-name="패스 843" transform="translate(-109.766 -291.11)"/>
        <path id="패스_844" d="M323.272 552.613s10.862 0 11.109-1.234 2.469 10.121 2.469 10.121l-4.444 1.481s-8.394-3.7-9.134-3.7 0-6.668 0-6.668z" class="cls-7" data-name="패스 844" transform="translate(-159.32 -327.63)"/>
        <path id="패스_845" d="M338.44 551.356s-1.975-6.666-4.444-6.912c0 0 8.394-5.431 8.641-7.159s3.209-6.172 4.444-4.691 1.234 24.934-.987 27.4-12.1-3.47-12.1-3.47 6.175-2.699 4.446-5.168z" class="cls-6" data-name="패스 845" transform="translate(-162.638 -321.929)"/>
        <path id="패스_846" d="M58.816 619.783L56.841 630.4l9.134 1.481v-12.1z" class="cls-7" data-name="패스 846" transform="translate(-17.065 -295.833)"/>
        <path id="패스_847" d="M146.759 706.328s-1.481-4.691-2.469-3.95-2.469 5.431-2.222 6.665 1.975 10.862 1.234 12.591 3.7 10.615 9.381 9.875 5.184-5.678 5.184-5.678l-1.975-7.653-.741-12.1s-6.417-.984-8.392.25z" class="cls-6" data-name="패스 847" transform="translate(-105.008 -372.997)"/>
        <circle id="타원_123" cx="6.785" cy="6.785" r="6.785" class="cls-6" data-name="타원 123" transform="translate(45.022 103.645)"/>
        <circle id="타원_124" cx="10.369" cy="10.369" r="10.369" class="cls-7" data-name="타원 124" transform="translate(47.182 124.775)"/>
        <path id="패스_849" d="M142.08 527.232s.494 12.344 2.469 18.762 9.1 52.131 7.614 55.587-9.1 41.68-7.367 43.9 9.875 1.481 9.875 1.481l11.07-46.371s-2.183-51.143 16.086-52.378 48.14-1.975 48.14-1.975 19.256 5.678 27.9 5.431 13.578 2.222 13.578 2.222l1.481-10.122-38.265-8.394s-35.056-12.1-54.312-8.887-38.269.744-38.269.744z" data-name="패스 849" transform="translate(-105.02 -320.052)"/>
        <path id="패스_850" d="M151.562 439.608s-2.962-1.728-3.7 0-5.925 3.209-7.9 1.728-6.912.494-6.912.494l-5.431 16.047s2.716 13.825 5.184 21.478 3.456 23.453 2.469 24.934 19.75 7.406 29.871 3.7 12.344-7.9 12.344-7.9-11.109-15.8-7.406-23.206.741-15.8.741-15.8l1.481-8.394-8.397-4.689s-.494-4.444-2.469-4.444-9.875-3.948-9.875-3.948z" class="cls-2" data-name="패스 850" transform="translate(-100.677 -293.86)"/>
        <path id="패스_851" d="M184.908 458.988h3.7a8.288 8.288 0 0 1 2.469 7.653c-.987 4.691-5.441 20.241-5.441 20.241l-3.693-9.626z" class="cls-8" data-name="패스 851" transform="translate(-116.989 -299.907)"/>
        <path id="패스_852" d="M199.31 515.644s7.388 8 1.957 12.2-6.77-9.628-6.77-9.628z" class="cls-7" data-name="패스 852" transform="translate(-120.757 -316.924)"/>
        <path id="패스_853" d="M186.02 491.8l1.728 6.912 2.962 5.431s10.122 6.665 10.122 9.134c0 0-4.444-5.678-10.122 0l-5.061-12.22z" class="cls-8" data-name="패스 853" transform="translate(-118.101 -309.762)"/>
        <ellipse id="타원_125" cx="11.309" cy="6.785" class="cls-6" data-name="타원 125" rx="11.309" ry="6.785" transform="translate(48.142 117.424)"/>
        <path id="패스_854" d="M142.08 408.922s7.9-4.444 11.109-1.234-9.628 8.147-9.628 8.147z" class="cls-7" data-name="패스 854" transform="translate(-105.02 -284.145)"/>
        <path id="패스_855" d="M123.218 433.63l-1.728-1.23s-1.975-2.963-3.7-1.975-11.85-3.7-11.85-3.7 3.7 1.728 3.7-1.234.494-2.469 2.962-2.469 2.469 1.234 3.456-.494.494-2.716 2.222-1.728a3.464 3.464 0 0 0 4.2-.494c.494-.741 9.381-1.975 9.381-1.975s-3.456-10.122-4.2-10.862-19.75 7.653-19.75 7.653-23.947 6.665-17.775 14.319 28.39 19.256 28.39 19.256z" class="cls-8" data-name="패스 855" transform="translate(-89.121 -284.416)"/>
    </g>
    <g id="그룹_79" data-name="그룹 79" transform="translate(353.585 200.447)">
        <ellipse id="타원_124-2" cx="106.366" cy="6.998" class="cls-1" data-name="타원 124" rx="106.366" ry="6.998" transform="translate(0 131.557)"/>
        <rect id="사각형_608" width="102.867" height="135.056" class="cls-2" data-name="사각형 608" rx="8" transform="translate(55.282)"/>
        <rect id="사각형_611" width="72.776" height="8.397" class="cls-3" data-name="사각형 611" rx="4" transform="translate(70.327 54.232)"/>
        <rect id="사각형_612" width="72.776" height="8.397" class="cls-3" data-name="사각형 612" rx="4" transform="translate(70.327 72.427)"/>
        <rect id="사각형_613" width="72.776" height="8.397" class="cls-3" data-name="사각형 613" rx="4" transform="translate(70.327 90.621)"/>
        <rect id="사각형_614" width="72.776" height="8.397" class="cls-3" data-name="사각형 614" rx="4" transform="translate(70.327 108.815)"/>
    </g>
    <ellipse id="타원_126" cx="19.366" cy="3.998" class="cls-1" data-name="타원 126" rx="19.366" ry="3.998" transform="translate(601.585 384.005)"/>
    <g id="그룹_84" data-name="그룹 84" transform="translate(607.687 352.413)">
        <path id="패스_856" d="M340.128 789.948c0 10.2-6.065 13.766-13.548 13.766q-.26 0-.519-.006c-.347-.007-.69-.024-1.029-.047-6.753-.478-12-4.224-12-13.713 0-9.82 12.549-22.212 13.492-23.129l.054-.053s13.55 12.979 13.55 23.182z" class="cls-4" data-name="패스 856" transform="translate(-313.032 -766.764)"/>
        <path id="패스_857" d="M329.351 802.153l4.955-6.924-4.968 7.684-.013.795c-.347-.007-.69-.024-1.029-.047l.534-10.208v-.079l.009-.015.05-.964-4.98-7.7 5 6.98.012.2.4-7.713-4.263-7.96 4.315 6.606.42-15.991v-.054.053l-.07 12.61 4.244-5-4.262 6.085-.112 6.906 3.963-6.628-3.979 7.644-.063 3.839 5.753-9.224-5.775 10.564z" class="cls-10" data-name="패스 857" transform="translate(-316.296 -766.764)"/>
    </g>
</svg>
