<svg xmlns="http://www.w3.org/2000/svg" width="478.204" height="298.555"><defs><style>.cls-1{fill:#f2f2f2}.cls-2{fill:#ff6584}.cls-11,.cls-12{fill:#6c63ff}.cls-7{fill:#3f3d56}.cls-8{opacity:.1}.cls-9{fill:none;stroke:#2f2e41;stroke-miterlimit:10;stroke-width:2px}.cls-10{fill:#2f2e41}.cls-11{opacity:.4}.cls-12{opacity:.8}.cls-13{fill:#fff}</style></defs><g id="illust"><circle id="타원_229" cx="90.976" cy="90.976" r="90.976" class="cls-1" data-name="타원 229" transform="translate(34.002)"/><path id="패스_1173" d="M0 51.142c0 33.1 20.766 59.886 46.428 59.886" class="cls-2" data-name="패스 1173" transform="translate(0 -29.298)"/><path id="패스_1174" d="M108.7 110.125c0-33.473 23.173-60.558 51.811-60.558" data-name="패스 1174" transform="translate(-62.273 -28.396)" fill="#6c63ff"/><path id="패스_1175" d="M39.384 58.168c0 31.442 13.242 56.885 29.606 56.885" data-name="패스 1175" transform="translate(-22.562 -33.323)" fill="#4470ff"/><path id="패스_1176" d="M108.7 87.563c0-42.771 26.785-77.38 59.885-77.38" class="cls-2" data-name="패스 1176" transform="translate(-62.273 -5.834)"/><path id="패스_1177" d="M85.833 187.567s6.584-.2 8.568-1.616 10.128-3.1 10.621-.834 9.9 11.271 2.461 11.331-17.272-1.158-19.253-2.365-2.397-6.516-2.397-6.516z" data-name="패스 1177" transform="translate(-49.172 -105.416)" fill="#a8a8a8"/><path id="패스_1178" d="M107.616 200.42c-7.434.06-17.272-1.158-19.253-2.365-1.508-.919-2.11-4.215-2.31-5.736l-.22.009s.417 5.31 2.4 6.517 11.819 2.424 19.253 2.365c2.145-.018 2.887-.781 2.846-1.912-.301.682-1.119 1.109-2.716 1.122z" data-name="패스 1178" transform="translate(-49.172 -110.176)" opacity=".2"/><ellipse id="타원_230" cx="79.871" cy="10.866" class="cls-7" data-name="타원 230" rx="79.871" ry="10.866" transform="translate(4.958 170.445)"/><ellipse id="타원_231" cx="67.057" cy="9.123" class="cls-8" data-name="타원 231" rx="67.057" ry="9.123" transform="translate(17.772 172.188)"/><ellipse id="타원_232" cx="120.874" cy="16.444" class="cls-7" data-name="타원 232" rx="120.874" ry="16.444" transform="translate(236.456 265.667)"/><ellipse id="타원_233" cx="72.61" cy="9.878" class="cls-7" data-name="타원 233" rx="72.61" ry="9.878" transform="translate(60.057 265.826)"/><path id="패스_1179" d="M462.609 574.441c38.441 9.823 112.332-12.814 120.447-38.441" class="cls-9" data-name="패스 1179" transform="translate(-265.021 -307.065)"/><path id="패스_1180" d="M309.609 255.975s55.525-15.376 58.942 34.169-45.7 63.64-7.261 73.464" class="cls-9" data-name="패스 1180" transform="translate(-177.37 -145.352)"/><path id="패스_1181" d="M184.011 536.374s16.689-4.621 17.716 10.27-13.736 19.128-2.182 22.08" class="cls-9" data-name="패스 1181" transform="translate(-105.417 -306.891)"/><path id="패스_1182" d="M762.029 561.5l-3.365 21.482s-16.564 8.8-4.917 9.059 66.516 0 66.516 0 10.612 0-6.212-9.318l-3.365-22.517z" class="cls-10" data-name="패스 1182" transform="translate(-429.431 -320.935)"/><path id="패스_1183" d="M751.409 591.812a45.825 45.825 0 0 1 7.26-4.806l3.365-21.482 48.658.046 3.365 21.177a44.167 44.167 0 0 1 7.775 5.116c2.161-.493 4.522-2.325-7.775-9.136l-3.365-22.517-48.658 1.29-3.365 21.482s-13.919 7.4-7.26 8.83z" class="cls-8" data-name="패스 1183" transform="translate(-429.436 -320.935)"/><rect id="사각형_745" width="219.219" height="152.703" class="cls-10" data-name="사각형 745" rx="18.046" transform="translate(247.059 90.843)"/><path id="사각형_746" d="M0 0h204.466v114.398H0z" class="cls-7" data-name="사각형 746" transform="translate(254.435 98.996)"/><circle id="타원_234" cx="1.294" cy="1.294" r="1.294" class="cls-1" data-name="타원 234" transform="translate(355.374 94.078)"/><path id="패스_1184" d="M797.652 520.822v13.386a7.706 7.706 0 0 1-7.706 7.707H586.141a7.707 7.707 0 0 1-7.708-7.706v-13.387z" class="cls-10" data-name="패스 1184" transform="translate(-331.374 -298.37)"/><path id="패스_1185" d="M782.212 654.969v2.588H642.968v-2.071l.192-.518 3.432-9.318h132.773z" class="cls-10" data-name="패스 1185" transform="translate(-368.345 -369.883)"/><path id="패스_1186" d="M1042 649.581c-.254 1.084-1.211 2.228-3.375 3.31-7.765 3.882-23.552-1.035-23.552-1.035s-12.164-2.071-12.164-7.506a9.7 9.7 0 0 1 1.067-.634c3.264-1.727 14.088-5.989 33.28.181a8 8 0 0 1 3.648 2.391 3.817 3.817 0 0 1 1.096 3.293z" class="cls-10" data-name="패스 1186" transform="translate(-574.551 -367.028)"/><path id="패스_1187" d="M1043.434 649.581c-9.5 3.642-17.975 3.913-26.669-2.125a19.092 19.092 0 0 0-11.357-3.74c3.264-1.727 14.088-5.989 33.28.181a8 8 0 0 1 3.648 2.391 3.817 3.817 0 0 1 1.098 3.293z" class="cls-8" data-name="패스 1187" transform="translate(-575.982 -367.028)"/><ellipse id="타원_235" cx="3.365" cy="1.035" class="cls-1" data-name="타원 235" rx="3.365" ry="1.035" transform="translate(452.172 278.357)"/><circle id="타원_236" cx="4.918" cy="4.918" r="4.918" class="cls-1" data-name="타원 236" transform="translate(351.751 228.146)"/><path id="패스_1188" d="M782.212 667.466v2.588H642.968v-2.071l.192-.518z" class="cls-8" data-name="패스 1188" transform="translate(-368.345 -382.38)"/><path id="사각형_747" d="M0 0h88.84v103.362H0z" class="cls-10" data-name="사각형 747" transform="translate(46.389 67.912)"/><path id="사각형_748" d="M0 0h106.779v36.732H0z" class="cls-7" data-name="사각형 748" transform="translate(37.419 57.661)"/><path id="사각형_749" d="M0 0h106.779v36.732H0z" class="cls-7" data-name="사각형 749" transform="translate(37.419 101.227)"/><path id="사각형_750" d="M0 0h106.779v36.732H0z" class="cls-7" data-name="사각형 750" transform="translate(37.419 144.793)"/><path id="사각형_751" d="M0 0h6.834v6.834H0z" class="cls-11" data-name="사각형 751" transform="translate(116.009 64.068)"/><path id="사각형_752" d="M0 0h6.834v6.834H0z" class="cls-12" data-name="사각형 752" transform="translate(125.833 64.068)"/><path id="사각형_753" d="M0 0h6.834v6.834H0z" class="cls-2" data-name="사각형 753" transform="translate(135.656 64.068)"/><path id="사각형_754" d="M0 0h6.834v6.834H0z" class="cls-11" data-name="사각형 754" transform="translate(116.009 107.206)"/><path id="사각형_755" d="M0 0h6.834v6.834H0z" class="cls-12" data-name="사각형 755" transform="translate(125.833 107.206)"/><path id="사각형_756" d="M0 0h6.834v6.834H0z" class="cls-2" data-name="사각형 756" transform="translate(135.656 107.206)"/><path id="사각형_757" d="M0 0h6.834v6.834H0z" class="cls-11" data-name="사각형 757" transform="translate(116.009 150.345)"/><path id="사각형_758" d="M0 0h6.834v6.834H0z" class="cls-12" data-name="사각형 758" transform="translate(125.833 150.345)"/><path id="사각형_759" d="M0 0h6.834v6.834H0z" class="cls-2" data-name="사각형 759" transform="translate(135.656 150.345)"/><circle id="타원_237" cx="33.742" cy="33.742" r="33.742" class="cls-10" data-name="타원 237" transform="translate(101.487 196.047)"/><path id="사각형_760" d="M0 0h10.251v18.366H0z" class="cls-10" data-name="사각형 760" transform="translate(119.853 256.27)"/><path id="사각형_761" d="M0 0h10.251v18.366H0z" class="cls-10" data-name="사각형 761" transform="translate(140.355 256.27)"/><ellipse id="타원_238" cx="8.542" cy="3.203" class="cls-10" data-name="타원 238" rx="8.542" ry="3.203" transform="translate(119.853 271.646)"/><ellipse id="타원_239" cx="8.542" cy="3.203" class="cls-10" data-name="타원 239" rx="8.542" ry="3.203" transform="translate(140.355 271.219)"/><circle id="타원_240" cx="11.532" cy="11.532" r="11.532" class="cls-13" data-name="타원 240" transform="translate(124.551 209.714)"/><circle id="타원_241" cx="3.844" cy="3.844" r="3.844" class="cls-7" data-name="타원 241" transform="translate(132.239 217.403)"/><path id="패스_1189" d="M239.307 426.7c-2.724-12.2 5.985-24.531 19.453-27.538s26.595 4.446 29.319 16.648-6.2 16.7-19.669 19.709-26.378 3.381-29.103-8.819z" class="cls-2" data-name="패스 1189" transform="translate(-136.809 -228.293)"/><ellipse id="타원_242" cx="16.871" cy="5.296" class="cls-10" data-name="타원 242" rx="16.871" ry="5.296" transform="rotate(-23.15 610.787 -249.432)"/><ellipse id="타원_243" cx="16.871" cy="5.296" class="cls-10" data-name="타원 243" rx="16.871" ry="5.296" transform="rotate(-23.15 634.446 -83.738)"/><path id="패스_1190" d="M313.914 557.867c0 3.3-8.5 9.824-17.939 9.824s-18.366-6.094-18.366-9.4 8.931-2.563 18.366-2.563 17.939-1.163 17.939 2.139z" class="cls-13" data-name="패스 1190" transform="translate(-159.037 -318.255)"/></g></svg>