<svg xmlns="http://www.w3.org/2000/svg" width="17.65" height="17.65" viewBox="0 0 17.65 17.65">
    <defs>
        <style>
            .cls-1{fill:#e9841a}.cls-2{fill:#ba6b24}.cls-3{fill:#ffce31}.cls-4{fill:#fff}.cls-5{fill:#83bf4f}.cls-6{fill:#699635}.cls-7{fill:#75a843}.cls-8{fill:#adea73}
        </style>
    </defs>
    <g id="그룹_379" data-name="그룹 379" transform="translate(887.638 418.945)">
        <g id="그룹_378" data-name="그룹 378" transform="translate(-887.638 -418.945)">
            <path id="패스_209" d="M-869.988-409c0 4.725-6.157 7.182-8.825 7.182s-8.825-2.457-8.825-7.182c0-5.552 3.654-8.524 7.668-7.761a6.253 6.253 0 0 0 1.876.106c4.578-1.245 8.106 1.955 8.106 7.655z" class="cls-1" data-name="패스 209" transform="translate(887.638 419.472)"/>
            <path id="패스_210" d="M-883.217-408.986c0-3.881 1.4-5.661 2.719-7.6-2.985.575-5.817 1.921-5.817 7.336 0 4.2 3.6 6.639 5.881 7.2a10.04 10.04 0 0 1-2.783-6.936z" class="cls-2" data-name="패스 210" transform="translate(887.983 419.561)"/>
            <path id="패스_211" d="M-876.82-409.013c0-3.881-1.871-5.531-3.142-7.467 2.879.575 6.13 1.79 6.13 7.205a7.7 7.7 0 0 1-5.673 7.2 10.231 10.231 0 0 0 2.685-6.938z" class="cls-2" data-name="패스 211" transform="translate(889.639 419.587)"/>
            <path id="패스_212" d="M-878.8-409.733c0 5.92-1.525 7.949-1.525 7.949s-1.524-2.028-1.524-7.949 1.578-7.336 1.578-7.336 1.471 1.415 1.471 7.336z" class="cls-2" data-name="패스 212" transform="translate(889.148 419.434)"/>
            <path id="패스_213" d="M-881.105-412.5c.314 1.553-1.29 2.833-1.711 2.7-1.333-.415-3.123-3.093-3.123-3.608 0-.439 3.268 1.055 3.6 1.162.456.146 1.153-.649 1.234-.254z" class="cls-3" data-name="패스 213" transform="translate(888.081 420.367)"/>
            <path id="패스_214" d="M-879.162-412.5c-.315 1.553 1.29 2.833 1.711 2.7 1.333-.415 3.123-3.093 3.123-3.608 0-.439-3.268 1.055-3.6 1.162-.456.146-1.153-.649-1.234-.254z" class="cls-3" data-name="패스 214" transform="translate(889.838 420.367)"/>
            <path id="패스_215" d="M-881.3-412.644c.314 1.553-1.29 2.833-1.711 2.7a3.969 3.969 0 0 1-2.169-2.869c0-.439 2.314.316 2.645.424.454.146 1.152-.647 1.235-.255z" class="cls-4" data-name="패스 215" transform="translate(888.278 420.508)"/>
            <path id="패스_216" d="M-879.162-412.644c-.315 1.553 1.29 2.833 1.711 2.7a3.969 3.969 0 0 0 2.169-2.869c0-.439-2.313.316-2.646.424-.456.146-1.153-.647-1.234-.255z" class="cls-4" data-name="패스 216" transform="translate(889.838 420.508)"/>
            <path id="패스_217" d="M-878.61-410.055c0 .995-.751.1-1.681.1s-1.679.894-1.679-.1 1.335-1.6 1.679-1.6 1.681.604 1.681 1.6z" class="cls-3" data-name="패스 217" transform="translate(889.116 420.846)"/>
            <path id="패스_218" d="M-879.155-410.6c0 .658-.55.067-1.229.067s-1.228.591-1.228-.067.976-1.056 1.228-1.056 1.229.401 1.229 1.056z" class="cls-4" data-name="패스 218" transform="translate(889.209 420.846)"/>
            <path id="패스_219" d="M-886.517-411.125l.919 3.756 1.4-.62 1.087 1.914 1.867-.691 1.214 1.417 1.12-1.344 2.194 1.562.84-2 1.074 1.054.653-1.672 1.027.582 1.867-3.96-2.16 2.472-.956-.993-.811 1.517-1.366-.733-.887 1.274-1.453-1.09-1.187 1.623-1.26-1.7-1.544.894-.859-1.645-1.373.727z" class="cls-3" data-name="패스 219" transform="translate(887.93 420.984)"/>
            <path id="패스_220" d="M-883.819-407.627l1.815-.248 1.359 1.471 1.271-1.163 1.784 1.257.828-1.822 1.232.328.588-2.15-.811 1.517-1.366-.732-.887 1.274-1.453-1.09-1.187 1.623-1.26-1.7-1.544.894-.859-1.645z" class="cls-4" data-name="패스 220" transform="translate(888.506 421.29)"/>
            <path id="패스_221" d="M-882.471-415.755s.465.277.4.643a13.4 13.4 0 0 0 2.824.12s.287-.87-.06-1.234a2.277 2.277 0 0 1 .816-1.759c.214-.124-1.328-1.215-1.769-.842a3.822 3.822 0 0 0-1.295 2.616 2.167 2.167 0 0 0-.916.456z" class="cls-5" data-name="패스 221" transform="translate(888.985 418.955)"/>
            <path id="패스_222" d="M-882.071-415.661a1.48 1.48 0 0 0 .518-1.137 2.7 2.7 0 0 0-.918.494.875.875 0 0 1 .4.643z" class="cls-6" data-name="패스 222" transform="translate(888.985 419.505)"/>
            <path id="패스_223" d="M-879.827-415.156a2.677 2.677 0 0 1 .135-3.007c.158-.178.759-.086.759-.086-.516.475-.98 1.557-.707 1.808s.846.57 1.017.7-.806.168-1.204.585z" class="cls-7" data-name="패스 223" transform="translate(889.565 419.12)"/>
            <path id="패스_224" d="M-878.887-417.976a1.686 1.686 0 0 1-1.251-.234c-.485-.253-.711-.559-.506-.682a1.682 1.682 0 0 1 1.252.233c.486.254.712.559.505.683z" class="cls-8" data-name="패스 224" transform="translate(889.442 418.945)"/>
        </g>
    </g>
</svg>
