<svg xmlns="http://www.w3.org/2000/svg" width="75.157" height="78.384" viewBox="0 0 75.157 78.384">
    <defs>
        <style>
            .cls-1{opacity:.33}.cls-2{fill:none}.cls-3{fill:#2f2e41}.cls-4{fill:#fff}.cls-5{fill:#3f3d56}
        </style>
    </defs>
    <g id="그룹_377" class="cls-1" data-name="그룹 377" transform="translate(727.638 815.887)">
        <path id="패스_200" d="M-657.108-778.729c-.066.034-.128.074-.193.109a24.1 24.1 0 0 1 4.82 2.417v-3.518a10.212 10.212 0 0 0-4.627.992z" class="cls-2" data-name="패스 200"/>
        <path id="패스_201" d="M-652.481-806.224v-.306l-3.559 2.055c-.066.038 1.545-.755 3.559-1.749z" class="cls-2" data-name="패스 201"/>
        <path id="패스_202" d="M-652.481-781.987v-.51l-3.25-3.6c.231.279 1.662 2.11 3.25 4.11z" class="cls-2" data-name="패스 202"/>
        <path id="패스_203" d="M-697.856-771.006c-1.458-2.821-4.126-8.178-4.421-8.689a3.125 3.125 0 0 0-2.137-1.49 2.523 2.523 0 0 1 .433.6 3.065 3.065 0 0 1 .4 1.132 5.937 5.937 0 0 0-5.223-.051c-6.311 2.2-17.5 5.676-17.5 5.676a2.119 2.119 0 0 0-1.331.939l.147.254a4.824 4.824 0 0 1 4.375 2.414 4.7 4.7 0 0 1 .537 3.438l-.767.442c-.191.111-.209.375-.047.378a.38.38 0 0 0 .275.181l10.793-6.232c.133-.076-5.529 3.7-8.539 5.7 5.139-.242 13.088 3.939 15.107 9.5l-.161 2.817a.463.463 0 0 0 .423.437.328.328 0 0 0 .319-.184l.55-9.517c.028-.1.123 4.783.112 8.452 1.831-1.4 6.5-4.521 9.332-1.387l.817 2.6c.01.163.248.282.477.235.163-.011.282-.248.235-.477l-.037-.064-2.838-8.751c-.037-.064 1.763 4.529 3.118 7.908a10.232 10.232 0 0 1 3.973-5.361c.059-.038.121-.07.181-.106a24.152 24.152 0 0 1 1.328-4.694c-4.314-.674-7.931-2.253-9.931-6.1z" class="cls-3" data-name="패스 203"/>
        <path id="패스_204" d="M-666.942-800.649a3.058 3.058 0 0 1-.783-.911 2.288 2.288 0 0 1-.3-.676 3.131 3.131 0 0 0 .222 2.6c.295.51 3.563 5.435 5.314 8.172 2.269 3.676 1.83 7.588.307 11.617a24.165 24.165 0 0 1 4.885 1.23c.065-.035.127-.075.193-.109a10.212 10.212 0 0 1 4.627-.992v-2.266c-1.588-2-3.015-3.831-3.25-4.115l3.25 3.6v-23.727a479.812 479.812 0 0 1-3.559 1.749l3.559-2.055v-9.357c-2.784 2.554-8.253 7.544-11.894 10.689a6.149 6.149 0 0 0-2.571 4.551z" class="cls-3" data-name="패스 204"/>
        <path id="패스_205" d="M-662.186-779.85a23.917 23.917 0 0 0-15.42 2.97 23.916 23.916 0 0 0-10.322 11.968 24.152 24.152 0 0 0-1.328 4.694 23.927 23.927 0 0 0 2.855 16.159 23.965 23.965 0 0 0 5.559 6.556h28.361v-10.484a11.457 11.457 0 0 1-4.319 6.587c-5.75 3.948-14.83.175-14.946-2.04-.071-1.348 3.214-1.523 9.475-5.471 6.308-3.977 7.893-6.9 9.155-6.238a1.572 1.572 0 0 1 .631.74V-776.2a24.1 24.1 0 0 0-4.82-2.417 24.165 24.165 0 0 0-4.881-1.233zm-2.869 25.924a8.211 8.211 0 0 1-11.217-3.005 8.212 8.212 0 0 1 3-11.218 8.213 8.213 0 0 1 11.218 3.006 8.211 8.211 0 0 1-3.001 11.217z" class="cls-3" data-name="패스 205"/>
        <path id="패스_206" d="M-673.267-768.149a8.212 8.212 0 0 0-3 11.218 8.211 8.211 0 0 0 11.217 3.005 8.211 8.211 0 0 0 3.006-11.217 8.213 8.213 0 0 0-11.223-3.006zm5.473 9.483a2.736 2.736 0 0 1-3.739-1 2.737 2.737 0 0 1 1-3.739 2.737 2.737 0 0 1 3.739 1 2.737 2.737 0 0 1-1 3.739z" class="cls-4" data-name="패스 206"/>
        <path id="패스_207" d="M-670.531-763.407a2.737 2.737 0 0 0-1 3.739 2.736 2.736 0 0 0 3.739 1 2.737 2.737 0 0 0 1-3.739 2.737 2.737 0 0 0-3.739-1z" class="cls-5" data-name="패스 207"/>
        <path id="패스_208" d="M-653.112-755.152c-1.262-.662-2.847 2.261-9.155 6.238-6.261 3.948-9.546 4.123-9.475 5.471.116 2.215 9.2 5.988 14.946 2.04a11.457 11.457 0 0 0 4.315-6.584v-6.425a1.572 1.572 0 0 0-.631-.74z" class="cls-4" data-name="패스 208"/>
    </g>
</svg>
