<svg xmlns="http://www.w3.org/2000/svg" width="92.727" height="24" viewBox="0 0 92.727 24">
    <defs>
        <style>
            .cls-1{fill:#fff}
        </style>
    </defs>
    <g id="CI_goorm_black" transform="translate(-29.114 2150.922)">
        <path id="패스_2369" d="M36.536-2150.895a8.523 8.523 0 0 0-3.023.985A8.62 8.62 0 0 0 31-2147.8a8.452 8.452 0 0 0-1.876 4.826c-.019.3-.009 1.365.016 1.574.031.265.064.491.1.681a8.288 8.288 0 0 0 1.915 3.941 11.057 11.057 0 0 0 .839.828 8.253 8.253 0 0 0 4.284 1.925 6.718 6.718 0 0 0 1.1.069 6.693 6.693 0 0 0 .991-.051 8.31 8.31 0 0 0 4.212-1.763c.061-.049.114-.088.117-.088s.006 1.242-.006 1.4a4.724 4.724 0 0 1-.456 1.709 4.346 4.346 0 0 1-1.414 1.714 5.087 5.087 0 0 1-3.65.744 5.471 5.471 0 0 1-1.615-.494 5.774 5.774 0 0 1-2.117-1.733c-.073-.1-.143-.194-.155-.215s-.026-.036-.032-.036-.373.15-1.7.7l-.864.359-.555.229-.053.024.057.107a8.591 8.591 0 0 0 3.124 3.247 8.31 8.31 0 0 0 3.776 1.17c.242.019 1.184.019 1.466 0a8.808 8.808 0 0 0 3.518-.894 6.938 6.938 0 0 0 2.564-2.193 8.051 8.051 0 0 0 1.505-3.98c.026-.251.04-2.635.035-6.149a23.485 23.485 0 0 0-.065-3.416 8.53 8.53 0 0 0-3.883-6.073 8.467 8.467 0 0 0-3.233-1.218 6.25 6.25 0 0 0-1.347-.062 7.6 7.6 0 0 0-1.062.023zm1.705 3.6a5.079 5.079 0 0 1 3.018 1.5 5.1 5.1 0 0 1 1.341 4.595 5.085 5.085 0 0 1-1.439 2.629 5.089 5.089 0 0 1-3.168 1.428 6.43 6.43 0 0 1-1.2-.07 4.907 4.907 0 0 1-1.429-.46 4.965 4.965 0 0 1-1.486-1.109 5.067 5.067 0 0 1-1.292-2.643 5.1 5.1 0 0 1 .494-3.136 5.1 5.1 0 0 1 3.9-2.733 3.656 3.656 0 0 1 .688-.03 4.108 4.108 0 0 1 .573.024z" class="cls-1" data-name="패스 2369"/>
        <path id="패스_2370" d="M1721.97-2134.968a8.507 8.507 0 0 0-6.593 3.767 8.455 8.455 0 0 0-1.415 4.184 12.11 12.11 0 0 0 0 1.078 8.488 8.488 0 0 0 2.095 5.065c.153.175.616.638.787.786a8.488 8.488 0 0 0 3.96 1.947 7.854 7.854 0 0 0 1.644.156 7.854 7.854 0 0 0 1.644-.156 8.465 8.465 0 0 0 3.923-1.915c.188-.161.658-.627.823-.817a8.468 8.468 0 0 0 2.073-4.791 10.362 10.362 0 0 0 .023-1.341 8.446 8.446 0 0 0-1.686-4.574 8.231 8.231 0 0 0-.434-.535 8.918 8.918 0 0 0-.845-.828 8.473 8.473 0 0 0-3.907-1.884 8.848 8.848 0 0 0-2.092-.142zm1.015 3.438a5.082 5.082 0 0 1 2.736 1.164 6.6 6.6 0 0 1 .624.626 5.059 5.059 0 0 1 1.179 2.842 7.231 7.231 0 0 1 0 .864 5.022 5.022 0 0 1-.489 1.779 4.883 4.883 0 0 1-.99 1.394 5.036 5.036 0 0 1-1.934 1.213 4.758 4.758 0 0 1-1.557.271 4.691 4.691 0 0 1-1.367-.151 5.117 5.117 0 0 1-3.325-2.716 5.1 5.1 0 0 1-.231-3.876 5.108 5.108 0 0 1 3.093-3.136 5.314 5.314 0 0 1 1.362-.29 7.709 7.709 0 0 1 .899.015z" class="cls-1" data-name="패스 2370" transform="translate(-1665.684 -15.761)"/>
        <path id="패스_2371" d="M3405.538-2134.969c-.177.007-.547.04-.744.067a8.45 8.45 0 0 0-3.552 1.329 7.873 7.873 0 0 0-1.335 1.1 8.219 8.219 0 0 0-1.305 1.674c-.081.136-.321.579-.321.593s-.031.068-.067.145a8.549 8.549 0 0 0-.729 4.645 8.538 8.538 0 0 0 .969 3.01 8.521 8.521 0 0 0 6.482 4.377 6.843 6.843 0 0 0 .848.047 7.915 7.915 0 0 0 1.782-.15 8.488 8.488 0 0 0 3.98-1.965 9.8 9.8 0 0 0 1.041-1.1 8.457 8.457 0 0 0 1.794-4.422 9.059 9.059 0 0 0-.027-1.955 8.467 8.467 0 0 0-1.158-3.3 8.53 8.53 0 0 0-4.789-3.728 8.62 8.62 0 0 0-2.869-.367zm.955 3.446a4.951 4.951 0 0 1 1.671.491 4.913 4.913 0 0 1 1.4 1.013 5.066 5.066 0 0 1 1.439 3.167 6.833 6.833 0 0 1-.022 1.013 5.085 5.085 0 0 1-1.45 2.975 5.061 5.061 0 0 1-2.651 1.408 4.045 4.045 0 0 1-.935.081 4.06 4.06 0 0 1-.873-.064 5.094 5.094 0 0 1-3.513-2.4 5.158 5.158 0 0 1-.709-2.161 7.1 7.1 0 0 1 .005-.985 5.084 5.084 0 0 1 1.48-3.09 5.1 5.1 0 0 1 3.292-1.477 7.86 7.86 0 0 1 .866.029z" class="cls-1" data-name="패스 2371" transform="translate(-3330.019 -15.765)"/>
        <path id="패스_2372" d="M6108.693-2099.887a6.793 6.793 0 0 0-3.312 1.045 6.419 6.419 0 0 0-1.2.978l-.275.277-.249-.249c-.133-.138-.3-.294-.359-.349a6.8 6.8 0 0 0-4.041-1.677 9.005 9.005 0 0 0-.9 0 7.535 7.535 0 0 0-1.2.187 6.807 6.807 0 0 0-4.666 4.089 6.727 6.727 0 0 0-.471 2.157c-.008.125-.013 1.974-.013 4.965v4.766h3.411V-2093.389l.025-.159a3.386 3.386 0 0 1 .338-1.051 3.4 3.4 0 0 1 2.457-1.807 3.189 3.189 0 0 1 .668-.042 3.157 3.157 0 0 1 1.4.349 3.342 3.342 0 0 1 1.533 1.521 3.393 3.393 0 0 1 .328 1.03l.025.159V-2083.698h3.41v-4.772c0-3.275 0-4.811.012-4.9a3.394 3.394 0 0 1 .981-2.092 3.415 3.415 0 0 1 1.912-.962 2.7 2.7 0 0 1 .483-.024 2.565 2.565 0 0 1 .7.064 3.407 3.407 0 0 1 2.063 1.342 3.4 3.4 0 0 1 .6 1.486l.029.154v9.701h3.41v-4.681c0-5.574 0-5.109-.015-5.3a6.752 6.752 0 0 0-1.9-4.148 6.7 6.7 0 0 0-1.687-1.272 6.86 6.86 0 0 0-2.5-.758 7.561 7.561 0 0 0-.997-.027z" class="cls-1" data-name="패스 2372" transform="translate(-5993.968 -50.448)"/>
        <path id="패스_2373" d="M5125.317-2097.535a7.646 7.646 0 0 0-3.928 1.292 7.694 7.694 0 0 0-2.559 2.891 7.532 7.532 0 0 0-.789 2.672c-.041.369-.041.529-.041 4.917v4.38h3.409v-4.376c0-4.779 0-4.509.064-4.876a4.2 4.2 0 0 1 1.146-2.216 4.192 4.192 0 0 1 2.264-1.212 6.377 6.377 0 0 1 1.458-.071h1.014v-3.4h-1.268a12.902 12.902 0 0 0-.77-.001z" class="cls-1" data-name="패스 2373" transform="translate(-5031.041 -52.775)"/>
    </g>
</svg>
