<svg xmlns="http://www.w3.org/2000/svg" width="64" height="45.312" viewBox="0 0 64 45.312">
    <defs>
        <style>
            .cls-1{fill:#fff}
        </style>
    </defs>
    <g id="KakaoTalk_20180817_144514503" transform="translate(-2 217.949)">
        <path id="패스_2389" d="M29.9-217.754a2.308 2.308 0 0 0-1.5 2c0 1.3.375 1.75 1.975 2.35 1.6.575 2.075 1.15 1.375 1.65a3.3 3.3 0 0 1-2.625-.2.568.568 0 0 0-.75.175c-.825 1 1.45 1.925 3.45 1.375 1.35-.375 2.075-1.125 2.075-2.175 0-1.1-.65-1.775-2.25-2.3-1.15-.4-1.375-.575-1.375-1.075 0-.525.125-.6.875-.6a7.281 7.281 0 0 1 1.55.2c.55.15.7.075.825-.325.275-.875-.3-1.25-1.85-1.225a8.13 8.13 0 0 0-1.775.15z" class="cls-1" data-name="패스 2389" transform="translate(-19.654 -.033)"/>
        <path id="패스_2390" d="M165.165-217.786c-.325.3-.175.825.2.825.3 0 .375.475.375 2.725 0 2.2-.075 2.75-.375 2.875a.6.6 0 0 0-.375.525c0 .3.4.375 2.225.375 2.65 0 3.675-.3 4.175-1.3a1.5 1.5 0 0 0-.525-2.15c-.6-.475-.6-.5-.125-.925a1.769 1.769 0 0 0 .175-2.225 2.727 2.727 0 0 0-1.3-.65c-1.15-.275-4.225-.325-4.45-.075zm3.6 1.325c.875.475.35 1.75-.75 1.75-.3 0-.375-1.55-.1-1.825.2-.225.275-.225.85.075zm.475 3.1a1.455 1.455 0 0 1 .2.95c-.05.45-.25.6-.875.65-.8.075-.825.05-.825-.925 0-.9.075-1.025.6-1.025a1.466 1.466 0 0 1 .9.35z" class="cls-1" data-name="패스 2390" transform="translate(-122.24)"/>
        <path id="패스_2391" d="M55.323-209.458a2.728 2.728 0 0 0-.925.925 5.527 5.527 0 0 0-.1 3.475c.5.95 3.525 1.25 4.2.425.45-.525-.025-.85-1.175-.825-1.1.025-1.125 0-1.35-.9a2.229 2.229 0 0 1 .125-1.625c.35-.725.8-.825 1.9-.475.525.175.575.125.5-.525s-.15-.7-1.325-.75a3.844 3.844 0 0 0-1.85.275z" class="cls-1" data-name="패스 2391" transform="translate(-39.048 -6.153)"/>
        <path id="패스_2392" d="M75-209.525a.875.875 0 0 0 .25.65 3.617 3.617 0 0 1 .25 1.75 3.616 3.616 0 0 1-.25 1.75.7.7 0 0 0-.25.525c0 .275.375.35 1.625.35 1.325 0 1.625-.075 1.625-.4a.632.632 0 0 0-.5-.525c-.4-.1-.5-.35-.5-1.175 0-1.8.2-2.15 1.05-1.975.8.15 1.2-.175 1.2-1 0-.475-.825-.575-1.85-.175-.425.15-.65.15-.65 0s-.45-.25-1-.25c-.825 0-1 .075-1 .475z" class="cls-1" data-name="패스 2392" transform="translate(-54.75 -5.961)"/>
        <path id="패스_2393" d="M95.4-209.475a3.3 3.3 0 0 0-.95 3.475 2.231 2.231 0 0 0 .725 1.225 5.394 5.394 0 0 0 3.05.325c.7-.15.875-.3.875-.8q0-.638-.375-.525c-1.325.35-1.85.325-2.175-.125-.525-.725-.4-.85.775-.85 1.65 0 1.9-.15 1.9-1.275 0-1.35-.675-1.975-2.1-1.975a2.632 2.632 0 0 0-1.725.525zm2.075 1.25c0 .35-.175.475-.625.475-.65 0-.825-.45-.35-.925a.562.562 0 0 1 .974.45z" class="cls-1" data-name="패스 2393" transform="translate(-69.224 -5.961)"/>
        <path id="패스_2394" d="M116.235-209.7a.687.687 0 0 0 .275.7 6.236 6.236 0 0 1 .825 2.375c.375 1.775.525 2.1 1 2.2 1.15.3 1.5-.125 2.1-2.4l.3-1.125.3 1.4c.425 2.025.525 2.225 1.25 2.225.8 0 1.4-.95 2-3.125a3.7 3.7 0 0 1 .65-1.625c.125 0 .225-.225.225-.5 0-.425-.175-.5-.975-.5-1.075 0-1.475.325-1.025.85.2.275.175.7-.075 1.7l-.35 1.325-.3-1.5c-.4-2-.55-2.225-1.575-2.325l-.9-.075-.3 1.65a6.379 6.379 0 0 1-.5 1.75c-.1.075-.275-.525-.375-1.325a6.176 6.176 0 0 0-.425-1.75c-.375-.45-1.925-.375-2.125.075z" class="cls-1" data-name="패스 2394" transform="translate(-85.66 -5.886)"/>
        <path id="패스_2395" d="M194.575-209.779c-.425.15-.4.95.025 1.3.25.225.5.225.975 0 .725-.325 1.425-.15 1.425.35 0 .225-.4.425-1.05.525-1.375.225-1.95.75-1.95 1.8 0 1.125.875 1.725 2.05 1.45a7.584 7.584 0 0 1 1.9-.125c.8.025 1.1-.05 1.225-.375.1-.25.05-.475-.125-.55-.2-.05-.3-.75-.3-1.925 0-1.625-.075-1.9-.55-2.225a6.547 6.547 0 0 0-3.625-.225zM197-206.2a.637.637 0 0 1-1.05.55.637.637 0 0 1 .55-1.05.449.449 0 0 1 .5.5z" class="cls-1" data-name="패스 2395" transform="translate(-144 -6.008)"/>
        <path id="패스_2396" d="M217.184-209.706c-.1.125 0 .45.225.7.575.65.55 3.225-.025 3.675-.75.525-.075.875 1.55.8 1.5-.075 2.175-.6 1.15-.875-.45-.1-.525-.325-.525-1.325 0-1.725.15-2 1-1.85.55.125.775.025 1-.375a1.055 1.055 0 0 0 .125-.775c-.2-.325-1.275-.325-1.9 0-.325.175-.475.175-.475 0 0-.325-1.925-.325-2.125.025z" class="cls-1" data-name="패스 2396" transform="translate(-161.309 -5.98)"/>
        <path id="패스_2397" d="M24.05-155.675l-.825 2.625h-3.35l-2.5-2.5a34.766 34.766 0 0 0-2.65-2.5 10.2 10.2 0 0 0-.875 2.5l-.725 2.5H2v19.5h5.375l2.775 2.775 2.8 2.8.425-1.475c.225-.825.6-2.075.8-2.8l.425-1.3h3.075l2.55 2.75A26.035 26.035 0 0 0 23-128.05c.1 0 .275-.3.375-.7.075-.375.45-1.6.775-2.725l.625-2.075h2.85l2.75 2.75a20.346 20.346 0 0 0 2.85 2.6 25.407 25.407 0 0 0 .9-2.675l.775-2.55 1.475-.075 1.475-.075 2.8 2.8 2.8 2.8.625-2.1c.35-1.15.725-2.4.8-2.775.175-.675.25-.7 1.75-.7h1.6l2.575 2.75c1.425 1.5 2.65 2.75 2.725 2.75a2.81 2.81 0 0 0 .45-1.075c.175-.575.55-1.8.825-2.725l.5-1.7H66v-19.5h-5.375l-2.55-2.55a17.328 17.328 0 0 0-2.7-2.425 20.365 20.365 0 0 0-.825 2.5l-.7 2.35-1.75.075-1.725.075-2.5-2.525a30.114 30.114 0 0 0-2.65-2.5 14.513 14.513 0 0 0-.85 2.5l-.7 2.5H41.9l-1.775.025-2.55-2.7-2.525-2.675-.825 2.675-.8 2.675h-3.3l-2.625-2.625-2.65-2.65zm-6.825 1.475l1.825 1.85-3.325 11.175-3.325 11.15-1.95-1.95-1.95-1.95L11.8-145c1.825-6.075 3.375-11.05 3.45-11.05a18.059 18.059 0 0 1 1.975 1.85zm10.225.05l1.75 1.9-.3 1.05c-.175.55-1.65 5.55-3.3 11.075-1.625 5.55-3.025 10.05-3.1 10-.075-.025-.95-.925-1.975-1.975l-1.825-1.925 3.05-10.2c1.7-5.6 3.175-10.575 3.3-11.025.125-.425.325-.8.45-.8a13.466 13.466 0 0 1 1.95 1.9zm9.25 10.925c-1.5 4.975-3 10-3.35 11.15l-.65 2.1-1.85-1.85A8.6 8.6 0 0 1 29-134.05c0-.3 5.875-20.25 6.4-21.725.075-.25.725.225 2.075 1.575l1.95 1.925zM47.725-154.2c1.525 1.525 1.825 1.95 1.7 2.45-.25.95-6.45 21.55-6.525 21.625A24.476 24.476 0 0 1 40.95-132l-1.925-1.925 3.3-11.05c1.825-6.1 3.35-11.075 3.425-11.075a18.058 18.058 0 0 1 1.975 1.85zm10.25 0l1.825 1.825-3.35 11.15-3.325 11.175-1.95-1.975-1.975-1.95L52.525-145c1.825-6.075 3.375-11.05 3.45-11.05a17.08 17.08 0 0 1 2 1.85zm-46.15 5.325c-.5 1.625-1.65 5.475-2.55 8.575L7.6-134.675l-2.3.075-2.3.075V-151.8h9.7zM22.75-151.6c0 .175-4.1 14.15-4.775 16.225-.25.8-.3.825-1.625.825-.75 0-1.35-.1-1.35-.225 0-.1.9-3.175 1.975-6.8C18.075-145.2 19.2-149 19.5-150l.525-1.8h1.35c.75 0 1.375.1 1.375.2zm10.15.225c-.05.25-1.225 4.125-2.55 8.625l-2.45 8.2h-1.325c-.9 0-1.325-.1-1.325-.325 0-.25 4.475-15.55 4.875-16.625.075-.175.625-.3 1.5-.3 1.225 0 1.4.05 1.275.425zm10.35-.375c0 .05-1.175 3.9-2.575 8.575l-2.55 8.5-1.475.075c-1.1.05-1.425 0-1.325-.25.05-.175 1.225-4.075 2.575-8.625l2.475-8.325h1.45a10.856 10.856 0 0 1 1.425.05zm8.225 6.5c-1.1 3.625-2.25 7.5-2.6 8.625l-.65 2.075H46.85c-1.225 0-1.4-.05-1.3-.45.075-.225 1.225-4.1 2.575-8.625l2.45-8.175h2.85zM65-143.175v8.625h-4.625c-3.175 0-4.625-.075-4.625-.275 0-.225 3.925-13.45 4.775-16.175l.275-.8H65z" class="cls-1" data-name="패스 2397" transform="translate(0 -44.661)"/>
        <path id="패스_2398" d="M47.4-99.2a.4.4 0 0 0 .4.4.4.4 0 0 0 .4-.4.4.4 0 0 0-.4-.4.4.4 0 0 0-.4.4z" class="cls-1" data-name="패스 2398" transform="translate(-34.05 -88.761)"/>
        <path id="패스_2399" d="M88.4-99.2a.4.4 0 0 0 .4.4.4.4 0 0 0 .4-.4.4.4 0 0 0-.4-.4.4.4 0 0 0-.4.4z" class="cls-1" data-name="패스 2399" transform="translate(-64.8 -88.761)"/>
        <path id="패스_2400" d="M128.683-99.394c.125.175.2.375.125.425-.05.075.1.125.325.15a.391.391 0 0 0 .45-.375c0-.275-.225-.45-.6-.45-.425-.05-.5.025-.3.25z" class="cls-1" data-name="패스 2400" transform="translate(-94.933 -88.717)"/>
        <path id="패스_2401" d="M169.4-99.175a.368.368 0 0 0 .4.4.413.413 0 0 0 .025-.825.438.438 0 0 0-.425.425z" class="cls-1" data-name="패스 2401" transform="translate(-125.55 -88.761)"/>
        <path id="패스_2402" d="M210.4-99.2a.4.4 0 0 0 .4.4.4.4 0 0 0 .4-.4.4.4 0 0 0-.4-.4.4.4 0 0 0-.4.4z" class="cls-1" data-name="패스 2402" transform="translate(-156.3 -88.761)"/>
    </g>
</svg>
