<svg xmlns="http://www.w3.org/2000/svg" width="114.681" height="110" viewBox="0 0 114.681 110">
    <defs>
        <style>
            .cls-1{fill:#4a4a4a;stroke:#707070}.cls-2{stroke:rgba(0,0,0,0);font-size:108px;font-family:GungsuhChe}
        </style>
    </defs>
    <g id="그룹_506" data-name="그룹 506" transform="translate(-19.561 -118)">
        <g id="Leaves" transform="translate(20 168.564)">
            <path id="패스_2123" d="M1781.356 835.314l6.575 32.62.631-.4z" class="cls-1" data-name="패스 2123" transform="translate(-1766.559 -816.126)"/>
            <path id="패스_2124" d="M1858.565 753.354l6.7 42.313-.864-.14z" class="cls-1" data-name="패스 2124" transform="translate(-1853.134 -744.642)"/>
            <path id="패스_2125" d="M1903.953 699.994s-.175 5.466-1.074 6.82a8.713 8.713 0 0 1 1.074-6.82" class="cls-1" data-name="패스 2125" transform="translate(-1897.448 -698.102)"/>
            <path id="패스_2126" d="M1880.889 715.8s-2.126 4.286-3.41 4.975a6.83 6.83 0 0 1 3.41-4.975" class="cls-1" data-name="패스 2126" transform="translate(-1871.172 -711.888)"/>
            <path id="패스_2127" d="M1911.937 685.191s2.885 6.353 2.207 8.456a8.267 8.267 0 0 1-2.207-8.456" class="cls-1" data-name="패스 2127" transform="translate(-1908.888 -685.191)"/>
            <path id="패스_2128" d="M1870.248 733.253s-2.313 5.559-3.037 7.113c-.175.362-.315.526-.42.537-.339.035-.42-1.226-.339-2.067.105-1.144 1.215-4.531 3.8-5.583" class="cls-1" data-name="패스 2128" transform="translate(-1859.118 -727.11)"/>
            <path id="패스_2129" d="M1894.755 792.239s.023-.023.011.023c-.117.514-.794 3.609-.782 4.146.023.6-.175-.794-.175-.794z" class="cls-1" data-name="패스 2129" transform="translate(-1887.141 -778.551)"/>
            <path id="패스_2130" d="M1904.17 754.288s.058-.023.047 0a14.32 14.32 0 0 0-.4 3.107c.012.6-.129-.49-.129-.49z" class="cls-1" data-name="패스 2130" transform="translate(-1897.851 -745.447)"/>
            <path id="패스_2131" d="M1864.125 752.349s-1.612 7.475-2.686 9.075c-1.366 2.044-1.214-2.044-.993-2.768s1.215-4.975 3.679-6.307" class="cls-1" data-name="패스 2131" transform="translate(-1852.212 -743.765)"/>
            <path id="패스_2132" d="M1904.17 754.288s.058-.023.047 0a14.32 14.32 0 0 0-.4 3.107c.012.6-.129-.49-.129-.49z" class="cls-1" data-name="패스 2132" transform="translate(-1897.851 -745.447)"/>
            <path id="패스_2133" d="M1887.869 825.558s.023-.035.012.023c-.117.572-.864 4.018-.853 4.625 0 .666-.163-.876-.163-.876z" class="cls-1" data-name="패스 2133" transform="translate(-1879.367 -807.607)"/>
            <path id="패스_2134" d="M1839.909 779.943s-3.434 8.3-4.893 9.962c-1.857 2.114-1.133-2.745-.724-3.55s2.85-5.279 5.618-6.412" class="cls-1" data-name="패스 2134" transform="translate(-1824.61 -767.832)"/>
            <path id="패스_2135" d="M1879.963 860.609s.058-.14.047-.082c-.14.631-1.156 4.041-1.145 4.718.012.736-.21-.853-.21-.853z" class="cls-1" data-name="패스 2135" transform="translate(-1870.444 -838.103)"/>
            <path id="패스_2136" d="M1828.417 813.751s-4.123 8.526-5.606 10.313c-1.88 2.266-.841-3.153-.175-4.578a13.671 13.671 0 0 1 5.781-5.734" class="cls-1" data-name="패스 2136" transform="translate(-1811.576 -797.318)"/>
            <path id="패스_2137" d="M1873.614 897.4s.058-.152.047-.082c-.14.677-1.2 4.31-1.2 5.034 0 .783-.2-.9-.2-.9z" class="cls-1" data-name="패스 2137" transform="translate(-1863.278 -870.19)"/>
            <path id="패스_2138" d="M1822.386 849.843s-4.123 8.537-5.606 10.324c-1.88 2.277-.841-3.153-.175-4.578a13.5 13.5 0 0 1 5.781-5.746" class="cls-1" data-name="패스 2138" transform="translate(-1804.774 -828.797)"/>
            <path id="패스_2139" d="M1867.629 933.494s.058-.152.047-.082c-.14.677-1.215 4.438-1.215 5.15 0 .782-.234-1.063-.234-1.063z" class="cls-1" data-name="패스 2139" transform="translate(-1856.522 -901.669)"/>
            <path id="패스_2140" d="M1807.889 882.919s-5.01 8.724-6.494 10.511c-1.88 2.277-.479-3.842.187-5.267.677-1.472 3.527-4.018 6.307-5.244" class="cls-1" data-name="패스 2140" transform="translate(-1788.327 -857.645)"/>
            <path id="패스_2141" d="M1858.53 968.286s.035-.082.023 0c-.164.818-1.518 5.279-1.542 6.143-.023.946-.292-1.25-.292-1.25z" class="cls-1" data-name="패스 2141" transform="translate(-1846.185 -932.069)"/>
            <path id="패스_2142" d="M1789.794 924.4a50.335 50.335 0 0 1-4.2 5.653 31.18 31.18 0 0 1-4.064 3.527c-2.266 1.892.35-3.609 1.261-4.893a14.317 14.317 0 0 1 7.008-4.286" class="cls-1" data-name="패스 2142" transform="translate(-1767.697 -893.826)"/>
            <path id="패스_2143" d="M1853.368 997.982s.035-.082.023 0c-.164.818-1.612 5.641-1.6 6.505 0 .21-.28-1.577-.28-1.577z" class="cls-1" data-name="패스 2143" transform="translate(-1840.357 -957.969)"/>
            <path id="패스_2144" d="M1784.918 962.5a56.9 56.9 0 0 1-4.707 6.377 33.673 33.673 0 0 1-4.532 3.994c-2.522 2.149.432-4.029 1.46-5.489a16.385 16.385 0 0 1 7.779-4.882" class="cls-1" data-name="패스 2144" transform="translate(-1762.062 -927.057)"/>
            <path id="패스_2145" d="M1771.539 1023.149a68.253 68.253 0 0 0-6.821 3.515c-3.375 2.079-3.948 2.289-4.87 2.464-2.932.549 2.3-5.01 3.714-5.711a12.813 12.813 0 0 1 7.977-.269" class="cls-1" data-name="패스 2145" transform="translate(-1746.674 -979.515)"/>
            <path id="패스_2146" d="M1854.83 1046.18a.713.713 0 0 1 .082-.163 14.642 14.642 0 0 0-.934 2.745c.023.105-.163-.806-.163-.806z" class="cls-1" data-name="패스 2146" transform="translate(-1842.17 -999.896)"/>
            <path id="패스_2147" d="M1854.77 1070.488s.07-.094.07-.082c-.07.21-.829 1.074-.713 1.308.023.058-.222-.421-.222-.421z" class="cls-1" data-name="패스 2147" transform="translate(-1842.109 -1021.167)"/>
            <path id="패스_2148" d="M1909.916 712.968s1.425 5.221 2.336 6.47a13.119 13.119 0 0 0-2.336-6.47" class="cls-1" data-name="패스 2148" transform="translate(-1906.681 -709.418)"/>
            <path id="패스_2149" d="M1914.119 729.781s2.394 3.971 3.4 4.555a8.939 8.939 0 0 0-3.4-4.555" class="cls-1" data-name="패스 2149" transform="translate(-1912.484 -724.081)"/>
            <path id="패스_2150" d="M1905.079 697.07s-.35 6.272.6 8.234c.012 0 1.659-3.223-.6-8.234" class="cls-1" data-name="패스 2150" transform="translate(-1900.069 -695.552)"/>
            <path id="패스_2151" d="M1911.066 747.141s2.826 5.174 3.667 6.61c.2.339.327.479.409.479.222.012-.023-1.191-.28-2.009-.339-1.063-1.869-4.24-3.8-5.08" class="cls-1" data-name="패스 2151" transform="translate(-1909.805 -739.222)"/>
            <path id="패스_2152" d="M1899.72 801.833s-.023-.023 0 .023c.2.479 1.378 3.4 1.495 3.924.128.572-.07-.771-.07-.771z" class="cls-1" data-name="패스 2152" transform="translate(-1894.382 -786.919)"/>
            <path id="패스_2153" d="M1906.267 764.923s-.035-.012-.023 0a22.327 22.327 0 0 1 .993 2.943c.129.572-.035-.479-.035-.479z" class="cls-1" data-name="패스 2153" transform="translate(-1901.245 -754.727)"/>
            <path id="패스_2154" d="M1907.027 765.872s2.826 7.054 3.912 8.514c1.378 1.869.3-2.032-.023-2.721s-2-4.683-3.889-5.793" class="cls-1" data-name="패스 2154" transform="translate(-1905.684 -755.559)"/>
            <path id="패스_2155" d="M1906.267 764.923s-.035-.012-.023 0a22.327 22.327 0 0 1 .993 2.943c.129.572-.035-.479-.035-.479z" class="cls-1" data-name="패스 2155" transform="translate(-1901.245 -754.727)"/>
            <path id="패스_2156" d="M1894.932 834.269s-.023-.023 0 .023c.21.537 1.518 3.8 1.658 4.38.152.631-.105-.841-.105-.841z" class="cls-1" data-name="패스 2156" transform="translate(-1889.15 -815.209)"/>
            <path id="패스_2157" d="M1904.158 794.015s4.2 7.731 5.547 9.226c1.705 1.915.07-2.71-.385-3.445s-3.107-4.882-5.162-5.781" class="cls-1" data-name="패스 2157" transform="translate(-1904.158 -780.105)"/>
            <path id="패스_2158" d="M1890.1 868.357s-.07-.128-.047-.07c.234.6 1.717 3.8 1.869 4.45.175.713-.07-.829-.07-.829z" class="cls-1" data-name="패스 2158" transform="translate(-1883.878 -844.87)"/>
            <path id="패스_2159" d="M1899.96 827.182s4.707 7.907 6.1 9.519c1.764 2.055-.21-3.072-.981-4.391-.783-1.366-3.025-4.134-5.115-5.127" class="cls-1" data-name="패스 2159" transform="translate(-1899.925 -809.033)"/>
            <path id="패스_2160" d="M1884.623 904.01s-.082-.14-.058-.082c.257.642 1.81 4.053 1.986 4.742.187.759-.094-.876-.094-.876z" class="cls-1" data-name="패스 2160" transform="translate(-1877.802 -875.957)"/>
            <path id="패스_2161" d="M1895.209 862.086s4.707 7.907 6.1 9.519c1.764 2.055-.21-3.072-.981-4.391-.794-1.366-3.025-4.134-5.116-5.127" class="cls-1" data-name="패스 2161" transform="translate(-1894.567 -839.475)"/>
            <path id="패스_2162" d="M1879.611 938.914s-.082-.14-.058-.082c.257.642 1.845 4.169 2.021 4.858.187.759-.105-1.028-.105-1.028z" class="cls-1" data-name="패스 2162" transform="translate(-1872.183 -906.4)"/>
            <path id="패스_2163" d="M1892.865 894.706s5.326 8.035 6.715 9.647c1.763 2.055-.607-3.7-1.378-5.034a14.908 14.908 0 0 0-5.337-4.613" class="cls-1" data-name="패스 2163" transform="translate(-1892.467 -867.926)"/>
            <path id="패스_2164" d="M1873.629 972.982s-.047-.07-.023 0c.3.771 2.242 4.964 2.464 5.781.245.9-.1-1.215-.1-1.215z" class="cls-1" data-name="패스 2164" transform="translate(-1865.944 -936.169)"/>
            <path id="패스_2165" d="M1889.3 935.732a61.569 61.569 0 0 0 4.076 5.139 31.144 31.144 0 0 0 3.469 3.118c1.915 1.67-1.086-3.434-1.985-4.613a12.158 12.158 0 0 0-5.559-3.644" class="cls-1" data-name="패스 2165" transform="translate(-1889.261 -903.708)"/>
            <path id="패스_2166" d="M1869.513 1001.672s-.047-.07-.023 0c.3.771 2.394 5.3 2.593 6.132.047.2-.2-1.53-.2-1.53z" class="cls-1" data-name="패스 2166" transform="translate(-1861.35 -961.192)"/>
            <path id="패스_2167" d="M1876.433 972.737a73.614 73.614 0 0 0 4.578 5.8 38.406 38.406 0 0 0 3.877 3.539c2.137 1.9-1.25-3.831-2.254-5.162a13.94 13.94 0 0 0-6.2-4.181" class="cls-1" data-name="패스 2167" transform="translate(-1875.732 -935.983)"/>
            <path id="패스_2168" d="M1868.647 1029.931a49.753 49.753 0 0 1 5.244 2.931c2.686 1.775 3.1 1.939 3.737 2.044 2.02.339-2.686-4.648-3.772-5.232a5.831 5.831 0 0 0-5.209.257" class="cls-1" data-name="패스 2168" transform="translate(-1867.281 -985.211)"/>
            <path id="패스_2169" d="M1867.058 1047.6a1.238 1.238 0 0 0-.093-.152 22.727 22.727 0 0 1 1.261 2.569l-.094-.782z" class="cls-1" data-name="패스 2169" transform="translate(-1857.166 -1001.141)"/>
            <path id="패스_2170" d="M1864.656 1071.005s-.07-.093-.058-.07c.094.2.794.969.771 1.214 0 .058.035-.42.035-.42z" class="cls-1" data-name="패스 2170" transform="translate(-1854.039 -1021.626)"/>
            <path id="패스_2171" d="M1837.733 800.045s1.658 3.854 2.745 4.508a6.039 6.039 0 0 0-2.745-4.508" class="cls-1" data-name="패스 2171" transform="translate(-1825.68 -785.364)"/>
            <path id="패스_2172" d="M1842.667 820.147s2.838 2.336 4.041 2.383a4.858 4.858 0 0 0-4.041-2.383" class="cls-1" data-name="패스 2172" transform="translate(-1832.541 -802.897)"/>
            <path id="패스_2173" d="M1831.608 780.126s-.479 5.548.642 6.821a6.319 6.319 0 0 0-.642-6.821" class="cls-1" data-name="패스 2173" transform="translate(-1817.383 -767.991)"/>
            <path id="패스_2174" d="M1839.445 836.364s3.34 3.177 4.345 4.029c.234.2.385.269.479.234.269-.093-.011-1.016-.315-1.6-.4-.771-2.208-2.8-4.508-2.663" class="cls-1" data-name="패스 2174" transform="translate(-1829.798 -817.035)"/>
            <path id="패스_2175" d="M1826.011 869.1s-.023-.012 0 .012a29.694 29.694 0 0 1 1.764 2.7c.152.432-.082-.631-.082-.631z" class="cls-1" data-name="패스 2175" transform="translate(-1811.529 -845.592)"/>
            <path id="패스_2176" d="M1833.65 838.512s-.047 0-.035.012a9.814 9.814 0 0 1 1.168 2.09c.152.432-.035-.4-.035-.4z" class="cls-1" data-name="패스 2176" transform="translate(-1819.518 -818.914)"/>
            <path id="패스_2177" d="M1834.994 852.31s3.329 4.788 4.613 5.559c1.635.981.374-1.88 0-2.324s-2.324-3.142-4.613-3.235" class="cls-1" data-name="패스 2177" transform="translate(-1825.277 -830.949)"/>
            <path id="패스_2178" d="M1833.65 838.512s-.047 0-.035.012a9.814 9.814 0 0 1 1.168 2.09c.152.432-.035-.4-.035-.4z" class="cls-1" data-name="패스 2178" transform="translate(-1819.518 -818.914)"/>
            <path id="패스_2179" d="M1820.584 895.417s-.023-.012 0 .012c.257.362 1.787 2.581 1.962 3.013.175.479-.117-.677-.117-.677z" class="cls-1" data-name="패스 2179" transform="translate(-1805.611 -868.543)"/>
            <path id="패스_2180" d="M1831.685 881.135s4.987 4.753 6.587 5.431c2.032.876.117-2.359-.432-2.791s-3.691-2.791-6.155-2.64" class="cls-1" data-name="패스 2180" transform="translate(-1823.615 -856.083)"/>
            <path id="패스_2181" d="M1815.219 923.333s-.082-.082-.058-.035c.28.409 2.02 2.488 2.207 2.978.2.537-.082-.677-.082-.677z" class="cls-1" data-name="패스 2181" transform="translate(-1799.755 -892.85)"/>
            <path id="패스_2182" d="M1827.025 909.484s5.583 4.672 7.241 5.442c2.1.969-.222-2.546-1.133-3.34a10.269 10.269 0 0 0-6.108-2.1" class="cls-1" data-name="패스 2182" transform="translate(-1818.954 -880.812)"/>
            <path id="패스_2183" d="M1808.946 951.891s-.093-.082-.058-.047a39.059 39.059 0 0 1 2.336 3.189c.222.56-.093-.713-.093-.713z" class="cls-1" data-name="패스 2183" transform="translate(-1792.817 -917.753)"/>
            <path id="패스_2184" d="M1821.634 937.444s5.583 4.672 7.241 5.442c2.1.969-.222-2.546-1.133-3.34a10.271 10.271 0 0 0-6.108-2.1" class="cls-1" data-name="패스 2184" transform="translate(-1812.874 -905.198)"/>
            <path id="패스_2185" d="M1803.219 979.76s-.094-.082-.058-.047c.3.432 2.184 2.756 2.383 3.27.222.56-.117-.841-.117-.841z" class="cls-1" data-name="패스 2185" transform="translate(-1786.401 -942.059)"/>
            <path id="패스_2186" d="M1819.234 966.394s6.33 4.508 7.977 5.267c2.1.969-.7-2.908-1.612-3.7-.934-.818-3.854-1.647-6.365-1.565" class="cls-1" data-name="패스 2186" transform="translate(-1810.813 -930.445)"/>
            <path id="패스_2187" d="M1796.506 1008.047s-.058-.047-.023 0c.351.526 2.651 3.247 2.908 3.866.28.666-.117-.993-.117-.993z" class="cls-1" data-name="패스 2187" transform="translate(-1779.419 -966.762)"/>
            <path id="패스_2188" d="M1815.215 1001.56a35.628 35.628 0 0 0 4.847 2.581 23.086 23.086 0 0 0 4.146 1.109c2.289.572-1.273-2.464-2.348-3.072a11.892 11.892 0 0 0-6.646-.619" class="cls-1" data-name="패스 2188" transform="translate(-1807.285 -960.94)"/>
            <path id="패스_2189" d="M1791.836 1031.073s-.058-.047-.023 0c.35.526 2.826 3.48 3.06 4.1.058.152-.222-1.226-.222-1.226z" class="cls-1" data-name="패스 2189" transform="translate(-1774.212 -986.844)"/>
            <path id="패스_2190" d="M1800.128 1031.062a41.293 41.293 0 0 0 5.442 2.932 26.228 26.228 0 0 0 4.637 1.285c2.558.666-1.46-2.733-2.663-3.422a13.391 13.391 0 0 0-7.416-.794" class="cls-1" data-name="패스 2190" transform="translate(-1791.439 -986.681)"/>
            <path id="패스_2191" d="M1790.989 1066.049a58.107 58.107 0 0 1 6.283.152c3.212.315 3.714.269 4.473.07 2.429-.631-3.188-2.791-4.473-2.8a11.928 11.928 0 0 0-6.283 2.581" class="cls-1" data-name="패스 2191" transform="translate(-1781.575 -1015.117)"/>
            <path id="패스_2192" d="M1789.042 1064.729s-.129-.117-.105-.093c.2.269 1.425 1.273 1.495 1.635.012.082-.105-.631-.105-.631z" class="cls-1" data-name="패스 2192" transform="translate(-1769.397 -1016.132)"/>
            <path id="패스_2193" d="M1786.179 1082.13s-.082-.047-.07-.035c.105.129.934.479.923.689 0 .047.058-.374.058-.374z" class="cls-1" data-name="패스 2193" transform="translate(-1765.694 -1031.361)"/>
            <path id="패스_2194" d="M1834.816 800.5s.35 4.24-.012 5.431a9.884 9.884 0 0 1 .012-5.431" class="cls-1" data-name="패스 2194" transform="translate(-1819.75 -785.763)"/>
            <path id="패스_2195" d="M1822.664 808.177s-.759 3.679-1.378 4.438a7.584 7.584 0 0 1 1.378-4.438" class="cls-1" data-name="패스 2195" transform="translate(-1805.764 -792.457)"/>
            <path id="패스_2196" d="M1836.488 793.923s2.02 4.368 1.834 6.108c-.012 0-2.184-1.74-1.834-6.108" class="cls-1" data-name="패스 2196" transform="translate(-1823.372 -780.025)"/>
            <path id="패스_2197" d="M1815.592 819.6s-.759 4.683-1 6c-.058.315-.117.456-.175.491-.175.093-.315-.864-.339-1.53-.058-.888.245-3.691 1.518-4.964" class="cls-1" data-name="패스 2197" transform="translate(-1797.77 -802.419)"/>
            <path id="패스_2198" d="M1823.842 869.8s.012-.023 0 .012c-.023.409-.128 2.908-.07 3.328.058.456-.152-.572-.152-.572z" class="cls-1" data-name="패스 2198" transform="translate(-1807.246 -846.197)"/>
            <path id="패스_2199" d="M1831.364 842.431s.023-.023.023-.012a17.177 17.177 0 0 0 .047 2.453c.058.456-.105-.35-.105-.35z" class="cls-1" data-name="패스 2199" transform="translate(-1815.831 -822.319)"/>
            <path id="패스_2200" d="M1810.817 833.213a60.17 60.17 0 0 1-.666 7.451c-.549 1.81-.794-1.355-.736-1.95s.234-4.041 1.4-5.5" class="cls-1" data-name="패스 2200" transform="translate(-1792.399 -814.293)"/>
            <path id="패스_2201" d="M1831.364 842.431s.023-.023.023-.012a17.177 17.177 0 0 0 .047 2.453c.058.456-.105-.35-.105-.35z" class="cls-1" data-name="패스 2201" transform="translate(-1815.831 -822.319)"/>
            <path id="패스_2202" d="M1817.538 894.2s.012-.023 0 .012c-.023.456-.129 3.247-.07 3.714.058.5-.152-.642-.152-.642z" class="cls-1" data-name="패스 2202" transform="translate(-1800.136 -867.475)"/>
            <path id="패스_2203" d="M1795.891 849.66a83.09 83.09 0 0 1-1.74 8.537c-.794 1.962-.806-1.915-.666-2.593s1.063-4.578 2.406-5.945" class="cls-1" data-name="패스 2203" transform="translate(-1775.429 -828.637)"/>
            <path id="패스_2204" d="M1810.6 919.645s.023-.117.023-.07c-.023.514-.28 3.317-.222 3.831.058.572-.175-.619-.175-.619z" class="cls-1" data-name="패스 2204" transform="translate(-1792.314 -889.606)"/>
            <path id="패스_2205" d="M1787.09 873.508s-1.46 7.3-2.091 8.935c-.794 2.079-.689-2.266-.467-3.492a13.111 13.111 0 0 1 2.558-5.442" class="cls-1" data-name="패스 2205" transform="translate(-1765.472 -849.437)"/>
            <path id="패스_2206" d="M1804.208 946.8s.023-.129.023-.082c-.023.549-.28 3.527-.222 4.088.058.607-.175-.654-.175-.654z" class="cls-1" data-name="패스 2206" transform="translate(-1785.101 -913.28)"/>
            <path id="패스_2207" d="M1781.059 900.188s-1.46 7.3-2.091 8.934c-.794 2.079-.689-2.266-.467-3.492a12.982 12.982 0 0 1 2.558-5.442" class="cls-1" data-name="패스 2207" transform="translate(-1758.67 -872.707)"/>
            <path id="패스_2208" d="M1798.212 973.389s.023-.128.023-.082c-.023.549-.28 3.632-.222 4.181.058.607-.21-.771-.21-.771z" class="cls-1" data-name="패스 2208" transform="translate(-1778.334 -936.471)"/>
            <path id="패스_2209" d="M1770.826 922.848s-1.9 7.6-2.534 9.238c-.794 2.079-.561-2.861-.327-4.088a13.222 13.222 0 0 1 2.861-5.151" class="cls-1" data-name="패스 2209" transform="translate(-1747.082 -892.471)"/>
            <path id="패스_2210" d="M1790.677 998.54s.011-.07.011-.012c-.023.654-.362 4.333-.3 5 .058.724-.257-.911-.257-.911z" class="cls-1" data-name="패스 2210" transform="translate(-1769.806 -958.457)"/>
            <path id="패스_2211" d="M1758.172 951.265a52.276 52.276 0 0 1-1.74 5.092 27.142 27.142 0 0 1-1.834 3.434c-1.028 1.869-.105-2.838.257-3.994a11.51 11.51 0 0 1 3.317-4.531" class="cls-1" data-name="패스 2211" transform="translate(-1732.689 -917.255)"/>
            <path id="패스_2212" d="M1785.583 1020.469s.012-.07.012-.012c-.023.654-.385 4.625-.315 5.279.023.152-.269-1.168-.269-1.168z" class="cls-1" data-name="패스 2212" transform="translate(-1764.058 -977.583)"/>
            <path id="패스_2213" d="M1752.4 979.5s-.864 3.1-1.939 5.746a31.634 31.634 0 0 1-2.032 3.877c-1.133 2.1-.094-3.177.315-4.473a13.093 13.093 0 0 1 3.656-5.151" class="cls-1" data-name="패스 2213" transform="translate(-1726.12 -941.879)"/>
            <path id="패스_2214" d="M1740.672 1025.807a49.955 49.955 0 0 0-3.27 3.924c-1.588 2.207-1.869 2.464-2.336 2.768-1.483.946.794-4.263 1.472-5.057a5.433 5.433 0 0 1 4.135-1.635" class="cls-1" data-name="패스 2214" transform="translate(-1712.689 -982.255)"/>
            <path id="패스_2215" d="M1782.831 1057.912a1.121 1.121 0 0 0 .023-.14 16.576 16.576 0 0 0-.269 2.277c.023.082-.152-.6-.152-.6z" class="cls-1" data-name="패스 2215" transform="translate(-1760.991 -1010.145)"/>
            <path id="패스_2216" d="M1780.821 1076.688s.035-.082.023-.07c-.023.175-.339.969-.268 1.133.023.035-.152-.28-.152-.28z" class="cls-1" data-name="패스 2216" transform="translate(-1758.724 -1026.585)"/>
            <path id="패스_2217" d="M1710.474 889.772l-10.274 24.946-.526-.467z" class="cls-1" data-name="패스 2217" transform="translate(-1678.029 -863.622)"/>
            <path id="패스_2218" d="M1678.381 865.924s-2.032 2.745-3.107 3.036a4.328 4.328 0 0 1 3.107-3.036" class="cls-1" data-name="패스 2218" transform="translate(-1642.818 -842.823)"/>
            <path id="패스_2219" d="M1667.973 884.9s-2.92 1.261-4.029 1.028c0 0 1.238-1.518 4.029-1.028" class="cls-1" data-name="패스 2219" transform="translate(-1630.962 -859.291)"/>
            <path id="패스_2220" d="M1690.158 846.005s-.28 4.6-1.472 5.372a4.528 4.528 0 0 1 1.472-5.372" class="cls-1" data-name="패스 2220" transform="translate(-1656.265 -825.45)"/>
            <path id="패스_2221" d="M1667.65 898.455s-3.492 1.834-4.531 2.3c-.245.105-.4.129-.467.082-.245-.128.14-.818.491-1.226a4.8 4.8 0 0 1 4.508-1.156" class="cls-1" data-name="패스 2221" transform="translate(-1630.464 -871.044)"/>
            <path id="패스_2222" d="M1703.634 917.62s.023-.012 0 .012a22.1 22.1 0 0 0-1.974 1.787c-.2.315.152-.49.152-.49z" class="cls-1" data-name="패스 2222" transform="translate(-1671.447 -887.908)"/>
            <path id="패스_2223" d="M1696.386 893.427s.047.012.035.023a7.469 7.469 0 0 0-1.355 1.425c-.2.315.082-.315.082-.315z" class="cls-1" data-name="패스 2223" transform="translate(-1663.381 -866.81)"/>
            <path id="패스_2224" d="M1670.937 911.807s-3.691 3.142-4.975 3.48c-1.635.432-.105-1.612.3-1.88s2.558-2.021 4.672-1.6" class="cls-1" data-name="패스 2224" transform="translate(-1634.089 -882.784)"/>
            <path id="패스_2225" d="M1696.386 893.427s.047.012.035.023a7.469 7.469 0 0 0-1.355 1.425c-.2.315.082-.315.082-.315z" class="cls-1" data-name="패스 2225" transform="translate(-1663.381 -866.81)"/>
            <path id="패스_2226" d="M1710.9 938.087s.023-.012 0 .012a27.444 27.444 0 0 0-2.2 2.009c-.222.351.2-.525.2-.525z" class="cls-1" data-name="패스 2226" transform="translate(-1679.607 -905.759)"/>
            <path id="패스_2227" d="M1664.591 937.218s-5.209 2.733-6.774 2.931c-1.985.257.2-1.939.759-2.161s3.761-1.437 6.015-.771" class="cls-1" data-name="패스 2227" transform="translate(-1626.693 -904.832)"/>
            <path id="패스_2228" d="M1717.767 959.924s.093-.047.058-.023a24.3 24.3 0 0 0-2.418 1.927c-.257.385.163-.525.163-.525z" class="cls-1" data-name="패스 2228" transform="translate(-1687.39 -924.781)"/>
            <path id="패스_2229" d="M1668.813 959.586s-5.758 2.546-7.381 2.791c-2.067.315.537-2.009 1.483-2.453a9.993 9.993 0 0 1 5.9-.339" class="cls-1" data-name="패스 2229" transform="translate(-1631.382 -924.256)"/>
            <path id="패스_2230" d="M1726.347 981.944s.093-.047.07-.023c-.327.292-2.312 1.693-2.569 2.067-.269.409.187-.561.187-.561z" class="cls-1" data-name="패스 2230" transform="translate(-1697.056 -943.987)"/>
            <path id="패스_2231" d="M1677.4 980.984s-5.758 2.546-7.381 2.791c-2.067.315.537-2.009 1.483-2.453a10.09 10.09 0 0 1 5.9-.339" class="cls-1" data-name="패스 2231" transform="translate(-1641.069 -942.922)"/>
            <path id="패스_2232" d="M1734.98 1003.325s.093-.047.07-.023a32.814 32.814 0 0 0-2.616 2.114c-.269.409.21-.654.21-.654z" class="cls-1" data-name="패스 2232" transform="translate(-1706.786 -962.635)"/>
            <path id="패스_2233" d="M1679.257 1003.737s-6.412 2.242-8.035 2.5c-2.067.315 1.016-2.207 1.962-2.639.969-.456 3.772-.491 6.073.14" class="cls-1" data-name="패스 2233" transform="translate(-1643.087 -962.603)"/>
            <path id="패스_2234" d="M1741.5 1025.68s.058-.023.023.012c-.4.35-2.861 2.044-3.177 2.476-.351.479.234-.782.234-.782z" class="cls-1" data-name="패스 2234" transform="translate(-1714.017 -982.152)"/>
            <path id="패스_2235" d="M1681.174 1030.176a33.561 33.561 0 0 1-4.812 1.016 23.667 23.667 0 0 1-3.971-.023c-2.184-.047 1.495-1.705 2.557-1.962a12.68 12.68 0 0 1 6.225.969" class="cls-1" data-name="패스 2235" transform="translate(-1645.156 -985.153)"/>
            <path id="패스_2236" d="M1748.422 1043.406s.058-.023.023.012a41.113 41.113 0 0 0-3.352 2.639c-.07.105.362-.946.362-.946z" class="cls-1" data-name="패스 2236" transform="translate(-1721.817 -997.612)"/>
            <path id="패스_2237" d="M1691.621 1052.3a37.981 37.981 0 0 1-5.4 1.156 26.289 26.289 0 0 1-4.438.012c-2.441-.023 1.7-1.892 2.9-2.184a14.2 14.2 0 0 1 6.937 1.016" class="cls-1" data-name="패스 2237" transform="translate(-1656.794 -1004.39)"/>
            <path id="패스_2238" d="M1703.269 1075.957s-3.258-.887-5.816-1.273c-3-.456-3.457-.607-4.134-.934-2.161-1.051 3.305-1.542 4.5-1.273a13.24 13.24 0 0 1 5.454 3.48" class="cls-1" data-name="패스 2238" transform="translate(-1669.948 -1022.911)"/>
            <path id="패스_2239" d="M1764.916 1067.229s.128-.07.117-.047c-.21.175-1.483.712-1.588.993l.175-.491z" class="cls-1" data-name="패스 2239" transform="translate(-1740.74 -1018.352)"/>
            <path id="패스_2240" d="M1772.983 1079.813s.082-.023.07-.012c-.117.082-.934.175-.934.362v-.315z" class="cls-1" data-name="패스 2240" transform="translate(-1749.87 -1029.36)"/>
            <path id="패스_2241" d="M1697.172 861.081a19.231 19.231 0 0 0-.689 4.4 6.977 6.977 0 0 0 .689-4.4" class="cls-1" data-name="패스 2241" transform="translate(-1664.4 -838.599)"/>
            <path id="패스_2242" d="M1705.25 864.1a15.612 15.612 0 0 0 .689 3.9 5.692 5.692 0 0 0-.689-3.9" class="cls-1" data-name="패스 2242" transform="translate(-1674.3 -841.228)"/>
            <path id="패스_2243" d="M1684.6 859.071s-2.429 3.095-2.476 4.543c0 0 2.242-.911 2.476-4.543" class="cls-1" data-name="패스 2243" transform="translate(-1649.916 -836.846)"/>
            <path id="패스_2244" d="M1712.664 871.772s.093 3.959.152 5.092c.012.269.047.4.105.432.152.117.4-.631.514-1.168a6.376 6.376 0 0 0-.771-4.356" class="cls-1" data-name="패스 2244" transform="translate(-1682.742 -847.923)"/>
            <path id="패스_2245" d="M1717.429 914.462c-.047.351-.269 2.394-.374 2.721-.117.35.222-.432.222-.432z" class="cls-1" data-name="패스 2245" transform="translate(-1687.204 -885.148)"/>
            <path id="패스_2246" d="M1706.3 894.147s-.023-.023-.023-.012a11.528 11.528 0 0 1-.362 1.974c-.117.35.14-.257.14-.257z" class="cls-1" data-name="패스 2246" transform="translate(-1674.65 -867.425)"/>
            <path id="패스_2247" d="M1720.886 881.731a44.734 44.734 0 0 0-.35 6.19c.269 1.588.911-.923.934-1.425s.3-3.317-.584-4.765" class="cls-1" data-name="패스 2247" transform="translate(-1691.747 -856.609)"/>
            <path id="패스_2248" d="M1706.3 894.147s-.023-.023-.023-.012a11.528 11.528 0 0 1-.362 1.974c-.117.35.14-.257.14-.257z" class="cls-1" data-name="패스 2248" transform="translate(-1674.65 -867.425)"/>
            <path id="패스_2249" d="M1726.522 932.828c-.047.385-.315 2.663-.42 3.037-.117.4.222-.491.222-.491z" class="cls-1" data-name="패스 2249" transform="translate(-1697.453 -901.166)"/>
            <path id="패스_2250" d="M1731.079 891.508a63.011 63.011 0 0 0 .5 7.3c.479 1.764.993-1.367.946-1.962s-.374-3.936-1.448-5.337" class="cls-1" data-name="패스 2250" transform="translate(-1704.1 -865.136)"/>
            <path id="패스_2251" d="M1736.184 951.881s0-.105-.012-.058c-.047.421-.175 2.745-.292 3.153-.128.444.245-.456.245-.456z" class="cls-1" data-name="패스 2251" transform="translate(-1708.364 -917.731)"/>
            <path id="패스_2252" d="M1740.84 908.777s.4 6.237.771 7.7c.467 1.869.934-1.682.876-2.721a11.291 11.291 0 0 0-1.647-4.975" class="cls-1" data-name="패스 2252" transform="translate(-1715.309 -880.198)"/>
            <path id="패스_2253" d="M1745.542 972.484s0-.105-.012-.07c-.047.444-.2 2.92-.327 3.352-.14.479.245-.49.245-.49z" class="cls-1" data-name="패스 2253" transform="translate(-1718.914 -935.695)"/>
            <path id="패스_2254" d="M1749.886 929.061s.4 6.237.771 7.7c.467 1.869.934-1.682.876-2.721a11.247 11.247 0 0 0-1.647-4.975" class="cls-1" data-name="패스 2254" transform="translate(-1725.512 -897.889)"/>
            <path id="패스_2255" d="M1754.6 992.677s0-.105-.012-.07c-.047.444-.21 3-.339 3.434-.14.479.292-.584.292-.584z" class="cls-1" data-name="패스 2255" transform="translate(-1729.125 -953.307)"/>
            <path id="패스_2256" d="M1760.024 945.051s.771 6.575 1.145 8.047c.467 1.869.888-2.2.829-3.235a11.82 11.82 0 0 0-1.974-4.812" class="cls-1" data-name="패스 2256" transform="translate(-1737.274 -911.836)"/>
            <path id="패스_2257" d="M1765.037 1011.393c-.082.526-.234 3.574-.374 4.1-.152.572.35-.677.35-.677z" class="cls-1" data-name="패스 2257" transform="translate(-1740.897 -969.675)"/>
            <path id="패스_2258" d="M1770.893 964.97a42.37 42.37 0 0 0 .946 4.508 24.125 24.125 0 0 0 1.25 3.188c.7 1.74.467-2.277.281-3.294a10.693 10.693 0 0 0-2.476-4.4" class="cls-1" data-name="패스 2258" transform="translate(-1750.22 -929.208)"/>
            <path id="패스_2259" d="M1772.539 1027.931c-.082.526-.257 3.819-.409 4.345-.035.117.4-.888.4-.888z" class="cls-1" data-name="패스 2259" transform="translate(-1749.356 -984.099)"/>
            <path id="패스_2260" d="M1778.124 986.534a47.2 47.2 0 0 0 1.051 5.08 27.034 27.034 0 0 0 1.378 3.6c.783 1.962.5-2.546.292-3.691a11.891 11.891 0 0 0-2.721-4.987" class="cls-1" data-name="패스 2260" transform="translate(-1758.655 -948.016)"/>
            <path id="패스_2261" d="M1781.942 1021.164a46.316 46.316 0 0 1 2.5 3.9c1.18 2.137 1.4 2.418 1.8 2.756 1.25 1.1-.187-3.632-.7-4.415a5.956 5.956 0 0 0-3.6-2.242" class="cls-1" data-name="패스 2261" transform="translate(-1764.808 -978.22)"/>
            <path id="패스_2262" d="M1778.218 1057.647a.4.4 0 0 0-.012-.117 12.884 12.884 0 0 1-.047 1.9c-.023.058.21-.444.21-.444z" class="cls-1" data-name="패스 2262" transform="translate(-1755.957 -1009.937)"/>
            <path id="패스_2263" d="M1781.654 1072.453s-.012-.082-.023-.058c0 .14.187.865.094.981-.023.023.175-.2.175-.2z" class="cls-1" data-name="패스 2263" transform="translate(-1759.931 -1022.898)"/>
        </g>
        <g id="Leaves-2" data-name="Leaves" transform="translate(66.964 150.8)">
            <path id="패스_2123-2" d="M1788.562 835.314l-6.575 32.62-.631-.4z" class="cls-1" data-name="패스 2123" transform="translate(-1763.745 -798.361)"/>
            <path id="패스_2124-2" d="M1865.269 753.354l-6.7 42.313.864-.14z" class="cls-1" data-name="패스 2124" transform="translate(-1829.487 -726.877)"/>
            <path id="패스_2125-2" d="M1902.606 699.994s.175 5.466 1.074 6.82a8.714 8.714 0 0 0-1.074-6.82" class="cls-1" data-name="패스 2125" transform="translate(-1867.899 -698.102)"/>
            <path id="패스_2126-2" d="M1877.479 715.8s2.126 4.286 3.41 4.975a6.828 6.828 0 0 0-3.41-4.975" class="cls-1" data-name="패스 2126" transform="translate(-1846.59 -711.888)"/>
            <path id="패스_2127-2" d="M1913.887 685.191s-2.885 6.353-2.207 8.456a8.267 8.267 0 0 0 2.207-8.456" class="cls-1" data-name="패스 2127" transform="translate(-1875.723 -685.191)"/>
            <path id="패스_2128-2" d="M1866.423 733.253s2.313 5.559 3.037 7.113c.175.362.315.526.42.537.339.035.42-1.226.339-2.067-.105-1.144-1.215-4.531-3.8-5.583" class="cls-1" data-name="패스 2128" transform="translate(-1837.051 -727.11)"/>
            <path id="패스_2129-2" d="M1893.824 792.239s-.023-.023-.011.023c.117.514.794 3.609.782 4.146-.023.6.175-.794.175-.794z" class="cls-1" data-name="패스 2129" transform="translate(-1860.825 -773.563)"/>
            <path id="패스_2130-2" d="M1903.739 754.288s-.058-.023-.047 0a14.335 14.335 0 0 1 .4 3.107c-.012.6.128-.49.128-.49z" class="cls-1" data-name="패스 2130" transform="translate(-1868.845 -742.294)"/>
            <path id="패스_2131-2" d="M1860.3 752.349s1.612 7.475 2.686 9.075c1.366 2.044 1.214-2.044.993-2.768s-1.215-4.975-3.679-6.307" class="cls-1" data-name="패스 2131" transform="translate(-1831.788 -740.252)"/>
            <path id="패스_2132-2" d="M1903.739 754.288s-.058-.023-.047 0a14.335 14.335 0 0 1 .4 3.107c-.012.6.128-.49.128-.49z" class="cls-1" data-name="패스 2132" transform="translate(-1868.845 -742.294)"/>
            <path id="패스_2133-2" d="M1886.88 825.558s-.023-.035-.012.023c.117.572.864 4.018.853 4.625 0 .666.164-.876.164-.876z" class="cls-1" data-name="패스 2133" transform="translate(-1854.843 -800.998)"/>
            <path id="패스_2134-2" d="M1833.8 779.943s3.434 8.3 4.893 9.962c1.857 2.114 1.133-2.745.724-3.55s-2.85-5.279-5.618-6.412" class="cls-1" data-name="패스 2134" transform="translate(-1808.849 -762.776)"/>
            <path id="패스_2135-2" d="M1878.7 860.609s-.058-.14-.047-.082c.14.631 1.156 4.041 1.145 4.718-.012.736.21-.853.21-.853z" class="cls-1" data-name="패스 2135" transform="translate(-1847.754 -829.83)"/>
            <path id="패스_2136-2" d="M1821.743 813.751s4.123 8.526 5.606 10.313c1.88 2.266.841-3.153.175-4.578a13.672 13.672 0 0 0-5.781-5.734" class="cls-1" data-name="패스 2136" transform="translate(-1798.451 -790.399)"/>
            <path id="패스_2137-2" d="M1872.307 897.4s-.058-.152-.047-.082c.14.677 1.2 4.31 1.2 5.034 0 .783.2-.9.2-.9z" class="cls-1" data-name="패스 2137" transform="translate(-1842.246 -860.112)"/>
            <path id="패스_2138-2" d="M1815.712 849.843s4.123 8.537 5.606 10.324c1.88 2.277.841-3.153.175-4.578a13.5 13.5 0 0 0-5.781-5.746" class="cls-1" data-name="패스 2138" transform="translate(-1793.273 -819.932)"/>
            <path id="패스_2139-2" d="M1866.276 933.494s-.058-.152-.047-.082c.14.677 1.215 4.438 1.215 5.15 0 .782.234-1.063.234-1.063z" class="cls-1" data-name="패스 2139" transform="translate(-1837.052 -889.85)"/>
            <path id="패스_2140-2" d="M1800.453 882.919s5.01 8.724 6.494 10.511c1.88 2.277.479-3.842-.187-5.267-.677-1.472-3.527-4.018-6.307-5.244" class="cls-1" data-name="패스 2140" transform="translate(-1780.122 -846.964)"/>
            <path id="패스_2141-2" d="M1856.745 968.286s-.035-.082-.023 0c.163.818 1.518 5.279 1.542 6.143.023.946.292-1.25.292-1.25z" class="cls-1" data-name="패스 2141" transform="translate(-1828.846 -918.286)"/>
            <path id="패스_2142-2" d="M1780.625 924.4a50.353 50.353 0 0 0 4.2 5.653 31.18 31.18 0 0 0 4.064 3.527c2.266 1.892-.35-3.609-1.261-4.893a14.317 14.317 0 0 0-7.008-4.286" class="cls-1" data-name="패스 2142" transform="translate(-1763.001 -881.332)"/>
            <path id="패스_2143-2" d="M1851.537 997.982s-.035-.082-.023 0c.163.818 1.612 5.641 1.6 6.505 0 .21.28-1.577.28-1.577z" class="cls-1" data-name="패스 2143" transform="translate(-1824.361 -940.205)"/>
            <path id="패스_2144-2" d="M1774.686 962.5a56.894 56.894 0 0 0 4.707 6.377 33.681 33.681 0 0 0 4.531 3.994c2.523 2.149-.432-4.029-1.46-5.489a16.384 16.384 0 0 0-7.778-4.882" class="cls-1" data-name="패스 2144" transform="translate(-1757.842 -909.293)"/>
            <path id="패스_2145-2" d="M1758.97 1023.149a68.253 68.253 0 0 1 6.821 3.515c3.375 2.079 3.948 2.289 4.87 2.464 2.931.549-2.3-5.01-3.714-5.711a12.813 12.813 0 0 0-7.977-.269" class="cls-1" data-name="패스 2145" transform="translate(-1744.231 -961.751)"/>
            <path id="패스_2146-2" d="M1853.9 1046.18a.713.713 0 0 0-.082-.163 14.65 14.65 0 0 1 .934 2.745c-.023.105.164-.806.164-.806z" class="cls-1" data-name="패스 2146" transform="translate(-1826.392 -982.132)"/>
            <path id="패스_2147-2" d="M1853.975 1070.488s-.07-.094-.07-.082c.07.21.829 1.074.713 1.308-.023.058.222-.421.222-.421z" class="cls-1" data-name="패스 2147" transform="translate(-1826.48 -1003.403)"/>
            <path id="패스_2148-2" d="M1912.252 712.968s-1.425 5.221-2.336 6.47a13.119 13.119 0 0 1 2.336-6.47" class="cls-1" data-name="패스 2148" transform="translate(-1874.275 -709.418)"/>
            <path id="패스_2149-2" d="M1917.518 729.781s-2.394 3.971-3.4 4.555a8.938 8.938 0 0 1 3.4-4.555" class="cls-1" data-name="패스 2149" transform="translate(-1877.94 -724.081)"/>
            <path id="패스_2150-2" d="M1906.2 697.07s.35 6.272-.6 8.234c-.012 0-1.659-3.223.6-8.234" class="cls-1" data-name="패스 2150" transform="translate(-1870.001 -695.552)"/>
            <path id="패스_2151-2" d="M1915.228 747.141s-2.826 5.174-3.667 6.61c-.2.339-.327.479-.409.479-.222.012.023-1.191.28-2.009.339-1.063 1.869-4.24 3.8-5.08" class="cls-1" data-name="패스 2151" transform="translate(-1875.277 -739.222)"/>
            <path id="패스_2152-2" d="M1901.247 801.833s.023-.023 0 .023c-.2.479-1.378 3.4-1.495 3.924-.128.572.07-.771.07-.771z" class="cls-1" data-name="패스 2152" transform="translate(-1865.372 -781.508)"/>
            <path id="패스_2153-2" d="M1907.26 764.923s.035-.012.023 0a22.344 22.344 0 0 0-.992 2.943c-.129.572.035-.479.035-.479z" class="cls-1" data-name="패스 2153" transform="translate(-1871.07 -751.102)"/>
            <path id="패스_2154-2" d="M1911.624 765.872s-2.826 7.054-3.913 8.514c-1.378 1.869-.3-2.032.024-2.721s2-4.683 3.889-5.793" class="cls-1" data-name="패스 2154" transform="translate(-1871.755 -751.399)"/>
            <path id="패스_2155-2" d="M1907.26 764.923s.035-.012.023 0a22.344 22.344 0 0 0-.992 2.943c-.129.572.035-.479.035-.479z" class="cls-1" data-name="패스 2155" transform="translate(-1871.07 -751.102)"/>
            <path id="패스_2156-2" d="M1896.627 834.269s.023-.023 0 .023c-.21.537-1.518 3.8-1.658 4.38-.152.631.105-.841.105-.841z" class="cls-1" data-name="패스 2156" transform="translate(-1861.196 -808.227)"/>
            <path id="패스_2157-2" d="M1910.465 794.015s-4.2 7.731-5.547 9.226c-1.705 1.915-.07-2.71.385-3.445s3.107-4.882 5.162-5.781" class="cls-1" data-name="패스 2157" transform="translate(-1869.253 -774.406)"/>
            <path id="패스_2158-2" d="M1891.937 868.357s.07-.128.047-.07c-.234.6-1.717 3.8-1.869 4.45-.175.713.07-.829.07-.829z" class="cls-1" data-name="패스 2158" transform="translate(-1857.518 -836.28)"/>
            <path id="패스_2159-2" d="M1906.769 827.182s-4.707 7.907-6.1 9.519c-1.764 2.055.21-3.072.981-4.391.783-1.366 3.025-4.134 5.116-5.127" class="cls-1" data-name="패스 2159" transform="translate(-1865.591 -801.543)"/>
            <path id="패스_2160-2" d="M1886.552 904.01s.082-.14.058-.082c-.257.642-1.81 4.053-1.985 4.742-.187.759.093-.876.093-.876z" class="cls-1" data-name="패스 2160" transform="translate(-1852.785 -865.63)"/>
            <path id="패스_2161-2" d="M1902.018 862.086s-4.707 7.907-6.1 9.518c-1.764 2.055.21-3.072.981-4.391.794-1.366 3.025-4.134 5.115-5.127" class="cls-1" data-name="패스 2161" transform="translate(-1861.448 -830.145)"/>
            <path id="패스_2162-2" d="M1881.573 938.914s.082-.14.058-.082c-.257.642-1.845 4.169-2.021 4.858-.187.759.105-1.028.105-1.028z" class="cls-1" data-name="패스 2162" transform="translate(-1848.47 -894.398)"/>
            <path id="패스_2163-2" d="M1900.218 894.706s-5.326 8.035-6.716 9.647c-1.763 2.055.607-3.7 1.378-5.034a14.909 14.909 0 0 1 5.337-4.613" class="cls-1" data-name="패스 2163" transform="translate(-1859.402 -856.852)"/>
            <path id="패스_2164-2" d="M1876.127 972.982s.047-.07.023 0c-.3.771-2.242 4.964-2.464 5.781-.245.9.105-1.215.105-1.215z" class="cls-1" data-name="패스 2164" transform="translate(-1843.317 -922.27)"/>
            <path id="패스_2165-2" d="M1897.468 935.732a61.584 61.584 0 0 1-4.076 5.139 31.144 31.144 0 0 1-3.469 3.118c-1.915 1.67 1.086-3.434 1.985-4.613a12.158 12.158 0 0 1 5.559-3.644" class="cls-1" data-name="패스 2165" transform="translate(-1856.29 -890.911)"/>
            <path id="패스_2166-2" d="M1872.059 1001.672s.047-.07.023 0c-.3.771-2.394 5.3-2.593 6.132-.047.2.2-1.53.2-1.53z" class="cls-1" data-name="패스 2166" transform="translate(-1839.774 -943.427)"/>
            <path id="패스_2167-2" d="M1885.583 972.737a73.6 73.6 0 0 1-4.578 5.8 38.379 38.379 0 0 1-3.877 3.539c-2.137 1.9 1.25-3.831 2.254-5.162a13.938 13.938 0 0 1 6.2-4.181" class="cls-1" data-name="패스 2167" transform="translate(-1845.071 -918.219)"/>
            <path id="패스_2168-2" d="M1878.127 1029.931a49.748 49.748 0 0 0-5.244 2.931c-2.686 1.775-3.095 1.939-3.737 2.044-2.021.339 2.686-4.648 3.772-5.232a5.831 5.831 0 0 1 5.209.257" class="cls-1" data-name="패스 2168" transform="translate(-1838.281 -967.447)"/>
            <path id="패스_2169-2" d="M1868.133 1047.6a1.236 1.236 0 0 1 .094-.152 22.727 22.727 0 0 0-1.261 2.569l.093-.782z" class="cls-1" data-name="패스 2169" transform="translate(-1837.699 -983.377)"/>
            <path id="패스_2170-2" d="M1865.343 1071.005s.07-.093.058-.07c-.093.2-.794.969-.771 1.214 0 .058-.035-.42-.035-.42z" class="cls-1" data-name="패스 2170" transform="translate(-1835.69 -1003.862)"/>
            <path id="패스_2171-2" d="M1840.478 800.045s-1.659 3.854-2.745 4.508a6.038 6.038 0 0 1 2.745-4.508" class="cls-1" data-name="패스 2171" transform="translate(-1812.454 -779.991)"/>
            <path id="패스_2172-2" d="M1846.708 820.147s-2.838 2.336-4.041 2.383a4.858 4.858 0 0 1 4.041-2.383" class="cls-1" data-name="패스 2172" transform="translate(-1816.612 -796.848)"/>
            <path id="패스_2173-2" d="M1832.874 780.126s.479 5.548-.642 6.821a6.319 6.319 0 0 1 .642-6.821" class="cls-1" data-name="패스 2173" transform="translate(-1807.172 -763.328)"/>
            <path id="패스_2174-2" d="M1844.377 836.364s-3.34 3.177-4.345 4.029c-.234.2-.385.269-.479.234-.269-.093.012-1.016.315-1.6.4-.771 2.207-2.8 4.508-2.663" class="cls-1" data-name="패스 2174" transform="translate(-1813.781 -809.997)"/>
            <path id="패스_2175-2" d="M1827.816 869.1s.023-.012 0 .012a29.782 29.782 0 0 0-1.764 2.7c-.152.432.082-.631.082-.631z" class="cls-1" data-name="패스 2175" transform="translate(-1802.415 -837.279)"/>
            <path id="패스_2176-2" d="M1834.8 838.512s.047 0 .035.012a9.82 9.82 0 0 0-1.168 2.09c-.152.432.035-.4.035-.4z" class="cls-1" data-name="패스 2176" transform="translate(-1808.998 -812.064)"/>
            <path id="패스_2177-2" d="M1840.425 852.31s-3.328 4.788-4.613 5.559c-1.635.981-.374-1.88 0-2.324s2.324-3.142 4.613-3.235" class="cls-1" data-name="패스 2177" transform="translate(-1809.921 -822.924)"/>
            <path id="패스_2178-2" d="M1834.8 838.512s.047 0 .035.012a9.82 9.82 0 0 0-1.168 2.09c-.152.432.035-.4.035-.4z" class="cls-1" data-name="패스 2178" transform="translate(-1808.998 -812.064)"/>
            <path id="패스_2179-2" d="M1822.591 895.417s.024-.012 0 .012c-.257.362-1.787 2.581-1.962 3.013-.175.479.117-.677.117-.677z" class="cls-1" data-name="패스 2179" transform="translate(-1797.734 -858.978)"/>
            <path id="패스_2180-2" d="M1839.185 881.135s-4.987 4.753-6.587 5.431c-2.032.876-.117-2.359.432-2.791s3.691-2.791 6.155-2.639" class="cls-1" data-name="패스 2180" transform="translate(-1806.923 -846.709)"/>
            <path id="패스_2181-2" d="M1817.376 923.333s.082-.082.058-.035c-.28.409-2.02 2.488-2.207 2.978-.2.537.082-.677.082-.677z" class="cls-1" data-name="패스 2181" transform="translate(-1793.059 -882.02)"/>
            <path id="패스_2182-2" d="M1835.12 909.484s-5.583 4.672-7.241 5.442c-2.1.969.222-2.546 1.133-3.34a10.269 10.269 0 0 1 6.108-2.1" class="cls-1" data-name="패스 2182" transform="translate(-1802.876 -870.075)"/>
            <path id="패스_2183-2" d="M1811.236 951.891s.094-.082.058-.047a39.117 39.117 0 0 0-2.336 3.189c-.222.56.093-.713.093-.713z" class="cls-1" data-name="패스 2183" transform="translate(-1787.653 -905.573)"/>
            <path id="패스_2184-2" d="M1829.729 937.444s-5.583 4.672-7.241 5.442c-2.1.969.222-2.546 1.133-3.34a10.271 10.271 0 0 1 6.108-2.1" class="cls-1" data-name="패스 2184" transform="translate(-1798.25 -893.123)"/>
            <path id="패스_2185-2" d="M1805.552 979.76s.094-.082.058-.047c-.3.432-2.184 2.756-2.383 3.27-.222.56.117-.841.117-.841z" class="cls-1" data-name="패스 2185" transform="translate(-1782.724 -928.587)"/>
            <path id="패스_2186-2" d="M1827.975 966.394s-6.33 4.508-7.977 5.267c-2.1.969.7-2.908 1.612-3.7.934-.818 3.854-1.647 6.365-1.565" class="cls-1" data-name="패스 2186" transform="translate(-1796.141 -917.037)"/>
            <path id="패스_2187-2" d="M1799.456 1008.047s.058-.047.023 0c-.35.526-2.651 3.247-2.908 3.866-.28.666.117-.993.117-.993z" class="cls-1" data-name="패스 2187" transform="translate(-1776.95 -948.997)"/>
            <path id="패스_2188-2" d="M1824.96 1001.56a35.62 35.62 0 0 1-4.847 2.581 23.086 23.086 0 0 1-4.146 1.109c-2.289.572 1.273-2.464 2.348-3.072a11.891 11.891 0 0 1 6.645-.619" class="cls-1" data-name="패스 2188" transform="translate(-1792.611 -946.312)"/>
            <path id="패스_2189-2" d="M1794.846 1031.073s.058-.047.023 0c-.35.526-2.826 3.48-3.06 4.1-.058.152.222-1.226.222-1.226z" class="cls-1" data-name="패스 2189" transform="translate(-1772.931 -969.08)"/>
            <path id="패스_2190-2" d="M1811.043 1031.062a41.29 41.29 0 0 1-5.443 2.932 26.23 26.23 0 0 1-4.637 1.285c-2.558.666 1.46-2.733 2.663-3.422a13.391 13.391 0 0 1 7.416-.794" class="cls-1" data-name="패스 2190" transform="translate(-1779.587 -968.917)"/>
            <path id="패스_2191-2" d="M1802.348 1066.049a58.111 58.111 0 0 0-6.283.152c-3.212.315-3.714.269-4.473.07-2.429-.631 3.188-2.791 4.473-2.8a11.93 11.93 0 0 1 6.283 2.581" class="cls-1" data-name="패스 2191" transform="translate(-1771.724 -997.352)"/>
            <path id="패스_2192-2" d="M1790.324 1064.729s.128-.117.105-.093c-.2.269-1.425 1.273-1.495 1.635-.012.082.105-.631.105-.631z" class="cls-1" data-name="패스 2192" transform="translate(-1770.534 -998.368)"/>
            <path id="패스_2193-2" d="M1787.019 1082.13s.082-.047.07-.035c-.105.129-.934.479-.923.689 0 .047-.058-.374-.058-.374z" class="cls-1" data-name="패스 2193" transform="translate(-1768.124 -1013.597)"/>
            <path id="패스_2194-2" d="M1834.592 800.5s-.35 4.24.011 5.431a9.882 9.882 0 0 0-.011-5.431" class="cls-1" data-name="패스 2194" transform="translate(-1809.748 -780.264)"/>
            <path id="패스_2195-2" d="M1821.286 808.177s.759 3.679 1.378 4.438a7.584 7.584 0 0 0-1.378-4.438" class="cls-1" data-name="패스 2195" transform="translate(-1798.381 -786.712)"/>
            <path id="패스_2196-2" d="M1838.3 793.923s-2.021 4.368-1.833 6.108c.012 0 2.184-1.74 1.833-6.108" class="cls-1" data-name="패스 2196" transform="translate(-1811.402 -774.765)"/>
            <path id="패스_2197-2" d="M1814.067 819.6s.759 4.683 1 6c.058.315.117.456.175.491.175.093.315-.864.339-1.53.058-.888-.245-3.691-1.518-4.964" class="cls-1" data-name="패스 2197" transform="translate(-1792.162 -795.862)"/>
            <path id="패스_2198-2" d="M1823.626 869.8s-.012-.023 0 .012c.023.409.129 2.908.07 3.329-.058.456.152-.572.152-.572z" class="cls-1" data-name="패스 2198" transform="translate(-1800.449 -837.743)"/>
            <path id="패스_2199-2" d="M1831.412 842.431s-.023-.023-.023-.012a17.194 17.194 0 0 1-.047 2.453c-.058.456.1-.35.1-.35z" class="cls-1" data-name="패스 2199" transform="translate(-1807.092 -815.243)"/>
            <path id="패스_2200-2" d="M1809.407 833.213a60.189 60.189 0 0 0 .666 7.451c.549 1.81.794-1.355.736-1.95s-.234-4.041-1.4-5.5" class="cls-1" data-name="패스 2200" transform="translate(-1788.157 -806.831)"/>
            <path id="패스_2201-2" d="M1831.412 842.431s-.023-.023-.023-.012a17.194 17.194 0 0 1-.047 2.453c-.058.456.1-.35.1-.35z" class="cls-1" data-name="패스 2201" transform="translate(-1807.092 -815.243)"/>
            <path id="패스_2202-2" d="M1817.321 894.2s-.012-.023 0 .012c.023.456.128 3.247.07 3.714-.058.5.152-.642.152-.642z" class="cls-1" data-name="패스 2202" transform="translate(-1795.022 -857.827)"/>
            <path id="패스_2203-2" d="M1793.417 849.66a83.117 83.117 0 0 0 1.74 8.537c.794 1.962.806-1.915.666-2.593s-1.063-4.578-2.406-5.945" class="cls-1" data-name="패스 2203" transform="translate(-1774.349 -820.142)"/>
            <path id="패스_2204-2" d="M1810.253 919.645s-.023-.117-.023-.07c.023.514.28 3.317.222 3.831-.058.572.175-.619.175-.619z" class="cls-1" data-name="패스 2204" transform="translate(-1788.913 -878.756)"/>
            <path id="패스_2205-2" d="M1784.372 873.508s1.46 7.3 2.091 8.935c.794 2.079.689-2.266.467-3.492a13.114 13.114 0 0 0-2.558-5.442" class="cls-1" data-name="패스 2205" transform="translate(-1766.558 -839.62)"/>
            <path id="패스_2206-2" d="M1803.857 946.8s-.023-.129-.023-.082c.023.549.28 3.527.222 4.088-.058.607.175-.654.175-.654z" class="cls-1" data-name="패스 2206" transform="translate(-1783.407 -901.108)"/>
            <path id="패스_2207-2" d="M1778.341 900.188s1.46 7.3 2.091 8.934c.794 2.079.689-2.266.467-3.492a12.981 12.981 0 0 0-2.558-5.442" class="cls-1" data-name="패스 2207" transform="translate(-1761.37 -861.499)"/>
            <path id="패스_2208-2" d="M1797.826 973.389s-.023-.128-.023-.082c.023.549.28 3.632.222 4.181-.058.607.21-.771.21-.771z" class="cls-1" data-name="패스 2208" transform="translate(-1778.214 -923.038)"/>
            <path id="패스_2209-2" d="M1767.742 922.848s1.9 7.6 2.535 9.238c.794 2.079.561-2.861.327-4.088a13.222 13.222 0 0 0-2.861-5.151" class="cls-1" data-name="패스 2209" transform="translate(-1752.24 -880.009)"/>
            <path id="패스_2210-2" d="M1790.14 998.54s-.012-.07-.012-.012c.023.654.362 4.333.3 5-.058.724.257-.911.257-.911z" class="cls-1" data-name="패스 2210" transform="translate(-1771.601 -940.693)"/>
            <path id="패스_2211-2" d="M1754.128 951.265a52.31 52.31 0 0 0 1.74 5.092 27.126 27.126 0 0 0 1.834 3.434c1.028 1.869.105-2.838-.257-3.994a11.508 11.508 0 0 0-3.317-4.531" class="cls-1" data-name="패스 2211" transform="translate(-1740.498 -903.552)"/>
            <path id="패스_2212-2" d="M1785.023 1020.469s-.012-.07-.012-.012c.023.654.385 4.625.315 5.279-.023.152.269-1.168.269-1.168z" class="cls-1" data-name="패스 2212" transform="translate(-1767.195 -959.819)"/>
            <path id="패스_2213-2" d="M1747.914 979.5s.864 3.1 1.939 5.746a31.6 31.6 0 0 0 2.032 3.877c1.133 2.1.093-3.177-.315-4.473a13.091 13.091 0 0 0-3.656-5.151" class="cls-1" data-name="패스 2213" transform="translate(-1735.141 -924.115)"/>
            <path id="패스_2214-2" d="M1734.574 1025.807a49.937 49.937 0 0 1 3.27 3.924c1.589 2.207 1.869 2.464 2.336 2.768 1.483.946-.794-4.263-1.471-5.057a5.434 5.434 0 0 0-4.135-1.635" class="cls-1" data-name="패스 2214" transform="translate(-1723.625 -964.491)"/>
            <path id="패스_2215-2" d="M1782.46 1057.912a1.086 1.086 0 0 1-.023-.14 16.633 16.633 0 0 1 .269 2.277c-.023.082.152-.6.152-.6z" class="cls-1" data-name="패스 2215" transform="translate(-1764.984 -992.381)"/>
            <path id="패스_2216-2" d="M1780.45 1076.688s-.035-.082-.023-.07c.023.175.339.969.269 1.133-.023.035.152-.28.152-.28z" class="cls-1" data-name="패스 2216" transform="translate(-1763.253 -1008.821)"/>
            <path id="패스_2217-2" d="M1699.67 889.772l10.277 24.947.526-.467z" class="cls-1" data-name="패스 2217" transform="translate(-1694.216 -845.858)"/>
            <path id="패스_2218-2" d="M1675.274 865.924s2.032 2.745 3.107 3.037a4.328 4.328 0 0 0-3.107-3.037" class="cls-1" data-name="패스 2218" transform="translate(-1672.938 -834.617)"/>
            <path id="패스_2219-2" d="M1663.944 884.9s2.92 1.261 4.029 1.028c0 0-1.238-1.518-4.029-1.028" class="cls-1" data-name="패스 2219" transform="translate(-1663.057 -850.556)"/>
            <path id="패스_2220-2" d="M1688.34 846.005s.28 4.6 1.471 5.372a4.528 4.528 0 0 0-1.471-5.372" class="cls-1" data-name="패스 2220" transform="translate(-1684.334 -817.79)"/>
            <path id="패스_2221-2" d="M1662.574 898.455s3.492 1.834 4.532 2.3c.245.105.4.129.467.082.245-.128-.14-.818-.491-1.226a4.8 4.8 0 0 0-4.508-1.156" class="cls-1" data-name="패스 2221" transform="translate(-1661.862 -861.457)"/>
            <path id="패스_2222-2" d="M1701.61 917.62s-.023-.012 0 .012a22.117 22.117 0 0 1 1.974 1.787c.2.315-.152-.49-.152-.49z" class="cls-1" data-name="패스 2222" transform="translate(-1695.372 -877.595)"/>
            <path id="패스_2223-2" d="M1695.033 893.427s-.047.012-.035.023a7.469 7.469 0 0 1 1.355 1.425c.2.315-.082-.315-.082-.315z" class="cls-1" data-name="패스 2223" transform="translate(-1690.139 -857.631)"/>
            <path id="패스_2224-2" d="M1665.223 911.807s3.691 3.142 4.976 3.48c1.635.432.1-1.612-.3-1.88s-2.558-2.021-4.672-1.6" class="cls-1" data-name="패스 2224" transform="translate(-1664.172 -872.38)"/>
            <path id="패스_2225-2" d="M1695.033 893.427s-.047.012-.035.023a7.469 7.469 0 0 1 1.355 1.425c.2.315-.082-.315-.082-.315z" class="cls-1" data-name="패스 2225" transform="translate(-1690.139 -857.631)"/>
            <path id="패스_2226-2" d="M1708.645 938.087s-.023-.012 0 .012a27.467 27.467 0 0 1 2.2 2.009c.222.351-.2-.525-.2-.525z" class="cls-1" data-name="패스 2226" transform="translate(-1701.421 -894.487)"/>
            <path id="패스_2227-2" d="M1657 937.218s5.209 2.733 6.774 2.931c1.986.257-.2-1.939-.759-2.161s-3.761-1.437-6.015-.771" class="cls-1" data-name="패스 2227" transform="translate(-1657 -893.372)"/>
            <path id="패스_2228-2" d="M1715.391 959.924s-.093-.047-.058-.023a24.31 24.31 0 0 1 2.417 1.927c.257.385-.163-.525-.163-.525z" class="cls-1" data-name="패스 2228" transform="translate(-1707.172 -912.555)"/>
            <path id="패스_2229-2" d="M1660.655 959.586s5.758 2.546 7.381 2.791c2.067.315-.537-2.009-1.483-2.453a9.993 9.993 0 0 0-5.9-.339" class="cls-1" data-name="패스 2229" transform="translate(-1660.188 -911.792)"/>
            <path id="패스_2230-2" d="M1723.837 981.944s-.093-.047-.07-.023c.327.292 2.313 1.693 2.569 2.067.269.409-.187-.561-.187-.561z" class="cls-1" data-name="패스 2230" transform="translate(-1714.427 -930.743)"/>
            <path id="패스_2231-2" d="M1669.244 980.984s5.758 2.546 7.381 2.791c2.067.315-.537-2.009-1.483-2.453a10.09 10.09 0 0 0-5.9-.339" class="cls-1" data-name="패스 2231" transform="translate(-1667.679 -929.485)"/>
            <path id="패스_2232-2" d="M1732.426 1003.325s-.093-.047-.07-.023a32.86 32.86 0 0 1 2.616 2.114c.268.409-.21-.654-.21-.654z" class="cls-1" data-name="패스 2232" transform="translate(-1721.814 -948.426)"/>
            <path id="패스_2233-2" d="M1670.523 1003.737s6.412 2.242 8.035 2.5c2.067.315-1.016-2.207-1.962-2.639-.969-.456-3.772-.491-6.073.14" class="cls-1" data-name="패스 2233" transform="translate(-1668.794 -948.171)"/>
            <path id="패스_2234-2" d="M1738.267 1025.68s-.058-.023-.023.012c.4.35 2.861 2.044 3.177 2.476.35.479-.234-.782-.234-.782z" class="cls-1" data-name="패스 2234" transform="translate(-1726.855 -964.388)"/>
            <path id="패스_2235-2" d="M1671.711 1030.176a33.55 33.55 0 0 0 4.812 1.016 23.666 23.666 0 0 0 3.971-.023c2.184-.047-1.495-1.705-2.558-1.962a12.679 12.679 0 0 0-6.225.969" class="cls-1" data-name="패스 2235" transform="translate(-1669.831 -967.389)"/>
            <path id="패스_2236-2" d="M1745.12 1043.406s-.058-.023-.023.012a41.113 41.113 0 0 1 3.352 2.639c.07.105-.362-.946-.362-.946z" class="cls-1" data-name="패스 2236" transform="translate(-1732.746 -979.848)"/>
            <path id="패스_2237-2" d="M1681.031 1052.3a37.982 37.982 0 0 0 5.4 1.156 26.293 26.293 0 0 0 4.438.012c2.441-.023-1.705-1.892-2.9-2.184a14.2 14.2 0 0 0-6.937 1.016" class="cls-1" data-name="패스 2237" transform="translate(-1677.959 -986.625)"/>
            <path id="패스_2238-2" d="M1692.818 1075.957s3.258-.887 5.816-1.273c3-.456 3.457-.607 4.134-.934 2.161-1.051-3.305-1.542-4.5-1.273a13.24 13.24 0 0 0-5.454 3.48" class="cls-1" data-name="패스 2238" transform="translate(-1688.24 -1005.146)"/>
            <path id="패스_2239-2" d="M1763.559 1067.229s-.129-.07-.117-.047c.21.175 1.483.712 1.588.993.023.07-.175-.491-.175-.491z" class="cls-1" data-name="패스 2239" transform="translate(-1748.595 -1000.588)"/>
            <path id="패스_2240-2" d="M1772.19 1079.813s-.082-.023-.07-.012c.117.082.934.175.934.362v-.315z" class="cls-1" data-name="패스 2240" transform="translate(-1756.085 -1011.595)"/>
            <path id="패스_2241-2" d="M1696.543 861.081a19.23 19.23 0 0 1 .689 4.4 6.977 6.977 0 0 1-.689-4.4" class="cls-1" data-name="패스 2241" transform="translate(-1691.416 -830.388)"/>
            <path id="패스_2242-2" d="M1706.031 864.1a15.622 15.622 0 0 1-.689 3.9 5.693 5.693 0 0 1 .689-3.9" class="cls-1" data-name="패스 2242" transform="translate(-1699.082 -832.963)"/>
            <path id="패스_2243-2" d="M1682.127 859.071s2.429 3.095 2.476 4.543c0 0-2.242-.911-2.476-4.543" class="cls-1" data-name="패스 2243" transform="translate(-1678.915 -828.706)"/>
            <path id="패스_2244-2" d="M1713.526 871.772s-.093 3.959-.152 5.092c-.012.269-.047.4-.105.432-.152.117-.4-.631-.514-1.168a6.376 6.376 0 0 1 .771-4.356" class="cls-1" data-name="패스 2244" transform="translate(-1704.912 -839.006)"/>
            <path id="패스_2245-2" d="M1717.031 914.462c.047.351.269 2.394.374 2.721.117.35-.222-.432-.222-.432z" class="cls-1" data-name="패스 2245" transform="translate(-1708.68 -874.783)"/>
            <path id="패스_2246-2" d="M1705.884 894.147s.023-.023.023-.012a11.491 11.491 0 0 0 .362 1.974c.117.35-.14-.257-.14-.257z" class="cls-1" data-name="패스 2246" transform="translate(-1699.636 -858.116)"/>
            <path id="패스_2247-2" d="M1721.133 881.731a44.727 44.727 0 0 1 .351 6.19c-.269 1.588-.911-.923-.934-1.425s-.3-3.317.584-4.765" class="cls-1" data-name="패스 2247" transform="translate(-1711.644 -846.978)"/>
            <path id="패스_2248-2" d="M1705.884 894.147s.023-.023.023-.012a11.491 11.491 0 0 0 .362 1.974c.117.35-.14-.257-.14-.257z" class="cls-1" data-name="패스 2248" transform="translate(-1699.636 -858.116)"/>
            <path id="패스_2249-2" d="M1726.077 932.828c.047.385.315 2.663.42 3.037.117.4-.222-.491-.222-.491z" class="cls-1" data-name="패스 2249" transform="translate(-1716.467 -889.897)"/>
            <path id="패스_2250-2" d="M1732.53 891.508a63.01 63.01 0 0 1-.5 7.3c-.479 1.763-.993-1.366-.946-1.962s.374-3.936 1.448-5.337" class="cls-1" data-name="패스 2250" transform="translate(-1720.749 -854.776)"/>
            <path id="패스_2251-2" d="M1735.853 951.881s0-.105.012-.058c.047.421.175 2.745.292 3.153.128.444-.245-.456-.245-.456z" class="cls-1" data-name="패스 2251" transform="translate(-1724.885 -905.564)"/>
            <path id="패스_2252-2" d="M1742.492 908.777s-.4 6.237-.771 7.7c-.467 1.869-.934-1.682-.876-2.721a11.288 11.288 0 0 1 1.647-4.975" class="cls-1" data-name="패스 2252" transform="translate(-1729.144 -868.87)"/>
            <path id="패스_2253-2" d="M1745.173 972.484s0-.105.012-.07c.047.444.2 2.92.327 3.352.14.479-.245-.49-.245-.49z" class="cls-1" data-name="패스 2253" transform="translate(-1732.908 -922.534)"/>
            <path id="패스_2254-2" d="M1751.538 929.061s-.4 6.237-.771 7.7c-.467 1.869-.934-1.682-.876-2.721a11.245 11.245 0 0 1 1.647-4.975" class="cls-1" data-name="패스 2254" transform="translate(-1736.928 -885.533)"/>
            <path id="패스_2255-2" d="M1754.219 992.677s0-.105.012-.07c.047.444.21 3 .339 3.434.14.479-.292-.584-.292-.584z" class="cls-1" data-name="패스 2255" transform="translate(-1740.695 -939.201)"/>
            <path id="패스_2256-2" d="M1762 945.051s-.771 6.575-1.145 8.047c-.467 1.869-.888-2.2-.829-3.235a11.818 11.818 0 0 1 1.974-4.812" class="cls-1" data-name="패스 2256" transform="translate(-1745.641 -898.581)"/>
            <path id="패스_2257-2" d="M1764.635 1011.393c.082.526.234 3.574.374 4.1.152.572-.351-.677-.351-.677z" class="cls-1" data-name="패스 2257" transform="translate(-1749.661 -951.911)"/>
            <path id="패스_2258-2" d="M1773.561 964.97a42.34 42.34 0 0 1-.946 4.508 24.056 24.056 0 0 1-1.25 3.188c-.7 1.74-.467-2.277-.28-3.294a10.688 10.688 0 0 1 2.476-4.4" class="cls-1" data-name="패스 2258" transform="translate(-1754.965 -915.066)"/>
            <path id="패스_2259-2" d="M1772.128 1027.931c.082.526.257 3.819.409 4.345.035.117-.4-.888-.4-.888z" class="cls-1" data-name="패스 2259" transform="translate(-1756.111 -966.335)"/>
            <path id="패스_2260-2" d="M1781.071 986.534a47.2 47.2 0 0 1-1.051 5.08 27.034 27.034 0 0 1-1.378 3.6c-.783 1.962-.5-2.546-.292-3.691a11.889 11.889 0 0 1 2.721-4.987" class="cls-1" data-name="패스 2260" transform="translate(-1761.174 -930.252)"/>
            <path id="패스_2261-2" d="M1786.737 1021.164a46.316 46.316 0 0 0-2.5 3.9c-1.18 2.137-1.4 2.418-1.8 2.756-1.25 1.1.187-3.632.7-4.415a5.956 5.956 0 0 1 3.6-2.242" class="cls-1" data-name="패스 2261" transform="translate(-1764.373 -960.456)"/>
            <path id="패스_2262-2" d="M1778.31 1057.647a.4.4 0 0 1 .012-.117 12.834 12.834 0 0 0 .047 1.9c.023.058-.21-.444-.21-.444z" class="cls-1" data-name="패스 2262" transform="translate(-1761.31 -992.173)"/>
            <path id="패스_2263-2" d="M1781.876 1072.453s.012-.082.023-.058c0 .14-.187.865-.093.981.023.023-.175-.2-.175-.2z" class="cls-1" data-name="패스 2263" transform="translate(-1764.298 -1005.134)"/>
        </g>
        <text id="休" class="cls-2" transform="translate(25.242 212)">
            <tspan x="0" y="0">休</tspan>
        </text>
    </g>
</svg>
