<svg xmlns="http://www.w3.org/2000/svg" width="269.134" height="198.359" viewBox="0 0 269.134 198.359">
    <defs>
        <style>
            .cls-1{fill:#f6faff}.cls-2{fill:#faf6ff}.cls-3{fill:#fafff6}
        </style>
    </defs>
    <g id="그룹_410" data-name="그룹 410" transform="translate(14.134 -474.003)">
        <path id="패스_2242" d="M509.9 600.663c-1.468-5.782 2.979-29.354 36.782-47.145s12.9-29.8 25.352-42.253 28.465 1.779 38.25 36.915 16.9 71.607 16.9 71.607H509.9z" class="cls-1" data-name="패스 2242" transform="translate(-396.66 47.336)"/>
        <path id="패스_2240" d="M410.394 438.163s-6.579 4.934 26.728 31.662 2.056 46.466 58.8 90.875 80.39 22.41 116.576 75.455c.411.822-202.105 0-202.105 0z" class="cls-2" data-name="패스 2240" transform="translate(-424 35.84)"/>
        <path id="패스_2241" d="M651.092 428.375s-68.047 18.834-43.309 74.8-5.643 77.459-5.643 77.459h48.953z" class="cls-3" data-name="패스 2241" transform="translate(-396.092 86.803)"/>
    </g>
</svg>
