<svg xmlns="http://www.w3.org/2000/svg" id="Search" width="15" height="15" viewBox="0 0 15 15">
    <defs>
        <style>
            .cls-1{fill:none}
        </style>
    </defs>
    <path id="사각형_693" d="M0 0h6v6H0z" class="cls-1" data-name="사각형 693"/>
    <path id="패스_208" d="M14.9 13.588L11.808 10.5a6.416 6.416 0 0 0 1.311-3.94A6.519 6.519 0 0 0 6.56 0 6.519 6.519 0 0 0 0 6.56a6.519 6.519 0 0 0 6.56 6.56 6.416 6.416 0 0 0 3.94-1.312l3.088 3.092zM1.874 6.56A4.64 4.64 0 0 1 6.56 1.874a4.64 4.64 0 0 1 4.685 4.686 4.64 4.64 0 0 1-4.685 4.685A4.64 4.64 0 0 1 1.874 6.56z" data-name="패스 208"/>
</svg>
