<svg xmlns="http://www.w3.org/2000/svg" width="22" height="22" viewBox="0 0 22 22">
    <defs>
        <style>
            .cls-1{fill:#555}
        </style>
    </defs>
    <path id="패스_208" d="M22 20.063L17.434 15.5a9.473 9.473 0 0 0 1.937-5.811A9.626 9.626 0 0 0 9.686 0 9.626 9.626 0 0 0 0 9.686a9.626 9.626 0 0 0 9.686 9.686 9.474 9.474 0 0 0 5.814-1.938L20.063 22zM2.767 9.686a6.851 6.851 0 0 1 6.919-6.919A6.851 6.851 0 0 1 16.6 9.686 6.851 6.851 0 0 1 9.686 16.6a6.851 6.851 0 0 1-6.919-6.914z" class="cls-1" data-name="패스 208"/>
</svg>
