<svg xmlns="http://www.w3.org/2000/svg" id="end_time_illust" width="323.401" height="177.871" viewBox="0 0 323.401 177.871">
    <defs>
        <style>
            .cls-1{fill:#f2f2f2}.cls-2{fill:#ff647a}.cls-3{fill:#fff}.cls-4{fill:#4470ff}.cls-10,.cls-5{fill:none}.cls-5{stroke:#2f2e41;stroke-miterlimit:10;stroke-width:2px}.cls-6{fill:#2f2e41}.cls-7{fill:#ffb8b8}.cls-8{fill:#ff6584}.cls-9{fill:#f7ecee}.cls-10{stroke:#e7e7e7}.cls-11{fill:#3f3d56}
        </style>
    </defs>
    <g id="그룹_82" data-name="그룹 82" transform="translate(50.602 87.43)">
        <ellipse id="타원_121" cx="54.684" cy="3.598" class="cls-1" data-name="타원 121" rx="54.684" ry="3.598" transform="translate(0 65.836)"/>
        <path id="패스_950" d="M0 0h52.885v69.434H0z" class="cls-2" data-name="패스 950" transform="translate(30.94)"/>
        <path id="사각형_604" d="M0 0h41.732v2.878H0z" class="cls-3" data-name="사각형 604" transform="translate(36.515 39.754)"/>
        <path id="사각형_605" d="M0 0h41.732v2.878H0z" class="cls-3" data-name="사각형 605" transform="translate(36.515 47.668)"/>
        <path id="사각형_606" d="M0 0h41.732v2.878H0z" class="cls-3" data-name="사각형 606" transform="translate(36.515 55.583)"/>
        <path id="패스_858" d="M240.5 373.557a5.754 5.754 0 0 0 4.34-3.41c1.085-2.945 2.015-5.425 3.875-4.96s.775 6.355.775 6.355 3.875-.465 4.03.93c.128 1.155.044 5.6.011 7.1a3.067 3.067 0 0 1-.535 1.7 2.236 2.236 0 0 1-2.267.969 18.089 18.089 0 0 0-2.593-.136 7.905 7.905 0 0 1-4.383-1.26l-3.255-.155z" class="cls-1" data-name="패스 858" transform="translate(-188.604 -353.908)"/>
        <path id="패스_859" d="M0 0h6.665v11.315H0z" class="cls-4" data-name="패스 859" transform="translate(46.935 17.478)"/>
    </g>
    <path id="선_5" d="M0 0h321.256" class="cls-5" data-name="선 5" transform="translate(2.145 163.274)"/>
    <g id="그룹_81" data-name="그룹 81">
        <path id="패스_848" d="M148.847 377.572a3.077 3.077 0 0 1 2.756-3.06 3.11 3.11 0 0 0-.32-.017 3.076 3.076 0 1 0 .32 6.136 3.077 3.077 0 0 1-2.756-3.059z" class="cls-6" data-name="패스 848" transform="translate(-129.366 -329.129)"/>
        <ellipse id="타원_122" cx="7.435" cy="7.435" class="cls-6" data-name="타원 122" rx="7.435" ry="7.435" transform="translate(18.656 50.505)"/>
        <path id="패스_843" d="M158.245 429.707s.112 4.589-.336 4.7 6.156 1.9 6.156 1.9l.672-6.268z" class="cls-7" data-name="패스 843" transform="translate(-136.069 -366.812)"/>
        <path id="패스_844" d="M323.092 551.887s4.925 0 5.037-.56 1.119 4.589 1.119 4.589l-2.015.672s-3.806-1.679-4.142-1.679.001-3.022.001-3.022z" class="cls-7" data-name="패스 844" transform="translate(-248.755 -449.791)"/>
        <path id="패스_845" d="M336.012 540.938s-.9-3.022-2.015-3.134c0 0 3.806-2.462 3.918-3.246s1.455-2.8 2.015-2.127.56 11.305-.448 12.424-5.482-1.573-5.482-1.573 2.8-1.225 2.012-2.344z" class="cls-6" data-name="패스 845" transform="translate(-256.302 -436.828)"/>
        <path id="패스_846" d="M57.736 619.783l-.9 4.813 4.141.672v-5.485z" class="cls-7" data-name="패스 846" transform="translate(-38.806 -472.767)"/>
        <path id="패스_847" d="M144.18 704.126s-.672-2.127-1.119-1.791a5.734 5.734 0 0 0-1.007 3.022c.112.56.9 4.925.56 5.709s1.679 4.813 4.253 4.477a2.41 2.41 0 0 0 2.351-2.575l-.9-3.47-.336-5.485s-2.906-.447-3.802.113z" class="cls-6" data-name="패스 847" transform="translate(-125.25 -552.856)"/>
        <ellipse id="타원_123" cx="3.076" cy="3.076" class="cls-6" data-name="타원 123" rx="3.076" ry="3.076" transform="translate(20.413 47.034)"/>
        <ellipse id="타원_124" cx="4.701" cy="4.701" class="cls-7" data-name="타원 124" rx="4.701" ry="4.701" transform="translate(21.393 56.624)"/>
        <path id="패스_849" d="M142.08 526.531a45.074 45.074 0 0 0 1.119 8.507c.9 2.91 4.124 23.636 3.452 25.2s-4.124 18.9-3.34 19.906 4.477.672 4.477.672l5.019-21.025s-.99-23.189 7.293-23.748 21.827-.9 21.827-.9 8.731 2.574 12.648 2.463a13.932 13.932 0 0 1 6.156 1.008l.672-4.589-17.35-3.806s-15.894-5.485-24.625-4.03a67.2 67.2 0 0 1-17.348.342z" data-name="패스 849" transform="translate(-125.277 -432.458)"/>
        <path id="패스_850" d="M138.473 439.189s-1.343-.783-1.679 0-2.686 1.455-3.582.784-3.134.224-3.134.224l-2.463 7.276s1.231 6.268 2.351 9.738 1.567 10.634 1.119 11.305 8.955 3.358 13.544 1.679 5.6-3.582 5.6-3.582-5.037-7.164-3.358-10.522a10.192 10.192 0 0 0 .336-7.164l.672-3.806-3.806-2.127s-.224-2.015-1.119-2.015-4.481-1.79-4.481-1.79z" class="cls-8" data-name="패스 850" transform="translate(-115.402 -373.037)"/>
        <path id="패스_851" d="M183.289 458.988h1.679a3.758 3.758 0 0 1 1.119 3.47c-.448 2.127-2.467 9.177-2.467 9.177l-1.675-4.364z" class="cls-9" data-name="패스 851" transform="translate(-152.494 -386.795)"/>
        <path id="패스_852" d="M196.68 515.644s3.35 3.627.887 5.53-3.069-4.365-3.069-4.365z" class="cls-7" data-name="패스 852" transform="translate(-161.063 -425.465)"/>
        <path id="패스_853" d="M185.818 491.8l.784 3.134 1.343 2.463s4.589 3.022 4.589 4.142c0 0-2.015-2.575-4.589 0L185.65 496z" class="cls-9" data-name="패스 853" transform="translate(-155.023 -409.189)"/>
        <ellipse id="타원_125" cx="5.127" cy="3.076" class="cls-6" data-name="타원 125" rx="5.127" ry="3.076" transform="translate(21.828 53.287)"/>
        <path id="패스_854" d="M142.08 407.611s3.582-2.015 5.037-.56-4.365 3.694-4.365 3.694z" class="cls-7" data-name="패스 854" transform="translate(-125.277 -350.989)"/>
        <path id="패스_855" d="M104.581 419.3l-.784-.56s-.9-1.343-1.679-.9-5.373-1.679-5.373-1.679 1.679.784 1.679-.56.224-1.119 1.343-1.119 1.119.56 1.567-.224.224-1.231 1.007-.784a1.571 1.571 0 0 0 1.9-.224c.224-.336 4.253-.9 4.253-.9a48.2 48.2 0 0 0-1.9-4.925c-.336-.336-8.955 3.47-8.955 3.47s-10.858 3.022-8.059 6.492 12.872 8.731 12.872 8.731z" class="cls-9" data-name="패스 855" transform="translate(-89.121 -351.594)"/>
    </g>
    <g id="그룹_79" data-name="그룹 79" transform="translate(159.766 91.02)">
        <ellipse id="타원_124-2" cx="48.227" cy="3.173" class="cls-1" data-name="타원 124" rx="48.227" ry="3.173" transform="translate(0 59.649)"/>
        <rect id="사각형_608" width="46.64" height="61.235" class="cls-2" data-name="사각형 608" rx="8" transform="translate(25.065)"/>
        <rect id="사각형_611" width="32.997" height="3.807" class="cls-3" data-name="사각형 611" rx="1.904" transform="translate(31.887 24.589)"/>
        <rect id="사각형_612" width="32.997" height="3.807" class="cls-3" data-name="사각형 612" rx="1.904" transform="translate(31.887 32.839)"/>
        <rect id="사각형_613" width="32.997" height="3.807" class="cls-3" data-name="사각형 613" rx="1.904" transform="translate(31.887 41.088)"/>
        <rect id="사각형_614" width="32.997" height="3.807" class="cls-3" data-name="사각형 614" rx="1.904" transform="translate(31.887 49.337)"/>
    </g>
    <ellipse id="타원_126" cx="8.78" cy="1.813" class="cls-1" data-name="타원 126" rx="8.78" ry="1.813" transform="translate(271.978 174.245)"/>
    <g id="그룹_84" data-name="그룹 84" transform="translate(274.745 159.922)">
        <path id="패스_856" d="M325.317 777.276c0 4.626-2.75 6.242-6.143 6.242h-.235c-.157 0-.313-.011-.467-.021-3.062-.217-5.441-1.915-5.441-6.218 0-4.452 5.69-10.071 6.117-10.487l.025-.024s6.144 5.882 6.144 10.508z" class="cls-4" data-name="패스 856" transform="translate(-313.032 -766.764)"/>
        <path id="패스_857" d="M326.374 782.81l2.247-3.139-2.252 3.484-.006.36c-.157 0-.313-.011-.467-.021l.242-4.628v-.043l.023-.437-2.258-3.493 2.265 3.165.005.093.183-3.5-1.933-3.609 1.957 3 .19-7.25-.032 5.717 1.924-2.267-1.928 2.758-.051 3.131 1.8-3-1.8 3.466-.028 1.741 2.609-4.182-2.618 4.79z" class="cls-11" data-name="패스 857" transform="translate(-320.455 -766.765)"/>
    </g>
</svg>
