<svg xmlns="http://www.w3.org/2000/svg" width="66.989" height="65.756" viewBox="0 0 66.989 65.756">
    <defs>
        <style>
            .cls-1{fill:#1ebbee}
        </style>
    </defs>
    <g id="IE" transform="translate(-85.292 -114.432)">
        <path id="svg" d="M152.281 148.854a29.927 29.927 0 0 0-3.785-14.589c10.231-23.154-10.961-19.762-12.14-19.531a53.786 53.786 0 0 0-12.48 4.078 28.39 28.39 0 0 0-1.707-.05 30.108 30.108 0 0 0-29.328 23.344c7.538-8.455 12.814-11.856 15.971-13.232q-.758.674-1.482 1.363c-.162.153-.312.312-.477.462q-.48.465-.936.936c-.187.187-.368.371-.549.558-.278.281-.552.565-.824.846-.19.2-.378.406-.568.605q-.381.409-.749.814c-.19.209-.381.421-.568.624q-.349.393-.693.786c-.187.218-.378.437-.562.655s-.431.512-.624.768l-.605.677-.583.73c-.187.237-.374.471-.555.708l-.515.671c-.193.253-.387.505-.574.758-.134.178-.262.356-.393.537a94.583 94.583 0 0 0-3.257 4.742q-.39.605-.752 1.192l-.041.066c-.243.4-.48.783-.711 1.167l-.025.041a89.98 89.98 0 0 0-1.71 2.964 68.53 68.53 0 0 0-4.087 8.549c-8.558 30.6 18.155 17.678 21.881 15.747a30.108 30.108 0 0 0 41.677-16.917h-15.805a13.9 13.9 0 0 1-12.021 6.63c-7.582 0-13.728-5.744-13.728-12.829h43.056a30.025 30.025 0 0 0 .25-3.878zm-5.616-29.612c2.59 1.747 4.68 4.5 1.1 13.747a30.186 30.186 0 0 0-14.7-12.2c2.764-1.345 9.663-4.19 13.578-1.548zM91.572 175.79c-2.112-2.165-2.5-7.438 2.184-17.045a30.2 30.2 0 0 0 13.1 16.015c-3.014 1.66-11.02 5.394-15.288 1.03zm17.341-31.29c.24-6.889 6.24-12.4 13.6-12.4s13.36 5.513 13.6 12.4z" class="cls-1"/>
    </g>
</svg>
