<svg xmlns="http://www.w3.org/2000/svg" width="14.222" height="16"><defs><style>.cls-1{fill:#25ae88}.cls-3{fill:#23a24d}</style></defs><g id="controls" transform="translate(-3)"><g id="그룹_207" data-name="그룹 207" transform="translate(4.185)"><path id="패스_2222" d="M7.3 0a.3.3 0 0 0-.3.3v10.663a.3.3 0 0 0 .593 0V.3A.3.3 0 0 0 7.3 0z" class="cls-1" data-name="패스 2222" transform="translate(-7)"/><path id="패스_2223" d="M7.3 48a.3.3 0 0 0-.3.3v1.185a.3.3 0 0 0 .593 0V48.3A.3.3 0 0 0 7.3 48z" class="cls-1" data-name="패스 2223" transform="translate(-7 -33.778)"/><path id="패스_2224" d="M26.3 0a.3.3 0 0 0-.3.3v5.922a.3.3 0 0 0 .593 0V.3A.3.3 0 0 0 26.3 0z" class="cls-1" data-name="패스 2224" transform="translate(-20.37)"/><path id="패스_2225" d="M26.3 32a.3.3 0 0 0-.3.3v5.926a.3.3 0 0 0 .593 0V32.3a.3.3 0 0 0-.293-.3z" class="cls-1" data-name="패스 2225" transform="translate(-20.37 -22.519)"/><path id="패스_2226" d="M45.3 16a.3.3 0 0 0-.3.3v10.663a.3.3 0 1 0 .593 0V16.3a.3.3 0 0 0-.293-.3z" class="cls-1" data-name="패스 2226" transform="translate(-33.741 -11.259)"/><path id="패스_2227" d="M45.3 0a.3.3 0 0 0-.3.3v1.181a.3.3 0 1 0 .593 0V.3A.3.3 0 0 0 45.3 0z" class="cls-1" data-name="패스 2227" transform="translate(-33.741)"/></g><path id="사각형_852" d="M0 0h2.963v3.556H0z" data-name="사각형 852" transform="translate(3 10.963)" fill="#ebba16"/><path id="사각형_853" d="M0 0h2.963v3.556H0z" class="cls-3" data-name="사각형 853" transform="translate(8.63 6.222)"/><path id="사각형_854" d="M0 0h2.963v3.556H0z" class="cls-3" data-name="사각형 854" transform="translate(14.259 1.481)"/></g></svg>