<svg xmlns="http://www.w3.org/2000/svg" width="83.766" height="36" viewBox="0 0 83.766 36">
    <defs>
        <style>
            .cls-1{fill:#fff}
        </style>
    </defs>
    <g id="KakaoTalk_20180821_152551119" transform="translate(-58.082 899.863)">
        <path id="패스_2374" d="M251.809-899.728c-.434.138-.809.395-.809.572 0 .049.069.059.158.03s.128-.02.1.02a8.148 8.148 0 0 0 1.549.908c1.924.987 2.457 1.322 2.665 1.678.178.286.168-.316.187 14.063.02 7.145.089 9.08.375 9.691.227.484.5.553.918.227a2.594 2.594 0 0 0 .75-1.52c.326-1.224.395-2.092.464-6.326l.059-3.257.3-.276a1.132 1.132 0 0 1 .375-.267 8.026 8.026 0 0 0 1.007-.868c.513-.474 1.125-1.036 1.372-1.263s.582-.572.77-.79.642-.71 1.017-1.115a10.621 10.621 0 0 0 .849-.987 4.484 4.484 0 0 1 .286-.4 2.876 2.876 0 0 0 .257-.326c.109-.158.2-.079.829.79.385.533.839 1.115 1.007 1.293a1.836 1.836 0 0 1 .306.385 26.713 26.713 0 0 0 1.826 2.26 5.261 5.261 0 0 0 .977.878l.345.188.247-.227a.741.741 0 0 0 .247-.642 4.046 4.046 0 0 0-.562-1.776 25.533 25.533 0 0 0-3.622-3.553 3.05 3.05 0 0 1-.8-.868c-.01-.1.02-.178.059-.178.069 0 .158-.217.178-.434a.212.212 0 0 1 .1-.148 6.519 6.519 0 0 0 .622-1.046c.286-.543.572-1.1.651-1.234a.933.933 0 0 0-.178-1.164c-.168-.178-.345-.286-.395-.257s-.089.01-.089-.039a5.53 5.53 0 0 0-1.658-.839c-.118-.01-.217-.049-.217-.089s-.217-.079-.474-.079c-.345 0-.533.049-.641.178a.582.582 0 0 0-.168.247 4.367 4.367 0 0 0 .9.859 2.246 2.246 0 0 1 .78.878 26.43 26.43 0 0 1-2.29 4.7c-.049.049-.336.454-.642.888s-.7.967-.878 1.174-.306.434-.266.493.03.079-.01.04c-.069-.059-.3.168-.957.937-.128.148-.513.563-.849.938l-.622.661v-1.431c-.02-7.234.01-10.254.1-10.777a1.337 1.337 0 0 0-.424-1.5c-.316-.227-.957-.493-.957-.385 0 .03-.059.01-.118-.039a11.157 11.157 0 0 0-2.1-.622 28.16 28.16 0 0 1-1.194-.257 2.824 2.824 0 0 0-1.712.003z" class="cls-1" data-name="패스 2374" transform="translate(-173.878)"/>
        <path id="패스_2375" d="M452.73-896.911c.039.049-.03.069-.138.04a.572.572 0 0 0-.592.414c0 .069.148.2.326.286s.464.257.641.355.316.168.316.138.128.039.286.148a1.037 1.037 0 0 0 .434.207.432.432 0 0 1 .266.148.415.415 0 0 0 .247.148c.355 0 .365.158.4 7.027.079 12.938.1 13.491.582 13.58.306.069.622-.188.77-.612.336-.908.395-1.688.424-5.724.02-2.22.049-4.056.069-4.066s.809-.04 1.767-.04l1.737-.02.434.464a6.017 6.017 0 0 0 2.5 1.589 8.514 8.514 0 0 0 3.7-.01 5.428 5.428 0 0 0 2.773-2.359 5.888 5.888 0 0 0 .355-3.464 4.234 4.234 0 0 0-1.846-2.289 8.8 8.8 0 0 0-2.092-.72c-.128 0-.178-.079-.178-.286a1.041 1.041 0 0 0-.868-.819 5.322 5.322 0 0 0-.73.01c-.118.02-.1.385.02.454a.3.3 0 0 1 .1.247c0 .148-.119.207-.563.3-2.1.434-3.286 1.2-3.977 2.566a3.269 3.269 0 0 0-.286 1.53l-.059 1.086-.395.029a2.709 2.709 0 0 0-.888.267c-.9.424-1.53.533-1.54.247 0-.079 0-2.329.01-5l.01-4.856-.326-.237a1.957 1.957 0 0 0-1.184-.4c-.04.03-.079 0-.079-.049 0-.109-.642-.256-1.056-.247-.128 0-.227-.039-.227-.079a1.263 1.263 0 0 0-.6-.079c-.326-.013-.573.026-.543.076zm13.718 6.533a3.745 3.745 0 0 1 1.569 1.293 4.273 4.273 0 0 1 .326.878 2.824 2.824 0 0 1-.138 1.895 3.365 3.365 0 0 1-.948 1.352.486.486 0 0 0-.247.138 4.711 4.711 0 0 1-1.984.582 4.12 4.12 0 0 1-3.168-1.589c-.326-.444-.335-.493-.335-1.352a1.843 1.843 0 0 1 .365-1.441 3.633 3.633 0 0 1 2.448-1.619 2.935 2.935 0 0 0 1.184-.355c.168-.088.139-.098.928.218z" class="cls-1" data-name="패스 2375" transform="translate(-355.041 -2.58)"/>
        <path id="패스_2376" d="M651.881-896.912c.03.049-.059.089-.2.1a.649.649 0 0 0-.395.158c-.257.257-.069.5.582.76a9.216 9.216 0 0 1 2.023.957l.217.2.03 9.958c.03 9.662.039 9.968.217 10.274.247.395.425.474.7.286.444-.3.671-1.253.76-3.237.03-.642.119-.79.326-.582a5.452 5.452 0 0 0 1.431.5 5.843 5.843 0 0 0 .888-.257c1.283-.444 3.02-.543 9.524-.533 3.148 0 6.1.039 6.553.089 1.174.118 1.589-.01 1.776-.553.128-.365.128-.424-.03-.671-.256-.395-.878-.6-2.2-.74a4.208 4.208 0 0 0-2.349.178 14.1 14.1 0 0 1-3.06.316c-5.477.247-12.534.276-12.761.059-.069-.069-.039-14.508.029-15.406.079-1.007-.108-1.263-1.135-1.52-1.219-.316-3.035-.514-2.926-.336z" class="cls-1" data-name="패스 2376" transform="translate(-534.562 -2.599)"/>
        <path id="패스_2377" d="M715.973-869.435c-.79.415-1.244.474-4.589.582-1.786.059-3.425.118-3.622.138s-.375 0-.375-.039a9.717 9.717 0 0 0-2.793-.395 2.386 2.386 0 0 0-1.2.158c-.454.3-.247.582.691.948a5.365 5.365 0 0 1 1.48.77c.039.059.069 1.668.059 3.582 0 3.257.069 4.214.286 4.214.039 0 .1.079.118.178.1.355.691.691 1.51.859.7.138 1.224.148 5.083.059 5.921-.148 6.277-.168 6.652-.385.266-.148.306-.237.336-.641.03-.454.03-.454-.414-.661a3.544 3.544 0 0 0-1.648-.2 3.043 3.043 0 0 0-1.757.266 4.6 4.6 0 0 1-2.132.335 47.873 47.873 0 0 1-5.724.01l-.3-.079-.03-1.7-.02-1.7 1.944-.01c2.142 0 3.81-.04 6.721-.138l1.9-.069.276-.276c.256-.266.286-.395.227-.977-.01-.079-.079-.109-.178-.069-.079.029-.128.02-.089-.03.069-.119-.543-.218-1.54-.257a3.086 3.086 0 0 0-1.608.3l-.819.316-3.425.079-3.415.069v-3.474h2.507a22.942 22.942 0 0 0 2.566-.079 2.649 2.649 0 0 1 .819-.049c.424.02 1.786 0 3.02-.059l2.26-.089.286-.276c.158-.158.276-.326.247-.395a.235.235 0 0 1 .059-.217c.158-.158-.187-.592-.523-.661a12.043 12.043 0 0 0-1.4-.1c-.919-.026-1.16.004-1.446.162z" class="cls-1" data-name="패스 2377" transform="translate(-581.413 -27.273)"/>
        <path id="패스_2378" d="M65.5-863.543c-.069.069-.059.227.039.5.2.543.1.957-.217.957a10.6 10.6 0 0 0-2.161.523 9 9 0 0 0-2.448 1.125c-.533.335-1.776 1.579-1.7 1.707.03.059.02.1-.03.1a4.3 4.3 0 0 0-.74 1.55 10.862 10.862 0 0 0 .03 3.869 6.151 6.151 0 0 0 1.767 2.941 7.937 7.937 0 0 0 1.135.987 1.692 1.692 0 0 1 .355.227 9.132 9.132 0 0 0 1.974.957c1.184.424 4.145.72 4.145.414 0-.049.039-.079.089-.039a4.442 4.442 0 0 0 1.49-.227.508.508 0 0 1 .3-.1 6.839 6.839 0 0 0 1.895-.928 9.8 9.8 0 0 0 2.211-2.151 2.657 2.657 0 0 1 .247-.395 5.808 5.808 0 0 0 .553-1.283 12.2 12.2 0 0 0 .128-3.5 5.834 5.834 0 0 0-.493-1.51A4.863 4.863 0 0 0 72.8-859.5c-1.165-1.155-1.934-1.549-4.362-2.23-.493-.138-.563-.187-.681-.513-.148-.415-.78-1.155-.908-1.066-.049.029-.089.01-.089-.049-.001-.205-1.077-.373-1.26-.185zm3 3.158a8.435 8.435 0 0 1 1.174.553 8.041 8.041 0 0 1 1.47 1.2c-.039 0 .02.1.138.227a4.812 4.812 0 0 1 1.007 2.4.68.68 0 0 0 .069.365 5.842 5.842 0 0 1-.188 2.24 4 4 0 0 1-1.352 2.033 6.986 6.986 0 0 1-2.734 1.461 6.8 6.8 0 0 1-5.468-1.145 4.668 4.668 0 0 1-1.865-2.536 7.206 7.206 0 0 1 0-2.438 4.993 4.993 0 0 1 2.221-2.892c.237-.158.395-.316.355-.355s-.01-.049.059-.01a.633.633 0 0 0 .444-.109 4.189 4.189 0 0 1 .76-.316c.247-.069.641-.2.878-.266a2.9 2.9 0 0 1 .641-.138 2.458 2.458 0 0 0 .75-.286 2.8 2.8 0 0 1 .7-.3 4.018 4.018 0 0 1 .941.312z" class="cls-1" data-name="패스 2378" transform="translate(0 -32.662)"/>
        <path id="패스_2379" d="M113.647-652.547c-.493.069-.809.227-.918.474-.1.207-.069.257.207.415a5.47 5.47 0 0 0 .957.365 9.45 9.45 0 0 1 2.714 1.046c.02.039.049 1.263.049 2.724l.01 2.655.3.6a1.763 1.763 0 0 0 .76.908c1.1.681.553.651 9.257.582 8.28-.069 8.932-.108 9.316-.513a1.088 1.088 0 0 0-.02-1.549 7.962 7.962 0 0 0-2.832-.375 4.163 4.163 0 0 0-2.546.651c-.967.444-1.944.533-6.77.6-3.553.049-3.859.04-4.224-.128-.681-.306-.681-.306-.681-4.175v-3.444l-.247-.306a1.228 1.228 0 0 0-.77-.395 37.138 37.138 0 0 0-4.562-.135z" class="cls-1" data-name="패스 2379" transform="translate(-49.207 -222.884)"/>
        <path id="패스_2380" d="M384.551-628.458a.776.776 0 0 0-.227.395c-.049.207-.01.326.188.523a.532.532 0 0 0 .8.039.887.887 0 0 0 .03-.859.761.761 0 0 0-.791-.098z" class="cls-1" data-name="패스 2380" transform="translate(-294.027 -244.555)"/>
        <path id="패스_2381" d="M600.395-628.653a.644.644 0 0 0-.395.6c0 .257.247.553.385.474.049-.039.119 0 .138.059.039.1.079.089.158-.02.059-.079.109-.109.109-.059s.089.01.2-.089a.575.575 0 0 0-.595-.965z" class="cls-1" data-name="패스 2381" transform="translate(-488.435 -244.409)"/>
        <path id="패스_2382" d="M727.72-628.766c-.691.04-.72.049-.72.276 0 .2.049.247.276.247a.909.909 0 0 1 .444.138c.148.118.168.385.168 3.049 0 3.119.01 3.069-.494 3.079-.187 0-.247.059-.257.217-.01.227 0 .227 1.2.227h1.224v-.247c0-.207-.039-.237-.286-.207-.5.059-.523 0-.484-1.461l.03-1.352.415-.395c.523-.483.878-.5 1.332-.1l.326.286.03 1.362a7.7 7.7 0 0 1-.059 1.5.634.634 0 0 1-.375.158c-.158.02-.316.04-.355.049s-.079.1-.079.207c0 .187.069.2 1.332.2 1.332 0 1.332 0 1.332-.227 0-.2-.049-.237-.365-.247a1.024 1.024 0 0 1-.434-.089 10.3 10.3 0 0 1-.109-1.609c-.03-1.4-.049-1.569-.266-1.9a1.449 1.449 0 0 0-1.194-.661 2.546 2.546 0 0 0-1.372.6l-.207.227v-1.7c0-1.559-.01-1.7-.168-1.678-.095.017-.5.042-.885.051z" class="cls-1" data-name="패스 2382" transform="translate(-602.901 -244.296)"/>
        <path id="패스_2383" d="M815.273-619.734a1.693 1.693 0 0 1-.247 1.007c-.188.326-.849.75-.967.632-.03-.039-.059.059-.059.2 0 .247.03.266.395.266h.395v.464c.03 2.961.039 3.059.286 3.326a1.266 1.266 0 0 0 1.441.316 1.392 1.392 0 0 0 .938-1.362c0-.4-.03-.474-.2-.474s-.2.069-.2.365c0 .711-.75 1.244-1.135.819-.118-.128-.148-.454-.158-1.589v-1.648c.01-.207.049-.217.7-.217.671 0 .691-.01.691-.247s-.02-.247-.691-.247h-.691l-.01-.375c-.01-.2-.01-.622 0-.938.01-.533 0-.562-.237-.562-.192-.002-.241.047-.251.264z" class="cls-1" data-name="패스 2383" transform="translate(-681.315 -252.243)"/>
        <path id="패스_2384" d="M650.735-603.021c-1.016.385-1.382.809-1.382 1.579a1.594 1.594 0 0 0 .484 1.086c.128.1.109.148-.168.385a.706.706 0 0 0-.316.691.733.733 0 0 0 .365.73c.335.276.345.306.148.306a.821.821 0 0 0-.474.247.6.6 0 0 0-.207.6 1.256 1.256 0 0 0 .217.533 2.673 2.673 0 0 0 1.776.484 2.476 2.476 0 0 0 1.925-.6.949.949 0 0 0 .395-.928c0-.563-.059-.671-.523-.967-.217-.148-.513-.187-1.559-.207-.957-.02-1.323-.059-1.382-.158-.247-.395 0-.562.849-.592 1.026-.03 1.835-.335 1.658-.612-.03-.049-.02-.079.03-.04.168.1.414-.178.523-.582a1.749 1.749 0 0 0-.207-1.3c-.079-.089-.059-.118.069-.118a.547.547 0 0 1 .335.217c.375.454.977-.079.641-.582a.885.885 0 0 0-1.184-.02c-.207.2-.227.2-.533.039a2.955 2.955 0 0 0-1.48-.191zm.79.434c.158 0 .592.533.592.711 0 .1.039.178.1.178s.059.089 0 .257a1.346 1.346 0 0 0-.1.444.755.755 0 0 1-.266.434.834.834 0 0 1-1.165.01.771.771 0 0 0-.266-.207c-.089.089-.079-1.036.01-1.263.118-.3.681-.691.878-.612a.81.81 0 0 0 .216.048zm1.066 4.55c.316.2.355.444.128.809-.108.178-.207.286-.207.247s-.187-.01-.4.069a1.872 1.872 0 0 1-2.062-.375c-.129-.237-.129-.276.059-.533a.976.976 0 0 1 .543-.345 4.619 4.619 0 0 1 1.938.128z" class="cls-1" data-name="패스 2384" transform="translate(-532.755 -267.485)"/>
        <path id="패스_2385" d="M377.276-601.931c-.2.03-.276.1-.276.237s.069.188.326.188c.622 0 .671.158.641 1.984l-.03 1.619-.415.089c-.355.079-.424.138-.424.325 0 .227.01.227 1.322.227h1.322v-.247c0-.2-.049-.247-.267-.247-.6 0-.622-.059-.622-2.25V-602l-.651.01c-.363.01-.778.039-.926.059z" class="cls-1" data-name="패스 2385" transform="translate(-287.443 -268.466)"/>
        <path id="패스_2386" d="M434.128-601.851a.251.251 0 0 0-.128.237c0 .128.069.187.237.187.513 0 .563.168.533 2-.03 1.431-.049 1.7-.178 1.707-.079.01-.247.02-.365.02-.168.02-.227.079-.227.267v.247h1.234c1.224 0 1.234 0 1.234-.227 0-.187-.079-.247-.365-.326l-.375-.089v-1.234a10.938 10.938 0 0 1 .049-1.372 1.6 1.6 0 0 1 .849-.8.76.76 0 0 1 .967.3c.227.276.237.355.247 1.6a7.652 7.652 0 0 1-.069 1.441c-.079.118-.276.187-.582.207-.069.01-.128.118-.128.257v.247h2.467v-.247c0-.227-.168-.316-.513-.257-.188.03-.276-.493-.286-1.737-.01-1.579-.109-1.954-.572-2.27a2 2 0 0 0-2.319.375l-.158.227v-.257c0-.523-.069-.573-.78-.562a3.522 3.522 0 0 0-.772.059z" class="cls-1" data-name="패스 2386" transform="translate(-338.818 -268.547)"/>
        <path id="패스_2387" d="M523.992-601.793a1.551 1.551 0 0 0-.523.553c-.178.375-.217 1.115-.049 1.115a.054.054 0 0 1 .049.089c-.039.049.069.227.227.385a2.038 2.038 0 0 0 1.313.454.4.4 0 0 1 .138.079.462.462 0 0 0 .3.079c.928 0 1.105.977.237 1.322-.7.276-1.362-.059-1.836-.928-.168-.306-.336-.493-.444-.493-.158 0-.178.089-.158.9.02.73.049.928.188 1.007s.207.059.345-.118l.187-.227.385.207a2 2 0 0 0 2.369-.464 1.57 1.57 0 0 0-.049-1.648 1.553 1.553 0 0 0-1.086-.553 2.526 2.526 0 0 1-1.352-.454c-.385-.286-.414-.5-.089-.809a1.434 1.434 0 0 1 1.332-.118 2.04 2.04 0 0 1 .72.948.3.3 0 0 0 .267.227c.217.03.227.01.168-.276a6.9 6.9 0 0 1-.059-.9c0-.5-.03-.582-.188-.582a.42.42 0 0 0-.3.138c-.109.128-.168.128-.454 0a2.09 2.09 0 0 0-1.638.067z" class="cls-1" data-name="패스 2387" transform="translate(-419.247 -268.466)"/>
        <path id="패스_2388" d="M593.13-601.931c-.395.059-.385.424 0 .424.6 0 .632.089.642 1.934l.01 1.668-.415.089c-.336.079-.414.138-.414.325 0 .227.01.227 1.332.227h1.332v-.247c0-.207-.049-.247-.3-.257-.158-.01-.355-.02-.414-.029-.1-.01-.138-.513-.158-2.112l-.02-2.092-.671.01c-.362.011-.776.04-.924.06z" class="cls-1" data-name="패스 2388" transform="translate(-481.979 -268.466)"/>
    </g>
</svg>
