<svg xmlns="http://www.w3.org/2000/svg" width="48" height="48"><g data-name="instagram (1)"><path d="M33 0H15A15 15 0 0 0 0 15v18a15 15 0 0 0 15 15h18a15 15 0 0 0 15-15V15A15 15 0 0 0 33 0zm10.5 33A10.512 10.512 0 0 1 33 43.5H15A10.512 10.512 0 0 1 4.5 33V15A10.512 10.512 0 0 1 15 4.5h18A10.512 10.512 0 0 1 43.5 15z" data-name="패스 908"/><path d="M24 11.333A12.667 12.667 0 1 0 36.667 24 12.668 12.668 0 0 0 24 11.333zm0 20.584A7.917 7.917 0 1 1 31.917 24 7.928 7.928 0 0 1 24 31.917z" data-name="패스 909"/><circle cx="1.688" cy="1.688" r="1.688" data-name="타원 177" transform="translate(35.161 9.463)"/></g></svg>