<svg xmlns="http://www.w3.org/2000/svg" width="281.586" height="222.563" viewBox="0 0 281.586 222.563">
    <defs>
        <style>
            .cls-1{fill:#f0f0f0}.cls-2{fill:#fcfcfc}.cls-3{fill:#cecece}.cls-4{fill:#b0b0b0}.cls-5{fill:#fff}.cls-6{fill:#474747}.cls-7{fill:#ffe5dd}.cls-8{fill:#616161}.cls-9{opacity:.07}.cls-10{stroke:rgba(0,0,0,0);font-size:10px;font-family:NotoSansCJKkr-Bold,Noto Sans CJK KR;font-weight:700}
        </style>
    </defs>
    <g id="그룹_511" data-name="그룹 511" transform="translate(0 1)">
        <g id="bg13" transform="translate(0 30.011)">
            <path id="패스_2283" d="M521 375.9s8.551-40.758 19.382-59.57 27.647-70.971 103.178-66.125 80.947 30.783 93.2 59.57 30.783 24.512 37.908 39.618 3.705 18.812 3.705 18.812z" class="cls-1" data-name="패스 2283" transform="translate(-506.728 -233.733)"/>
            <path id="패스_2284" d="M521 672.7s7.7 8.551 6.841 10.546-21.092 24.227 15.961 31.638 182.7 10.831 202.937 1.71 13.111-13.681 5.7-23.087 14.536-.285 19.382-9.976A80.53 80.53 0 0 0 778.376 665z" class="cls-2" data-name="패스 2284" transform="translate(-506.728 -530.527)"/>
            <path id="패스_2285" d="M786.962 584.952s-29.112-28.6-113.194-10.931-114.294-3.557-126.835-3.557S533.75 603.6 533.75 603.6l253.708-7.719.681-2.158a7.692 7.692 0 0 0 .108-2l-.108-1.311a11.774 11.774 0 0 0-.162-1.174z" class="cls-3" data-name="패스 2285" transform="translate(-515.844 -461.358)"/>
            <path id="패스_2286" d="M485.09 585.539s-31.869-16.067 0-24.757c0 0 13.966-36.084 39.245-4.74 0 0 23.178-2.371 23.705 13.168a29.736 29.736 0 0 0 12.644 4.216c7.639.8 8.166 7.111 6.584 8.955s-7.108 2.369-7.108 2.369z" class="cls-4" data-name="패스 2286" transform="translate(-470.927 -443.473)"/>
            <path id="패스_2287" d="M515.7 612.571s-23.5-11.848 0-18.259c0 0 10.3-26.61 28.941-3.5 0 0 17.1-1.747 17.481 9.711a21.863 21.863 0 0 0 9.323 3.107c5.632.582 6.023 5.245 4.845 6.6s-5.245 1.747-5.245 1.747z" class="cls-4" data-name="패스 2287" transform="translate(-495.468 -470.739)"/>
            <path id="패스_2288" d="M1290.157 328.212l-.026-70.2s-33.741-2.668-28.753-23.8c3.284-13.918 14.388-15.012 14.12-22.352-.194-5.3 4.626-27.009 19.191-15.183 11.506 9.343 6.1 17.047 12.042 18.142 6.085 1.12 13.51 11.355 9.383 17.358s.47 6.225.47 9.226 2.44 11.729-9.941 13.966-14.781 2.97-14.781 2.97l1.04 69.856z" class="cls-4" data-name="패스 2288" transform="translate(-1035.721 -193.203)"/>
            <path id="패스_2289" d="M1309.978 497.226V461.9s-11.632-1.345-9.913-12.005c1.14-7.02 4.959-7.573 4.868-11.276-.066-2.674 1.6-13.624 6.615-7.659 3.968 4.711 2.1 8.6 4.15 9.152 2.1.57 4.657 5.729 3.235 8.756s.162 3.135.162 4.654.855 5.917-3.42 7.051-4.389 1.14-4.389 1.14l.068 35.4z" class="cls-4" data-name="패스 2289" transform="translate(-1063.617 -361.941)"/>
            <path id="패스_2290" d="M1249.424 382.318l.034-59.413s23.973-2.257 20.43-20.151c-2.334-11.786-10.224-12.712-10.033-18.923.137-4.489-3.286-22.867-13.635-12.855-8.175 7.909-4.333 14.434-8.551 15.36-4.324.949-9.6 9.614-6.667 14.7s-.333 5.27-.333 7.812-1.733 9.93 7.066 11.837 10.5 2.514 10.5 2.514l-.656 59.154z" class="cls-4" data-name="패스 2290" transform="translate(-1013.757 -246.704)"/>
            <ellipse id="타원_19906" cx="6.804" cy="6.804" class="cls-5" data-name="타원 19906" rx="6.804" ry="6.804" transform="translate(83.011 55.467)"/>
            <ellipse id="타원_19907" cx="6.804" cy="6.804" class="cls-5" data-name="타원 19907" rx="6.804" ry="6.804" transform="translate(59.998 55.302)"/>
            <ellipse id="타원_19908" cx="9.164" cy="9.164" class="cls-5" data-name="타원 19908" rx="9.164" ry="9.164" transform="translate(69.398 52.651)"/>
            <ellipse id="타원_19909" cx="6.804" cy="6.804" class="cls-5" data-name="타원 19909" rx="6.804" ry="6.804" transform="translate(169.265 40.253)"/>
            <ellipse id="타원_19910" cx="9.164" cy="9.164" class="cls-5" data-name="타원 19910" rx="9.164" ry="9.164" transform="translate(178.662 37.605)"/>
        </g>
        <g id="그룹_497" data-name="그룹 497" transform="translate(82.179)">
            <g id="women_handup" data-name="women handup" transform="translate(0 19.459)">
                <g id="Layer_2">
                    <g id="그룹_61" data-name="그룹 61" transform="translate(0 109.633)">
                        <path id="패스_746" d="M165.373 482.7a11.7 11.7 0 0 0-4.848-1.933c-2.272-.407-3.628-3.967-3.628-3.967h-5.289s-.475 5.9-.237 6.374a2.07 2.07 0 0 0 1.594 1.356c1.221.373 11.935.237 12.409.136s1.796-.814-.001-1.966z" data-name="패스 746" transform="translate(-100.001 -424.855)"/>
                        <path id="패스_747" d="M3.86 324.716c-.712 1.051-3.831 11.291-3.865 11.8s.237 1.967 1.865.61a11.412 11.412 0 0 0 3.289-4.069c1.085-2.034 4.882-2.272 4.882-2.272l1.627-5.018s-5.493-2.238-6.035-2.17a2.006 2.006 0 0 0-1.763 1.119z" data-name="패스 747" transform="translate(.008 -323.596)"/>
                    </g>
                    <path id="패스_748" d="M57.845 267.073c-.136.034-.305 1.017-.339 1.153-.78 2.509-8.137 24.887-8.137 25.836s-15.766-6.171-18.309-7.29a.385.385 0 0 0-.509.169c-.509 1.085-1.967 4.306-1.458 4.679.644.441 17.224 12.274 18.58 12.613s3.391 2.034 6.781-2.034c2.916-3.492 11.053-16.715 13.325-20.411a.383.383 0 0 1 .509-.136.494.494 0 0 1 .2.305c.407 3.56.576 17.36 1.763 21.055s-.509 7.663-.509 13.088l.983 19.97a.376.376 0 0 0 .373.373l4.577.1a.4.4 0 0 0 .407-.339c.305-3.221 3.323-27.362 3.628-31.125.339-4.069 2.306-38.212 1.763-40.28-.403-1.287-21.119 1.867-23.628 2.274z" class="cls-6" data-name="패스 748" transform="translate(-19.156 -174.899)"/>
                    <path id="패스_749" d="M108.261 32.305s1.153-4.611 2.068-4.611 6.476.678 7.154 3.933 3.221 5.086 3.221 9.019 1.627 5.764 1.627 5.764a67.8 67.8 0 0 1 3.187-8.307c1.356-2.509 3.763-4.1 3.763-5.8s-2.034-20.954-2.2-21.462-.678-3.56.509-5.289c0 0 3.662-3.018 4.136-4.238.374-1.014 1.557-1.592 2.235-.405s-2.136 4.408-2.611 5.7a17.8 17.8 0 0 0-.848 3.764c0 .339-.678 5.459-.678 8s1.526 10.579 1.526 13.121-5.628 12.748-6.137 14.647-16.885 19.767-17.224 20.275-2.034 4.442-2.034 5.8 0 5.8.678 4.95 3.492-7.629 4-8.476 4.543-1.661 6.442-2.17 4.679.509 4.34 1.7-5.866 3.424-7.629 3.865c-1.119.271-5.967 5.628-6.306 7.154s-4.781-.678-4.781-2.882.509-13.46 1.187-14.986 3.764-8.171 5.459-11.6-2.034-5.12-2.712-7.493 1.628-9.973 1.628-9.973z" class="cls-7" data-name="패스 749" transform="translate(-67.876 -.246)"/>
                    <path id="패스_750" d="M116.23 62.722s4.442-7.968 4.882-9.968-.678-22.445-.678-22.445l3.424-.509s3.289 18.953 3.73 21.157-1.153 6.951-2.679 9.629-5.73 13.9-5.73 15.224.271 13.9.949 16.342 3.424 17.6 3.424 17.6l-23.732 2.235a81.341 81.341 0 0 0 .983-8.815c-.17-4.848-1.492-8.442 2.034-10.714 2.373-1.492 4.611-.78 7.154-2.034 2.95-1.458 3.628-2.645 3.8-3.458.1-.475-.644-1.56-5.221.136-1.526.576-4.611.542-4.679 2.509-.034 1.661 2.1 5.255-.475 6.883 0 0-2.95 6.951-5.7 8.036-2.373.915-5.188-1.594-5.12-4.882.068-3.933.305-11.46 2.1-14.749s6.713-11.731 7.595-12.409 3.56 2.543 6.679 2.1 4.408-1.9 5.086-3.424 2.174-8.444 2.174-8.444z" class="cls-8" data-name="패스 750" transform="translate(-61.198 -19.78)"/>
                    <path id="패스_751" d="M108.771 76.631a21.426 21.426 0 0 0 5.289 5.764c3.594 2.78.034 10.511-.136 14.376-.136 3.085 1.7 7.357 6.137 10.239 3.187 2.1.949 6.849.949 9.222s5.154-3.357 5.357-6.069a10.484 10.484 0 0 0-2.984-8.442c-2.2-2.543-4.781-12.07-5.493-16.58a6.374 6.374 0 0 1-.068-1.39c.068-1.594-.136-6.645-4.679-9.494-5.425-3.391-8.815-.271-11.019 1.594-2.679 2.272-3.764 8.612-3.085 18.445s-1.017 15.427-2.17 18.275c-2.645 6.476 4.543 1.933 5.866-1.8 1.7-4.781 2.882-5.154 5.289-8.883.949-1.458-.305-6.408-1.356-8.476-2-4-3.153-5.662-3.153-8.375s3.222-7.389 5.256-8.406z" data-name="패스 751" transform="translate(-63.64 -48.166)"/>
                    <path id="패스_752" d="M136.2 131.69s3.831.237 4.882-2.2c.1-.271-.61 7.459-.814 6.442-.268-1.055-4.068-4.242-4.068-4.242z" class="cls-9" data-name="패스 752" transform="translate(-90.018 -85.662)"/>
                    <path id="패스_754" d="M112.731 180.967s-.882 5.493-1.356 8a23.767 23.767 0 0 0-.475 4.1s3.255-4.069 4.306-5.7c.644-1.017-1.322-.509-1.492-4.238s-.136-6.137-.136-6.137z" class="cls-9" data-name="패스 754" transform="translate(-73.296 -117.071)"/>
                    <path id="패스_755" d="M115.183 229.365s2.916-2.848 3.052-4.34c.17-1.966 1.56-1.865 1.56-.644s-2.17 10.341-.848 12.748 2.373 2.373 2.373 2.373l-7.12.509z" class="cls-9" data-name="패스 755" transform="translate(-75.477 -147.804)"/>
                    <path id="패스_756" d="M60.889 270.6s.407 7.256-2.17 9.663c-5.255 4.916-2.17 11.358-4.509 14.172-1.967 2.339-2.475 9.087-7.188 10.579-1.865.61-8.578-3.492-9.934-3.967-2.882-.983-4.916-6.51-13.9-9.358-2.1-.678 5.527.034 5.527.034l16.546 6.849 8.544-27.43z" class="cls-9" data-name="패스 756" transform="translate(-15.08 -178.935)"/>
                </g>
            </g>
            <text id="_" class="cls-10" data-name="ㅊㅋ ㅊㅋ" transform="translate(35.268 12)">
                <tspan x="0" y="0">ㅊㅋ ㅊㅋ</tspan>
            </text>
        </g>
    </g>
</svg>
