<svg xmlns="http://www.w3.org/2000/svg" width="77.103" height="44" viewBox="0 0 77.103 44">
    <defs>
        <style>
            .cls-1{fill:#fff}
        </style>
    </defs>
    <g id="그룹_665" data-name="그룹 665" transform="translate(-298.079 -363.447)">
        <path id="패스_2359" d="M300.894 367.441h-1.143v1.71h1.143v3.068h1.778v-7.6h-1.778z" class="cls-1" data-name="패스 2359" transform="translate(41.43 29.031)"/>
        <path id="패스_2360" d="M305.268 366.354v-1.711h-5.338v1.711H302l-2.5 3.349 1.463 1.067 1.636-2.205 1.64 2.205 1.461-1.07-2.492-3.349z" class="cls-1" data-name="패스 2360" transform="translate(35.164 29.618)"/>
        <path id="사각형_1604" d="M0 0h1.782v7.6H0z" class="cls-1" data-name="사각형 1604" transform="translate(345.156 393.65)"/>
        <path id="패스_2361" d="M303.934 368.455a1.129 1.129 0 0 1-1.7 0 1.154 1.154 0 0 1-.36-.85 1.134 1.134 0 0 1 .36-.876 1.183 1.183 0 0 1 1.7 0 1.227 1.227 0 0 1 .361.876 1.258 1.258 0 0 1-.361.85m-.85-3.812a2.818 2.818 0 0 0-2.113.876 2.834 2.834 0 0 0 0 4.148 2.927 2.927 0 0 0 4.224 0 2.892 2.892 0 0 0 0-4.148 2.818 2.818 0 0 0-2.112-.876" class="cls-1" data-name="패스 2361" transform="translate(49.325 29.615)"/>
        <path id="사각형_1605" d="M0 0h1.782v7.6H0z" class="cls-1" data-name="사각형 1605" transform="translate(356.862 393.65)"/>
        <path id="패스_2362" d="M304.163 369.074h-1.056v-2.705h1.056zm2.577 0h-.8v-2.705h.8v-1.725h-6.183v1.725h.773v2.705h-.773v1.7h6.183z" class="cls-1" data-name="패스 2362" transform="translate(61.383 29.615)"/>
        <path id="패스_2363" d="M304.07 372.219v-7.6h-1.782v2.822h-1.458v1.71h1.459v3.45h1.782z" class="cls-1" data-name="패스 2363" transform="translate(68.137 29.031)"/>
        <path id="패스_2364" d="M304.3 369.051h-1.777v-.951h1.777zm0-4.122v1.471h-1.777v-1.442h-1.778v5.8h5.359v-5.822z" class="cls-1" data-name="패스 2364" transform="translate(66.112 36.696)"/>
        <path id="패스_2365" d="M312.066 367.363a1.353 1.353 0 0 1 0-2.705 1.353 1.353 0 1 1 0 2.705m-11.464 16.1a1.353 1.353 0 0 1-1.366-1.34 1.375 1.375 0 0 1 1.366-1.365 1.353 1.353 0 0 1 1.34 1.365 1.331 1.331 0 0 1-1.34 1.34m11.438-20.017a2.481 2.481 0 0 0-1.828.7 2.426 2.426 0 0 0-.7 1.8V382a3.127 3.127 0 0 1-.928 2.293 3.035 3.035 0 0 1-2.266.952 3.07 3.07 0 0 1-2.267-.927 3.251 3.251 0 0 1-.9-2.293 2.428 2.428 0 0 0-.7-1.8 2.485 2.485 0 0 0-1.829-.7 2.588 2.588 0 0 0-1.855.7 2.485 2.485 0 0 0-.7 1.829 8.288 8.288 0 0 0 14.117 5.874 8.047 8.047 0 0 0 2.4-5.9v-16.081a2.351 2.351 0 0 0-.721-1.8 2.487 2.487 0 0 0-1.829-.7" class="cls-1" data-name="패스 2365" transform="translate(-.001 -.001)"/>
        <path id="패스_2366" d="M313.248 367.662a1.353 1.353 0 0 1-1.34-1.366 1.331 1.331 0 0 1 1.34-1.34 1.352 1.352 0 0 1 1.365 1.34 1.375 1.375 0 0 1-1.365 1.366m-11.051 0a1.359 1.359 0 0 1-1.365-1.366 1.353 1.353 0 0 1 2.705 0 1.353 1.353 0 0 1-1.34 1.366m11.077-3.916a2.546 2.546 0 0 0-1.855.7 2.5 2.5 0 0 0-.722 1.828v8.476a3.01 3.01 0 0 1-.85 2.164 2.892 2.892 0 0 1-2.138.876 2.993 2.993 0 0 1-3.014-3.039V366.3a2.445 2.445 0 0 0-.72-1.829 2.68 2.68 0 0 0-3.658 0 2.528 2.528 0 0 0-.7 1.829v8.45a7.923 7.923 0 0 0 8.088 8.115 7.713 7.713 0 0 0 5.746-2.345 7.814 7.814 0 0 0 2.343-5.77v-8.48a2.388 2.388 0 0 0-2.524-2.524" class="cls-1" data-name="패스 2366" transform="translate(38.181 7.404)"/>
        <path id="패스_2367" d="M308.483 381.675a1.33 1.33 0 0 1-1.34-1.338 1.353 1.353 0 0 1 1.34-1.366 1.375 1.375 0 0 1 1.366 1.366 1.352 1.352 0 0 1-1.366 1.338m-7.11 10.82a1.358 1.358 0 0 1-1.365-1.365 1.353 1.353 0 0 1 2.705 0 1.37 1.37 0 0 1-1.34 1.365m6.981-28.749a9.415 9.415 0 0 0-9.557 9.584v18.006a2.428 2.428 0 0 0 2.524 2.551 2.608 2.608 0 0 0 1.855-.721 2.507 2.507 0 0 0 .721-1.83v-18.007a4.443 4.443 0 0 1 4.457-4.483 4.456 4.456 0 0 1 3.194 1.288 4.509 4.509 0 0 1 0 6.363 4.443 4.443 0 0 1-3.194 1.34 2.387 2.387 0 0 0-2.5 2.525 2.484 2.484 0 0 0 .7 1.829 2.351 2.351 0 0 0 1.8.721 9.584 9.584 0 1 0 0-19.166" class="cls-1" data-name="패스 2367" transform="translate(17.803 7.404)"/>
        <path id="패스_2368" d="M302.878 367.363a1.353 1.353 0 0 1 0-2.705 1.353 1.353 0 1 1 0 2.705m7.136 7.625a1.352 1.352 0 0 1-1.366-1.34 1.374 1.374 0 0 1 1.366-1.365 1.352 1.352 0 0 1 1.34 1.365 1.33 1.33 0 0 1-1.34 1.34m6.7-1.108a9.348 9.348 0 0 0-6.827-2.756 2.485 2.485 0 0 0-1.829.7 2.586 2.586 0 0 0-.7 1.854 2.386 2.386 0 0 0 2.5 2.525 4.531 4.531 0 0 1 4.534 4.508 4.244 4.244 0 0 1-1.34 3.168 4.318 4.318 0 0 1-3.168 1.314 4.238 4.238 0 0 1-3.168-1.314 4.332 4.332 0 0 1-1.314-3.194v-14.712a2.371 2.371 0 0 0-.721-1.829 2.487 2.487 0 0 0-1.83-.7 2.426 2.426 0 0 0-2.524 2.525v14.709a9.435 9.435 0 0 0 2.756 6.828 9.637 9.637 0 0 0 13.628-13.629" class="cls-1" data-name="패스 2368" transform="translate(55.713 -.001)"/>
    </g>
</svg>
