<svg xmlns="http://www.w3.org/2000/svg" id="jumsim_illust" width="472.863" height="257.246" viewBox="0 0 472.863 257.246">
    <defs>
        <style>
            .cls-1{fill:none;stroke:#707070;stroke-width:2px}.cls-2{fill:#2f2e41}.cls-3{fill:#ff6584}.cls-4{fill:#4470ff}.cls-5{fill:#f2f2f2}.cls-6{fill:#ffb8b8}.cls-7{fill:#f7ecee}.cls-8{fill:#3f3d56}
        </style>
    </defs>
    <g id="undraw_like_dislike_1dfj">
        <path id="패스_861" d="M0 0h441.552v.549H0z" class="cls-1" data-name="패스 861" transform="translate(30.311 255.697)"/>
        <path id="패스_776" d="M796.274 626.919l-.794-.41c10.315-19.942 4.8-45.838-1.644-64.051a196.3 196.3 0 0 0-16.658-35.158l.755-.477a197.3 197.3 0 0 1 16.745 35.336c6.503 18.38 12.057 44.535 1.596 64.76z" class="cls-2" data-name="패스 776" transform="translate(-568.096 -370.673)"/>
        <path id="사각형_581" d="M0 0h32.255v.893H0z" class="cls-2" data-name="사각형 581" transform="rotate(-79.645 227.77 -43.916)"/>
        <path id="사각형_582" d="M0 0h.894v43.95H0z" class="cls-2" data-name="사각형 582" transform="rotate(-42.95 332.282 -157.956)"/>
        <path id="사각형_583" d="M0 0h25.922v.894H0z" class="cls-2" data-name="사각형 583" transform="rotate(-54.12 352.674 -111.106)"/>
        <circle id="타원_97" cx="4.469" cy="4.469" r="4.469" class="cls-3" data-name="타원 97" transform="translate(185.329 173.37)"/>
        <circle id="타원_98" cx="4.469" cy="4.469" r="4.469" class="cls-3" data-name="타원 98" transform="translate(204.991 177.839)"/>
        <circle id="타원_99" cx="4.469" cy="4.469" r="4.469" class="cls-4" data-name="타원 99" transform="translate(196.054 195.267)"/>
        <circle id="타원_100" cx="4.469" cy="4.469" r="4.469" class="cls-3" data-name="타원 100" transform="translate(251.913 206.438)"/>
        <circle id="타원_101" cx="4.469" cy="4.469" r="4.469" class="cls-4" data-name="타원 101" transform="translate(237.166 211.354)"/>
        <circle id="타원_102" cx="4.469" cy="4.469" r="4.469" class="cls-3" data-name="타원 102" transform="translate(247.444 225.654)"/>
        <circle id="타원_103" cx="4.469" cy="4.469" r="4.469" class="cls-3" data-name="타원 103" transform="translate(200.522 144.323)"/>
        <path id="패스_777" d="M843.407 471l-.63-.634c15.939-15.811 18.64-42.151 18.1-61.462a196.312 196.312 0 0 0-5.06-38.574l.865-.222a197.314 197.314 0 0 1 5.088 38.771c.546 19.484-2.198 46.081-18.363 62.121z" class="cls-2" data-name="패스 777" transform="translate(-609.991 -270.583)"/>
        <path id="사각형_584" d="M0 0h32.255v.893H0z" class="cls-2" data-name="사각형 584" transform="rotate(-61.766 241.81 -146.082)"/>
        <path id="사각형_585" d="M0 0h.894v43.95H0z" class="cls-2" data-name="사각형 585" transform="rotate(-25.06 387.083 -446.536)"/>
        <path id="사각형_586" d="M0 0h25.922v.894H0z" class="cls-2" data-name="사각형 586" transform="rotate(-36.258 408.558 -281.945)"/>
        <circle id="타원_104" cx="4.469" cy="4.469" r="4.469" class="cls-5" data-name="타원 104" transform="translate(273.413 91.747)"/>
        <circle id="타원_105" cx="4.469" cy="4.469" r="4.469" class="cls-3" data-name="타원 105" transform="translate(216.492 109.54)"/>
        <circle id="타원_106" cx="4.469" cy="4.469" r="4.469" class="cls-3" data-name="타원 106" transform="translate(233.833 119.83)"/>
        <circle id="타원_107" cx="4.469" cy="4.469" r="4.469" class="cls-4" data-name="타원 107" transform="translate(219.977 133.672)"/>
        <circle id="타원_108" cx="4.469" cy="4.469" r="4.469" class="cls-3" data-name="타원 108" transform="translate(269.707 161.454)"/>
        <circle id="타원_109" cx="4.469" cy="4.469" r="4.469" class="cls-3" data-name="타원 109" transform="translate(254.164 161.604)"/>
        <circle id="타원_110" cx="4.469" cy="4.469" r="4.469" class="cls-3" data-name="타원 110" transform="translate(259.555 178.369)"/>
        <circle id="타원_111" cx="4.469" cy="4.469" r="4.469" class="cls-3" data-name="타원 111" transform="translate(239.87 86.561)"/>
        <path id="패스_778" d="M476.025 182.294a9 9 0 0 1-1.118-12.129c-.181.17-.358.346-.528.534a9 9 0 0 0 13.348 12.068c.17-.187.327-.381.478-.579a9 9 0 0 1-12.18.106z" class="cls-2" data-name="패스 778" transform="translate(-373.229 -142.891)"/>
        <circle id="타원_112" cx="18.53" cy="18.53" r="18.53" class="cls-2" data-name="타원 112" transform="translate(83.423 4.499)"/>
        <path id="패스_779" d="M338.7 789.8s-4.927 4.927 0 4.927 9.64-3.213 9.64-3.213z" class="cls-2" data-name="패스 779" transform="translate(-286.663 -538.625)"/>
        <path id="패스_780" d="M540.519 774.319s-1.364 6.833 2.735 4.1 6.235-8.024 6.235-8.024z" class="cls-2" data-name="패스 780" transform="translate(-416.814 -526.23)"/>
        <path id="패스_781" d="M338.435 338.644l-3.213 7.5-19.709 26.135s-13.5 14.567-6 15.424 12.425-13.5 12.425-13.5l23.136-22.922 2.571-10.5z" class="cls-6" data-name="패스 781" transform="translate(-267.972 -250.491)"/>
        <path id="패스_782" d="M396.048 254.46l-3.105.869s-12.1 21.41-10.819 25.908 7.069 10.068 9.64 9.64 4.284-36.417 4.284-36.417z" class="cls-7" data-name="패스 782" transform="translate(-315.732 -196.727)"/>
        <path id="패스_783" d="M436.362 183.392s3.213 13.282.857 15.852-7.5 4.5-7.5 4.5l.857 23.993s9.854-3.428 10.283-3.856 9.212-14.353 9.212-14.353l8.569-8.14s-13.068-6.212-9.212-16.924-13.066-1.072-13.066-1.072z" class="cls-6" data-name="패스 783" transform="translate(-346.191 -148.794)"/>
        <circle id="타원_113" cx="11.14" cy="11.14" r="11.14" class="cls-6" data-name="타원 113" transform="translate(86.957 17.245)"/>
        <path id="패스_784" d="M361.433 240s-7.926 2.142-8.355 5.141 0 9.212-.643 10.5-2.571 3.213-1.714 11.354a75.613 75.613 0 0 1 .428 13.068s-43.487 153.384-28.063 157.882 38.132-.428 37.917-3.428-4.07-62.339-4.07-62.339 22.493 78.834 50.342 60.411 21.637-21.851 19.066-23.136S385 347.114 385.212 335.76s-.428-46.915-5.141-52.271c0 0 4.927-16.281 7.284-18.423s8.14-22.279 8.14-22.279-3.642-4.927-6.641-4.927-5.784 1.071-9.212 4.284S363.575 261 363.575 261s-4.075-18-2.142-21z" class="cls-3" data-name="패스 784" transform="translate(-275.975 -186.126)"/>
        <ellipse id="타원_114" cx="9.426" cy="6.427" class="cls-2" data-name="타원 114" rx="9.426" ry="6.427" transform="translate(88.564 11.997)"/>
        <circle id="타원_115" cx="8.997" cy="8.997" r="8.997" class="cls-2" data-name="타원 115" transform="translate(105.059)"/>
        <path id="패스_785" d="M516.085 122.8a9 9 0 0 1-8.964-8.246c-.021.246-.034.5-.034.749a9 9 0 1 0 17.995 0c0-.253-.013-.5-.034-.75a9 9 0 0 1-8.963 8.247z" class="cls-2" data-name="패스 785" transform="translate(-395.602 -107.372)"/>
        <rect id="사각형_587" width="44.309" height="44.309" class="cls-3" data-name="사각형 587" rx="12" transform="translate(0 90.699)"/>
        <path id="패스_786" d="M240.5 379.641s5.605-.8 7.474-5.872 3.47-9.342 6.673-8.542 1.335 10.944 1.335 10.944 6.673-.8 6.94 1.6c.221 1.989.076 9.65.02 12.228a5.282 5.282 0 0 1-.921 2.92 3.851 3.851 0 0 1-3.9 1.668 31.16 31.16 0 0 0-4.465-.233 13.611 13.611 0 0 1-7.547-2.169l-5.605-.267z" class="cls-5" data-name="패스 786" transform="translate(-225.344 -267.407)"/>
        <path id="사각형_588" d="M0 0h11.478v19.485H0z" class="cls-4" data-name="사각형 588" transform="translate(6.614 108.497)"/>
        <path id="패스_787" d="M268.25 369.24a3.991 3.991 0 0 1-1.139-.164l.076-.256a3.78 3.78 0 0 0 4.792-2.917l.262.05a4.035 4.035 0 0 1-3.991 3.287z" class="cls-8" data-name="패스 787" transform="translate(-242.34 -267.901)"/>
        <path id="패스_789" d="M586.4 592.488a3.991 3.991 0 0 0-1.139.164l.076.256a3.78 3.78 0 0 1 4.792 2.917l.262-.05a4.035 4.035 0 0 0-3.991-3.287z" class="cls-8" data-name="패스 789" transform="translate(-445.525 -412.61)"/>
        <path id="패스_790" d="M514.06 333.309l-1.071 12 2.142 35.989s4.927 18.209-2.571 17.78-4.713-19.066-4.713-19.066l-3.428-41.773z" class="cls-6" data-name="패스 790" transform="translate(-393.898 -247.084)"/>
        <path id="패스_791" d="M502.168 243.2l5.57 3s7.5 26.135 3.213 31.062-13.068 6.855-13.5 4.927-1.928-16.281-1.928-16.281z" class="cls-7" data-name="패스 791" transform="translate(-388.218 -189.533)"/>
    </g>
</svg>
