<svg xmlns="http://www.w3.org/2000/svg" width="109.667" height="29" viewBox="0 0 109.667 29">
    <defs>
        <style>
            .cls-1,.cls-2{fill:#fff}.cls-1{stroke:rgba(0,0,0,0);font-size:20px;font-family:OpenSans-Bold,Open Sans;font-weight:700}
        </style>
    </defs>
    <g id="그룹_667" data-name="그룹 667" transform="translate(-1086.591 -1747)">
        <text id="Laftel" class="cls-1" transform="translate(1137.258 1769)">
            <tspan x="0" y="0">Laftel</tspan>
        </text>
        <g id="KakaoTalk_20190703_225158491" transform="translate(1086.591 1747)">
            <path id="패스_2403" d="M19.509-351.722a20.209 20.209 0 0 0-7.485 2.142 22.326 22.326 0 0 0-9.356 9.54A22.623 22.623 0 0 0 0-330.6a6.84 6.84 0 0 0 3.782 6.179c1.433.7-.3.637 17.28.661 13.975.016 15.671.008 16.236-.1a6.808 6.808 0 0 0 5.271-5.55c.334-1.919-.287-5.311-1.537-8.385a27.71 27.71 0 0 0-3.655-6.251A30.643 30.643 0 0 0 34-347.414a20.053 20.053 0 0 0-9.556-4.157 39.944 39.944 0 0 0-4.935-.151zm5.765 9.309a3.687 3.687 0 0 1 .8.326 2.676 2.676 0 0 1 1.043 1.123c.08.319.183.422.422.422.287 0 .358-.064.541-.478a2.971 2.971 0 0 1 1.362-1.258 2.242 2.242 0 0 1 1.131-.215 1.689 1.689 0 0 1 1.107.239 2.7 2.7 0 0 1 1.155 1.314c.326.693.35.677-.788.7-1.115.024-1.29.072-1.72.438a4.72 4.72 0 0 1-.645.462 1.5 1.5 0 0 0-.494 2.047 2.194 2.194 0 0 0 1.855 1.21l.287.008-.478.446a32.59 32.59 0 0 1-2.6 2.086l-.693.5-.812-.573a21.532 21.532 0 0 1-2.524-2.094l-.35-.358.279-.088a2.252 2.252 0 0 0 1.33-1.776 1.641 1.641 0 0 0-.8-1.378 3.55 3.55 0 0 1-.541-.43 1.307 1.307 0 0 0-.454-.327c-.08 0-.119-.08-.119-.247 0-.366-.127-.549-.4-.549a.447.447 0 0 0-.478.478c0 .223-.008.223-.287.135-.247-.072-.279-.111-.231-.287a2.832 2.832 0 0 1 1.21-1.648 2.217 2.217 0 0 1 1.892-.229zm-2.851 3.106c.135.088.223.1.446.024a.67.67 0 0 1 .852.39c.088.191.167.263.3.263a.64.64 0 0 1 .382.2.75.75 0 0 1 .048.964c-.518.844-1.967.8-2.787-.088a1.287 1.287 0 0 1-.366-1.2.733.733 0 0 1 1.126-.554zm9.293 0c.207.1.247.1.4 0a.782.782 0 0 1 .78-.016 1.278 1.278 0 0 1 .2 1.393 2.14 2.14 0 0 1-2.54.852c-.557-.263-.876-1.027-.589-1.4a.917.917 0 0 1 .589-.311c.08 0 .207-.111.279-.239a.6.6 0 0 1 .881-.28z" class="cls-2" data-name="패스 2403" transform="translate(0 351.75)"/>
        </g>
    </g>
</svg>
