<svg xmlns="http://www.w3.org/2000/svg" width="187.483" height="521.897" viewBox="0 0 187.483 521.897">
    <defs>
        <style>
            .cls-1,.cls-8{fill:none}.cls-1{stroke:#3f3d56;stroke-miterlimit:10;stroke-width:2px}.cls-2{fill:#2f2e41}.cls-3{fill:#6c63ff}.cls-4{fill:#4470ff}.cls-5{fill:#3f3d56}.cls-6{fill:#fff}.cls-7{fill:#ff6584}.cls-8{stroke:#707070}.cls-9{fill:#ffe065}
        </style>
    </defs>
    <g id="left_illust" transform="translate(-342.627 -421.775)">
        <g id="그룹_99" data-name="그룹 99" transform="translate(364.137 757.029)">
            <path id="선_9" d="M0 0h41.633" class="cls-1" data-name="선 9" transform="translate(112.743 19.741)"/>
            <ellipse id="타원_135" cx="11.42" cy="3.585" class="cls-2" data-name="타원 135" rx="11.42" ry="3.585" transform="rotate(-69.082 79.79 -1.143)"/>
            <ellipse id="타원_143" cx="3.957" cy="3.957" class="cls-3" data-name="타원 143" rx="3.957" ry="3.957" transform="translate(60.462 50.405)"/>
            <ellipse id="타원_144" cx="3.957" cy="3.957" class="cls-4" data-name="타원 144" rx="3.957" ry="3.957" transform="translate(97.391 46.357)"/>
            <ellipse id="타원_145" cx="3.957" cy="3.957" class="cls-3" data-name="타원 145" rx="3.957" ry="3.957" transform="translate(158.06 56.029)"/>
            <ellipse id="타원_148" cx="4.266" cy="4.266" class="cls-1" data-name="타원 148" rx="4.266" ry="4.266" transform="translate(119.354 109.774)"/>
            <ellipse id="타원_149" cx="49.15" cy="6.686" class="cls-5" data-name="타원 149" rx="49.15" ry="6.686" transform="translate(0 173.27)"/>
            <ellipse id="타원_150" cx="22.84" cy="22.84" class="cls-2" data-name="타원 150" rx="22.84" ry="22.84" transform="translate(23.651 124.446)"/>
            <path id="사각형_646" d="M0 0h6.939v12.432H0z" class="cls-2" data-name="사각형 646" transform="translate(36.083 165.212)"/>
            <path id="사각형_647" d="M0 0h6.939v12.432H0z" class="cls-2" data-name="사각형 647" transform="translate(49.961 165.212)"/>
            <ellipse id="타원_151" cx="5.782" cy="2.168" class="cls-2" data-name="타원 151" rx="5.782" ry="2.168" transform="translate(36.083 175.62)"/>
            <ellipse id="타원_152" cx="5.782" cy="2.168" class="cls-2" data-name="타원 152" rx="5.782" ry="2.168" transform="translate(49.961 175.331)"/>
            <ellipse id="타원_153" cx="7.806" cy="7.806" class="cls-6" data-name="타원 153" rx="7.806" ry="7.806" transform="translate(39.264 133.698)"/>
            <ellipse id="타원_154" cx="2.602" cy="2.602" class="cls-5" data-name="타원 154" rx="2.602" ry="2.602" transform="translate(44.468 138.902)"/>
            <path id="패스_894" d="M125.385 609.744c-1.844-8.259 4.051-16.605 13.168-18.641s18 3.01 19.846 11.269-4.2 11.306-13.314 13.341-17.856 2.287-19.7-5.969z" class="cls-7" data-name="패스 894" transform="translate(-101.049 -483.698)"/>
            <ellipse id="타원_155" cx="22.84" cy="22.84" class="cls-2" data-name="타원 155" rx="22.84" ry="22.84" transform="translate(15.845 58.817)"/>
            <path id="사각형_648" d="M0 0h6.939v12.432H0z" class="cls-2" data-name="사각형 648" transform="translate(28.277 99.582)"/>
            <path id="사각형_649" d="M0 0h6.939v12.432H0z" class="cls-2" data-name="사각형 649" transform="translate(42.155 99.582)"/>
            <ellipse id="타원_156" cx="5.782" cy="2.168" class="cls-2" data-name="타원 156" rx="5.782" ry="2.168" transform="translate(28.277 109.991)"/>
            <ellipse id="타원_157" cx="5.782" cy="2.168" class="cls-2" data-name="타원 157" rx="5.782" ry="2.168" transform="translate(42.155 109.701)"/>
            <ellipse id="타원_158" cx="7.806" cy="7.806" class="cls-6" data-name="타원 158" rx="7.806" ry="7.806" transform="translate(31.457 68.069)"/>
            <ellipse id="타원_159" cx="2.602" cy="2.602" class="cls-5" data-name="타원 159" rx="2.602" ry="2.602" transform="translate(36.662 73.273)"/>
            <path id="패스_895" d="M98.385 382.744c-1.844-8.259 4.051-16.605 13.168-18.641s18 3.01 19.846 11.269-4.2 11.306-13.314 13.341-17.856 2.287-19.7-5.969z" class="cls-4" data-name="패스 895" transform="translate(-81.855 -322.327)"/>
            <ellipse id="타원_160" cx="3.585" cy="11.42" class="cls-2" data-name="타원 160" rx="3.585" ry="11.42" transform="rotate(-64.626 55.419 33.829)"/>
            <path id="패스_896" d="M137.043 524.84c0 2.235 5.756 6.65 12.143 6.65s12.376-6.294 12.376-8.529-5.989.434-12.376.434-12.143-.795-12.143 1.445z" class="cls-6" data-name="패스 896" transform="translate(-109.577 -434.943)"/>
            <path id="사각형_652" d="M0 0h10.408v10.408H0z" class="cls-7" data-name="사각형 652" transform="translate(65.515 3.469)"/>
            <path id="사각형_653" d="M0 0h10.408v10.408H0z" class="cls-1" data-name="사각형 653" transform="translate(62.913)"/>
            <ellipse id="타원_170" cx="3.957" cy="3.957" class="cls-4" data-name="타원 170" rx="3.957" ry="3.957" transform="translate(15.938 169.232)"/>
            <path id="사각형_656" d="M0 0h10.408v10.408H0z" class="cls-7" data-name="사각형 656" transform="translate(74.188 168.555)"/>
            <ellipse id="타원_171" cx="3.957" cy="3.957" class="cls-4" data-name="타원 171" rx="3.957" ry="3.957" transform="translate(70.292 171.545)"/>
            <ellipse id="타원_172" cx="3.957" cy="3.957" class="cls-4" data-name="타원 172" rx="3.957" ry="3.957" transform="translate(129.603 15.711)"/>
        </g>
        <g id="그룹_103" data-name="그룹 103" transform="translate(353.602 736.607)">
            <ellipse id="타원_176" cx="15.789" cy="20.813" class="cls-7" data-name="타원 176" rx="15.789" ry="20.813"/>
            <path id="패스_900" d="M13601.54 592.361s-2.573 18.094 1.57 29.143-1.57 18.508-1.57 18.508" class="cls-8" data-name="패스 900" transform="translate(-13585.751 -550.734)"/>
        </g>
        <g id="그룹_105" data-name="그룹 105" transform="translate(342.627 421.775)">
            <ellipse id="타원_176-2" cx="18.53" cy="24.426" class="cls-4" data-name="타원 176" rx="18.53" ry="24.426"/>
            <path id="패스_900-2" d="M13601.677 592.361s-3.021 21.234 1.844 34.2-1.844 21.72-1.844 21.72" class="cls-8" data-name="패스 900" transform="translate(-13583.147 -543.509)"/>
        </g>
        <g id="그룹_104" data-name="그룹 104" transform="translate(442.102 586.366)">
            <ellipse id="타원_176-3" cx="12.052" cy="15.886" class="cls-9" data-name="타원 176" rx="12.052" ry="15.886"/>
            <path id="패스_900-3" d="M13601.354 592.361s-1.965 13.81 1.2 22.244-1.2 14.127-1.2 14.127" class="cls-8" data-name="패스 900" transform="translate(-13589.302 -560.588)"/>
        </g>
    </g>
</svg>
