<svg xmlns="http://www.w3.org/2000/svg" width="12.914" height="12.475" viewBox="0 0 12.914 12.475">
    <defs>
        <style>
            .cls-1{fill:none}.cls-2{clip-path:url(#clip-path)}.cls-3{fill:#3c92ca}
        </style>
        <clipPath id="clip-path">
            <path d="M0 0h12.914v12.475H0z" class="cls-1"/>
        </clipPath>
    </defs>
    <g id="like" class="cls-2">
        <g id="그룹_202" data-name="그룹 202">
            <path id="XMLID_1929_" d="M11.771 210.612H9.2a.106.106 0 0 1-.1-.1v-6.614a.106.106 0 0 1 .1-.1h2.567a.106.106 0 0 1 .1.1v6.614a.1.1 0 0 1-.096.1z" class="cls-3" transform="translate(-8.858 -198.584)"/>
            <path id="패스_1091" d="M7.578 8.56a2.26 2.26 0 0 0-1.832-.221.24.24 0 0 0-.168.229v2.284A2.333 2.333 0 0 1 4.484 12.8a4.225 4.225 0 0 1-1.142.57c-.005 0-.008 0-.013.005l-.136.045a.451.451 0 0 0-.386-.218H.45a.451.451 0 0 0-.45.45v6.4a.451.451 0 0 0 .45.45h2.359a.449.449 0 0 0 .437-.346 1.732 1.732 0 0 0 1.267.551H10.1a1.88 1.88 0 0 0 2.079-1.7l.714-4.532a1.754 1.754 0 0 0-.687-1.7 1.715 1.715 0 0 0-1.009-.325h-2.9v-2.114a2.068 2.068 0 0 0-.719-1.776zm-4.8 11.462H.482v-6.336h2.292zm8.422-7.084a1.227 1.227 0 0 1 .727.234 1.271 1.271 0 0 1 .49 1.23l-.717 4.534v.008a1.423 1.423 0 0 1-1.6 1.283H4.513a1.254 1.254 0 0 1-1.254-1.254v-5.064l.221-.075a4.526 4.526 0 0 0 1.273-.634 2.831 2.831 0 0 0 1.307-2.345V8.763a1.642 1.642 0 0 1 1.24.189 1.624 1.624 0 0 1 .514 1.385V12.7a.243.243 0 0 0 .242.242H11.2z" data-name="패스 1091" transform="translate(0 -8.237)"/>
        </g>
    </g>
</svg>
