<svg xmlns="http://www.w3.org/2000/svg" width="12.914" height="12.475"><defs><clipPath id="a"><path d="M0 0h12.914v12.475H0z" fill="none"/></clipPath></defs><g data-name="그룹 202" clip-path="url(#a)"><path d="M2.913 12.028H.342a.106.106 0 0 1-.1-.1V5.314a.106.106 0 0 1 .1-.1h2.567a.106.106 0 0 1 .1.1v6.614a.1.1 0 0 1-.096.1z" fill="#3c92ca"/><path d="M7.578.323A2.26 2.26 0 0 0 5.746.102a.24.24 0 0 0-.168.229v2.284a2.333 2.333 0 0 1-1.094 1.948 4.225 4.225 0 0 1-1.142.57c-.005 0-.008 0-.013.005l-.136.045a.451.451 0 0 0-.386-.218H.45a.451.451 0 0 0-.45.45v6.4a.451.451 0 0 0 .45.45h2.359a.449.449 0 0 0 .437-.346 1.732 1.732 0 0 0 1.267.551H10.1a1.88 1.88 0 0 0 2.079-1.7l.714-4.532a1.754 1.754 0 0 0-.687-1.7 1.715 1.715 0 0 0-1.009-.325h-2.9V2.099A2.068 2.068 0 0 0 7.578.323zm-4.8 11.462H.482V5.449h2.292zM11.2 4.701a1.227 1.227 0 0 1 .727.234 1.271 1.271 0 0 1 .49 1.23l-.717 4.534v.008a1.423 1.423 0 0 1-1.6 1.283H4.513a1.254 1.254 0 0 1-1.254-1.254V5.672l.221-.075a4.526 4.526 0 0 0 1.273-.634A2.831 2.831 0 0 0 6.06 2.618V.526A1.642 1.642 0 0 1 7.3.715 1.624 1.624 0 0 1 7.814 2.1v2.363a.243.243 0 0 0 .242.242H11.2z" data-name="패스 1091"/></g></svg>