<svg xmlns="http://www.w3.org/2000/svg" width="818.358" height="709.804"><defs><style>.cls-5{fill:#4470ff}.cls-3{fill:#f2f2f2}.cls-15,.cls-4{fill:#fe6483}.cls-6{fill:none;stroke-miterlimit:10;stroke-width:2px;stroke:#2f2e41}.cls-9{fill:#fde4db}.cls-10{fill:#ff6584}.cls-15{opacity:.3}</style></defs><g id="girl_illust"><g id="undraw_reminders_697p"><path id="패스_793" d="M521.727 107.772L297.271 229.35A57.1 57.1 0 1 1 196.9 283.715l-76.53 41.455 198.244 366 401.358-217.4z" data-name="패스 793" transform="translate(-120.37 -107.772)" opacity=".2" fill="#4470ff"/><path id="패스_794" d="M134.881 333.711l161.761 25.749-13.142 82.565-126.376-20.116-5.1 32.016-10.36-34.475-19.93-3.173z" data-name="패스 794" transform="translate(-35.882 -14.018)" fill="#f85072"/><path id="사각형_589" d="M0 0h98.961v8.531H0z" class="cls-3" data-name="사각형 589" transform="rotate(-170.956 126.685 175.63)"/><path id="사각형_590" d="M0 0h98.961v8.531H0z" class="cls-3" data-name="사각형 590" transform="rotate(-170.956 126.01 184.16)"/><path id="사각형_591" d="M0 0h98.961v8.531H0z" class="cls-3" data-name="사각형 591" transform="rotate(-170.956 125.335 192.69)"/><path id="패스_796" d="M124.156 461.457L274.5 396.436l33.188 76.736-117.453 50.8 12.865 29.751-27.232-23.542-18.523 8.011z" class="cls-4" data-name="패스 796" transform="rotate(-8 76.59 696.97)"/><path id="사각형_592" d="M0 0h98.961v8.531H0z" class="cls-3" data-name="사각형 592" transform="rotate(148.61 50.992 237.32)"/><path id="사각형_593" d="M0 0h98.961v8.531H0z" class="cls-3" data-name="사각형 593" transform="rotate(148.61 53.389 245.85)"/><path id="사각형_594" d="M0 0h98.961v8.531H0z" class="cls-3" data-name="사각형 594" transform="rotate(148.61 55.785 254.379)"/><path id="패스_797" d="M151.156 285.457L301.5 220.436l33.188 76.736-117.453 50.8 12.865 29.751-27.232-23.542-18.523 8.011z" class="cls-4" data-name="패스 797" transform="translate(-42.203 -32.38)"/><path id="사각형_595" d="M0 0h98.961v8.531H0z" class="cls-3" data-name="사각형 595" transform="rotate(156.612 96.976 138.72)"/><path id="사각형_596" d="M0 0h98.961v8.531H0z" class="cls-3" data-name="사각형 596" transform="rotate(156.612 98.742 147.251)"/><path id="사각형_597" d="M0 0h98.961v8.531H0z" class="cls-3" data-name="사각형 597" transform="rotate(156.612 100.508 155.782)"/><path id="패스_798" d="M284.961 186.728l601.367 25.7s94.231 299.827 23.986 428.325l-569.671 62.534s119.931-222.728-55.682-516.559z" class="cls-5" data-name="패스 798" transform="translate(-144.546 -119.37)"/><path id="선_2" d="M0 8.567L507.137 0" class="cls-6" data-name="선 2" transform="translate(232.076 198.426)"/><path id="선_3" d="M0 10.279L512.276 0" class="cls-6" data-name="선 3" transform="translate(245.783 236.119)"/><path id="패스_814" d="M767.262 367.957h163.8v83.6H803.093v32.423l-15.65-32.418h-20.18z" class="cls-4" data-name="패스 814" transform="translate(-112.702 -54.049)"/><path id="선_4" d="M0 0l594.008 20.888" class="cls-6" data-name="선 4" transform="translate(152.593 88.462)"/><path id="패스_799" d="M796.836 549.783c0 1.271-.009 2.542-.043 3.8v.009c-.051 3.105-.171 6.16-.367 9.2q-.307 4.888-.836 9.649c-3.455 31.028-13.88 58.063-28.511 76.541-8.292 10.485-17.941 18.223-28.443 22.386a49.846 49.846 0 0 1-9.939 2.807 47.05 47.05 0 0 1-7.994.682c-12.566 0-24.425-5-34.867-13.872-20.176-17.1-35.106-48.6-39.738-86.233v-.008a199.284 199.284 0 0 1-1.442-19.562q-.077-2.675-.077-5.392c0-69.077 34.082-125.075 76.123-125.075a51.045 51.045 0 0 1 28.187 8.855c.256.162.512.333.759.512a74.2 74.2 0 0 1 13.1 11.415 96.043 96.043 0 0 1 7.03 8.659 114.53 114.53 0 0 1 7.61 12.131c1.911 3.5 3.711 7.183 5.366 11.031v.009q2.585 5.938 4.735 12.37v.009a182.59 182.59 0 0 1 8.412 40.446c.619 6.39.935 12.948.935 19.631z" data-name="패스 799" transform="translate(-197.37 -154.326)" opacity=".5"/><path id="패스_839" d="M267.456-3668.421s-24.38-6.853-29.849 13.934 1.823 15.075-15.038 28.553-22.786 23.3-16.861 40.887c.228 3.427-26.887 12.869-27.115 26.8s20.051 44.543 44.432 33.807c4.405-1.218 23.469-1.75 36.533-17.284a17.008 17.008 0 0 1 8.131-5.445c13.131-4.181 31.049 6.929 42.072-3.311 13.443-12.487 11.317-20.558 12.76-26.041s18.456-2.437 23.089-17.665-5.468-25.431-11.848-25.889-45.875 1.675-46.786-4.264 3.949-23.6-.608-32.588-15.646-13.473-18.912-11.494z" data-name="패스 839" transform="translate(323.33 3934.808)" fill="#f5cb23"/><path id="패스_800" d="M338.594 197.773c.653 2.447-.131 5.285-1.746 6.337s-3.442-.076-4.092-2.513.125-5.27 1.734-6.329 3.452.058 4.104 2.505z" class="cls-5" data-name="패스 800" transform="translate(-151.533 -120.565)"/><path id="패스_801" d="M354.636 197.522c.653 2.447-.13 5.285-1.746 6.337s-3.442-.076-4.092-2.513.125-5.27 1.734-6.329 3.452.058 4.104 2.505z" class="cls-5" data-name="패스 801" transform="translate(-153.889 -120.528)"/><path id="패스_802" d="M322.551 198.024c.653 2.447-.131 5.285-1.746 6.337s-3.442-.076-4.092-2.513.125-5.27 1.734-6.329 3.453.058 4.104 2.505z" class="cls-5" data-name="패스 802" transform="translate(-149.176 -120.602)"/><path id="패스_804" d="M827.26 574.754s3.938 10.688 10.688 12.375 56.814 13.5 56.814 13.5 43.877 1.125 30.376 10.688-35.439 0-35.439 0-64.127-7.874-69.189-16.317a113.7 113.7 0 0 1-8.438-18z" class="cls-9" data-name="패스 804" transform="translate(-221.972 -176.366)"/><path id="패스_805" d="M802.107 519.366s32.064 52.314 28.126 53.439-40.5 12.938-42.189 8.438-1.687-25.313-1.687-25.313z" class="cls-10" data-name="패스 805" transform="translate(-218.195 -168.23)"/><path id="패스_806" d="M802.107 519.366s32.064 52.314 28.126 53.439-40.5 12.938-42.189 8.438-1.687-25.313-1.687-25.313z" data-name="패스 806" transform="translate(-218.195 -168.23)" opacity=".83" fill="#ffbdca"/><path id="패스_807" d="M689.5 499.069l-47.59 66.174s-31.647 28.266-19.786 31.66 30.687-23.978 30.687-23.978l54.855-69.272z" class="cls-9" data-name="패스 807" transform="translate(-193.68 -165.249)"/><path id="패스_809" d="M781.563 676.632c-8.292 10.485-17.941 18.223-28.443 22.386a49.87 49.87 0 0 1-9.939 2.807c1.8-39.934 3.873-75.552 5.332-78.7 3.378-7.312 12.379-10.125 12.379-10.125s.887 2.38 2.372 6.518c3.847 10.782 11.712 33.508 18.299 57.114z" class="cls-10" data-name="패스 809" transform="translate(-211.853 -181.984)"/><path id="패스_810" d="M781.563 676.632c-8.292 10.485-17.941 18.223-28.443 22.386a49.87 49.87 0 0 1-9.939 2.807c1.8-39.934 3.873-75.552 5.332-78.7 3.378-7.312 12.379-10.125 12.379-10.125s.887 2.38 2.372 6.518c3.847 10.782 11.712 33.508 18.299 57.114z" data-name="패스 810" transform="translate(-211.853 -181.984)" opacity=".83" fill="#ff6584"/><path id="패스_811" d="M781.4 549.135c-3.89 3.7-6.748 6.432-8.847 8.514-4.265 4.214-5.409 5.724-5.784 7.234-.563 2.252-3.37 2.252-3.37 2.252l-7.758 31.265-8.565 34.542s-.554 19.2-1.578 44.959a49.859 49.859 0 0 1-9.939 2.807 47.016 47.016 0 0 1-7.994.682c-12.566 0-24.425-5-34.867-13.872.145-32.947-.188-66.637-.188-66.637s-9-14.622 21.942-43.312c0 0 4.88-14.23 9.93-28.52 5.076-14.4 10.323-28.861 10.886-28.861.375 0 3.063-3.438 6.475-8.019a875.48 875.48 0 0 0 9.589-13.146c3.916-5.426 7-9.768 7-9.768s9.239 0 13.2 4.718a7.258 7.258 0 0 1 1.433 2.593c.956 3.114 3.139 10.715 5.332 18.427 2.943 10.382 5.912 20.944 5.912 20.944l1.51-12.694s4.684 6.509 4.684 11.568c0 .273.009.58.017.93.242 6.069 2.144 22.747-9.02 33.394z" class="cls-10" data-name="패스 811" transform="translate(-204.231 -160.87)"/><path id="패스_812" d="M765.573 473.754l-6.75-4.5s-28.126 16.876-47.814 18-19.126 12.375-11.25 20.251 38.814 34.876 39.939 28.126 25.875-61.877 25.875-61.877z" data-name="패스 812" transform="translate(-204.724 -160.869)" fill="#ffbdca"/><rect id="사각형_598" width="98.961" height="8.531" class="cls-3" data-name="사각형 598" rx="4.266" transform="translate(686.978 334.383)"/><rect id="사각형_599" width="98.961" height="8.531" class="cls-3" data-name="사각형 599" rx="4.266" transform="translate(686.978 351.445)"/><rect id="사각형_600" width="98.961" height="8.531" class="cls-3" data-name="사각형 600" rx="4.266" transform="translate(686.978 368.508)"/><circle id="타원_117" cx="12.588" cy="12.588" r="12.588" data-name="타원 117" transform="translate(491.632 152.802)" stroke="#3f3d56" fill="none" stroke-miterlimit="10" stroke-width="2"/><path id="패스_808" d="M815.266 466s-4.683 24-3.558 29.059c0 0-1.125 3.375.563 5.625s1.125 15.751 1.125 15.751l-5.625 7.875-7.313-24.188s-4.148-15.54-3.375-25.876 7.594-10.407 6.469-15.469S815.266 466 815.266 466z" class="cls-9" data-name="패스 808" transform="translate(-231.172 -159.115)"/><path id="패스_972" d="M20.813 0A20.813 20.813 0 1 1 0 20.813 20.813 20.813 0 0 1 20.813 0z" class="cls-9" data-name="패스 972" transform="translate(561.107 277.62)"/></g><g id="그룹_74" data-name="그룹 74" transform="translate(390.906 604.007)"><ellipse id="타원_118" cx="16.218" cy="8.109" class="cls-15" data-name="타원 118" rx="16.218" ry="8.109" transform="translate(10.924 89.579)"/><g id="그룹_71" data-name="그룹 71" transform="translate(21.585)"><g id="그룹_70" data-name="그룹 70" transform="translate(9.832 18.095)"><path id="패스_815" d="M-591.2-3374.724c.031-.29 3.251-29.192 19.929-44.328a45.038 45.038 0 0 0 14.049-24.586 75.278 75.278 0 0 0 1.346-13.664l-.689-.006a74.592 74.592 0 0 1-1.332 13.538 44.34 44.34 0 0 1-13.836 24.2c-16.876 15.318-20.122 44.476-20.153 44.769z" class="cls-4" data-name="패스 815" transform="translate(591.883 3457.308)"/></g><path id="패스_816" d="M-590.374-3466.756c-1.313 3.187-10.894 10.047-10.894 10.047s-1.963-11.616-.645-14.805a6.247 6.247 0 0 1 8.315-2.989 6.248 6.248 0 0 1 3.224 7.747z" class="cls-4" data-name="패스 816" transform="translate(646.516 3475.101)"/><path id="패스_817" d="M-592.522-3445.482c-2.835 1.963-14.6 2.518-14.6 2.518s4.669-10.816 7.51-12.781a6.248 6.248 0 0 1 8.756 1.189 6.249 6.249 0 0 1-1.189 8.756q-.226.171-.467.323z" class="cls-4" data-name="패스 817" transform="translate(650.925 3475.407)"/><path id="패스_818" d="M-583.383-3415.965c-3.434.262-13.878-5.2-13.878-5.2s9.491-6.978 12.932-7.243a6.252 6.252 0 0 1 6.715 5.755 6.254 6.254 0 0 1-5.756 6.715z" class="cls-4" data-name="패스 818" transform="translate(628.908 3475.892)"/><path id="패스_819" d="M-567.4-3395.809c-3.34.838-14.556-2.78-14.556-2.78s8.174-8.487 11.515-9.326a6.248 6.248 0 0 1 7.795 4.16 6.249 6.249 0 0 1-4.161 7.8q-.29.088-.587.147z" class="cls-4" data-name="패스 819" transform="translate(598.114 3476.235)"/><path id="패스_820" d="M-588.957-3447.361c1.369 3.166 11.074 9.853 11.074 9.853s1.75-11.651.381-14.815a6.249 6.249 0 0 0-8.218-3.25 6.248 6.248 0 0 0-3.249 8.217z" class="cls-4" data-name="패스 820" transform="translate(620.383 3475.423)"/><path id="패스_821" d="M-572.551-3423.533c2.252 2.6 13.51 6.084 13.51 6.084s-1.817-11.644-4.07-14.25a6.248 6.248 0 0 0-8.782-.97 6.249 6.249 0 0 0-.97 8.783c.1.122.2.239.306.354z" class="cls-4" data-name="패스 821" transform="translate(586.936 3475.797)"/><path id="패스_822" d="M-558.874-3398.187c1.781 2.953 12.287 8.287 12.287 8.287s.177-11.783-1.6-14.729a6.248 6.248 0 0 0-8.479-2.487 6.248 6.248 0 0 0-2.486 8.479c.085.156.178.31.278.458z" class="cls-4" data-name="패스 822" transform="translate(559.921 3476.24)"/></g><g id="그룹_73" data-name="그룹 73" transform="translate(0 45.002)"><g id="그룹_72" data-name="그룹 72" transform="translate(7.296 9.056)"><path id="패스_823" d="M-532.737-3379.362c.014-.141 1.43-14.231-4.986-23.166a21.41 21.41 0 0 1-4.084-12.826 36.059 36.059 0 0 1 .739-6.522l-.326-.067a36.357 36.357 0 0 0-.745 6.584 21.74 21.74 0 0 0 4.146 13.027c6.341 8.829 4.939 22.8 4.924 22.936z" class="cls-4" data-name="패스 823" transform="translate(542.141 3421.944)"/></g><path id="패스_824" d="M-535.51-3427.439c.3 1.636 4.127 5.843 4.127 5.843s2.1-5.285 1.8-6.923a3.016 3.016 0 0 0-3.623-2.25 3.016 3.016 0 0 0-2.304 3.33z" class="cls-4" data-name="패스 824" transform="translate(539.677 3430.849)"/><path id="패스_825" d="M-532.092-3417.619c1.14 1.214 6.639 2.665 6.639 2.665s-1.111-5.577-2.253-6.791a3.017 3.017 0 0 0-4.253-.325 3.016 3.016 0 0 0-.325 4.253c.059.069.122.135.187.2z" class="cls-4" data-name="패스 825" transform="translate(533.011 3430.986)"/><path id="패스_826" d="M-534.265-3402.4c1.595.471 7.076-1.051 7.076-1.051s-3.774-4.253-5.37-4.726a3.02 3.02 0 0 0-3.752 2.038 3.018 3.018 0 0 0 2.038 3.751z" class="cls-4" data-name="패스 826" transform="translate(538.229 3431.231)"/><path id="패스_827" d="M-539.526-3391.417c1.492.734 7.151.16 7.151.16s-3-4.831-4.492-5.565a3.015 3.015 0 0 0-4.1 1.175 3.015 3.015 0 0 0 1.176 4.1c.086.048.173.09.261.129z" class="cls-4" data-name="패스 827" transform="translate(548.408 3431.419)"/><path id="패스_828" d="M-533.524-3415.807c-.967 1.356-6.223 3.531-6.223 3.531s.351-5.676 1.318-7.032a3.016 3.016 0 0 1 4.207-.7 3.017 3.017 0 0 1 .7 4.208z" class="cls-4" data-name="패스 828" transform="translate(547.365 3431.023)"/><path id="패스_829" d="M-538.971-3402.869c-1.326 1-6.992 1.506-6.992 1.506s2.036-5.312 3.362-6.314a3.015 3.015 0 0 1 4.243.43 3.016 3.016 0 0 1-.429 4.244 4.688 4.688 0 0 1-.18.135z" class="cls-4" data-name="패스 829" transform="translate(558.408 3431.231)"/><path id="패스_830" d="M-542.577-3389.579c-1.139 1.213-6.637 2.668-6.637 2.668s1.107-5.579 2.244-6.79a3.016 3.016 0 0 1 4.254-.316 3.015 3.015 0 0 1 .316 4.253 2.885 2.885 0 0 1-.177.189z" class="cls-4" data-name="패스 830" transform="translate(565.703 3431.461)"/></g></g><g id="그룹_75" data-name="그룹 75" transform="translate(564.596 568.213)"><ellipse id="타원_119" cx="27.659" cy="16.595" class="cls-15" data-name="타원 119" rx="27.659" ry="16.595" transform="translate(0 50.487)"/><path id="패스_831" d="M-509.963-3479.2s-13.4 1.645-14.353-17.758 14.9-12.684 11.279-25.064c-.966-2.6-5.928-6.683-1.357-11.224s10.494-4.511 9.934-12.328 9.758-2.066 8.215 3.4-.084 14.695 6.879 22.85.377 14.777-1.371 15.813a4.864 4.864 0 0 0 .1 8.23c4.166 3.041 3.529 13.205-1.064 14.777s-18.262 1.304-18.262 1.304z" class="cls-4" data-name="패스 831" transform="translate(532.608 3549.385)"/></g><g id="그룹_76" data-name="그룹 76" transform="translate(763.904 539.993)"><ellipse id="타원_120" cx="22.63" cy="13.578" class="cls-15" data-name="타원 120" rx="22.63" ry="13.578" transform="translate(8.765 61.353)"/><path id="패스_832" d="M-431.534-3316.425s1.206-9.841-1.81-14.064-7.842-.6-10.858-6.033 1.206-7.238-3.016-12.064-7.239-3.017-7.842-9.049-6.636-6.636-9.049-3.619-1.206 9.048 1.81 12.064 2.413 3.016 1.81 9.048.6 12.668 6.636 14.478.6 7.842 5.429 10.857 12.064 7.62 16.89-1.618z" class="cls-4" data-name="패스 832" transform="translate(465.392 3387.589)"/><path id="패스_833" d="M-462.814-3401.859c2.092-1.674 8.78 5.645 4.7 12.229s-4.7 10.976-1.882 15.366 4.7 14.425 0 19.755-5.644 12.857-2.822 17.561.314 12.229-7.526 13.17-20.069-6.271-18.188-15.053 13.17-8.779 13.17-15.679-5.017-3.762-3.763-13.483 9.094-11.6 9.407-17.561.632-11.288 6.904-16.305z" class="cls-4" data-name="패스 833" transform="translate(505.58 3402.101)"/></g></g></svg>