<svg xmlns="http://www.w3.org/2000/svg" width="200" height="200" fill="none"><path fill="#382656" d="M163.309 116.306H36.691c-12.44 0-22.56 10.121-22.56 22.561 0 12.439 10.12 22.56 22.56 22.56h13.223l-1.706 1.386a6.633 6.633 0 0 0-2.308 6.599 6.63 6.63 0 0 0 4.854 5.03l.886.228-4.374 17.043a3.905 3.905 0 0 0 2.812 4.754l13.285 3.41a3.908 3.908 0 0 0 4.755-2.812l4.374-17.044.887.228a6.63 6.63 0 0 0 6.676-2.072 6.632 6.632 0 0 0 1.155-6.894l-4.007-9.857h86.107v.001c12.44 0 22.56-10.121 22.56-22.56 0-12.44-10.121-22.561-22.56-22.561zM52.486 171.372l-.002.006.002-.007v.001zm18.653.237a4.376 4.376 0 0 0-3.342.475 4.375 4.375 0 0 0-2.026 2.698l-4.25 16.557-5.717-1.468 4.249-16.555a4.379 4.379 0 0 0-.476-3.343 4.373 4.373 0 0 0-2.698-2.024l-1.978-.509 7.404-6.014 4.86-3.947 1.604 3.947 4.345 10.689-1.975-.506zm72.557-17.995H74.028l-1.612-3.965a3.906 3.906 0 0 0-6.082-1.561l-6.803 5.526h-22.84c-8.132 0-14.748-6.616-14.748-14.747 0-8.132 6.616-14.748 14.748-14.748h107.006v29.495h-.001zm19.613 0h-11.8v-29.495h11.8c8.132 0 14.748 6.616 14.748 14.748 0 8.131-6.616 14.747-14.748 14.747z"/><path fill="#382656" d="M165.574 129.918a3.907 3.907 0 0 0-6.128 4.845l2.631 3.328-2.631 3.328a3.905 3.905 0 1 0 6.128 4.845l4.547-5.751a3.905 3.905 0 0 0 0-4.845l-4.547-5.75zM37.882 140.359a3.874 3.874 0 0 0 2.114 2.113 3.874 3.874 0 0 0 1.496.301 3.937 3.937 0 0 0 2.168-.66 3.745 3.745 0 0 0 1.078-1.078 3.93 3.93 0 0 0 .66-2.168 3.902 3.902 0 0 0-.3-1.496 3.948 3.948 0 0 0-1.438-1.754 3.926 3.926 0 0 0-1.407-.582 3.935 3.935 0 0 0-4.011 1.664 3.948 3.948 0 0 0-.582 1.403 3.897 3.897 0 0 0 0 1.527c.05.25.125.496.222.73zm20.774 0a3.832 3.832 0 0 0 .848 1.27 3.965 3.965 0 0 0 1.266.844 3.9 3.9 0 0 0 1.496.3 3.93 3.93 0 0 0 2.762-1.144c.18-.18.343-.379.484-.594a3.93 3.93 0 0 0 .66-2.167 3.912 3.912 0 0 0-.3-1.497 3.97 3.97 0 0 0-.845-1.266 3.94 3.94 0 0 0-3.527-1.07 3.96 3.96 0 0 0-1.402.582 3.961 3.961 0 0 0-1.441 1.754 3.906 3.906 0 0 0 0 2.988zm20.778 0c.097.239.218.465.359.676a3.75 3.75 0 0 0 1.078 1.078 3.933 3.933 0 0 0 2.168.66 3.934 3.934 0 0 0 2.762-1.144c.18-.18.343-.379.484-.594a3.93 3.93 0 0 0 .66-2.167 3.912 3.912 0 0 0-.3-1.497 3.97 3.97 0 0 0-.844-1.266 3.939 3.939 0 0 0-3.524-1.07 3.957 3.957 0 0 0-1.406.582 4.065 4.065 0 0 0-.594.488 3.97 3.97 0 0 0-.844 1.266 3.92 3.92 0 0 0-.3 1.497c0 .253.027.511.078.761.047.25.125.496.223.73zm20.773 0a3.897 3.897 0 0 0 .844 1.27c.179.18.379.344.594.484a3.953 3.953 0 0 0 2.168.66 3.953 3.953 0 0 0 2.761-1.144 3.897 3.897 0 0 0 .844-1.27 3.907 3.907 0 0 0 .301-1.491 3.974 3.974 0 0 0-.301-1.497 4.04 4.04 0 0 0-.844-1.266 3.938 3.938 0 0 0-3.523-1.07 3.956 3.956 0 0 0-2 1.07 4.04 4.04 0 0 0-.844 1.266 3.912 3.912 0 0 0-.3 1.497 3.892 3.892 0 0 0 .3 1.491zm20.773 0c.098.238.219.465.36.676a3.749 3.749 0 0 0 1.078 1.078c.211.141.437.262.676.359a3.923 3.923 0 0 0 1.492.301 3.904 3.904 0 0 0 1.496-.301 3.907 3.907 0 0 0 1.754-5.773 4.008 4.008 0 0 0-1.082-1.082 3.907 3.907 0 0 0-4.93.488 3.944 3.944 0 0 0-.844 1.266 4.233 4.233 0 0 0-.222.731 3.834 3.834 0 0 0 0 1.527c.051.25.125.496.222.73zM65.726 98.736a3.9 3.9 0 0 0 .3.26c8.97 6.941 19.575 10.868 30.83 11.454.08.005.161.008.241.012.357.017.715.031 1.074.041l.316.01c.442.01.884.017 1.328.017.446 0 .891-.007 1.335-.017.102-.002.203-.006.304-.009.367-.011.733-.024 1.099-.042l.21-.011c11.44-.592 22.186-4.626 31.239-11.762.124-.099.241-.204.351-.315 12.627-10.137 20.725-25.694 20.725-43.109C155.079 24.792 130.287 0 99.815 0 69.342 0 44.549 24.792 44.549 55.265c0 17.622 8.291 33.344 21.177 43.47zm39.163 3.709c-.242.026-.485.049-.728.071-.269.024-.537.049-.807.069-.468.034-.938.061-1.409.082-.161.007-.322.012-.484.018a50.05 50.05 0 0 1-1.647.032 48.813 48.813 0 0 1-2.102-.049c-.45-.02-.898-.046-1.345-.077a49.89 49.89 0 0 1-.779-.065 46.989 46.989 0 0 1-1.774-.187l-.165-.022a47.2 47.2 0 0 1-21.327-8.396v-7.072c0-9.308 4.623-17.55 11.688-22.57A25.884 25.884 0 0 0 100 69.794a25.88 25.88 0 0 0 15.989-5.515c7.065 5.02 11.688 13.262 11.688 22.57v6.801a47.182 47.182 0 0 1-22.788 8.795zM99.815 7.813c26.165 0 47.452 21.286 47.452 47.452 0 11.962-4.451 22.902-11.781 31.257-.103-11.406-5.613-21.543-14.087-27.968a25.871 25.871 0 0 0 4.623-14.781c0-1.291-.096-2.59-.285-3.86a3.907 3.907 0 0 0-7.727 1.15c.132.89.199 1.802.199 2.71 0 4.024-1.315 7.747-3.534 10.764a18.32 18.32 0 0 1-6.976 5.732 18.096 18.096 0 0 1-7.698 1.713c-2.75 0-5.359-.617-7.698-1.713a18.317 18.317 0 0 1-6.977-5.732 18.108 18.108 0 0 1-3.534-10.764c0-10.04 8.168-18.209 18.209-18.209 1.382 0 2.758.155 4.091.46a3.906 3.906 0 0 0 1.746-7.615 26.162 26.162 0 0 0-5.837-.657c-14.348 0-26.021 11.673-26.021 26.02 0 5.488 1.712 10.58 4.623 14.782C70.048 65.04 64.51 75.31 64.51 86.85v.086c-7.55-8.405-12.149-19.51-12.149-31.67 0-26.166 21.287-47.452 47.453-47.452z"/><path fill="#382656" d="M112.602 30.223a3.944 3.944 0 0 0 .843 1.265 3.87 3.87 0 0 0 1.27.848 3.852 3.852 0 0 0 1.492.297 3.882 3.882 0 0 0 2.168-.656c.215-.144.414-.305.594-.489a3.962 3.962 0 0 0 .844-1.266 3.79 3.79 0 0 0 .222-.73 3.828 3.828 0 0 0 0-1.527 3.711 3.711 0 0 0-.222-.73 4.013 4.013 0 0 0-.844-1.27 3.976 3.976 0 0 0-1.266-.844 4.07 4.07 0 0 0-.734-.222 3.833 3.833 0 0 0-1.524 0 3.936 3.936 0 0 0-2 1.066 3.937 3.937 0 0 0-1.066 2 3.832 3.832 0 0 0 .223 2.258z"/></svg>