<svg xmlns="http://www.w3.org/2000/svg" id="jumsim_illust" width="227.615" height="124.064" viewBox="0 0 227.615 124.064">
    <defs>
        <style>
            .cls-1{fill:none;stroke:#707070;stroke-width:2px}.cls-2{fill:#2f2e41}.cls-3{fill:#ff6584}.cls-4{fill:#4470ff}.cls-5{fill:#f2f2f2}.cls-6{fill:#ffb8b8}.cls-7{fill:#f7ecee}.cls-8{fill:#3f3d56}
        </style>
    </defs>
    <g id="undraw_like_dislike_1dfj">
        <path id="패스_861" d="M0 0h212.058v.264H0z" class="cls-1" data-name="패스 861" transform="translate(14.557 122.8)"/>
        <path id="패스_776" d="M786.349 574.894l-.381-.2c4.954-9.577 2.3-22.014-.789-30.761a94.276 94.276 0 0 0-8-16.885l.363-.229a94.76 94.76 0 0 1 8.042 16.97c3.122 8.831 5.789 21.392.765 31.105z" class="cls-2" data-name="패스 776" transform="translate(-676.765 -451.831)"/>
        <path id="사각형_581" d="M0 0h15.491v.429H0z" class="cls-2" data-name="사각형 581" transform="rotate(-79.645 109.388 -21.09)"/>
        <path id="사각형_582" d="M0 0h.429v21.107H0z" class="cls-2" data-name="사각형 582" transform="rotate(-42.95 159.58 -75.86)"/>
        <path id="사각형_583" d="M0 0h12.449v.429H0z" class="cls-2" data-name="사각형 583" transform="rotate(-54.12 169.373 -53.36)"/>
        <ellipse id="타원_97" cx="2.146" cy="2.146" class="cls-3" data-name="타원 97" rx="2.146" ry="2.146" transform="translate(89.005 83.262)"/>
        <ellipse id="타원_98" cx="2.146" cy="2.146" class="cls-3" data-name="타원 98" rx="2.146" ry="2.146" transform="translate(98.448 85.408)"/>
        <ellipse id="타원_99" cx="2.146" cy="2.146" class="cls-4" data-name="타원 99" rx="2.146" ry="2.146" transform="translate(94.156 93.778)"/>
        <ellipse id="타원_100" cx="2.146" cy="2.146" class="cls-3" data-name="타원 100" rx="2.146" ry="2.146" transform="translate(120.982 99.143)"/>
        <ellipse id="타원_101" cx="2.146" cy="2.146" class="cls-4" data-name="타원 101" rx="2.146" ry="2.146" transform="translate(113.9 101.504)"/>
        <ellipse id="타원_102" cx="2.146" cy="2.146" class="cls-3" data-name="타원 102" rx="2.146" ry="2.146" transform="translate(118.836 108.371)"/>
        <ellipse id="타원_103" cx="2.146" cy="2.146" class="cls-3" data-name="타원 103" rx="2.146" ry="2.146" transform="translate(96.302 69.312)"/>
        <path id="패스_777" d="M843.079 418.558l-.3-.3c7.655-7.594 8.952-20.243 8.693-29.518a94.264 94.264 0 0 0-2.43-18.525l.416-.107a94.764 94.764 0 0 1 2.443 18.62c.259 9.355-1.058 22.128-8.822 29.83z" class="cls-2" data-name="패스 777" transform="translate(-730.98 -322.308)"/>
        <path id="사각형_584" d="M0 0h15.491v.429H0z" class="cls-2" data-name="사각형 584" transform="rotate(-61.766 116.131 -70.156)"/>
        <path id="사각형_585" d="M0 0h.429v21.107H0z" class="cls-2" data-name="사각형 585" transform="rotate(-25.06 185.898 -214.451)"/>
        <path id="사각형_586" d="M0 0h12.449v.429H0z" class="cls-2" data-name="사각형 586" transform="rotate(-36.258 196.213 -135.405)"/>
        <ellipse id="타원_104" cx="2.146" cy="2.146" class="cls-5" data-name="타원 104" rx="2.146" ry="2.146" transform="translate(131.308 44.062)"/>
        <ellipse id="타원_105" cx="2.146" cy="2.146" class="cls-3" data-name="타원 105" rx="2.146" ry="2.146" transform="translate(103.971 52.607)"/>
        <ellipse id="타원_106" cx="2.146" cy="2.146" class="cls-3" data-name="타원 106" rx="2.146" ry="2.146" transform="translate(112.299 57.549)"/>
        <ellipse id="타원_107" cx="2.146" cy="2.146" class="cls-4" data-name="타원 107" rx="2.146" ry="2.146" transform="translate(105.645 64.197)"/>
        <ellipse id="타원_108" cx="2.146" cy="2.146" class="cls-3" data-name="타원 108" rx="2.146" ry="2.146" transform="translate(129.528 77.539)"/>
        <ellipse id="타원_109" cx="2.146" cy="2.146" class="cls-3" data-name="타원 109" rx="2.146" ry="2.146" transform="translate(122.063 77.611)"/>
        <ellipse id="타원_110" cx="2.146" cy="2.146" class="cls-3" data-name="타원 110" rx="2.146" ry="2.146" transform="translate(124.653 85.663)"/>
        <ellipse id="타원_111" cx="2.146" cy="2.146" class="cls-3" data-name="타원 111" rx="2.146" ry="2.146" transform="translate(115.199 41.571)"/>
        <path id="패스_778" d="M473.962 175.99a4.321 4.321 0 0 1-.537-5.825 4.368 4.368 0 0 0-.253.256 4.321 4.321 0 1 0 6.41 5.8c.081-.09.157-.183.23-.278a4.321 4.321 0 0 1-5.85.047z" class="cls-2" data-name="패스 778" transform="translate(-424.594 -157.066)"/>
        <ellipse id="타원_112" cx="8.899" cy="8.899" class="cls-2" data-name="타원 112" rx="8.899" ry="8.899" transform="translate(40.064 2.161)"/>
        <path id="패스_779" d="M337.564 789.8s-2.366 2.366 0 2.366a9.524 9.524 0 0 0 4.63-1.543z" class="cls-2" data-name="패스 779" transform="translate(-312.572 -669.173)"/>
        <path id="패스_780" d="M540.406 772.279s-.655 3.282 1.313 1.968a9.525 9.525 0 0 0 2.995-3.853z" class="cls-2" data-name="패스 780" transform="translate(-480.996 -653.133)"/>
        <path id="패스_781" d="M322.225 338.644l-1.543 3.6-9.466 12.556s-6.482 7-2.881 7.407 5.967-6.482 5.967-6.482l11.111-11.008 1.235-5.041z" class="cls-6" data-name="패스 781" transform="translate(-288.385 -296.308)"/>
        <path id="패스_782" d="M388.762 254.46l-1.491.417s-5.813 10.282-5.2 12.443 3.4 4.835 4.63 4.63 2.061-17.49 2.061-17.49z" class="cls-7" data-name="패스 782" transform="translate(-350.189 -226.733)"/>
        <path id="패스_783" d="M432.91 181.321s1.543 6.379.412 7.613a11.43 11.43 0 0 1-3.6 2.161l.411 11.523s4.733-1.646 4.938-1.852 4.424-6.893 4.424-6.893l4.115-3.91s-6.276-2.984-4.424-8.128-6.276-.514-6.276-.514z" class="cls-6" data-name="패스 783" transform="translate(-389.605 -164.705)"/>
        <ellipse id="타원_113" cx="5.35" cy="5.35" class="cls-6" data-name="타원 113" rx="5.35" ry="5.35" transform="translate(41.762 8.282)"/>
        <path id="패스_784" d="M339.782 238.889s-3.807 1.029-4.012 2.469 0 4.424-.309 5.041-1.235 1.543-.823 5.453a36.308 36.308 0 0 1 .206 6.276s-20.885 73.663-13.477 75.824 18.313-.206 18.21-1.646-1.955-29.939-1.955-29.939 10.8 37.861 24.177 29.013 10.391-10.494 9.156-11.111S351.1 290.33 351.2 284.877s-.206-22.531-2.469-25.1c0 0 2.366-7.819 3.5-8.848s3.909-10.7 3.909-10.7-1.749-2.366-3.189-2.366a6.2 6.2 0 0 0-4.424 2.058c-1.646 1.543-7.716 9.054-7.716 9.054s-1.955-8.645-1.029-10.086z" class="cls-3" data-name="패스 784" transform="translate(-298.741 -213.014)"/>
        <ellipse id="타원_114" cx="4.527" cy="3.086" class="cls-2" data-name="타원 114" rx="4.527" ry="3.086" transform="translate(42.533 5.761)"/>
        <ellipse id="타원_115" cx="4.321" cy="4.321" class="cls-2" data-name="타원 115" rx="4.321" ry="4.321" transform="translate(50.455)"/>
        <path id="패스_785" d="M511.408 118.509a4.32 4.32 0 0 1-4.3-3.96c-.01.118-.016.238-.016.359a4.321 4.321 0 1 0 8.642 0c0-.121-.006-.241-.016-.36a4.321 4.321 0 0 1-4.31 3.961z" class="cls-2" data-name="패스 785" transform="translate(-453.546 -111.102)"/>
        <rect id="사각형_587" width="21.28" height="21.28" class="cls-3" data-name="사각형 587" rx="10.64" transform="translate(0 43.558)"/>
        <path id="패스_786" d="M240.5 372.1a4.759 4.759 0 0 0 3.589-2.82c.9-2.436 1.667-4.487 3.2-4.1s.641 5.256.641 5.256 3.2-.385 3.333.769c.106.955.036 4.635.009 5.872a2.536 2.536 0 0 1-.442 1.4 1.849 1.849 0 0 1-1.875.8 14.955 14.955 0 0 0-2.144-.112 6.537 6.537 0 0 1-3.624-1.042L240.5 378z" class="cls-5" data-name="패스 786" transform="translate(-233.22 -318.198)"/>
        <path id="사각형_588" d="M0 0h5.512v9.358H0z" class="cls-4" data-name="사각형 588" transform="translate(3.176 52.106)"/>
        <path id="패스_787" d="M267.658 367.506a1.917 1.917 0 0 1-.547-.079l.037-.123a1.815 1.815 0 0 0 2.3-1.4l.126.024a1.938 1.938 0 0 1-1.916 1.578z" class="cls-8" data-name="패스 787" transform="translate(-255.215 -318.837)"/>
        <path id="패스_789" d="M585.8 592.488a1.911 1.911 0 0 0-.547.079l.036.123a1.815 1.815 0 0 1 2.3 1.4l.126-.024a1.938 1.938 0 0 0-1.915-1.578z" class="cls-8" data-name="패스 789" transform="translate(-518.15 -506.1)"/>
        <path id="패스_790" d="M509.049 333.309l-.514 5.761 1.029 17.284s2.366 8.745-1.234 8.539-2.263-9.156-2.263-9.156l-1.646-20.062z" class="cls-6" data-name="패스 790" transform="translate(-451.341 -291.899)"/>
        <path id="패스_791" d="M498.716 243.2l2.675 1.44s3.6 12.552 1.543 14.918-6.276 3.292-6.482 2.366-.926-7.819-.926-7.819z" class="cls-7" data-name="패스 791" transform="translate(-443.991 -217.424)"/>
    </g>
</svg>
