<svg xmlns="http://www.w3.org/2000/svg" width="207.584" height="192.281"><defs><style>.cls-1{fill:#f2f2f2}.cls-2{fill:#4470ff}.cls-3{fill:#575a89}.cls-4{fill:#2f2e41}.cls-5{fill:#ffb8b8}</style></defs><g id="man" transform="translate(-32.817 -26.4)"><path id="패스_914" d="M384.041 287.049l-53.049 58.481a43.084 43.084 0 0 0 12.737 16.037l57.143-63.779a42.947 42.947 0 0 0-16.831-10.739z" class="cls-1" data-name="패스 914" transform="translate(-294.124 -226.484)"/><path id="패스_915" d="M441.918 207.434v-34.2H414v34.09a43.112 43.112 0 0 1 27.918.106z" class="cls-2" data-name="패스 915" transform="translate(-352.214 -146.839)"/><path id="패스_916" d="M414 555.43v34.991h27.918v-35.1a43.112 43.112 0 0 1-27.918.109z" class="cls-2" data-name="패스 916" transform="translate(-352.214 -414.225)"/><path id="패스_917" d="M360.578 363.894a43.078 43.078 0 1 1 43.078-43.078 43.127 43.127 0 0 1-43.078 43.078zm0-85.855a42.778 42.778 0 1 0 42.778 42.778 42.826 42.826 0 0 0-42.778-42.779z" data-name="패스 917" transform="translate(-284.683 -219.968)"/><path id="패스_918" d="M360 350.558a30.32 30.32 0 0 0 30.32 30.32v-60.64a30.32 30.32 0 0 0-30.32 30.32z" class="cls-3" data-name="패스 918" transform="translate(-314.424 -249.71)"/><path id="패스_919" d="M461 320.238v60.639a30.32 30.32 0 0 0 0-60.639z" class="cls-2" data-name="패스 919" transform="translate(-385.105 -249.71)"/><circle id="타원_178" cx="4.203" cy="4.203" r="4.203" class="cls-4" data-name="타원 178" transform="translate(71.692 98.146)"/><path id="패스_920" d="M274.094 310.658l1.047 8.307 1.047 8.307H272l1.047-8.307z" class="cls-4" data-name="패스 920" transform="translate(-198.206 -223.722)"/><path id="패스_921" d="M298.777 359.6l-13.662.511-13.662.511.007-1.193.008-1.194 13.655.683z" class="cls-4" data-name="패스 921" transform="translate(-197.823 -257.019)"/><path id="패스_922" d="M603.577 401.747c-.7 0-.976-.478-1.331-1.082-.089-.151-.185-.315-.3-.488l.253-.162c.114.177.212.344.3.5.354.6.549.934 1.072.934 1.738 0 3.152-2.9 3.152-6.454s-1.414-6.454-3.152-6.454c-1 0-1.7.619-2.262 2.008l-.279-.113c.614-1.518 1.4-2.2 2.541-2.2 1.9 0 3.452 3.03 3.452 6.754s-1.543 6.757-3.446 6.757z" data-name="패스 922" transform="translate(-483.103 -297.297)"/><ellipse id="타원_179" cx="40.826" cy="1.501" class="cls-1" data-name="타원 179" rx="40.826" ry="1.501" transform="translate(39.272 205.015)"/><circle id="타원_180" cx="6.304" cy="6.304" r="6.304" class="cls-1" data-name="타원 180" transform="translate(218.187 35.405)"/><circle id="타원_181" cx="9.377" cy="9.377" r="9.377" class="cls-4" data-name="타원 181" transform="translate(168.324 54.684)"/><path id="패스_924" d="M747.584 490.847s7.487 18.914 8.275 18.914 1.97-7.093 1.97-7.093l-4.729-13.4z" class="cls-5" data-name="패스 924" transform="translate(-585.658 -368)"/><path id="패스_925" d="M784.337 316.76s1.97 8.275 1.182 9.851 1.576 3.94 1.576 3.94h5.517l3.94-6.3.788-2.758s-2.364-6.3-1.97-7.093-11.033 2.36-11.033 2.36z" data-name="패스 925" transform="translate(-611.378 -245.533)" fill="#ffb9b9"/><path id="패스_926" d="M784.337 316.76s1.066 8.275.639 9.851.853 3.94.853 3.94h2.984l2.131-6.3.426-2.758s-1.279-6.3-1.066-7.093-5.967 2.36-5.967 2.36z" data-name="패스 926" transform="translate(-611.378 -245.533)" opacity=".1"/><path id="패스_927" d="M675.845 704.624v4.335l5.122 1.182.394-5.517z" class="cls-3" data-name="패스 927" transform="translate(-480.82 -499.422)"/><path id="패스_928" d="M779.017 505.68s-5.517 9.851-3.546 14.974S784.927 551 784.927 551s4.334 14.186 4.334 14.974 3.546 18.126 4.729 18.52 11.821 1.576 12.215.394.788-7.487-.394-8.669-7.487-37.828-7.487-37.828l-.788-12.215 9.851 30.341s2.758 18.126 3.94 19.308-2.364 2.364-1.182 3.546 5.517 4.335 5.123 5.517 9.457 1.182 10.639.394.788-13 .788-13l-5.517-16.55-6.3-40.193s-1.97-11.821-3.547-11.821-32.314 1.962-32.314 1.962z" class="cls-4" data-name="패스 928" transform="translate(-604.876 -378.105)"/><path id="패스_929" d="M826.443 773.127s-3.152-2.758-4.729-1.97-6.7 8.275-8.275 7.881-3.94 4.241 0 4.635a59.089 59.089 0 0 0 10.245-.394 30.424 30.424 0 0 0 3.94.394c1.576 0 5.123.394 5.123 0s-.788-9.363-1.182-9.363-4.728-.001-5.122-1.183z" class="cls-4" data-name="패스 929" transform="translate(-630.235 -565.167)"/><path id="패스_930" d="M919.279 768.045s-3.94-.788-4.335 0a35.554 35.554 0 0 0-1.97 3.546c0 .394.788 5.123.788 5.517a6 6 0 0 0 1.576 2.364 1.39 1.39 0 0 1 .394 1.576s10.245 1.182 10.245-.394-1.182-5.122-1.97-5.911-2.363-6.304-4.728-6.698z" class="cls-4" data-name="패스 930" transform="translate(-701.4 -562.843)"/><path id="패스_942" d="M8.275 0a8.275 8.275 0 0 1 8.275 8.275c0 4.57-3.7 11.7-8.275 11.7S0 12.845 0 8.275A8.275 8.275 0 0 1 8.275 0z" class="cls-5" data-name="패스 942" transform="translate(169.413 56.224)"/><path id="패스_931" d="M784.076 350.958s4.729 2.758 7.487-1.576 11.427 8.669 11.427 8.669l2.364 40.192a80.468 80.468 0 0 0-11.821 2.364c-7.487 1.97-11.033-2.758-11.033-2.758L782.106 375l.788-10.639-1.182-8.669.788-5.123z" class="cls-2" data-name="패스 931" transform="translate(-609.541 -269.486)"/><path id="패스_932" d="M746.013 373.759s-3.152.788-3.94 6.3-2.364 22.066-2.364 22.066l1.97 9.851s5.517-4.335 7.487-2.364l-1.182-5.911 1.182-3.546-3.546-15.368z" class="cls-2" data-name="패스 932" transform="translate(-580.146 -287.164)"/><path id="패스_933" d="M765.791 334.38s-.744 0-.744 2.758-7.487 6.7-7.487 6.7-.788 1.182-.788 4.334 0 10.639.788 13 1.97 10.245 2.364 11.033.394 4.334-.394 5.123 1.97 5.517 2.758 5.911-2.758 10.639-.788 11.033 5.517-4.729 6.7-7.487.394-40.981 0-43.739a71.343 71.343 0 0 0-2.409-8.666z" class="cls-3" data-name="패스 933" transform="translate(-592.088 -259.607)"/><path id="패스_934" d="M814.431 323.906s-.295-1.8 1.675-.222a7.057 7.057 0 0 1 2.364 2.758s10.245 0 10.639 1.182-.235 11.242-.235 11.242l5.178 19.253s7.272 22.307 8.06 23.095-6.3-3.546-10.245-.394-11.033 4.729-11.821 2.758-9.457-47.68-9.457-47.68 0-7.487 1.182-8.275 2.66-3.717 2.66-3.717z" class="cls-3" data-name="패스 934" transform="translate(-629.75 -251.668)"/><path id="패스_935" d="M888.693 449.892l-1.576 18.126-.394 1.576 5.911 7.881s1.182-4.334.788-5.911 1.97-19.308 1.97-19.308z" class="cls-5" data-name="패스 935" transform="translate(-683.028 -340.443)"/><path id="패스_936" d="M777.006 269.038s-1.914-4.978.861-6.605l.766 2.2s6.988-4.212 8.807-3.255l-1.723 2.3s8.137 0 8.711 3.159l-2.872.1s3.063 2.01 3.159 5.265l-6.126.383 2.968 1.723s-11.1 1.532-13.785-2.872z" class="cls-4" data-name="패스 936" transform="translate(-605.798 -208.421)"/><path id="패스_937" d="M772.982 281.3s2.206 4.413 5.148 3.31 0-5.148 0-5.148l-1.961-.981z" class="cls-4" data-name="패스 937" transform="translate(-603.432 -220.49)"/><path id="사각형_667" d="M0 0h85.855v.3H0z" data-name="사각형 667" transform="translate(154.546 218.373)"/><path id="패스_938" d="M869.658 340.943a6.18 6.18 0 0 1 3.94 3.152c1.576 2.758 9.457 20.884 9.851 21.672s.394 11.427.394 11.427-5.517-3.152-7.881-1.182l-.394-4.728-5.123-18.126-.788-5.911z" class="cls-2" data-name="패스 938" transform="translate(-671.086 -264.199)"/></g></svg>