<svg xmlns="http://www.w3.org/2000/svg" id="그룹_509" width="144.639" height="111.261" data-name="그룹 509" viewBox="0 0 144.639 111.261">
    <defs>
        <style>
            .cls-1{fill:#f3f3f3}.cls-2{fill:#cbcbcb}.cls-3{fill:#eaeaea}.cls-4{fill:#ebebeb}.cls-5{fill:#6b6b6b}.cls-6{fill:#4a4a4a}.cls-7{fill:#fdd2c6}.cls-8{fill:#666}.cls-9{fill:#262626}.cls-10{opacity:.07}.cls-11{fill:#efefef}
        </style>
    </defs>
    <g id="Layer_1" data-name="Layer 1">
        <path id="패스_2273" d="M528.6 272.6c-2.169-13.454-7.015-14.627-10.741-21.418-3.392-6.177-6.128-16.283 3.446-23.507 14.871-11.231 33.11.261 33.11.261s28.9 15.41 33.951 16.194c4.52.7 14.884 7.051 28.352 1.521a32.948 32.948 0 0 0 4.477-2.3c15.432-9.4 28.62-8.619 32.829-1.567s-5.331 27.425-7.576 31.6 1.122 17.239 4.77 22.462 15.152 21.418-9.54 20.9-98.768.261-98.768.261-26.592-.462-21.886-24.552c3.931-20.118 8.42-14.633 7.576-19.855z" class="cls-1" data-name="패스 2273" transform="translate(-514.718 -222.749)"/>
        <ellipse id="타원_19884" cx="5.612" cy="5.224" class="cls-2" data-name="타원 19884" rx="5.612" ry="5.224" transform="translate(17.812 37.574)"/>
        <ellipse id="타원_19885" cx="3.788" cy="3.526" class="cls-2" data-name="타원 19885" rx="3.788" ry="3.526" transform="translate(10.236 45.671)"/>
        <ellipse id="타원_19886" cx="2.104" cy="1.959" class="cls-2" data-name="타원 19886" rx="2.104" ry="1.959" transform="translate(12.481 39.141)"/>
        <ellipse id="타원_19887" cx="5.612" cy="5.224" class="cls-2" data-name="타원 19887" rx="5.612" ry="5.224" transform="translate(133.415 72.834)"/>
        <ellipse id="타원_19888" cx="2.104" cy="1.959" class="cls-2" data-name="타원 19888" rx="2.104" ry="1.959" transform="translate(2.099 14.328)"/>
        <ellipse id="타원_19889" cx="9.961" cy="9.272" class="cls-3" data-name="타원 19889" rx="9.961" ry="9.272" transform="translate(29.317 68.394)"/>
        <ellipse id="타원_19890" cx="6.734" cy="6.269" class="cls-3" data-name="타원 19890" rx="6.734" ry="6.269" transform="translate(98.342 78.842)"/>
        <ellipse id="타원_19891" cx="3.648" cy="3.395" class="cls-3" data-name="타원 19891" rx="3.648" ry="3.395" transform="translate(127.243 49.327)"/>
        <ellipse id="타원_19892" cx="7.295" cy="6.791" class="cls-3" data-name="타원 19892" rx="7.295" ry="6.791" transform="translate(96.378 15.372)"/>
        <ellipse id="타원_19893" cx="3.507" cy="3.265" class="cls-3" data-name="타원 19893" rx="3.507" ry="3.265" transform="translate(33.245 .746)"/>
        <ellipse id="타원_19894" cx="3.507" cy="3.265" class="cls-3" data-name="타원 19894" rx="3.507" ry="3.265" transform="translate(22.021 65.782)"/>
        <ellipse id="타원_19895" cx="3.507" cy="3.265" class="cls-2" data-name="타원 19895" rx="3.507" ry="3.265" transform="translate(135.099 27.91)"/>
        <ellipse id="타원_19896" cx="3.788" cy="3.526" class="cls-2" data-name="타원 19896" rx="3.788" ry="3.526" transform="translate(129.207 83.021)"/>
        <ellipse id="타원_19897" cx="2.104" cy="1.959" class="cls-2" data-name="타원 19897" rx="2.104" ry="1.959" transform="translate(139.308 86.416)"/>
    </g>
    <ellipse id="타원_19883" cx="16.489" cy="4.026" class="cls-4" data-name="타원 19883" rx="16.489" ry="4.026" transform="translate(56.224 103.209)"/>
    <g id="woman_talking" data-name="woman talking" transform="translate(55.189 17.708)">
        <g id="girl">
            <g id="그룹_60" data-name="그룹 60" transform="translate(6.55 84.176)">
                <path id="패스_739" d="M38.157 478l-2.5.528s-.605 1.831-.889 2.818c-.019.053-.076.229-.114.335a2.348 2.348 0 0 0-.057.511 2.225 2.225 0 0 0 1.249 2.025c.927.44 1.646.845 2.63 0s1.154-1.374.738-2.835S38.157 478 38.157 478z" class="cls-5" data-name="패스 739" transform="translate(-34.6 -478)"/>
                <path id="패스_740" d="M104.459 483.189a4.256 4.256 0 0 1-2.4-2.43l-3.389-.159s-.076 1.972-.17 3.047c-.114 1.426.17 2.06 1.192 1.972 1.362-.106 6.924.352 7.794-.159 1.154-.651-1.457-1.813-3.027-2.271z" class="cls-5" data-name="패스 740" transform="translate(-86.392 -480.142)"/>
            </g>
            <path id="패스_741" d="M18.237 225.318s-1.268 1.62-1.665 5.987a67.762 67.762 0 0 0 .908 14.264c.416 1.6 2.081 16.571 2.5 17.681a64.472 64.472 0 0 1 .984 7.062l2.686.07s.795-7.784.795-9.844 1.1-21.555 1.022-22.981.284-.969.284-.969 2.365 6.991 3.065 8.154 1.949 3.434 1.949 3.434.284 7.308.624 11.535.7 10.883.7 10.883l3.613-.07s.832-11.13.832-13.472.757-7.96.757-8.611-2.365-12.045-2.365-12.045L33.277 225.3z" class="cls-6" data-name="패스 741" transform="translate(-13.352 -185.625)"/>
            <path id="패스_742" d="M30.6 14.361s1.57-5.688 2.8-6.111c4.843-1.673 5.335-4.491 7.4 3.575s7.775 17.417 10.216 20.181c3.349 3.786 3.065 6.234 1.873 6.463s-7.289 1.731-7.76 1.868.984 4.068-1.059 3.522c-1.135-.3-1.23-4.966.189-5.177.586-.088 7.34-1.338 7.3-1.708S46.3 29.859 46.3 29.859l-3.367-1.479-8.343-4.174-3.99-1.849-.416-6.181-.284-1.2.7-.616" class="cls-7" data-name="패스 742" transform="translate(-24.239 -5.258)"/>
            <path id="패스_743" d="M5.259 81.492s.038.44-1.1 1.955c-.681.916 1.041.264-.416 2.571A24.031 24.031 0 0 0-.02 96c-.095 1.5 1.305 1.2 1.892 1.673.322.264 1.381-.176 1.627-.511l.473-.775a22.921 22.921 0 0 0 1.457-2.148c.114-.687.832-3.592 1.078-4.631.208-.881 1.873-2.888 3.216-7.026.4-1.268 0-1.8.095-2.377.284-1.884-2.554-1.849-2.8-1.2-.057.158-2.213 8.083-2.327 9.14A15.138 15.138 0 0 0 6 92.5c.586.863 1.249 1.479 1.249 2.237a19.518 19.518 0 0 1-.984 5.23 47.489 47.489 0 0 0-1.476 4.543l15.116-.07a68.8 68.8 0 0 1-.325-8.14s.643-6.815 1.022-7.484 4.427 5.459 5.448 7.026c.416.652-5.335 1.8-5.808 2.307s.492 1.937.492 1.937 10.046-1.145 9.989-2.571S24.99 85.1 22.966 83.024s-2.554-2.008-4.257-1.444a22.608 22.608 0 0 1-4.809 1.426 7.746 7.746 0 0 1-4.862-.81 15.1 15.1 0 0 0-3.779-.704z" class="cls-8" data-name="패스 743" transform="translate(.024 -64.763)"/>
            <path id="_Path_" d="M16.432 22.159a5.828 5.828 0 0 0 .473-.7c.132-.229.227-.37.284-.475A25.72 25.72 0 0 0 19.876 16a9.027 9.027 0 0 0 .341-1.409 3.331 3.331 0 0 0 .038-.969c-.095-.6-1.4-3.1-1.211-3.328.019-.035.189-.74.435-.511.284.264 2.138 1.215 2.27 1.391a8.955 8.955 0 0 1 .851 1.884c.132.387.246 1.514.284 1.6.4.933-.057 1.638-.019 2.131.019.176.019.881.114.951.265.176.624.335.776.158s.095-.669.114-1.162a13.456 13.456 0 0 0-1.059-6.128c-.643-1.233-2.138-3.645-1.116-5.037s3.159-2.483 3.254-2.835.151 1.338 1.286 1.937a7.748 7.748 0 0 1 2.724 2.536 5.085 5.085 0 0 1-.7 3.487c-1.078 1.99-1.93 4.543-.435 6.428s5.259 4.543 5.524 5.142 0 3.258-.095 4.755 3.046-2.553 2.932-4.508.265-2.8-1.873-5.776a24.815 24.815 0 0 1-3.594-9.369c-.057-1.25-.681-4.684-1.967-5.688s-1.4-1.937-4.975-1.6a4.327 4.327 0 0 0-3.859 2.835 32.887 32.887 0 0 0-1.022 7.167c-.038.634.265 4.508-.114 5.723s-2.138 3.8-2.478 4.86" class="cls-9" transform="translate(-13.212 -.007)"/>
            <path id="패스_744" d="M22.274 96.981a.456.456 0 0 1 .019.158 3.363 3.363 0 0 1-.454 1.972c-.568.81.776 2.589.776 3.029a.9.9 0 0 1-1.059.722 2.386 2.386 0 0 1-1.532-3.117c.284-.828.454-1.55.624-2.008.095-.229.17-.458.246-.687a1.784 1.784 0 0 0 .019-.317c-.019-.141-.019-.3-.038-.458-.095-.792-3.689-25.5-3.821-26.451a86.759 86.759 0 0 1-.586-9.14 3.566 3.566 0 0 1-.019-.775 3.858 3.858 0 0 0 .019-.493c.019-.282.038-.564.076-.845-.057-.229-.019-.229 0-.6s0-.581.038-.81a20.484 20.484 0 0 1 1.57-5.107l.114-.37a30.656 30.656 0 0 1 .965-3.364 38.622 38.622 0 0 0 1.324-6.34 8.389 8.389 0 0 0-1.305-2.06l.17-.792s.378-1.162.757-2.148c.3-.757 1.268-2.765 1.665-3.628a9.974 9.974 0 0 0 1.078-2.888c.095-.7.17-.405.511-.264.492.176.511-.053.53-.493a37.2 37.2 0 0 0-.17-4.1c-.151-1.074-1.343-2.8-1.854-3.857a9.337 9.337 0 0 1-.719-1.726 2.668 2.668 0 0 1 .719-2.8 36.118 36.118 0 0 1 3.231-2.324s-1.116 2.113-.662 2.835a4.675 4.675 0 0 1 .378 3.011c0 .493-.586 1.726-.227 2.976.624 2.2-.454 3.452-.057 4.948a2.932 2.932 0 0 1 .151 2.025c-.246.81-2.686 6.956-1.343 10.531s1.967 6.111-.189 8.259-.17 4.068-.132 5.582c.095 3.733-1.854 3.328-1.967 5.653a35.544 35.544 0 0 0 .473 5.213 31.543 31.543 0 0 1-.189 6.357 21.336 21.336 0 0 0-.095 10.39c1.286 5.847 1.1 6.375.965 9.686a38.109 38.109 0 0 0 0 4.615z" class="cls-10" data-name="패스 744" transform="translate(-13.321 -12.277)"/>
            <path id="패스_745" d="M26.184 40.588a12.937 12.937 0 0 1 1.627-.9c.7-.264 1.022.7 1.211 1.145s1.135 3.152 1.173 3.364c.019.088-.132.07-.624.423-.076.053-.208.018-.359-.3a1.685 1.685 0 0 0-.605-.74c-.114-.053-1.892-.634-1.911-.475a13.134 13.134 0 0 0 .643 1.743c.019.053.322.634.265.74-.019.018.019 0 .019 0s-.322.106-.416 0-1-2.835-1.343-3.874c-.076-.229-.246-.546-.076-.687z" class="cls-11" data-name="패스 745" transform="translate(-20.844 -32.665)"/>
        </g>
    </g>
</svg>
