<svg xmlns="http://www.w3.org/2000/svg" width="17.921" height="16" viewBox="0 0 17.921 16">
    <defs>
        <style>
            .cls-1{fill:#48c1e1}.cls-2{fill:#046699}.cls-3,.cls-5{opacity:.1}.cls-4{fill:#a2dff9}.cls-6{fill:#ef5050}.cls-7{fill:#c0272d}.cls-8{fill:#89c947}.cls-9{fill:#d5e962}.cls-10{fill:#ffc502}.cls-11{fill:#368c0e}.cls-12{fill:#f7931e}.cls-13{fill:#e6e9ed}
        </style>
    </defs>
    <g id="diet" transform="translate(0 -27.439)">
        <path id="사각형_851" d="M0 0h1.812v1.209H0z" class="cls-1" data-name="사각형 851" transform="translate(2.128 29.052)"/>
        <path id="패스_2180" d="M52.683 28.919a.181.181 0 0 1-.18.18H50.3a.181.181 0 0 1-.18-.18v-1.3a.181.181 0 0 1 .18-.18h2.2a.181.181 0 0 1 .18.18v1.3z" class="cls-2" data-name="패스 2180" transform="translate(-48.369)"/>
        <g id="그룹_195" class="cls-3" data-name="그룹 195" transform="translate(1.754 27.439)">
            <path id="패스_2181" d="M50.875 28.919v-1.3a.181.181 0 0 1 .18-.18H50.3a.181.181 0 0 0-.18.18v1.3a.181.181 0 0 0 .18.18h.752a.181.181 0 0 1-.177-.18z" data-name="패스 2181" transform="translate(-50.123 -27.439)"/>
        </g>
        <path id="패스_2182" d="M25.72 115.137a.035.035 0 0 0 .017-.05.158.158 0 0 1-.023-.077c0-.193.428-.4 1.065-.4a2.428 2.428 0 0 1 .578.066h.008a.035.035 0 0 0 .034-.043 6.463 6.463 0 0 1-.19-1.366v-.016-.2a.146.146 0 0 1 .146-.146h.316a.035.035 0 0 0 .035-.039 1.084 1.084 0 0 1-.008-.122 1.119 1.119 0 0 1 .785-1.072.035.035 0 0 0 .021-.049 1.056 1.056 0 0 1 .511-1.419.035.035 0 0 0 .018-.044 1.056 1.056 0 0 1 .313-1.16v-1.5a1.008 1.008 0 0 0-1-1.006h-2.312a1.008 1.008 0 0 0-1 1.006v8.06a2.616 2.616 0 0 1 .686-.423z" class="cls-4" data-name="패스 2182" transform="translate(-24.154 -76.282)"/>
        <path id="패스_2183" d="M28.481 162.191a.035.035 0 0 0 .021-.049 1.056 1.056 0 0 1 .511-1.419.035.035 0 0 0 .018-.044 1.056 1.056 0 0 1 .315-1.164v-.677H25.03v3.724h2.909a1.119 1.119 0 0 1 .542-.371z" class="cls-2" data-name="패스 2183" transform="translate(-24.154 -126.802)"/>
        <path id="패스_2184" d="M26.114 114.7v-7.206a1.008 1.008 0 0 1 1-1.006h-1.08a1.008 1.008 0 0 0-1 1.006v8.06a2.617 2.617 0 0 1 .69-.418.035.035 0 0 0 .017-.05.158.158 0 0 1-.023-.077c-.003-.109.145-.232.396-.309z" class="cls-5" data-name="패스 2184" transform="translate(-24.154 -76.281)"/>
        <path id="패스_2185" d="M237.854 132.729a1.067 1.067 0 0 1 .015.18.035.035 0 0 0 .032.035 1.057 1.057 0 0 1 .932.794.035.035 0 0 0 .024.025h.01a.035.035 0 0 0 .024-.009 1.108 1.108 0 0 1 .657-.3.035.035 0 0 0 .032-.034 1.922 1.922 0 0 1 .562-1.3l.022-.021a2.411 2.411 0 0 0-.677-1.334.189.189 0 0 0-.267 0l-1.536 1.54a1.058 1.058 0 0 1 .17.424z" class="cls-6" data-name="패스 2185" transform="translate(-229.365 -99.661)"/>
        <g id="그룹_196" data-name="그룹 196" transform="translate(9.13 31.794)">
            <path id="패스_2186" d="M261.18 199.856a.035.035 0 0 0 .024.025h.01a.035.035 0 0 0 .024-.009 1.119 1.119 0 0 1 .3-.2.261.261 0 0 0-.066-.11l-.255-.255a.262.262 0 0 0-.371 0 1.055 1.055 0 0 1 .334.549z" class="cls-7" data-name="패스 2186" transform="translate(-260.841 -197.574)"/>
            <path id="패스_2187" d="M268.952 180.4h-.36a.263.263 0 0 1 0-.525h.36a.263.263 0 0 1 0 .525z" class="cls-7" data-name="패스 2187" transform="translate(-268.067 -178.898)"/>
            <path id="패스_2188" d="M267.139 152.642a.263.263 0 0 1-.186-.448l.255-.255a.263.263 0 0 1 .372.371l-.255.255a.262.262 0 0 1-.186.077z" class="cls-7" data-name="패스 2188" transform="translate(-266.665 -151.862)"/>
        </g>
        <path id="패스_2189" d="M293.549 154.063a.062.062 0 0 0-.035-.035 1.958 1.958 0 0 0-2.68 1.794c.036 0 .073-.005.11-.005a1.124 1.124 0 0 1 1.1.907 1.961 1.961 0 0 0 1.5-2.661z" class="cls-8" data-name="패스 2189" transform="translate(-280.654 -122.024)"/>
        <path id="패스_2190" d="M306.187 182.757a.262.262 0 0 0-.371 0l-.908.91a1.125 1.125 0 0 1 .444.3l.835-.837a.262.262 0 0 0 0-.373z" class="cls-9" data-name="패스 2190" transform="translate(-294.236 -149.807)"/>
        <g id="그룹_197" data-name="그룹 197" transform="translate(3.507 33.371)">
            <path id="패스_2191" d="M353.791 198.6a.959.959 0 0 1 .014.162.035.035 0 0 0 .032.035.944.944 0 0 1 .4.131.035.035 0 0 0 .044-.007c.03-.034.055-.062.081-.087a1.753 1.753 0 0 1 .745-.445 1.156 1.156 0 1 0-2.239-.577.949.949 0 0 1 .923.788z" class="cls-10" data-name="패스 2191" transform="translate(-344.026 -196.929)"/>
            <path id="패스_2192" d="M102.047 254.6a1.8 1.8 0 0 1-.22-.67 1.054 1.054 0 0 1-.779-.581 1.152 1.152 0 0 0-.834 1.251h1.832z" class="cls-10" data-name="패스 2192" transform="translate(-100.206 -251.375)"/>
        </g>
        <path id="패스_2193" d="M392.3 236.939a.944.944 0 0 1-.078.57h1.486a1.8 1.8 0 0 0 .208-1.711.057.057 0 0 0-.013-.019.057.057 0 0 0-.019-.013 1.793 1.793 0 0 0-1.935.4 1.64 1.64 0 0 0-.105.116.951.951 0 0 1 .456.657z" class="cls-8" data-name="패스 2193" transform="translate(-378.128 -200.912)"/>
        <path id="패스_2194" d="M402.678 262.435H403l.518-.519a.263.263 0 0 0-.372-.371l-.384.385a.943.943 0 0 1-.084.505z" class="cls-9" data-name="패스 2194" transform="translate(-388.584 -225.838)"/>
        <path id="패스_2195" d="M125.539 164.136a1.031 1.031 0 0 1-.985-1.035 1.095 1.095 0 0 0-1.991-.415 1.8 1.8 0 0 0-1.4 3.316 1.764 1.764 0 0 1 .108-.9.022.022 0 0 1 .005-.008h.008a1.758 1.758 0 0 1 1.9.392l.07.074a2.412 2.412 0 0 1-.028-.368.154.154 0 0 1 .154-.154h1.82v-.074a1.157 1.157 0 0 1 .339-.828z" class="cls-11" data-name="패스 2195" transform="translate(-116.03 -130.039)"/>
        <g id="그룹_198" data-name="그룹 198" transform="translate(5.413 33.113)">
            <path id="패스_2196" d="M154.915 190.638a.262.262 0 0 1-.258-.267.835.835 0 0 1 .834-.819h.013a.836.836 0 0 1 .6.271.263.263 0 0 1-.388.354.3.3 0 0 0-.222-.1.309.309 0 0 0-.314.3.262.262 0 0 1-.265.261z" class="cls-8" data-name="패스 2196" transform="translate(-154.652 -189.552)"/>
            <path id="패스_2197" d="M196.321 209.982a.263.263 0 0 1-.246-.354.765.765 0 0 1 1.421-.034.263.263 0 1 1-.483.205.236.236 0 0 0-.137-.13.24.24 0 0 0-.308.142.263.263 0 0 1-.247.171z" class="cls-8" data-name="패스 2197" transform="translate(-194.609 -208.444)"/>
        </g>
        <path id="패스_2198" d="M324.537 221.972h-.01v.007h.352a.189.189 0 0 1 .189.189 2.411 2.411 0 0 1-.457 1.413h2.649a.985.985 0 0 0-.812-1.39 4.021 4.021 0 0 1-1.963-.634 1.122 1.122 0 0 1 .054.344.561.561 0 0 1-.002.071z" class="cls-11" data-name="패스 2198" transform="translate(-313.128 -186.985)"/>
        <path id="패스_2199" d="M263.269 209.2v-.074a1.156 1.156 0 1 0-2.312 0v.074z" class="cls-12" data-name="패스 2199" transform="translate(-251.825 -174.205)"/>
        <path id="패스_2200" d="M147.1 240.71a1.794 1.794 0 0 0-1.935-.4.059.059 0 0 0-.019.013.057.057 0 0 0-.013.019 1.8 1.8 0 0 0 .106 1.552h2.383a2.416 2.416 0 0 1-.462-1.122q-.026-.031-.06-.062z" class="cls-8" data-name="패스 2200" transform="translate(-139.933 -205.297)"/>
        <path id="패스_2201" d="M171.188 266.82h.742l-.729-.731a.263.263 0 0 0-.372.371z" class="cls-9" data-name="패스 2201" transform="translate(-164.776 -230.223)"/>
        <path id="패스_2202" d="M208.669 243.816a2.413 2.413 0 0 0 .485-1.453.189.189 0 0 0-.189-.189h-4.457a.189.189 0 0 0-.189.189 2.412 2.412 0 0 0 .486 1.453z" class="cls-6" data-name="패스 2202" transform="translate(-197.168 -207.219)"/>
        <g id="그룹_199" data-name="그룹 199" transform="translate(7.744 35.364)">
            <path id="패스_2203" d="M266.675 276.847v-.182a.263.263 0 1 0-.525 0v.182z" class="cls-7" data-name="패스 2203" transform="translate(-264.578 -275.614)"/>
            <path id="패스_2204" d="M286.928 270.229h.408a.263.263 0 0 0-.017-.352l-.255-.255a.262.262 0 0 0-.372.371z" class="cls-7" data-name="패스 2204" transform="translate(-284.328 -268.996)"/>
            <path id="패스_2205" d="M237.688 270.23l.236-.236a.263.263 0 0 0-.372-.371l-.255.255a.263.263 0 0 0-.017.352z" class="cls-7" data-name="패스 2205" transform="translate(-236.661 -268.997)"/>
            <path id="패스_2206" d="M221.873 254.39h-.36a.263.263 0 1 1 0-.525h.36a.263.263 0 0 1 0 .525z" class="cls-7" data-name="패스 2206" transform="translate(-221.25 -253.865)"/>
            <path id="패스_2207" d="M300.83 254.39h-.36a.263.263 0 1 1 0-.525h.36a.263.263 0 1 1 0 .525z" class="cls-7" data-name="패스 2207" transform="translate(-297.443 -253.865)"/>
        </g>
        <path id="패스_2208" d="M86.458 290.628h.009a.035.035 0 0 0 .035-.035v-.444a.228.228 0 0 1 .455 0v.444a.035.035 0 0 0 .035.035H87a2.359 2.359 0 0 1 .628-.079c.637 0 1.065.207 1.065.4a.158.158 0 0 1-.023.078.035.035 0 0 0 .017.05 2.425 2.425 0 0 1 1.509 1.862.035.035 0 0 0 .035.03h.012l5.526-2.1a.936.936 0 0 1 1.254.7l.048.26a.035.035 0 0 0 .034.029.035.035 0 0 0 .018 0l1.858-1.1a6.509 6.509 0 0 0 .241-1.765.181.181 0 0 0-.181-.181H86.4a.181.181 0 0 0-.181.181 6.526 6.526 0 0 0 .2 1.63z" class="cls-13" data-name="패스 2208" transform="translate(-83.203 -252.221)"/>
        <path id="패스_2209" d="M86.458 290.628h.009a.035.035 0 0 0 .035-.035v-.444a.228.228 0 0 1 .455 0v.444a.035.035 0 0 0 .035.035H87a2.279 2.279 0 0 1 .531-.077 6.536 6.536 0 0 1-.187-1.561.181.181 0 0 1 .181-.181H86.4a.181.181 0 0 0-.181.181 6.526 6.526 0 0 0 .2 1.63z" class="cls-5" data-name="패스 2209" transform="translate(-83.203 -252.221)"/>
        <path id="패스_2210" d="M93.514 320.513a1.218 1.218 0 0 1 .263-.1v-.5a.263.263 0 0 0-.525 0v.5a1.214 1.214 0 0 1 .262.1z" class="cls-8" data-name="패스 2210" transform="translate(-89.988 -281.981)"/>
        <path id="패스_2211" d="M6.208 356.861H5.26a.935.935 0 0 1-.92-.763l-.009-.05a.931.931 0 0 1 .587-1.04l2.118-.8a2.448 2.448 0 0 0-1.568-1.938 1.054 1.054 0 0 1-.731.3.035.035 0 0 0-.018.062.771.771 0 0 1 .32.429.133.133 0 0 1-.032.1.337.337 0 0 1-.254.077 1.922 1.922 0 0 1-.855-.264 2.155 2.155 0 0 1-.348-.237.035.035 0 0 0-.045 0 2.15 2.15 0 0 1-.348.237 1.922 1.922 0 0 1-.855.264.337.337 0 0 1-.254-.077.133.133 0 0 1-.032-.1.772.772 0 0 1 .32-.429.035.035 0 0 0-.018-.062 1.053 1.053 0 0 1-.731-.3A2.419 2.419 0 0 0 0 354.483a2.526 2.526 0 0 0 2.625 2.417h3.64c.035 0 .009-.017-.057-.039z" class="cls-6" data-name="패스 2211" transform="translate(0 -313.458)"/>
        <path id="패스_2212" d="M1.136 354.484a2.352 2.352 0 0 1 1.055-1.935.921.921 0 0 1-.605-.282A2.419 2.419 0 0 0 0 354.484a2.526 2.526 0 0 0 2.625 2.416h1.136a2.526 2.526 0 0 1-2.625-2.416z" class="cls-5" data-name="패스 2212" transform="translate(0 -313.459)"/>
        <path id="패스_2213" d="M47.6 337.973c0-.24-.493-.434-1.1-.434a1.951 1.951 0 0 0-.9.185 1.95 1.95 0 0 0-.9-.185c-.608 0-1.1.195-1.1.434 0 .2.332.363.787.417-.278.223-.406.457-.292.585.15.17.666.089 1.152-.18a2.193 2.193 0 0 0 .354-.241 2.2 2.2 0 0 0 .354.241c.486.269 1 .349 1.152.18.113-.128-.014-.362-.292-.585.449-.053.785-.22.785-.417z" class="cls-11" data-name="패스 2213" transform="translate(-42.069 -299.246)"/>
        <path id="패스_2214" d="M400.167 338.5l-.07-.38a.243.243 0 0 0-.283-.194l-2.721.5 1.737-1.161a.24.24 0 0 0 .076-.319l-.2-.348a.243.243 0 0 0-.335-.089l-2.26 1.334.428 2.308 2.592.466a.242.242 0 0 0 .283-.2l.059-.393a.239.239 0 0 0 0-.079.242.242 0 0 0-.184-.192l-2.039-.468 2.721-.5a.242.242 0 0 0 .196-.285z" class="cls-8" data-name="패스 2214" transform="translate(-382.25 -298.218)"/>
        <path id="패스_2215" d="M122.294 348.94a.97.97 0 0 0 .955.791h8.189a.968.968 0 0 0 .954-1.142l-.547-2.954a.971.971 0 0 0-1.3-.728l-7.651 2.907a.966.966 0 0 0-.609 1.079z" class="cls-12" data-name="패스 2215" transform="translate(-117.989 -306.292)"/>
        <g id="그룹_200" class="cls-3" data-name="그룹 200" transform="translate(4.28 38.549)">
            <path id="패스_2216" d="M122.294 348.941a.962.962 0 0 0 .061.2 1.011 1.011 0 0 1 .523-.45l7.99-3.036a1.013 1.013 0 0 1 1.012.17l-.036-.193a.971.971 0 0 0-1.3-.728l-7.651 2.907a.966.966 0 0 0-.609 1.079z" data-name="패스 2216" transform="translate(-122.269 -344.842)"/>
        </g>
        <g id="그룹_201" data-name="그룹 201" transform="translate(6.005 39.421)">
            <path id="패스_2217" d="M356.491 443.51a.263.263 0 1 0-.516.1l.216 1.13h.534z" class="cls-10" data-name="패스 2217" transform="translate(-349.516 -440.724)"/>
            <path id="패스_2218" d="M315.832 452.384a.263.263 0 0 0-.516.1l.155.82h.534z" class="cls-10" data-name="패스 2218" transform="translate(-310.28 -449.286)"/>
            <path id="패스_2219" d="M283.964 370.9a.263.263 0 1 0 .509-.128l-.25-.992-.494.188z" class="cls-10" data-name="패스 2219" transform="translate(-279.803 -369.78)"/>
            <path id="패스_2220" d="M237.052 445.791a.263.263 0 1 0-.517.093l.19 1.054h.533z" class="cls-10" data-name="패스 2220" transform="translate(-234.257 -442.922)"/>
            <path id="패스_2221" d="M171.708 413.252a.263.263 0 0 0 .257.209.263.263 0 0 0 .257-.316l-.164-.78-.5.189z" class="cls-10" data-name="패스 2221" transform="translate(-171.561 -410.874)"/>
        </g>
    </g>
</svg>
