<svg xmlns="http://www.w3.org/2000/svg" width="55.999" height="56.002" viewBox="0 0 55.999 56.002">
    <defs>
        <style>
            .cls-1{fill:none}.cls-2{clip-path:url(#clip-path)}.cls-3{fill:#bebebe}
        </style>
        <clipPath id="clip-path">
            <path d="M0 0h55.999v56.002H0z" class="cls-1"/>
        </clipPath>
    </defs>
    <g id="error" class="cls-2">
        <path id="합치기_9" d="M-3265.8-5784.2a27.822 27.822 0 0 1-8.2-19.8 27.816 27.816 0 0 1 8.2-19.8 27.811 27.811 0 0 1 19.8-8.2 27.811 27.811 0 0 1 19.8 8.2 27.817 27.817 0 0 1 8.2 19.8 27.823 27.823 0 0 1-8.2 19.8 27.816 27.816 0 0 1-19.8 8.2 27.816 27.816 0 0 1-19.8-8.2zm-2.368-19.8a22.193 22.193 0 0 0 22.168 22.168 22.192 22.192 0 0 0 22.167-22.168 22.192 22.192 0 0 0-22.167-22.166 22.193 22.193 0 0 0-22.167 22.166zm19.168 13.1a3 3 0 0 1 3-3 3 3 0 0 1 3 3 3 3 0 0 1-3 3 3 3 0 0 1-3-3zm0-12.162v-12a3 3 0 0 1 3-3 3 3 0 0 1 3 3v12a3 3 0 0 1-3 3 3 3 0 0 1-3-3.003z" class="cls-3" data-name="합치기 9" transform="translate(3274 5832)"/>
    </g>
</svg>
