<svg xmlns="http://www.w3.org/2000/svg" id="Notice_illust" width="385.352" height="309.53"><defs><style>.cls-1{fill:#4470ff}.cls-2{fill:#ff6584}.cls-3{fill:#f1f1f1}.cls-4{fill:none;stroke:#3f3d56;stroke-miterlimit:10;stroke-width:2px}.cls-5{fill:#3f3d56}.cls-6{fill:#2f2e41}</style></defs><ellipse id="타원_127" cx="6.073" cy="6.073" class="cls-1" data-name="타원 127" rx="6.073" ry="6.073" transform="translate(360.227 296.574)"/><path id="사각형_621" d="M0 0h15.976v15.976H0z" class="cls-2" data-name="사각형 621" transform="translate(266.986 292.43)"/><ellipse id="타원_128" cx="6.073" cy="6.073" class="cls-1" data-name="타원 128" rx="6.073" ry="6.073" transform="translate(276.798 297.018)"/><path id="패스_868" d="M1236.111-2624.66l35.682 55.7-76.657-29.453z" class="cls-3" data-name="패스 868" transform="translate(-955.82 2624.66)"/><path id="패스_869" d="M1167.46-2590.381l81.718 31.393 67.292 105.046L1096-2312.708l-105.33-164.419z" class="cls-3" data-name="패스 869" transform="translate(-931.118 2620.519)"/><g id="그룹_88" data-name="그룹 88" transform="translate(50.079 139.187)"><path id="패스_870" d="M1041.1-2528.636l-.2.207 2.894-6.974 27.411 26.986 6.25 15.062z" class="cls-2" data-name="패스 870" transform="translate(-981.622 2554.939)"/><path id="패스_871" d="M1046.161-2542.017l3.4-8.187 17.736 20.619 5.59 13.471-26.521-26.109z" class="cls-2" data-name="패스 871" transform="translate(-983.872 2561.267)"/><path id="패스_872" d="M1052.53-2558.953l-.219.189 4.466-10.763 12.435 29.966z" class="cls-2" data-name="패스 872" transform="translate(-986.502 2569.527)"/><path id="패스_873" d="M972.5-2464.844l24.018-57.876 37.235 36.136 9.022 21.74 35.137 84.671H937.361z" class="cls-2" data-name="패스 873" transform="translate(-937.361 2549.517)"/></g><path id="선_6" d="M381.887 0H0" class="cls-4" data-name="선 6" transform="translate(0 308.53)"/><g id="그룹_86" data-name="그룹 86" transform="translate(143.091 226.429)"><path id="패스_874" d="M1032.829-2367.113l37.468 49v19.633l-48.909-68.636z" class="cls-1" data-name="패스 874" transform="translate(-946.042 2367.116)"/><path id="패스_875" d="M1050.655-2367.113l21.37 25.792v21.747l-36.354-47.539z" class="cls-1" data-name="패스 875" transform="translate(-947.767 2367.116)"/><path id="패스_876" d="M1054.025-2367.113h20.221v24.4z" class="cls-1" data-name="패스 876" transform="translate(-949.984 2367.116)"/><path id="패스_877" d="M1009.948-2367.113l50 70.166v11.933h-124.26v-82.1z" class="cls-1" data-name="패스 877" transform="translate(-935.688 2367.116)"/></g><g id="그룹_89" data-name="그룹 89" transform="translate(252.504 160.234)"><path id="선_7" d="M0 0v103.158" class="cls-4" data-name="선 7" transform="translate(59.977 45.239)"/><path id="사각형_624" d="M0 0h119.952v79.51H0z" class="cls-2" data-name="사각형 624" transform="translate(0 5.483)"/><path id="사각형_625" d="M0 0h92.535v2.742H0z" class="cls-3" data-name="사각형 625" transform="translate(13.709 25.361)"/><path id="사각형_626" d="M0 0h92.535v2.742H0z" class="cls-3" data-name="사각형 626" transform="translate(13.709 34.615)"/><path id="사각형_627" d="M0 0h92.535v2.742H0z" class="cls-3" data-name="사각형 627" transform="translate(13.709 43.868)"/><path id="사각형_628" d="M0 0h23.99v2.742H0z" class="cls-3" data-name="사각형 628" transform="translate(13.71 62.375)"/><ellipse id="타원_134" cx="10.282" cy="5.483" class="cls-5" data-name="타원 134" rx="10.282" ry="5.483" transform="translate(49.696)"/></g><g id="그룹_91" data-name="그룹 91" transform="translate(151.241 117.926)"><g id="그룹_85" data-name="그룹 85" transform="translate(10.622)"><ellipse id="타원_129" cx="35.059" cy="35.058" class="cls-6" data-name="타원 129" rx="35.059" ry="35.058" transform="translate(0 26.85)"/><path id="사각형_622" d="M0 0h10.65v19.083H0z" class="cls-6" data-name="사각형 622" transform="translate(19.083 89.422)"/><path id="사각형_623" d="M0 0h10.65v19.083H0z" class="cls-6" data-name="사각형 623" transform="translate(40.384 89.422)"/><ellipse id="타원_130" cx="8.875" cy="3.329" class="cls-6" data-name="타원 130" rx="8.875" ry="3.329" transform="translate(19.083 105.398)"/><ellipse id="타원_131" cx="8.875" cy="3.329" class="cls-6" data-name="타원 131" rx="8.875" ry="3.329" transform="translate(40.384 104.954)"/><ellipse id="타원_132" cx="11.982" cy="11.982" data-name="타원 132" rx="11.982" ry="11.982" transform="translate(23.964 41.05)" fill="#fff"/><ellipse id="타원_133" cx="3.994" cy="3.994" class="cls-5" data-name="타원 133" rx="3.994" ry="3.994" transform="translate(31.952 43.039)"/><path id="패스_878" d="M921.163-2461.224c-2.831-12.678 6.219-25.488 20.212-28.612s27.632 4.62 30.463 17.3-6.443 17.354-20.436 20.478-27.407 3.512-30.239-9.166z" class="cls-1" data-name="패스 878" transform="translate(-920.113 2490.529)"/></g></g></svg>