<svg xmlns="http://www.w3.org/2000/svg" id="exclamation-mark" width="250" height="250" viewBox="0 0 250 250">
    <defs>
        <style>
            .cls-1{fill:#e2574c}
        </style>
    </defs>
    <path id="패스_944" d="M125 0a125 125 0 1 0 125 125A125.005 125.005 0 0 0 125 0zm0 226.562A101.562 101.562 0 1 1 226.562 125 101.559 101.559 0 0 1 125 226.562zm.008-171.742c-8.953 0-15.727 4.672-15.727 12.219v69.219c0 7.555 6.773 12.211 15.727 12.211 8.734 0 15.727-4.851 15.727-12.211V67.039c-.001-7.368-6.993-12.219-15.727-12.219zm0 109.243a15.6 15.6 0 1 0 15.592 15.609 15.623 15.623 0 0 0-15.592-15.609z" class="cls-1" data-name="패스 944"/>
</svg>
