<svg xmlns="http://www.w3.org/2000/svg" width="20.13" height="20"><defs><style>.cls-1{fill:#e5eaed}.cls-4{fill:none;stroke:#000}</style></defs><g id="add_picture_icon" transform="translate(-529 -526)"><g id="그룹_179" data-name="그룹 179" transform="translate(.353 .763)"><g id="그룹_178" data-name="그룹 178" transform="translate(529.647 526.237)"><path id="패스_1070" d="M488.291 477.1a1.962 1.962 0 0 1-.206.243 1.957 1.957 0 0 0 .206-.243z" class="cls-1" data-name="패스 1070" transform="translate(-470.358 -459.203)"/><path id="패스_1071" d="M100.144 495.5q-.1-.015-.19-.039a1.932 1.932 0 0 0 .19.039z" class="cls-1" data-name="패스 1071" transform="translate(-98.495 -476.815)"/><path id="패스_1072" d="M499.709 449.449a1.942 1.942 0 0 1-.1.609 1.942 1.942 0 0 0 .1-.609z" class="cls-1" data-name="패스 1072" transform="translate(-481.412 -432.684)"/><path id="패스_1073" d="M93.6 493.317a1.928 1.928 0 0 1-.271-.092 1.928 1.928 0 0 0 .271.092z" class="cls-1" data-name="패스 1073" transform="translate(-92.146 -474.668)"/><path id="패스_1074" d="M72.669 476.3a1.952 1.952 0 0 1-.237-.288 1.944 1.944 0 0 0 .237.288z" class="cls-1" data-name="패스 1074" transform="translate(-72.1 -458.16)"/><path id="패스_1075" d="M83.809 487.754a1.943 1.943 0 0 1-.407-.234 1.939 1.939 0 0 0 .407.234z" class="cls-1" data-name="패스 1075" transform="translate(-82.621 -469.197)"/><path id="패스_1076" d="M475.377 488.071a1.945 1.945 0 0 1-.289.172 1.951 1.951 0 0 0 .289-.172z" class="cls-1" data-name="패스 1076" transform="translate(-457.893 -469.725)"/><path id="패스_1077" d="M107.169 496.724a1.964 1.964 0 0 1-.2-.01 1.963 1.963 0 0 0 .2.01z" class="cls-1" data-name="패스 1077" transform="translate(-105.224 -478.014)"/><path id="패스_1078" d="M496.853 467.091q-.034.084-.075.164.041-.08.075-.164z" class="cls-1" data-name="패스 1078" transform="translate(-478.695 -449.604)"/><path id="패스_1080" d="M80.629 59.276H66.3a2.023 2.023 0 0 0-1.986 2.058v12.424l4.854-8.526a1.186 1.186 0 0 1 2.1.037l3.384 6.437a1.288 1.288 0 0 0 1.992.4l1.88-1.616a1.175 1.175 0 0 1 1.585.041l2.5 2.378V61.334a2.023 2.023 0 0 0-1.98-2.058zm-3.119 7.14a1.8 1.8 0 1 1 1.736-1.8 1.769 1.769 0 0 1-1.736 1.8z" class="cls-1" data-name="패스 1080" transform="translate(-64.318 -59.276)"/><path id="패스_1081" d="M64.318 449.449c0 .045 0 .09.005.134a1.933 1.933 0 0 0 .327.953 1.935 1.935 0 0 1-.332-1.087z" class="cls-1" data-name="패스 1081" transform="translate(-64.318 -432.684)"/></g><path id="패스_1082" d="M80.111 188.185a1.225 1.225 0 0 0-1.585-.038l-1.88 1.527a1.329 1.329 0 0 1-1.992-.375l-3.384-6.083a1.219 1.219 0 0 0-2.1-.035l-4.854 8.058v2.283a1.907 1.907 0 0 0 .339 1.087 1.974 1.974 0 0 0 .459.471 2 2 0 0 0 .692.325q.1.024.194.039l.1.012q.1.01.2.01h14.429a2.035 2.035 0 0 0 .3-.037q.1-.019.19-.048c.053-.016.106-.035.157-.056s.076-.031.113-.049a2.032 2.032 0 0 0 .543-.378 1.961 1.961 0 0 0 .21-.243 1.938 1.938 0 0 0 .153-.246q.042-.08.076-.164.023-.056.042-.113a1.905 1.905 0 0 0 .1-.609v-3.088z" data-name="패스 1082" transform="translate(465.329 349.481)" fill="#4cc1eb"/><ellipse id="타원_225" cx="1.7" cy="1.7" data-name="타원 225" rx="1.7" ry="1.7" transform="translate(541.165 529.843)" fill="#f8c55a"/></g><g id="사각형_705" class="cls-4" data-name="사각형 705" transform="translate(529 526)"><rect width="20" height="20" rx="3"/><rect width="19" height="19" x=".5" y=".5" rx="2.5" fill="none"/></g><path id="패스_1087" d="M16297.52 541.619s4.985-9.347 6.5-9.035 3.934 7.828 5.725 7.711 2.064-2.687 3.5-2.453 3.154 2.649 3.388 3.778" class="cls-4" data-name="패스 1087" transform="translate(-15768)"/></g></svg>