<svg xmlns="http://www.w3.org/2000/svg" width="16" height="26.354"><defs><clipPath id="a"><rect width="16" height="26.354" data-name="사각형 706" rx="4" transform="translate(343 485)" fill="#fff" stroke="#d1d1d1"/></clipPath></defs><g transform="translate(-343 -485)" clip-path="url(#a)"><g data-name="warning"><g data-name="그룹 237"><path d="M351 495.77a.446.446 0 0 0-.472.472v3.4a.472.472 0 1 0 .944 0v-3.4a.446.446 0 0 0-.472-.472z" data-name="패스 1093"/><path d="M351.28 501.717a.456.456 0 0 0-.661 0 .568.568 0 0 0-.094.378c0 .189 0 .283.094.378a.567.567 0 0 0 .378.094c.094 0 .283 0 .189-.094a.715.715 0 0 0 .189-.378c.005-.191.005-.283-.095-.378z" data-name="패스 1094"/><path d="M358.646 501.811l-5.569-9.723a2.345 2.345 0 0 0-2.075-1.226 2.46 2.46 0 0 0-2.077 1.227l-5.571 9.722a2.3 2.3 0 0 0 0 2.454 2.345 2.345 0 0 0 2.077 1.227h11.138a2.241 2.241 0 0 0 2.077-1.227 2.3 2.3 0 0 0 0-2.454zm-.755 2.077a1.265 1.265 0 0 1-1.227.755h-11.233a1.473 1.473 0 0 1-1.229-.755 1.449 1.449 0 0 1 0-1.51l5.569-9.723a1.265 1.265 0 0 1 1.231-.755 1.506 1.506 0 0 1 1.322.755l5.569 9.723a1.449 1.449 0 0 1-.002 1.51z" data-name="패스 1095"/></g></g></g></svg>