<svg xmlns="http://www.w3.org/2000/svg" width="16" height="26.354" viewBox="0 0 16 26.354">
    <defs>
        <style>
            .cls-1{fill:#fff;stroke:#d1d1d1}.cls-2{clip-path:url(#clip-path)}
        </style>
        <clipPath id="clip-path">
            <rect id="사각형_706" width="16" height="26.354" class="cls-1" data-name="사각형 706" rx="4" transform="translate(343 485)"/>
        </clipPath>
    </defs>
    <g id="warning" class="cls-2" transform="translate(-343 -485)">
        <g id="warning-2" data-name="warning" transform="translate(343 490.862)">
            <g id="그룹_237" data-name="그룹 237">
                <path id="패스_1093" d="M329.82 244.689a.446.446 0 0 0-.472.472v3.4a.472.472 0 1 0 .944 0v-3.4a.446.446 0 0 0-.472-.472z" data-name="패스 1093" transform="translate(-321.82 -239.781)"/>
                <path id="패스_1094" d="M330.1 498.813a.456.456 0 0 0-.661 0 .568.568 0 0 0-.094.378c0 .189 0 .283.094.378a.567.567 0 0 0 .378.094c.094 0 .283 0 .189-.094a.715.715 0 0 0 .189-.378c.005-.191.005-.283-.095-.378z" data-name="패스 1094" transform="translate(-321.82 -487.958)"/>
                <path id="패스_1095" d="M15.644 40.893l-5.569-9.723A2.345 2.345 0 0 0 8 29.944a2.46 2.46 0 0 0-2.077 1.227L.352 40.893a2.3 2.3 0 0 0 0 2.454 2.345 2.345 0 0 0 2.077 1.227h11.138a2.241 2.241 0 0 0 2.077-1.227 2.3 2.3 0 0 0 0-2.454zm-.755 2.077a1.265 1.265 0 0 1-1.227.755H2.429A1.473 1.473 0 0 1 1.2 42.97a1.449 1.449 0 0 1 0-1.51l5.569-9.723A1.265 1.265 0 0 1 8 30.982a1.506 1.506 0 0 1 1.322.755l5.569 9.723a1.449 1.449 0 0 1-.002 1.51z" data-name="패스 1095" transform="translate(.002 -29.944)"/>
            </g>
        </g>
    </g>
</svg>
