<svg xmlns="http://www.w3.org/2000/svg" width="910.106" height="828.893" viewBox="0 0 910.106 828.893">
    <defs>
        <style>
            .cls-1,.cls-10{fill:none}.cls-1,.cls-9{stroke:#3f3d56;stroke-miterlimit:10;stroke-width:2px}.cls-2{fill:#f2f2f2}.cls-3,.cls-9{fill:#3f3d56}.cls-4{fill:#2f2e41}.cls-5{fill:#fff}.cls-6{fill:#ff6584}.cls-7{fill:#6c63ff}.cls-8{fill:#4470ff}.cls-10{stroke:#707070}.cls-11{fill:#ffe065}
        </style>
    </defs>
    <g id="right_illust" transform="translate(-628.394 -118.631)">
        <path id="패스_893" d="M-835.009 329.788h710.339l21.515 11.274 34.28 17.963 22.413-45.137h63.426" class="cls-1" data-name="패스 893" transform="translate(1463.402 463.738)"/>
        <path id="패스_890" d="M885.732 361.357c5.284 39.328-1.911 78.7-38.511 94.029a71.85 71.85 0 0 1-94.029-38.511c-15.331-36.6 20.841-58.5 38.511-94.029 35.883-72.146 77.619-83.62 94.029 38.511z" class="cls-2" data-name="패스 890" transform="translate(651.223 482.182)"/>
        <ellipse id="타원_136" cx="57.344" cy="7.801" class="cls-3" data-name="타원 136" rx="57.344" ry="7.801" transform="translate(1413.721 931.922)"/>
        <path id="사각형_644" d="M0 0h8.21v14.44H0z" class="cls-4" data-name="사각형 644" transform="rotate(-105.01 1073.642 -86.947)"/>
        <ellipse id="타원_137" cx="2.583" cy="6.726" class="cls-4" data-name="타원 137" rx="2.583" ry="6.726" transform="rotate(-14.98 4191.25 -4965.168)"/>
        <ellipse id="타원_138" cx="13.344" cy="4.117" class="cls-4" data-name="타원 138" rx="13.344" ry="4.117" transform="rotate(-82 1254.404 -391.584)"/>
        <ellipse id="타원_139" cx="26.648" cy="26.648" class="cls-4" data-name="타원 139" rx="26.648" ry="26.648" transform="translate(1444.276 890.765)"/>
        <path id="사각형_645" d="M0 0h8.21v14.44H0z" class="cls-4" data-name="사각형 645" transform="rotate(-105.01 1071.83 -89.309)"/>
        <ellipse id="타원_140" cx="2.583" cy="6.726" class="cls-4" data-name="타원 140" rx="2.583" ry="6.726" transform="rotate(-14.98 4173.327 -4967.52)"/>
        <ellipse id="타원_141" cx="9.108" cy="9.108" class="cls-5" data-name="타원 141" rx="9.108" ry="9.108" transform="translate(1468.814 893.04)"/>
        <ellipse id="타원_142" cx="3.036" cy="3.036" class="cls-3" data-name="타원 142" rx="3.036" ry="3.036" transform="translate(1477.799 895.089)"/>
        <path id="패스_891" d="M1023.454 738.829c9.861-.494 17.414-9.717 16.869-20.6s-8.98-19.308-18.842-18.815-11.409 8.235-10.864 19.12 2.973 20.788 12.837 20.295z" class="cls-6" data-name="패스 891" transform="translate(478.245 196.898)"/>
        <path id="패스_892" d="M912.45 704.776a6.072 6.072 0 1 1-.98-12.1c3.342-.271 4.254 2.383 4.524 5.725s-.202 6.104-3.544 6.375z" class="cls-5" data-name="패스 892" transform="translate(547.584 201.363)"/>
        <ellipse id="타원_146" cx="4.616" cy="4.616" class="cls-7" data-name="타원 146" rx="4.616" ry="4.616" transform="translate(1446 773.008)"/>
        <ellipse id="타원_147" cx="4.616" cy="4.616" class="cls-7" data-name="타원 147" rx="4.616" ry="4.616" transform="translate(1397.785 790.961)"/>
        <path id="사각형_650" d="M0 0h42.546v21.643H0z" class="cls-8" data-name="사각형 650" transform="translate(1443.902 862.232)"/>
        <path id="사각형_651" d="M0 0h42.546v21.643H0z" class="cls-1" data-name="사각형 651" transform="translate(1440.572 865.746)"/>
        <ellipse id="타원_161" cx="26.648" cy="26.648" class="cls-4" data-name="타원 161" rx="26.648" ry="26.648" transform="translate(1441.061 709.008)"/>
        <path id="사각형_654" d="M0 0h8.162v14.468H0z" class="cls-4" data-name="사각형 654" transform="scale(-1) rotate(-10.02 -5124.905 8090.86)"/>
        <path id="사각형_655" d="M0 0h8.162v14.468H0z" class="cls-4" data-name="사각형 655" transform="scale(-1) rotate(-10.02 -5133.389 7998.548)"/>
        <ellipse id="타원_162" cx="6.758" cy="2.499" class="cls-4" data-name="타원 162" rx="6.758" ry="2.499" transform="rotate(-40 1795.202 -1614.659)"/>
        <ellipse id="타원_163" cx="6.758" cy="2.499" class="cls-4" data-name="타원 163" rx="6.758" ry="2.499" transform="rotate(-40 1799.123 -1637.502)"/>
        <ellipse id="타원_164" cx="9.108" cy="9.108" class="cls-5" data-name="타원 164" rx="9.108" ry="9.108" transform="translate(1456.736 720.031)"/>
        <ellipse id="타원_165" cx="3.036" cy="3.036" class="cls-3" data-name="타원 165" rx="3.036" ry="3.036" transform="translate(1459.064 722.838)"/>
        <path id="패스_897" d="M932.92 100.542c.4-9.866-8.1-18.222-18.991-18.664s-20.042 7.2-20.443 17.062 7.169 12.107 18.058 12.549 20.975-1.081 21.376-10.947z" class="cls-8" data-name="패스 897" transform="translate(555.812 606.124)"/>
        <ellipse id="타원_166" cx="4.204" cy="13.317" class="cls-4" data-name="타원 166" rx="4.204" ry="13.317" transform="rotate(-77 1174.654 -532.412)"/>
        <ellipse id="타원_167" cx="4.204" cy="13.317" class="cls-4" data-name="타원 167" rx="4.204" ry="13.317" transform="rotate(-77 1206.277 -560.943)"/>
        <path id="패스_898" d="M946.147 248.1a6.072 6.072 0 1 1-11.949 2.163c-.6-3.3 1.954-4.467 5.253-5.065s6.098-.398 6.696 2.902z" class="cls-5" data-name="패스 898" transform="translate(528.881 498.056)"/>
        <path id="선_10" d="M0 0l30.696 23.612" class="cls-1" data-name="선 10" transform="translate(1402.455 705.139)"/>
        <ellipse id="타원_168" cx="22.938" cy="22.938" class="cls-6" data-name="타원 168" rx="22.938" ry="22.938" transform="translate(1365.013 671.745)"/>
        <ellipse id="타원_169" cx="13.344" cy="4.117" class="cls-4" data-name="타원 169" rx="13.344" ry="4.117" transform="rotate(-82 1253.045 -382.665)"/>
        <ellipse id="타원_173" cx="2.205" cy="2.205" class="cls-6" data-name="타원 173" rx="2.205" ry="2.205" transform="translate(1405.35 898.665)"/>
        <path id="선_11" d="M0 25.101V0" class="cls-9" data-name="선 11" transform="translate(1418.355 912.358)"/>
        <ellipse id="타원_174" cx="3.55" cy="3.55" class="cls-3" data-name="타원 174" rx="3.55" ry="3.55" transform="translate(1414.805 908.809)"/>
        <path id="패스_899" d="M780.364 773.756s-.507-10.906-10.9-9.638" class="cls-3" data-name="패스 899" transform="translate(637.991 154.072)"/>
        <ellipse id="타원_175" cx="22.938" cy="22.938" class="cls-6" data-name="타원 175" rx="22.938" ry="22.938" transform="translate(1365.012 671.745)"/>
        <g id="그룹_100" data-name="그룹 100" transform="translate(1404.493 118.631)">
            <ellipse id="타원_176" cx="18.211" cy="24.005" class="cls-6" data-name="타원 176" rx="18.211" ry="24.005"/>
            <path id="패스_900" d="M13601.66 592.361s-2.967 20.868 1.811 33.612-1.811 21.346-1.811 21.346" class="cls-10" data-name="패스 900" transform="translate(-13583.45 -544.351)"/>
        </g>
        <g id="그룹_101" data-name="그룹 101" transform="translate(1493.184 261.753)">
            <path id="패스_901" d="M22.658 0c12.514 0 22.658 13.372 22.658 29.867S35.172 59.734 22.658 59.734 0 46.362 0 29.867 10.144 0 22.658 0z" class="cls-11" data-name="패스 901"/>
            <path id="패스_900-2" d="M13601.885 592.361s-3.693 25.965 2.252 41.821-2.252 26.559-2.252 26.559" class="cls-10" data-name="패스 900" transform="translate(-13579.227 -532.626)"/>
        </g>
        <g id="그룹_102" data-name="그룹 102" transform="translate(1394.622 469.243)">
            <ellipse id="타원_176-2" cx="18.351" cy="24.189" class="cls-8" data-name="타원 176" rx="18.351" ry="24.189"/>
            <path id="패스_900-3" d="M13601.668 592.361s-2.99 21.029 1.824 33.87-1.824 21.51-1.824 21.51" class="cls-10" data-name="패스 900" transform="translate(-13583.316 -543.982)"/>
        </g>
    </g>
</svg>
