<svg xmlns="http://www.w3.org/2000/svg" id="Search" width="20" height="20" viewBox="0 0 20 20">
    <defs>
        <style>
            .cls-1{fill:none}
        </style>
    </defs>
    <path id="사각형_693" d="M0 0h20v20H0z" class="cls-1" data-name="사각형 693"/>
    <path id="패스_208" d="M19.9 18.148l-4.13-4.13a8.569 8.569 0 0 0 1.752-5.257A8.707 8.707 0 0 0 8.761 0 8.707 8.707 0 0 0 0 8.761a8.707 8.707 0 0 0 8.761 8.761 8.569 8.569 0 0 0 5.257-1.752l4.13 4.13zM2.5 8.761A6.2 6.2 0 0 1 8.761 2.5a6.2 6.2 0 0 1 6.258 6.258 6.2 6.2 0 0 1-6.258 6.258A6.2 6.2 0 0 1 2.5 8.761z" data-name="패스 208"/>
</svg>
