<svg xmlns="http://www.w3.org/2000/svg" width="200.44" height="124.278" viewBox="0 0 200.44 124.278">
    <defs>
        <style>
            .cls-1{fill:#d2d1ff}.cls-2{fill:#fff}.cls-3{fill:none;stroke:#7673f6;stroke-linecap:round;stroke-linejoin:round}.cls-4{fill:#605af8}.cls-5{fill:#a199f9}.cls-6{fill:#5953e6}.cls-7{fill:#1f17e4}
        </style>
    </defs>
    <g id="그룹_628" data-name="그룹 628" transform="translate(-60.822 -536.685)">
        <g id="bg12" transform="translate(60.823 536.685)">
            <path id="패스_2277" d="M494.307 305.4s-37.413-43.706 4.454-54.846 56.565 34.279 85.07 35.565 61.909-17.14 70.817-17.14 24.942.857 24.051 15.854-12.471 28.709-12.916 35.993 10.244 26.995 12.026 31.708 4.009 18-5.79 18.853c-5.015.428-33.627 5.785-72.376-5.142-29.322-8.268-75.218 6-85.918 6a17.137 17.137 0 0 1-9.676-2.948c-7.861-5.38-20.37-18.892-9.3-46.757 5.793-14.568-.442-17.14-.442-17.14z" class="cls-1" data-name="패스 2277" transform="translate(-478.924 -248.797)"/>
            <ellipse id="타원_19898" cx="11.357" cy="10.926" class="cls-2" data-name="타원 19898" rx="11.357" ry="10.926" transform="translate(41.438 41.821)"/>
            <ellipse id="타원_19899" cx="7.572" cy="7.284" class="cls-2" data-name="타원 19899" rx="7.572" ry="7.284" transform="translate(31.417 47.391)"/>
            <ellipse id="타원_19900" cx="7.349" cy="7.07" class="cls-2" data-name="타원 19900" rx="7.349" ry="7.07" transform="translate(57.472 47.82)"/>
            <ellipse id="타원_19901" cx="11.357" cy="10.926" class="cls-2" data-name="타원 19901" rx="11.357" ry="10.926" transform="translate(144.991 75.243)"/>
            <ellipse id="타원_19902" cx="7.572" cy="7.284" class="cls-2" data-name="타원 19902" rx="7.572" ry="7.284" transform="translate(134.747 79.956)"/>
            <ellipse id="타원_19903" cx="7.349" cy="7.07" class="cls-2" data-name="타원 19903" rx="7.349" ry="7.07" transform="translate(161.471 81.028)"/>
            <ellipse id="타원_19904" cx="7.572" cy="7.284" class="cls-2" data-name="타원 19904" rx="7.572" ry="7.284" transform="translate(26.295 93.454)"/>
            <ellipse id="타원_19905" cx="5.345" cy="5.142" class="cls-2" data-name="타원 19905" rx="5.345" ry="5.142" transform="translate(37.43 96.882)"/>
            <path id="패스_2278" d="M712 632.228s5.122-6.213 10.467.643c0 0 5.122-7.284 8.24-1.071" class="cls-3" data-name="패스 2278" transform="translate(-660.095 -547.773)"/>
            <path id="패스_2279" d="M656 609.11s3.679-4.467 7.516.461c0 0 3.679-5.232 5.917-.769" class="cls-3" data-name="패스 2279" transform="translate(-616.566 -530.257)"/>
            <path id="패스_2280" d="M1189 448.11s3.679-4.463 7.516.461c0 0 3.679-5.232 5.917-.769" class="cls-3" data-name="패스 2280" transform="translate(-1030.87 -403.75)"/>
            <path id="패스_2281" d="M549 346.11s3.679-4.467 7.516.461c0 0 3.679-5.232 5.917-.769" class="cls-3" data-name="패스 2281" transform="translate(-533.395 -323.603)"/>
        </g>
        <g id="그룹_622" data-name="그룹 622" transform="translate(98.491 561.78)">
            <path id="패스_2354" d="M6.617 82.666S15.1 90.433 17.866 90.7s101.869 3.749 103.922 2.32 8.481-5.535 8.75-8.838c0 0-71.871 2.009-79.37 1.607S15.211 82.644 13.8 81.706c0 0-7.406-.491-7.183.96z" class="cls-4" data-name="패스 2354" transform="translate(0 2.447)"/>
            <path id="패스_2355" d="M66.265 36.4l.711 49.283-27.763-1.839S42.695 37.565 43.32 36.4z" class="cls-5" data-name="패스 2355" transform="translate(1.599 .23)"/>
            <path id="패스_2356" d="M50.277 89.943s2.142-54.827 1.964-57.773c.01-.748.837-.424.97 0s-.39 57.773-.39 57.773z" class="cls-6" data-name="패스 2356" transform="translate(2.141)"/>
            <path id="패스_2357" d="M51.168 85.791c-7.5-.4-35.957-3.147-37.364-4.085 0 0-7.41-.491-7.187.96 0 0 32.766 4.33 44.015 5.4s79.345-2.522 79.491-2.53a3.766 3.766 0 0 0 .415-1.353s-71.871 2.009-79.37 1.608z" class="cls-7" data-name="패스 2357" transform="translate(0 2.447)"/>
        </g>
    </g>
</svg>
