<svg xmlns="http://www.w3.org/2000/svg" width="16.463" height="16"><defs><style>.cls-1{fill:#e6eaea}.cls-2{fill:#cdd4d5}.cls-3{fill:#687f82}.cls-4{fill:#9baaab}.cls-5{fill:#4acfd9}.cls-6{fill:#0295aa}.cls-8{fill:#fff}</style></defs><g id="schedule" transform="translate(0 -7.205)"><path id="패스_2167" d="M12.356 58.512H.258A.258.258 0 0 0 0 58.77v9.9a.258.258 0 0 0 .258.258h12.1a.258.258 0 0 0 .258-.258v-9.9a.258.258 0 0 0-.26-.258z" class="cls-1" data-name="패스 2167" transform="translate(0 -49.657)"/><path id="패스_2168" d="M.258 58.512A.258.258 0 0 0 0 58.77v9.9a.258.258 0 0 0 .258.258h6.049V58.512z" class="cls-2" data-name="패스 2168" transform="translate(0 -49.657)"/><path id="사각형_843" d="M0 0h2.2v2.2H0z" class="cls-3" data-name="사각형 843" transform="translate(1.908 12.412)"/><path id="사각형_844" d="M0 0h2.2v2.2H0z" class="cls-4" data-name="사각형 844" transform="translate(8.507 12.412)"/><path id="사각형_845" d="M0 0h2.2v2.2H0z" class="cls-3" data-name="사각형 845" transform="translate(1.908 15.712)"/><g id="그룹_192" data-name="그룹 192" transform="translate(5.207 12.412)"><path id="사각형_846" d="M0 0h2.2v2.2H0z" class="cls-4" data-name="사각형 846" transform="translate(0 3.3)"/><path id="사각형_847" d="M0 0h2.2v2.2H0z" class="cls-4" data-name="사각형 847"/><path id="사각형_848" d="M0 0h2.2v2.2H0z" class="cls-4" data-name="사각형 848" transform="translate(3.3 3.3)"/></g><g id="그룹_193" data-name="그룹 193" transform="translate(5.207 12.412)"><path id="사각형_849" d="M0 0h1.1v2.2H0z" class="cls-3" data-name="사각형 849"/><path id="사각형_850" d="M0 0h1.1v2.2H0z" class="cls-3" data-name="사각형 850" transform="translate(0 3.3)"/></g><path id="패스_2169" d="M172.381 7.2h-1.1a.258.258 0 0 0-.258.258v3.3a.258.258 0 0 0 .258.258h1.1a.258.258 0 0 0 .258-.258v-3.3a.258.258 0 0 0-.258-.258z" class="cls-5" data-name="패스 2169" transform="translate(-165.524)"/><path id="패스_2170" d="M171.281 7.2a.258.258 0 0 0-.258.258v3.3a.258.258 0 0 0 .258.258h.55V7.2z" class="cls-6" data-name="패스 2170" transform="translate(-165.524)"/><path id="패스_2171" d="M300.647 7.2h-1.1a.258.258 0 0 0-.258.258v3.3a.258.258 0 0 0 .258.258h1.1a.258.258 0 0 0 .258-.258v-3.3a.258.258 0 0 0-.258-.258z" class="cls-5" data-name="패스 2171" transform="translate(-289.665)"/><path id="패스_2172" d="M44.113 7.2h-1.1a.258.258 0 0 0-.258.258v3.3a.258.258 0 0 0 .258.258h1.1a.258.258 0 0 0 .258-.258v-3.3a.258.258 0 0 0-.258-.258z" class="cls-6" data-name="패스 2172" transform="translate(-41.38)"/><path id="패스_2173" d="M226.987 215.124a4.657 4.657 0 1 0 4.657 4.657 4.662 4.662 0 0 0-4.657-4.657z" data-name="패스 2173" transform="translate(-215.181 -201.233)" fill="#ff8c29"/><g id="그룹_194" data-name="그룹 194" transform="translate(12.51 14.883)"><path id="패스_2174" d="M463.343 316.741a.258.258 0 0 1-.258-.258 3.264 3.264 0 0 0-.19-1.1.258.258 0 1 1 .486-.173 3.779 3.779 0 0 1 .219 1.273.258.258 0 0 1-.257.258z" class="cls-8" data-name="패스 2174" transform="translate(-460.507 -312.818)"/><path id="패스_2175" d="M391.276 247.888a.258.258 0 0 1-.212-.111 3.3 3.3 0 0 0-1.808-1.295.258.258 0 1 1 .14-.5 3.815 3.815 0 0 1 2.091 1.5.258.258 0 0 1-.212.4z" class="cls-8" data-name="패스 2175" transform="translate(-389.068 -245.976)"/></g><path id="패스_2176" d="M279.249 269.123a2.921 2.921 0 1 0 2.921 2.921 2.924 2.924 0 0 0-2.921-2.921z" class="cls-1" data-name="패스 2176" transform="translate(-267.443 -253.496)"/><path id="패스_2177" d="M222.33 219.782a4.662 4.662 0 0 0 4.657 4.657v-9.314a4.662 4.662 0 0 0-4.657 4.657z" data-name="패스 2177" transform="translate(-215.181 -201.234)" fill="#fd6a33"/><path id="패스_2178" d="M276.328 272.044a2.924 2.924 0 0 0 2.921 2.921v-5.842a2.924 2.924 0 0 0-2.921 2.921z" class="cls-2" data-name="패스 2178" transform="translate(-267.443 -253.496)"/><path id="패스_2179" d="M360.918 312.8h-1.512a.258.258 0 0 1-.258-.258v-1.512a.258.258 0 0 1 .516 0v1.255h1.255a.258.258 0 1 1 0 .516z" data-name="패스 2179" transform="translate(-347.6 -293.805)" fill="#f0353d"/></g></svg>