<svg xmlns="http://www.w3.org/2000/svg" xmlns:xlink="http://www.w3.org/1999/xlink" width="220.505" height="196.002"><defs><style>.cls-2{fill:#6c63ff}.cls-3{fill:none;stroke:#535461;stroke-miterlimit:10}.cls-6{opacity:.1}.cls-9{opacity:.07}.cls-10{opacity:.03}.cls-11{fill:#4d4981}.cls-12,.cls-15{fill:#fff}.cls-12,.cls-13,.cls-14{opacity:.5}.cls-13,.cls-20{fill:#fd6f8d}.cls-17{fill:#fec3be}.cls-18{fill:#8b416f}.cls-23{fill:#5a5773}.cls-24{fill:#605d82}.cls-27{fill:#67647e}.cls-28{fill:#e6e6e6}</style><linearGradient id="linear-gradient" x1=".5" x2=".5" y1="1" gradientUnits="objectBoundingBox"><stop offset="0" stop-color="gray" stop-opacity=".251"/><stop offset=".54" stop-color="gray" stop-opacity=".122"/><stop offset="1" stop-color="gray" stop-opacity=".102"/></linearGradient><linearGradient id="linear-gradient-2" x1="1.362" x2="1.362" xlink:href="#linear-gradient"/><linearGradient id="linear-gradient-3" x1=".022" x2="1.021" y1=".5" y2=".5" xlink:href="#linear-gradient"/></defs><g id="two_man_illust" transform="translate(0 -.002)"><ellipse id="타원_199" cx="106.851" cy="30.53" data-name="타원 199" rx="106.851" ry="30.53" transform="translate(0 134.945)" fill="#f5f5f5"/><path id="패스_1139" d="M733.433 450.17a27.368 27.368 0 0 0-9.734 27.2c3.495 17.851-18.579 42.745-18.579 42.745h.544a33.358 33.358 0 0 0 30.449-46.58c-3.531-8.142-5.995-17.417-2.68-23.365z" class="cls-2" data-name="패스 1139" transform="translate(-568.648 -352.124)"/><path id="패스_1140" d="M733.456 450.17s-8.738 12.749-4.31 25.134-6.277 43.179-24 44.816" class="cls-3" data-name="패스 1140" transform="translate(-568.671 -352.124)"/><path id="패스_1141" d="M739.319 644.644s-12.532-4.263-15.687 7.089-27.032 8.887-27.032 8.887.135.132.392.369c17.294 16.133 36.719 14.685 36.824-2.783.04-6.494 1.213-12.814 5.503-13.562z" class="cls-2" data-name="패스 1141" transform="translate(-562.255 -497.472)"/><path id="패스_1142" d="M739.319 644.644s-12.532-4.263-15.687 7.089-27.032 8.887-27.032 8.887.135.132.392.369c17.294 16.133 36.719 14.685 36.824-2.783.04-6.494 1.213-12.814 5.503-13.562z" data-name="패스 1142" transform="translate(-562.255 -497.472)" opacity=".2" fill="#f5f5f5"/><path id="패스_1143" d="M739.319 647s-10.378.482-11.116 9.714-18.275 17.441-31.605 6.26" class="cls-3" data-name="패스 1143" transform="translate(-562.254 -499.828)"/><path id="패스_1144" d="M487.9 358.041c.749-3.744.577-9.2-5.548-11.853 3.275-5.263 1.735-8.983-1.225-10.306-.02-1.373-.38-4.158-2.791-5.653.319-2.59.839-12.889-10.8-14.042-1.365-2.356-5.635-8.738-12.6-10.5v-9.237c-1.677 3.521-12.23 5.534-12.23 5.534-12.095 1.69-14.808 8.524-15.42 11.509a8.114 8.114 0 0 0-3.7.735c-2.536 1.585-20.636 6.314-19.218 18.854-.25.082-.484.17-.726.25 0 0-9.9 7.9-7.238 14.181l-1 .073a9.708 9.708 0 0 0-3.976 10.542 2.109 2.109 0 0 0-.5 1.919l13.65 45.5a1.463 1.463 0 0 0 .549.789c.617.43 1.9 1.285 3.764 2.323l.015.073.082-.017a61.346 61.346 0 0 0 6.569 3.132v.052l.082-.015a64.694 64.694 0 0 0 5.192 1.85v.04h.082a64.21 64.21 0 0 0 5.546 1.435v.025h.082a62.38 62.38 0 0 0 5.8.936h.078a61.5 61.5 0 0 0 7.487.38h.163a61.522 61.522 0 0 0 7-.5h.082v-.015q2.818-.364 5.763-1.021l-.02.194.163.017.025-.25q2.94-.669 5.99-1.67h.082v-.04q2.536-.841 5.139-1.931l.082.015v-.055q3.018-1.276 6.115-2.923l.082.017.015-.07q1.747-.936 3.522-2a1.47 1.47 0 0 0 .649-.839l13.614-45.535a2.112 2.112 0 0 0-.5-1.914z" data-name="패스 1144" transform="translate(-332.837 -236.771)" fill="url(#linear-gradient)"/><path id="패스_1145" d="M627.423 350.522s-6.14-12.6-17.776-11.311.808 13.25.808 13.25 14.222 1.131 16.968-1.939z" class="cls-2" data-name="패스 1145" transform="translate(-493.275 -268.789)"/><path id="패스_1146" d="M627.423 350.522s-6.14-12.6-17.776-11.311.808 13.25.808 13.25 14.222 1.131 16.968-1.939z" class="cls-6" data-name="패스 1146" transform="translate(-493.275 -268.789)"/><path id="패스_1147" d="M537.84 322.968s0-.163.03-.454c.207-2.019 1.862-10.15 15-11.981 0 0 10.181-1.94 11.8-5.334v10.343s-2.1 7.273-12.6 9.7-14.23-2.274-14.23-2.274z" class="cls-2" data-name="패스 1147" transform="translate(-443.119 -243.337)"/><path id="패스_1148" d="M402.946 493.805s-7.6 4.687-2.264 13.9 90.171 0 90.171 0 5.491-11.312-4.363-15.353-83.544 1.453-83.544 1.453z" data-name="패스 1148" transform="translate(-338.767 -382.663)" fill="#784f69"/><path id="패스_1149" d="M499.924 344.468a6.394 6.394 0 0 0-2.691-5.446c.307-2.5.811-12.422-10.405-13.532-1.318-2.271-5.431-8.431-12.142-10.121v-8.909c-1.615 3.394-11.8 5.334-11.8 5.334-11.656 1.633-14.271 8.214-14.858 11.09a7.952 7.952 0 0 0-3.564.706c-2.443 1.527-19.887 6.085-18.532 18.17-.234.082-.467.163-.7.25 0 0-13.752 10.982-3.781 17.05s4.59 8.808 18 2.019l.042-.028c5.052 1.45 18.587 4.492 26.623-1.59l.577-.437c3.195 1.9 10.765 5.39 17.2.437l.055-.042c2.5 2.349 7.575 5.339 13.68-.766 7.316-7.305 5.895-12.574 2.296-14.185z" class="cls-6" data-name="패스 1149" transform="translate(-353.063 -244.283)"/><path id="패스_1150" d="M675.74 468.941s6.626 9.856 15.353 1.13 5.009-14.543 0-14.706-15.353 13.576-15.353 13.576z" class="cls-2" data-name="패스 1150" transform="translate(-546.601 -356.022)"/><path id="패스_1151" d="M675.74 468.941s6.626 9.856 15.353 1.13 5.009-14.543 0-14.706-15.353 13.576-15.353 13.576z" data-name="패스 1151" transform="translate(-546.601 -356.022)" opacity=".15"/><path id="패스_1152" d="M640.066 438.959s1.615-13.727-19.218-3.232-15.517 16-15.517 16 10.343 7.922 18.744 1.455 13.564-8.402 15.991-14.223z" class="cls-2" data-name="패스 1152" transform="translate(-493.311 -338.32)"/><path id="패스_1153" d="M640.066 438.959s1.615-13.727-19.218-3.232-15.517 16-15.517 16 10.343 7.922 18.744 1.455 13.564-8.402 15.991-14.223z" class="cls-6" data-name="패스 1153" transform="translate(-493.311 -338.32)"/><path id="패스_1154" d="M542.779 436.382s-7.922-5.491-20.037 0-26.342 19.394-26.342 19.394 18.584 6.634 28.6-.971 17.3-13.251 17.779-18.423z" class="cls-2" data-name="패스 1154" transform="translate(-412.022 -339.946)"/><path id="패스_1155" d="M542.779 436.382s-7.922-5.491-20.037 0-26.342 19.394-26.342 19.394 18.584 6.634 28.6-.971 17.3-13.251 17.779-18.423z" class="cls-9" data-name="패스 1155" transform="translate(-412.022 -339.946)"/><path id="패스_1156" d="M478.131 438.79s-16.161-2.261-23.594 2.261S432 457.617 432 457.617s4.59 8.808 18 2.019c.012-.003 27.807-17.292 28.131-20.846z" class="cls-2" data-name="패스 1156" transform="translate(-363.695 -343.16)"/><path id="패스_1157" d="M478.131 438.79s-16.161-2.261-23.594 2.261S432 457.617 432 457.617s4.59 8.808 18 2.019c.012-.003 27.807-17.292 28.131-20.846z" class="cls-10" data-name="패스 1157" transform="translate(-363.695 -343.16)"/><path id="패스_1158" d="M424.916 442.427s-14.382 11.481-3.07 17.454c0 0 23.915-15.674 24.4-17.454.002 0-11.146-3.878-21.33 0z" class="cls-2" data-name="패스 1158" transform="translate(-352.82 -345.02)"/><path id="패스_1159" d="M480.4 371.639s-9.534-1.615-12.12 0-21.976 6.626-18.1 20.361l5.811-2.091s11.163-14.067 24.409-18.27z" class="cls-2" data-name="패스 1159" transform="translate(-376.958 -292.657)"/><path id="패스_1160" d="M480.4 371.639s-9.534-1.615-12.12 0-21.976 6.626-18.1 20.361l5.811-2.091s11.163-14.067 24.409-18.27z" class="cls-6" data-name="패스 1160" transform="translate(-376.958 -292.657)"/><path id="패스_1161" d="M510.413 373.35s-6.786-6.3-21.816-.484-20.037 16.318-20.037 16.318l22.54 1.7s12.687-18.184 19.313-17.534z" class="cls-2" data-name="패스 1161" transform="translate(-391.131 -292.264)"/><path id="패스_1162" d="M510.413 373.35s-6.786-6.3-21.816-.484-20.037 16.318-20.037 16.318l22.54 1.7s12.687-18.184 19.313-17.534z" class="cls-9" data-name="패스 1162" transform="translate(-391.131 -292.264)"/><path id="패스_1163" d="M586.03 381.672s-10.827-3.554-19.218 1.293-11.481 14.382-11.481 14.382l13.413-.647s10.499-16.48 17.286-15.028z" class="cls-2" data-name="패스 1163" transform="translate(-456.244 -299.779)"/><path id="패스_1164" d="M586.03 381.672s-10.827-3.554-19.218 1.293-11.481 14.382-11.481 14.382l13.413-.647s10.499-16.48 17.286-15.028z" class="cls-10" data-name="패스 1164" transform="translate(-456.244 -299.779)"/><path id="패스_1165" d="M640.346 395.205s3.717-18.906-20.846-13.088c0 0-13.959 12.282-10.045 15.674s30.891-2.586 30.891-2.586z" class="cls-2" data-name="패스 1165" transform="translate(-496.34 -300.221)"/><path id="패스_1166" d="M397.963 543.722l13.153 43.845a1.411 1.411 0 0 0 .541.749c3.675 2.568 31.919 20.791 66.513 0a1.415 1.415 0 0 0 .624-.809l13.106-43.876a1.415 1.415 0 0 0-1.7-1.777l-5.7 1.423a1.417 1.417 0 0 1-.6.02l-5.353-1a1.416 1.416 0 0 0-.924.142l-6.355 3.389a1.415 1.415 0 0 1-1 .125l-6.836-1.7a1.414 1.414 0 0 0-.784.028l-7.94 2.6a1.415 1.415 0 0 1-1.085-.082l-5.259-2.69a1.416 1.416 0 0 0-1.076-.09l-6.778 2.164a1.416 1.416 0 0 1-.529.062l-6.529-.457a1.416 1.416 0 0 1-.289-.05l-5.182-1.48a1.415 1.415 0 0 0-.671-.025l-7.179 1.458a1.414 1.414 0 0 1-.8-.07l-6.988-2.768a1.416 1.416 0 0 0-.771-.078l-5.563 1a1.417 1.417 0 0 1-.674-.042l-5.611-1.766a1.415 1.415 0 0 0-1.772 1.758z" class="cls-6" data-name="패스 1166" transform="translate(-338.109 -420.892)"/><path id="패스_1167" d="M397.965 545.012l13.153 43.845a1.41 1.41 0 0 0 .541.749c3.675 2.568 31.919 20.791 66.513 0a1.415 1.415 0 0 0 .624-.809l13.111-43.877a1.415 1.415 0 0 0-1.7-1.777l-5.691 1.43a1.415 1.415 0 0 1-.6.02l-5.353-1a1.416 1.416 0 0 0-.924.142l-6.355 3.389a1.415 1.415 0 0 1-1 .125l-6.834-1.707a1.414 1.414 0 0 0-.784.028l-7.94 2.6a1.415 1.415 0 0 1-1.085-.082l-5.259-2.7a1.415 1.415 0 0 0-1.076-.09l-6.778 2.164a1.416 1.416 0 0 1-.529.062l-6.533-.457a1.411 1.411 0 0 1-.29-.05L428 545.544a1.414 1.414 0 0 0-.671-.025l-7.178 1.463a1.415 1.415 0 0 1-.8-.07l-6.988-2.768a1.415 1.415 0 0 0-.771-.078l-5.563 1a1.415 1.415 0 0 1-.674-.042l-5.606-1.762a1.415 1.415 0 0 0-1.772 1.757z" class="cls-11" data-name="패스 1167" transform="translate(-338.111 -421.86)"/><path id="패스_1168" d="M291.166 412.717l-1.375-.479-.771-1.238 3.43-4.293 1.375.479.771 1.236z" class="cls-12" data-name="패스 1168" transform="translate(-216.884 -305.198)"/><path id="패스_1169" d="M552.1 441.857l-1.378-.479-.768-1.236 3.43-4.293 1.375.477.771 1.236z" class="cls-12" data-name="패스 1169" transform="translate(-412.69 -327.064)"/><path id="패스_1170" d="M437.5 347.967l-1.375-.477-.771-1.236 3.43-4.3 1.378.479.768 1.236z" class="cls-12" data-name="패스 1170" transform="translate(-326.692 -256.608)"/><path id="패스_1171" d="M465.349 411.693l-1.33.589-1.408-.374-.432-5.478 1.33-.589 1.408.374z" class="cls-12" data-name="패스 1171" transform="translate(-346.825 -304.544)"/><path id="패스_1172" d="M369.419 361.317l-.919 1.13-1.425.3-2.865-4.687.921-1.13 1.425-.3z" class="cls-12" data-name="패스 1172" transform="translate(-273.308 -267.617)"/><path id="패스_1173" d="M362.949 414.407l-.921 1.13-1.423.3-2.865-4.687.919-1.13 1.425-.3z" class="cls-12" data-name="패스 1173" transform="translate(-268.453 -307.456)"/><path id="패스_1174" d="M522.68 418.587l-1.056 1-1.453.118-2.241-5.017 1.062-1 1.446-.118z" class="cls-12" data-name="패스 1174" transform="translate(-388.661 -310.345)"/><path id="패스_1175" d="M508.11 357.916l.357-1.413 1.163-.874 4.573 3.04-.357 1.413-1.163.876z" class="cls-12" data-name="패스 1175" transform="translate(-381.292 -266.866)"/><path id="패스_1176" d="M306.706 355.1l-1.375-.479-.771-1.236 3.43-4.293 1.375.477.771 1.236z" class="cls-13" data-name="패스 1176" transform="translate(-228.546 -261.958)"/><path id="패스_1177" d="M381.524 332.61l-.337-1.415.629-1.316 5.464.581.337 1.418-.629 1.316z" class="cls-13" data-name="패스 1177" transform="translate(-286.049 -247.543)"/><path id="패스_1178" d="M488.62 301.4l.272-1.43 1.108-.94 4.747 2.765-.272 1.43-1.111.943z" class="cls-13" data-name="패스 1178" transform="translate(-366.667 -224.393)"/><path id="패스_1179" d="M444.3 278.654l1.42-.327 1.307.641-.635 5.462-1.42.322-1.307-.641z" class="cls-13" data-name="패스 1179" transform="translate(-332.928 -208.859)"/><path id="패스_1180" d="M406.137 443.972l-.337-1.418.626-1.316 5.464.581.337 1.418-.629 1.317z" class="cls-13" data-name="패스 1180" transform="translate(-304.518 -331.109)"/><path id="패스_1181" d="M323.621 443.643l-.861-1.175.065-1.453 5.259-1.595.863 1.175-.067 1.455z" class="cls-13" data-name="패스 1181" transform="translate(-242.203 -329.743)"/><path id="패스_1182" d="M547.982 400.988l-1.2-.831-.408-1.4 4.46-3.207 1.2.831.408 1.4z" class="cls-13" data-name="패스 1182" transform="translate(-410.011 -296.822)"/><path id="패스_1183" d="M396.475 405.518l-1.2-.831-.408-1.4 4.46-3.21 1.2.833.408 1.4z" class="cls-13" data-name="패스 1183" transform="translate(-296.315 -300.222)"/><path id="패스_1184" d="M411.6 543.044l-5.563 1a1.415 1.415 0 0 1-.674-.042l-.092-.03 10.129 46.919-10.127-46.923-5.513-1.732a1.415 1.415 0 0 0-1.78 1.747l13.154 43.846a1.41 1.41 0 0 0 .541.749 52.845 52.845 0 0 0 10.141 5.346l-9.807-50.913a1.416 1.416 0 0 0-.408.035z" class="cls-6" data-name="패스 1184" transform="translate(-338.124 -421.164)"/><path id="패스_1185" d="M687.942 541.874l-5.7 1.423a1.414 1.414 0 0 1-.6.02l-5.353-1a1.413 1.413 0 0 0-.5 0l-9.36 50.841 9.355-50.838a1.416 1.416 0 0 0-.419.145l-6.354 3.389a1.415 1.415 0 0 1-.946.137l-6.665 49.062a69.95 69.95 0 0 0 11.019-4.742l10.208-47.11-10.208 47.099q1.732-.924 3.495-1.976a1.415 1.415 0 0 0 .624-.808l13.111-43.877a1.415 1.415 0 0 0-1.7-1.757z" class="cls-6" data-name="패스 1185" transform="translate(-535.84 -420.909)"/><path id="패스_1186" d="M650.447 553.183l-6.831-1.707a1.416 1.416 0 0 0-.4-.04L638 603.884q2.871-.653 5.851-1.628l6.669-49.056z" class="cls-11" data-name="패스 1186" transform="translate(-518.28 -428.114)"/><g id="그룹_212" class="cls-14" data-name="그룹 212" transform="translate(67.07 121.638)"><path id="사각형_700" d="M0 0h.163v47.993H0z" class="cls-15" data-name="사각형 700" transform="rotate(-12.18 7.048 .752)"/><path id="사각형_701" d="M0 0h.163v50.215H0z" class="cls-15" data-name="사각형 701" transform="rotate(-8.19 32.142 -99.407)"/><path id="사각형_702" d="M0 0h.163v51.904H0z" class="cls-15" data-name="사각형 702" transform="rotate(-10.9 6.063 -34.943)"/><path id="사각형_703" d="M0 0h.163v52.925H0z" class="cls-15" data-name="사각형 703" transform="rotate(-5.05 33.355 -252.99)"/><path id="사각형_704" d="M0 0h.163v51.817H0z" class="cls-15" data-name="사각형 704" transform="rotate(-1.68 144.948 -1061.955)"/><path id="사각형_705" d="M0 0h.163v53.389H0z" class="cls-15" data-name="사각형 705" transform="rotate(-.37 417.336 -6139.719)"/><path id="사각형_706" d="M0 0h50.654v.163H0z" class="cls-15" data-name="사각형 706" transform="rotate(-87.65 52.313 3.335)"/><path id="사각형_707" d="M0 0h52.982v.163H0z" class="cls-15" data-name="사각형 707" transform="rotate(-84.28 56.46 -1.694)"/><path id="사각형_708" d="M0 0h49.892v.162H0z" class="cls-15" data-name="사각형 708" transform="rotate(-82.53 58.529 -6.737)"/><path id="사각형_709" d="M0 0h51.76v.162H0z" class="cls-15" data-name="사각형 709" transform="rotate(-79.567 62.278 -12.632)"/><path id="사각형_710" d="M0 0h48.202v.163H0z" class="cls-15" data-name="사각형 710" transform="rotate(-77.81 64.505 -18.989)"/></g><path id="패스_1187" d="M203.824 271.849a14.255 14.255 0 0 1 5.513-.866 28.47 28.47 0 0 0 8.344-4.59 60.152 60.152 0 0 1 .177-7.049c1.383-15.724-1.727-26.079-1.727-26.079s-2.441-7.9-2.174-14.463l-.25.474a48.769 48.769 0 0 0-3.584-15.16 1.218 1.218 0 0 1-.163-.06l-1.645-3.829a3.322 3.322 0 0 1-.3-.706l-.25-.607.078-.033c-.025-.1-.052-.2-.078-.312-1.031-4.36-1.817-14.7-1.817-14.7a19.191 19.191 0 0 1 3.8-17.621l11.139-9.587a1.413 1.413 0 0 0-.109.392l.092-.082c.158-.449.327-1 .5-1.607a9.254 9.254 0 0 1-3.609-5.4 16.822 16.822 0 0 1-.163-4.041l.185-4.622a14.679 14.679 0 0 1 .274-2.7c.841-3.675 4.6-6.239 8.371-6.4a30.908 30.908 0 0 1 3.593.192 24.171 24.171 0 0 0 2.92.062.529.529 0 0 0 .314-.082.461.461 0 0 0 .137-.319 1.59 1.59 0 0 0-.39-1.191 1.482 1.482 0 0 0-.5-.29l.27.065a1.47 1.47 0 0 0-.442-.237 8.745 8.745 0 0 1 2.777 1 3.588 3.588 0 0 1 .649.546 2.833 2.833 0 0 1 .938 1.747 3.338 3.338 0 0 0 1-1.465 1.48 1.48 0 0 0 0-.709q.1.122.189.25a.118.118 0 0 0-.017-.075 7.413 7.413 0 0 1 1.45 2.995 1.163 1.163 0 0 0 .262-.858c.055.17.107.342.154.517a1.2 1.2 0 0 0 .017-.345 11.811 11.811 0 0 1 .577 4.1c0 1.388-.614 3.547-2.1 4.034a2.3 2.3 0 0 1-.234.062 9.322 9.322 0 0 1-6.288 14.239q-.035.25-.07.532h-.06c-.04.374-.073.768-.1 1.181a7.95 7.95 0 0 0 1.225.98 10.1 10.1 0 0 0 4.056 1.365 12.138 12.138 0 0 1 4.9 1.458c1.777 1 3.744 2.443 4.355 4.2 1.028 2.94 6.679 7.487 10.483 8.054l1.348-.078.1-.03v.025l.327-.02h.107v.02l.342-.02s.035.158.082.437c1.909-.653 5.962-2.476 11.232-7.258 5.875-5.329 13.8-4.28 16.862-3.609a.524.524 0 0 1 .14.971 16.767 16.767 0 0 1-4.048 1.775s1.852 1.917-.115 2.94a1.415 1.415 0 0 1-1.48-.142c-.946-.692-3.576.876-7.385 1.692 0 0-10.752 11.126-16.088 12.849a7.685 7.685 0 0 1-.408.694l-.327-.028-.017.028h-.045l-.04.35s-8.3-.437-10.982-3.45a4.327 4.327 0 0 1-.527-.562l2.885 36.31h-.028l.028.345h-2.123a80.021 80.021 0 0 0 .572 13.385V254.5s.109 2.084-4.216 5.116a161.7 161.7 0 0 0-13.13 10.15l-.524.454c.8 7.238 2.461 20.736 3.849 21.24l-.856.149c1.475 1.86 5.631 6.961 6.9 7.105 1.552.172 2.59 2.59 0 3.11a29.033 29.033 0 0 1-15.387-1.517 2.349 2.349 0 0 1-1.477-2.5l.5-3.814a.534.534 0 0 0-.22.232c-.345 1.036 0-1.383 0-1.383A108.069 108.069 0 0 1 219 278.914l-5.121 4.438-.282-.357c-1.248 2.858-3.495 8.688-2.995 12.966.692 5.873-5.873.692-5.182-2.763.559-2.8-1.935-14.635-2.907-19.054a1.969 1.969 0 0 1 1.311-2.295z" data-name="패스 1187" transform="translate(-191.448 -112.172)" fill="url(#linear-gradient-2)"/><path id="패스_1188" d="M417.245 278.658s4.892-.844 12.142-7.42c5.74-5.2 13.475-4.178 16.473-3.524a.5.5 0 0 1 .137.946 16.6 16.6 0 0 1-3.953 1.735s1.807 1.872-.113 2.873a1.383 1.383 0 0 1-1.445-.14c-.924-.674-3.495.856-7.21 1.652 0 0-14.5 15.01-17.875 12.48z" class="cls-17" data-name="패스 1188" transform="translate(-351.238 -214.797)"/><path id="패스_1189" d="M288.306 209.633s-1.35 5.74 0 9.781l-6.07.841-5.4-2.7v-3.544a24.3 24.3 0 0 0 1.855-11.636z" class="cls-17" data-name="패스 1189" transform="translate(-247.261 -166.179)"/><path id="패스_1190" d="M218.825 699.056s-4.386 8.6-3.708 14.334-5.74.674-5.059-2.7c.546-2.728-1.89-14.292-2.838-18.6a1.922 1.922 0 0 1 1.278-2.247c2.029-.666 5.421-1.5 7.128-.234 2.525 1.849 3.199 9.447 3.199 9.447z" class="cls-18" data-name="패스 1190" transform="translate(-194.983 -531.308)"/><path id="패스_1191" d="M292.994 765.746s5.74 7.42 7.253 7.59 2.532 2.532 0 3.035a28.346 28.346 0 0 1-15.027-1.482 2.294 2.294 0 0 1-1.442-2.441l.951-7.208z" class="cls-18" data-name="패스 1191" transform="translate(-252.453 -588.557)"/><path id="패스_1192" d="M262.5 451.72l5.491.735a80.562 80.562 0 0 0 .065 19.335v23.1s.107 2.034-4.116 4.991a157.881 157.881 0 0 0-12.789 9.911l-15.3 13.258s-6.073-7.42-5.227-11.806c0 0 10.119-3.2 11.468-8.434.773-2.995 4.7-5.491 7.909-7.076a9.833 9.833 0 0 0 5.261-11.161 8.605 8.605 0 0 0-.861-2.169c-2.695-4.722-6.577-15.347-6.577-15.347l7.42-14.167z" class="cls-11" data-name="패스 1192" transform="translate(-212.516 -353.287)"/><path id="패스_1193" d="M262.5 451.72l5.491.735a80.562 80.562 0 0 0 .065 19.335v23.1s.107 2.034-4.116 4.991a157.881 157.881 0 0 0-12.789 9.911l-15.3 13.258s-6.073-7.42-5.227-11.806c0 0 10.119-3.2 11.468-8.434.773-2.995 4.7-5.491 7.909-7.076a9.833 9.833 0 0 0 5.261-11.161 8.605 8.605 0 0 0-.861-2.169c-2.695-4.722-6.577-15.347-6.577-15.347l7.42-14.167z" data-name="패스 1193" transform="translate(-212.516 -353.287)" opacity=".05"/><path id="패스_1194" d="M270.529 531.156s-9.951 1.687-10.29 2.7 0-1.35 0-1.35-5.74-17.371-4.385-32.718-1.687-25.458-1.687-25.458-3.542-11.468-1.517-18.048 23.275-3.711 23.275-3.711-7.423 17.367-7.25 25.639c0 0-.844 24.959-2.361 27.826-.001-.008 2.36 24.446 4.215 25.12z" class="cls-11" data-name="패스 1194" transform="translate(-228.64 -353.459)"/><path id="패스_1195" d="M287.961 249s-1.011 6.239-11.131 3.542l6.739 51.268s19.563.674 19.4-1.687l-4.046-31.023z" class="cls-15" data-name="패스 1195" transform="translate(-247.254 -201.163)"/><path id="패스_1196" d="M320.413 247.66a8.225 8.225 0 0 0 4.872 2.314 11.853 11.853 0 0 1 4.787 1.425c1.747.971 3.651 2.384 4.247 4.105 1.181 3.372 8.6 8.938 11.981 7.758l-1.181 10.119s-9.611-.5-11.3-4.216l2.868 36.09h-2.526s-1.35-9.781-2.361-11.806-3.035-13.153-3.2-15.854-2.695-18.22-4.892-20.913l-3.29-8.012z" class="cls-6" data-name="패스 1196" transform="translate(-279.958 -200.158)"/><path id="패스_1197" d="M320.412 249.69a10.385 10.385 0 0 0 5.209 2.144 11.853 11.853 0 0 1 4.787 1.428c1.747.971 3.651 2.384 4.247 4.105 1.181 3.372 8.6 8.938 11.981 7.758l-1.181 10.119s-9.611-.5-11.3-4.216l2.874 36.082h-2.536s-1.35-9.781-2.361-11.806-3.035-13.153-3.2-15.854-2.7-18.22-4.892-20.913l-3.627-7.84z" class="cls-6" data-name="패스 1197" transform="translate(-279.957 -201.681)"/><path id="패스_1198" d="M320.412 248.34a10.386 10.386 0 0 0 5.209 2.144 11.853 11.853 0 0 1 4.787 1.425c1.747.971 3.651 2.384 4.247 4.105 1.181 3.372 8.6 8.938 11.981 7.758l-1.181 10.119s-9.611-.5-11.3-4.216l2.878 36.088H334.5s-1.356-9.782-2.365-11.8-3.035-13.153-3.2-15.854-2.7-18.22-4.892-20.913l-3.627-7.84z" class="cls-20" data-name="패스 1198" transform="translate(-279.957 -200.668)"/><path id="패스_1199" d="M284.732 208.88c.22-1.6-.22-2.6-.422-4.47l9.611 7.253s-.229.98-.408 2.413a9.168 9.168 0 0 1-1.45.118c-3.363 0-5.763-2.614-7.331-5.314z" class="cls-6" data-name="패스 1199" transform="translate(-252.867 -167.703)"/><circle id="타원_200" cx="9.107" cy="9.107" r="9.107" class="cls-17" data-name="타원 200" transform="translate(30.083 27.77)"/><path id="패스_1200" d="M288.877 147.231a11.528 11.528 0 0 0-.749-4.507 1.123 1.123 0 0 1-.192 1.455 7.215 7.215 0 0 0-2.287-4.053 1.246 1.246 0 0 1 .824 1.552 3.511 3.511 0 0 1-1.125 1.585 2.831 2.831 0 0 0-1.388-2.4 8.62 8.62 0 0 0-2.713-.98 1.572 1.572 0 0 1 1.04 1.612.449.449 0 0 1-.135.312.517.517 0 0 1-.307.082 23.6 23.6 0 0 1-2.85-.06 29.878 29.878 0 0 0-3.512-.187c-3.684.154-7.35 2.658-8.174 6.239a14.332 14.332 0 0 0-.267 2.63l-.17 4.525a16.42 16.42 0 0 0 .163 3.946 8.359 8.359 0 0 0 4.3 5.676c1.323-1.917 1.44-4.381 1.9-6.664a3.372 3.372 0 0 1 .572-1.47 1.289 1.289 0 0 1 1.41-.479.81.81 0 0 1 .3 1.29c.354.432 1.054.109 1.46-.274a7.878 7.878 0 0 0 2.287-4.083c.163-.786.327-1.747 1.088-2.019a2.046 2.046 0 0 1 .817-.055c1.6.109 4.116.773 5.673.265 1.435-.476 2.035-2.582 2.035-3.938z" class="cls-6" data-name="패스 1200" transform="translate(-239.748 -119.28)"/><path id="패스_1201" d="M288.169 146.551a11.529 11.529 0 0 0-.749-4.507 1.123 1.123 0 0 1-.192 1.455 7.215 7.215 0 0 0-2.287-4.053 1.246 1.246 0 0 1 .824 1.552 3.512 3.512 0 0 1-1.125 1.585 2.832 2.832 0 0 0-1.388-2.4 8.62 8.62 0 0 0-2.713-.98 1.572 1.572 0 0 1 1.04 1.612.449.449 0 0 1-.135.312.516.516 0 0 1-.307.082 23.6 23.6 0 0 1-2.85-.06 29.878 29.878 0 0 0-3.512-.187c-3.684.154-7.35 2.658-8.174 6.239a14.334 14.334 0 0 0-.269 2.643l-.18 4.513a16.423 16.423 0 0 0 .163 3.946 8.359 8.359 0 0 0 4.3 5.676c1.323-1.917 1.44-4.381 1.9-6.664a3.372 3.372 0 0 1 .572-1.47 1.29 1.29 0 0 1 1.41-.479.81.81 0 0 1 .3 1.29c.354.432 1.054.109 1.46-.274a7.877 7.877 0 0 0 2.287-4.083c.163-.786.327-1.747 1.088-2.019a2.047 2.047 0 0 1 .817-.055c1.6.109 4.116.773 5.673.265 1.445-.474 2.047-2.583 2.047-3.939z" data-name="패스 1201" transform="translate(-239.207 -118.769)" fill="#fad375"/><path id="패스_1202" d="M419.323 310.16s1.35 6.239-1.181 10.119l-1.432-.118.782-9.9z" class="cls-6" data-name="패스 1202" transform="translate(-352.222 -247.059)"/><path id="패스_1203" d="M417.973 310.16s1.35 6.239-1.181 10.119l-1.432-.118.782-9.9z" class="cls-20" data-name="패스 1203" transform="translate(-351.209 -247.059)"/><path id="패스_1204" d="M234.718 241.92l-10.87 9.36a18.737 18.737 0 0 0-3.712 17.2s1.181 15.517 2.532 16.19c0 0 4.722 9.444 5.059 18.382 0 0 6.324-12.729 9.192-4.974s9.529 8.853 9.529 8.853l-3.719-45.871s-9.359-16.275-8.011-19.14z" class="cls-6" data-name="패스 1204" transform="translate(-204.213 -195.851)"/><path id="패스_1205" d="M233.345 241.92l-10.877 9.36a18.735 18.735 0 0 0-3.711 17.2s1.181 15.517 2.532 16.19c0 0 4.722 9.445 5.059 18.382 0 0 6.662-13.408 9.529-5.651s9.192 9.529 9.192 9.529l-3.712-45.871s-9.357-16.274-8.012-19.139z" class="cls-20" data-name="패스 1205" transform="translate(-203.178 -195.851)"/><path id="패스_1206" d="M237.973 399.372s-2.7-1.855-7.083 3.2l10.788 19.563 3.627-5.491s-7.668-15.08-7.332-17.272z" class="cls-17" data-name="패스 1206" transform="translate(-212.78 -313.756)"/><path id="패스_1207" d="M238.312 396.138s-5.967 6.7-8.3 5.628l-2.157-5.019 8.092-3.477z" class="cls-6" data-name="패스 1207" transform="translate(-210.506 -309.426)"/><path id="패스_1208" d="M238.312 394.817s-5.967 6.7-8.3 5.635l-2.157-5.019 8.092-3.477z" class="cls-20" data-name="패스 1208" transform="translate(-210.506 -308.442)"/><path id="패스_1209" d="M274.1 464.54s-2.84 5.823-4.358 6.163l2.191 2.532 3.2-6.083z" class="cls-6" data-name="패스 1209" transform="translate(-241.933 -362.908)"/><path id="패스_1210" d="M274.778 465.21s-2.84 5.823-4.358 6.163l2.191 2.521 3.195-6.062z" class="cls-11" data-name="패스 1210" transform="translate(-242.444 -363.41)"/><path id="패스_1211" d="M266.248 321s-.337 12.142 1.011 16.7" class="cls-6" data-name="패스 1211" transform="translate(-239.284 -255.193)"/><path id="패스_1212" d="M369.746 323.331s-2.025-.674-2.025-2.361" class="cls-6" data-name="패스 1212" transform="translate(-315.459 -255.171)"/><g id="그룹_213" class="cls-14" data-name="그룹 213" transform="translate(167.043 .002)"><path id="패스_1213" d="M827.646 125.808a10.377 10.377 0 0 0 .689 4.225l.5 7.238s.125-.07.352-.18c-.3 2.746-.082 7.775 5.308 8.72a.916.916 0 0 0 .332-.163 24.485 24.485 0 0 0 1-2.3l.062.02-.062.31.4.125c-1.944 4.213-1.5 12.979-1.062 13.837a10.483 10.483 0 0 1 .422 2.618 29.881 29.881 0 0 1-.25 6.988c-.25 1.595-.327 3.552.5 4.365 1.5 1.477 1.33 12.811 1.33 12.811a8.2 8.2 0 0 0 .347.749l-.514.073a35.876 35.876 0 0 0 .831 7.555c.479 1.8-.2 4.133-.861 5.8a11.715 11.715 0 0 0-.577 7.056c.49 2.032 1.5 4.058 3.6 4.724 4.66 1.477 5.658-6.239 5.658-6.239s-.163-5.913 0-6.739c.052-.25.292-.959.6-1.812a22.579 22.579 0 0 0 1.241-9.735l-.192-2.077-.9.13q-.022-.322-.04-.674l-.033-.617c-.011-.209-.02-.43-.03-.653s-.02-.452-.028-.684q0-.175-.012-.352c-.038-1.062-.07-2.2-.1-3.322 0-.5-.023-1-.03-1.485 0-.364-.012-.726-.017-1.076v-.35c0-.572-.015-1.123-.017-1.633v-2.429c0-.617.025-.891.05-.664.082.749.332 5.256 0-.5-.27-4.639 3.909-15.7 5.528-19.792a14.4 14.4 0 0 1 1.5.9c.554 6.452-.207 18.827-.452 22.462v.015l-.047.676v.03l-.012.18v.13s-2.164 13.475-2.164 16.59a25.558 25.558 0 0 1-1.73 7.35c-.791.345-1.432.7-1.432.7l.163 12.319s-1.829 6.078 4.825 7.555 3.826-6.078 3.826-6.078l-.5-5.421 2.328-8.376-.653-.132c1.383-4.417 5.086-16.573 4.818-19.248a14.451 14.451 0 0 1 1.458-6.813l.04-.082c-1.427-2.945 2.913-18.47 4.892-25.168 2.469-1.178 4.258-2.1 4.258-2.1l-.137-.25.137-.07a33.015 33.015 0 0 1-2.553-6.262l.142-.145-.107-.3c.34-.327.524-.519.524-.519s4.825.821 3.661-1.477a12.467 12.467 0 0 1-.831-5.74v-12.634l2.328.766c4.381.721 5.164-4.171 5.145-7.922a29.1 29.1 0 0 0-.314-4.4s-3.332-25.458-9.157-24.637c-5.456.768-10.253-2.424-10.84-2.833q-.107-.327-.192-.649a8.239 8.239 0 0 0 .874-1.188 4.8 4.8 0 0 0 .542-.045v-.147l.163-.017a4.3 4.3 0 0 1 1.188-3.1 4.118 4.118 0 0 1 1.094-.749c.806-.376 1.715-.5 2.508-.9a2.769 2.769 0 0 0 .749-.572 1.729 1.729 0 0 0 .653-1.7 3.184 3.184 0 0 1-.25-.817c0-.4.312-.719.5-1.071a3.258 3.258 0 0 0-.636-3.28 8.821 8.821 0 0 1-1.82-2.995 12.922 12.922 0 0 0-.249-1.423c-.5-1.48-2.411-1.922-3.994-1.839s-3.28.419-4.648-.359a4.353 4.353 0 0 0-.834-.474 2.286 2.286 0 0 0-1.051 0 13.945 13.945 0 0 0-5.491 2.5 12.636 12.636 0 0 0-1.862 1.522 6.842 6.842 0 0 0-1 1.191 4.084 4.084 0 0 0-.577 3.535 3.576 3.576 0 0 0 1.206 1.617 8.141 8.141 0 0 0 1.675 11.518 9.523 9.523 0 0 1-.936 1.285v-.065s-5.074 2.546-6.906 2.216c-1.787-.322-6.43 2.651-6.335 8.6v.464l-3 9.286a37.578 37.578 0 0 0-1.82 11.546s-2.745 7.468-2.692 13.176zm8.044 3.934l3.958-14.765v3.23l-2.5 8.871s-.5 2.968-.881 6.12z" data-name="패스 1213" transform="translate(-827.635 -57.352)" fill="url(#linear-gradient-3)"/></g><path id="패스_1214" d="M874.63 555.35l.185 2.029a22.33 22.33 0 0 1-1.21 9.522c-.3.836-.529 1.525-.579 1.772-.163.8 0 6.582 0 6.582s-.964 7.545-5.459 6.1c-2.021-.649-2.995-2.633-3.474-4.617a11.591 11.591 0 0 1 .557-6.893c.639-1.625 1.293-3.909.831-5.663a35.423 35.423 0 0 1-.8-7.383z" class="cls-23" data-name="패스 1214" transform="translate(-687.729 -431.053)"/><path id="패스_1215" d="M875.673 398.886s-6.26 15.25-5.938 20.865.082 1.2 0 .482c-.142-1.285 0 13.977.482 15.724 0 0-6.582 4.818-9.147-1.6 0 0 .163-11.074-1.283-12.52-.794-.794-.716-2.706-.482-4.265a29.567 29.567 0 0 0 .25-6.821 10.356 10.356 0 0 0-.408-2.559c-.482-.964-.964-11.878 1.926-14.928z" class="cls-24" data-name="패스 1215" transform="translate(-683.958 -309.418)"/><path id="패스_1216" d="M875.681 436.009c-.482-1.765-.624-17.017-.482-15.724.082.721.322 5.137 0-.482s5.938-20.865 5.938-20.865l-14-5.39a2.837 2.837 0 0 1 .2-.232l14.606 5.618s-6.26 15.25-5.938 20.865.082 1.2 0 .482c-.142-1.285 0 13.977.482 15.724 0 0-2.628 1.922-5.211 1.715a9.924 9.924 0 0 0 4.409-1.711z" class="cls-6" data-name="패스 1216" transform="translate(-690.223 -309.462)"/><path id="패스_1217" d="M917.253 609.984l-2.247 8.187.482 5.3s2.728 7.383-3.691 5.938-4.655-7.383-4.655-7.383l-.163-12.038s2.568-1.446 3.691-1.283 6.583 1.279 6.583 1.279z" class="cls-23" data-name="패스 1217" transform="translate(-720.082 -471.079)"/><path id="패스_1218" d="M931.886 400.37s-7.383 23.915-5.618 27.612a14.513 14.513 0 0 0-1.445 6.739c.319 3.208-5.137 20.384-5.137 20.384l-8.027-1.445s1.927-4.818 1.927-7.865 2.087-16.223 2.087-16.223 1.765-24.078-.322-26.646z" class="cls-24" data-name="패스 1218" transform="translate(-723.638 -314.753)"/><g id="그룹_214" data-name="그룹 214" transform="translate(188.024 85.617)" opacity=".1"><path id="패스_1219" d="M915.983 418.42c1.33 5.451-.14 25.51-.14 25.51s-2.087 13.161-2.087 16.223a25.068 25.068 0 0 1-1.652 7.141l-.434-.078s1.927-4.818 1.927-7.865 2.087-16.223 2.087-16.223 1.343-18.328.299-24.708z" data-name="패스 1219" transform="translate(-911.67 -413.915)"/><path id="패스_1220" d="M969.973 510.5l-.04.082c-.012-.082-.025-.17-.033-.25q.032.083.073.163z" data-name="패스 1220" transform="translate(-955.367 -482.885)"/><path id="패스_1221" d="M926.819 403.709a2.363 2.363 0 0 0-.362-.771l16.532-2.568s-.1.312-.265.869z" data-name="패스 1221" transform="translate(-922.768 -400.37)"/></g><path id="패스_1222" d="M837.191 361.782s-2.408 8.983 4.818 10.273a.879.879 0 0 0 .322-.163s4.173-8.186.964-11.4z" class="cls-17" data-name="패스 1222" transform="translate(-667.466 -284.834)"/><path id="패스_1223" d="M911.321 126.4s-.482 6.739 4.818 9.951-11.232 12.038-11.232 12.038l-8.673-13.8s3.686.482 5.933-5.938z" class="cls-17" data-name="패스 1223" transform="translate(-712.061 -109.163)"/><path id="패스_1224" d="M889.756 168.2s-8.186 17.014-15.569.964l-11.4 56.5s17.656 5.459 17.816 8.027 17.816-6.582 17.816-6.582-3.851-7.063-2.89-11.4-5.773-47.509-5.773-47.509z" class="cls-6" data-name="패스 1224" transform="translate(-686.966 -140.53)"/><path id="패스_1225" d="M889.756 166.92s-8.186 17.014-15.569.964l-11.4 56.5s17.656 5.454 17.818 8.025 17.816-6.582 17.816-6.582-3.851-7.063-2.89-11.4-5.775-47.507-5.775-47.507z" data-name="패스 1225" transform="translate(-686.966 -139.569)" fill="#e1e7ef"/><path id="패스_1226" d="M918.262 617.885s2.087-4.655-2.728-4.655-4.013 4.185-4.013 4.185z" class="cls-23" data-name="패스 1226" transform="translate(-723.496 -474.487)"/><path id="패스_1227" d="M877.208 568.194s1.927-4.977-2.89-5.137-2.408 4.492-2.408 4.492z" class="cls-23" data-name="패스 1227" transform="translate(-693.357 -436.833)"/><path id="패스_1228" d="M851.22 152.45s-4.894 2.5-6.662 2.167-6.419 2.728-6.1 8.828l-2.9 9.11a37.162 37.162 0 0 0-1.747 11.284s-4.173 11.556-1.927 16.693l.482 7.063a12.928 12.928 0 0 1 7.535-1.453l-.964-5.778 4.332-16.373 7.223-17.5z" class="cls-6" data-name="패스 1228" transform="translate(-663.275 -128.712)"/><path id="패스_1229" d="M851.22 151.16s-4.894 2.5-6.662 2.167-6.419 2.728-6.1 8.828l-2.9 9.1a37.162 37.162 0 0 0-1.747 11.284s-4.173 11.556-1.927 16.693l.482 7.063a12.99 12.99 0 0 1 7.545-1.446l-.964-5.778 4.332-16.373 7.223-17.5z" class="cls-27" data-name="패스 1229" transform="translate(-663.275 -127.743)"/><path id="패스_1230" d="M867.981 188.035v18.145l-2.408 8.668s-1.6 9.473-1.123 12.359 8.186 3.531 10.273 1.123.964-22.962.964-22.962l.4-30.1-.322-.964z" class="cls-6" data-name="패스 1230" transform="translate(-688.143 -145.115)"/><path id="패스_1231" d="M866.687 187.749v18.137l-2.408 8.668s-1.6 9.473-1.123 12.359 8.186 3.531 10.273 1.123.964-22.962.964-22.962L874.8 175z" class="cls-27" data-name="패스 1231" transform="translate(-687.174 -145.633)"/><path id="패스_1232" d="M942.382 191.448l-5.137 15.973 2.408 6.821s-11.4 12.038-18.62 6.26c0 0-.8-24.56.8-30.338s9.31-25.208 9.31-25.208l1.6-5.137 8.506 4.818z" class="cls-6" data-name="패스 1232" transform="translate(-730.523 -134.241)"/><path id="패스_1233" d="M943.993 188.205v15.724a12.331 12.331 0 0 0 .8 5.618c1.125 2.246-3.531 1.445-3.531 1.445s-11.4 12.038-18.62 6.26c0 0-.8-24.56.8-30.338s9.31-25.208 9.31-25.208l1.6-5.137 8.506 4.818z" class="cls-27" data-name="패스 1233" transform="translate(-731.731 -131.803)"/><path id="사각형_711" d="M0 0h11.232v1.747H0z" class="cls-28" data-name="사각형 711" transform="rotate(123 88.047 78.713)"/><ellipse id="타원_201" cx="3.632" cy="1.994" class="cls-6" data-name="타원 201" rx="3.632" ry="1.994" transform="rotate(-57.25 148.957 -144.493)"/><ellipse id="타원_202" cx="3.637" cy="1.997" class="cls-28" data-name="타원 202" rx="3.637" ry="1.997" transform="rotate(-57 150.407 -145.778)"/><ellipse id="타원_203" cx="2.955" cy="1.623" class="cls-6" data-name="타원 203" rx="2.955" ry="1.623" transform="rotate(-57 150.411 -146.592)"/><path id="패스_1234" d="M958.234 145.37s4.894 3.611 10.512 2.808 8.828 24.078 8.828 24.078 2.087 12.841-4.655 11.718L958 179s3.209-3.372 2.728-7.7l7.224 2.89-.322-13.8z" class="cls-6" data-name="패스 1234" transform="translate(-758.413 -123.398)"/><path id="패스_1235" d="M976.263 248.914s2.087 12.841-4.655 11.718l-14.928-4.977s3.209-3.372 2.728-7.7l7.223 2.89z" class="cls-6" data-name="패스 1235" transform="translate(-757.423 -200.376)"/><path id="패스_1236" d="M940.607 241.848s-4.991-6.586-8.688-3.43 7.375 8.958 7.375 8.958z" class="cls-17" data-name="패스 1236" transform="translate(-738.274 -192.581)"/><path id="패스_1237" d="M958.234 144.09s4.894 3.611 10.512 2.808 8.828 24.078 8.828 24.078 2.087 12.841-4.655 11.718L958 177.717s3.209-3.372 2.728-7.7l7.224 2.89-.322-13.8-8.186-6.739z" class="cls-27" data-name="패스 1237" transform="translate(-758.413 -122.438)"/><path id="패스_1238" d="M915.575 129.937l9.147-2.247s-.477.539.082 2.648c-1.47 1.69-3.282 3.933-5.7 3.933a7.987 7.987 0 0 1-4.8-1.59 14.434 14.434 0 0 0 1.271-2.744z" class="cls-6" data-name="패스 1238" transform="translate(-725.627 -110.131)"/><circle id="타원_204" cx="8.027" cy="8.027" r="8.027" class="cls-17" data-name="타원 204" transform="translate(185.613 7.765)"/><path id="패스_1239" d="M907.838 72.471c-1.862-.317-3.909-1.143-4.532-2.925a4.058 4.058 0 0 1 .557-3.455 9.453 9.453 0 0 1 2.6-2.5 13.475 13.475 0 0 1 5.308-2.436 2.179 2.179 0 0 1 1.013 0 4.185 4.185 0 0 1 .821.449c1.32.761 2.963.432 4.492.352s3.365.352 3.846 1.8c.149.447.14.929.25 1.388a8.9 8.9 0 0 0 1.747 2.933c.651.936 1.153 2.205.6 3.21-.187.342-.5.653-.5 1.046a3.244 3.244 0 0 0 .25.8 1.96 1.96 0 0 1-1.2 2.059c-.764.394-1.642.517-2.421.884a4.247 4.247 0 0 0-2.363 3.928 2.3 2.3 0 0 1-2.006-.404c-.215-.237-.319-.554-.515-.806a5.449 5.449 0 0 0-.959-.789c-1.68-1.38-.49-3.287-1.437-4.774-.5-.766-1.293-.532-2.1-.519a18.524 18.524 0 0 1-3.452-.238z" class="cls-6" data-name="패스 1239" transform="translate(-717.235 -60.161)"/><path id="패스_1240" d="M908.468 71.811c-1.862-.317-3.909-1.143-4.533-2.925a4.058 4.058 0 0 1 .557-3.455 9.451 9.451 0 0 1 2.6-2.5A13.476 13.476 0 0 1 912.4 60.5a2.179 2.179 0 0 1 1.013 0 4.186 4.186 0 0 1 .821.449c1.321.761 2.963.432 4.492.352s3.365.352 3.847 1.8c.149.447.14.929.25 1.388a8.9 8.9 0 0 0 1.747 2.933c.651.936 1.153 2.205.6 3.21-.187.342-.5.653-.5 1.046a3.248 3.248 0 0 0 .25.8 1.96 1.96 0 0 1-1.2 2.06c-.764.394-1.642.517-2.421.884a4.247 4.247 0 0 0-2.363 3.928 2.3 2.3 0 0 1-2.014-.408c-.215-.237-.319-.554-.515-.806a5.451 5.451 0 0 0-.959-.789c-1.68-1.38-.49-3.287-1.437-4.774-.5-.766-1.293-.532-2.1-.519a18.526 18.526 0 0 1-3.45-.245z" data-name="패스 1240" transform="translate(-717.708 -59.666)" fill="#4a4347"/><path id="패스_1241" d="M880.163 214.19s-1.765 9.147-.964 12.681a11.767 11.767 0 0 1-.21 6.22" class="cls-6" data-name="패스 1241" transform="translate(-699.123 -175.042)"/><path id="패스_1242" d="M996.462 229.62s.768 6.1-.512 7.383" class="cls-6" data-name="패스 1242" transform="translate(-786.891 -186.62)"/><path id="패스_1243" d="M817.3 528.559a.374.374 0 1 0-.374-.374.374.374 0 0 0 .374.374z" data-name="패스 1243" transform="translate(-652.544 -410.387)"/><path id="사각형_712" d="M0 0h11.232v1.747H0z" class="cls-28" data-name="사각형 712" transform="rotate(22.2 -88.444 249.823)"/><ellipse id="타원_205" cx="1.997" cy="3.637" class="cls-6" data-name="타원 205" rx="1.997" ry="3.637" transform="rotate(-67.8 90.504 -41.628)"/><ellipse id="타원_206" cx="1.997" cy="3.637" class="cls-28" data-name="타원 206" rx="1.997" ry="3.637" transform="rotate(-67.8 90.66 -41.735)"/><ellipse id="타원_207" cx="1.623" cy="2.955" class="cls-6" data-name="타원 207" rx="1.623" ry="2.955" transform="rotate(-67.8 90.98 -42.354)"/></g></svg>