<svg xmlns="http://www.w3.org/2000/svg" width="72" height="72"><g data-name="그룹 95"><path d="M29.25 9a2.251 2.251 0 0 0 2.25-2.25v-4.5a2.25 2.25 0 0 0-4.5 0v4.5A2.251 2.251 0 0 0 29.25 9zm17.5 5.93l3.182-3.182a2.25 2.25 0 0 0-3.182-3.182l-3.182 3.182a2.25 2.25 0 1 0 3.182 3.182zM2.25 31.5h4.5a2.25 2.25 0 0 0 0-4.5h-4.5a2.25 2.25 0 0 0 0 4.5zm47.25-2.25a2.251 2.251 0 0 0 2.25 2.25h4.5a2.25 2.25 0 0 0 0-4.5h-4.5a2.251 2.251 0 0 0-2.25 2.25zM11.748 14.93a2.25 2.25 0 1 0 3.182-3.182l-3.182-3.182a2.25 2.25 0 1 0-3.182 3.182zM56.25 36a15.6 15.6 0 0 0-2.221.158 22.4 22.4 0 0 0-9.064-7.242 15.734 15.734 0 0 0-31.465.334 15.469 15.469 0 0 0 1.617 6.812A15.725 15.725 0 0 0 15.75 67.5a15.585 15.585 0 0 0 5.584-1.031 22.209 22.209 0 0 0 29.332 0A15.585 15.585 0 0 0 56.25 67.5a15.75 15.75 0 0 0 0-31.5zm-27-18a11.225 11.225 0 0 1 11.068 9.457A22.017 22.017 0 0 0 36 27a22.274 22.274 0 0 0-16.646 7.488A11.1 11.1 0 0 1 18 29.25 11.249 11.249 0 0 1 29.25 18zm27 45a11.182 11.182 0 0 1-6.46-2.063 17.77 17.77 0 0 1-27.58 0A11.242 11.242 0 1 1 15.75 40.5a10.924 10.924 0 0 1 3.111.5 10.2 10.2 0 0 1 1.169.355 18.269 18.269 0 0 1 2.247-3.34 17.454 17.454 0 0 1 17.836-5.991 17.177 17.177 0 0 1 4.2 1.588 18.17 18.17 0 0 1 7.658 7.743A11.248 11.248 0 1 1 56.25 63z" data-name="패스 887" fill="#fff"/></g></svg>