<svg xmlns="http://www.w3.org/2000/svg" width="70.265" height="67" viewBox="0 0 70.265 67">
    <defs>
        <style>
            .cls-1,.cls-2{fill:#fff}.cls-2{font-size:67px;font-family:GungsuhChe}
        </style>
    </defs>
    <g id="그룹_507" data-name="그룹 507" transform="translate(-29.5 -51.859)">
        <g id="Leaves" transform="translate(29.5 83.195)">
            <path id="패스_2123" d="M1781.356 835.314l4.095 20.624.393-.251z" class="cls-1" data-name="패스 2123" transform="translate(-1772.141 -823.182)"/>
            <path id="패스_2124" d="M1858.565 753.354l4.175 26.752-.538-.089z" class="cls-1" data-name="패스 2124" transform="translate(-1855.183 -747.846)"/>
            <path id="패스_2125" d="M1903.445 699.994s-.109 3.456-.669 4.312a5.583 5.583 0 0 1 .669-4.312" class="cls-1" data-name="패스 2125" transform="translate(-1899.394 -698.798)"/>
            <path id="패스_2126" d="M1879.6 715.8s-1.324 2.71-2.124 3.146a4.329 4.329 0 0 1 2.124-3.146" class="cls-1" data-name="패스 2126" transform="translate(-1873.552 -713.327)"/>
            <path id="패스_2127" d="M1911.8 685.191s1.8 4.017 1.375 5.346a5.272 5.272 0 0 1-1.375-5.346" class="cls-1" data-name="패스 2127" transform="translate(-1909.902 -685.191)"/>
            <path id="패스_2128" d="M1868.805 733.253s-1.44 3.515-1.891 4.5c-.109.229-.2.332-.262.34-.211.022-.262-.775-.211-1.307.065-.724.756-2.865 2.364-3.53" class="cls-1" data-name="패스 2128" transform="translate(-1861.873 -729.369)"/>
            <path id="패스_2129" d="M1894.4 792.237s.015-.015.007.015c-.073.325-.495 2.282-.487 2.621.015.377-.109-.5-.109-.5z" class="cls-1" data-name="패스 2129" transform="translate(-1889.656 -783.583)"/>
            <path id="패스_2130" d="M1903.989 754.285s.036-.015.029 0a9.171 9.171 0 0 0-.247 1.964c.007.377-.08-.31-.08-.31z" class="cls-1" data-name="패스 2130" transform="translate(-1900.054 -748.695)"/>
            <path id="패스_2131" d="M1862.683 752.349s-1 4.726-1.673 5.737c-.851 1.292-.756-1.292-.618-1.75s.757-3.146 2.291-3.987" class="cls-1" data-name="패스 2131" transform="translate(-1855.264 -746.922)"/>
            <path id="패스_2132" d="M1903.989 754.285s.036-.015.029 0a9.171 9.171 0 0 0-.247 1.964c.007.377-.08-.31-.08-.31z" class="cls-1" data-name="패스 2132" transform="translate(-1900.054 -748.695)"/>
            <path id="패스_2133" d="M1887.49 825.554s.015-.022.007.015c-.073.362-.538 2.54-.531 2.924 0 .421-.1-.554-.1-.554z" class="cls-1" data-name="패스 2133" transform="translate(-1882.195 -814.205)"/>
            <path id="패스_2134" d="M1837.606 779.943s-2.138 5.25-3.048 6.3c-1.157 1.337-.706-1.735-.451-2.245s1.775-3.338 3.5-4.054" class="cls-1" data-name="패스 2134" transform="translate(-1828.078 -772.286)"/>
            <path id="패스_2135" d="M1879.469 860.573s.036-.089.029-.052c-.087.4-.72 2.555-.713 2.983.007.465-.131-.539-.131-.539z" class="cls-1" data-name="패스 2135" transform="translate(-1873.541 -846.344)"/>
            <path id="패스_2136" d="M1825.9 813.751a63.575 63.575 0 0 1-3.491 6.52c-1.171 1.433-.524-1.994-.109-2.895a8.582 8.582 0 0 1 3.6-3.626" class="cls-1" data-name="패스 2136" transform="translate(-1815.411 -803.362)"/>
            <path id="패스_2137" d="M1873.1 897.366s.036-.1.029-.052c-.087.428-.749 2.725-.749 3.183 0 .495-.124-.569-.124-.569z" class="cls-1" data-name="패스 2137" transform="translate(-1866.666 -880.161)"/>
            <path id="패스_2138" d="M1819.869 849.843a63.519 63.519 0 0 1-3.491 6.527c-1.171 1.44-.524-1.994-.109-2.895a8.474 8.474 0 0 1 3.6-3.633" class="cls-1" data-name="패스 2138" transform="translate(-1808.9 -836.537)"/>
            <path id="패스_2139" d="M1867.1 933.457s.036-.1.029-.052c-.087.428-.756 2.806-.756 3.256 0 .495-.146-.672-.146-.672z" class="cls-1" data-name="패스 2139" transform="translate(-1860.183 -913.336)"/>
            <path id="패스_2140" d="M1805.084 882.919s-3.12 5.516-4.044 6.646c-1.171 1.44-.3-2.429.116-3.33a9.172 9.172 0 0 1 3.928-3.315" class="cls-1" data-name="패스 2140" transform="translate(-1792.901 -866.94)"/>
            <path id="패스_2141" d="M1857.847 968.273s.022-.052.015 0c-.1.517-.946 3.338-.96 3.884-.015.6-.182-.79-.182-.79z" class="cls-1" data-name="패스 2141" transform="translate(-1850.158 -945.375)"/>
            <path id="패스_2142" d="M1786.335 924.4a31.826 31.826 0 0 1-2.619 3.574 19.514 19.514 0 0 1-2.531 2.23c-1.411 1.2.218-2.282.785-3.094a8.9 8.9 0 0 1 4.364-2.71" class="cls-1" data-name="패스 2142" transform="translate(-1772.574 -905.07)"/>
            <path id="패스_2143" d="M1852.667 997.968s.022-.052.015 0c-.1.517-1 3.567-1 4.113 0 .133-.175-1-.175-1z" class="cls-1" data-name="패스 2143" transform="translate(-1844.565 -972.671)"/>
            <path id="패스_2144" d="M1781.058 962.5a35.97 35.97 0 0 1-2.931 4.032 21.071 21.071 0 0 1-2.822 2.525c-1.571 1.359.269-2.547.909-3.47a10.19 10.19 0 0 1 4.844-3.087" class="cls-1" data-name="패스 2144" transform="translate(-1766.824 -940.092)"/>
            <path id="패스_2145" d="M1766.8 1022.965a42.279 42.279 0 0 0-4.248 2.223c-2.1 1.314-2.459 1.447-3.033 1.558-1.826.347 1.433-3.168 2.313-3.611a7.867 7.867 0 0 1 4.968-.17" class="cls-1" data-name="패스 2145" transform="translate(-1751.312 -995.378)"/>
            <path id="패스_2146" d="M1854.447 1046.12a.452.452 0 0 1 .051-.1 9.351 9.351 0 0 0-.582 1.735c.015.067-.1-.51-.1-.51z" class="cls-1" data-name="패스 2146" transform="translate(-1846.562 -1016.857)"/>
            <path id="패스_2147" d="M1854.443 1070.457s.044-.059.044-.052c-.044.133-.517.679-.444.827.015.037-.138-.266-.138-.266z" class="cls-1" data-name="패스 2147" transform="translate(-1846.559 -1039.274)"/>
            <path id="패스_2148" d="M1909.916 712.968a22.729 22.729 0 0 0 1.455 4.091 8.383 8.383 0 0 0-1.455-4.091" class="cls-1" data-name="패스 2148" transform="translate(-1907.901 -710.723)"/>
            <path id="패스_2149" d="M1914.119 729.781a14.68 14.68 0 0 0 2.117 2.88 5.654 5.654 0 0 0-2.117-2.88" class="cls-1" data-name="패스 2149" transform="translate(-1913.101 -726.177)"/>
            <path id="패스_2150" d="M1905.055 697.07s-.218 3.965.371 5.206c.007 0 1.033-2.038-.371-5.206" class="cls-1" data-name="패스 2150" transform="translate(-1901.935 -696.11)"/>
            <path id="패스_2151" d="M1911.066 747.141s1.76 3.271 2.284 4.179c.124.214.2.3.255.3.138.007-.015-.753-.175-1.27-.211-.672-1.164-2.68-2.364-3.212" class="cls-1" data-name="패스 2151" transform="translate(-1910.28 -742.135)"/>
            <path id="패스_2152" d="M1899.716 801.831s-.015-.015 0 .015c.124.3.858 2.149.931 2.481.08.362-.044-.487-.044-.487z" class="cls-1" data-name="패스 2152" transform="translate(-1896.392 -792.401)"/>
            <path id="패스_2153" d="M1906.257 764.921s-.022-.007-.014 0a14.267 14.267 0 0 1 .618 1.861c.08.362-.022-.3-.022-.3z" class="cls-1" data-name="패스 2153" transform="translate(-1903.13 -758.475)"/>
            <path id="패스_2154" d="M1907.027 765.872a48.419 48.419 0 0 0 2.437 5.383c.858 1.181.189-1.285-.015-1.721s-1.244-2.961-2.422-3.662" class="cls-1" data-name="패스 2154" transform="translate(-1906.191 -759.352)"/>
            <path id="패스_2155" d="M1906.257 764.921s-.022-.007-.014 0a14.267 14.267 0 0 1 .618 1.861c.08.362-.022-.3-.022-.3z" class="cls-1" data-name="패스 2155" transform="translate(-1903.13 -758.475)"/>
            <path id="패스_2156" d="M1894.927 834.267s-.015-.015 0 .015c.131.34.946 2.4 1.033 2.769.094.4-.065-.532-.065-.532z" class="cls-1" data-name="패스 2156" transform="translate(-1891.327 -822.217)"/>
            <path id="패스_2157" d="M1904.158 794.015a63.214 63.214 0 0 0 3.455 5.833c1.062 1.211.044-1.713-.24-2.178s-1.935-3.087-3.215-3.655" class="cls-1" data-name="패스 2157" transform="translate(-1904.158 -785.221)"/>
            <path id="패스_2158" d="M1890.084 868.326s-.044-.081-.029-.044c.146.377 1.069 2.4 1.164 2.813.109.45-.044-.524-.044-.524z" class="cls-1" data-name="패스 2158" transform="translate(-1886.207 -853.476)"/>
            <path id="패스_2159" d="M1899.96 827.182s2.931 5 3.8 6.018c1.1 1.3-.131-1.942-.611-2.776a9.325 9.325 0 0 0-3.186-3.242" class="cls-1" data-name="패스 2159" transform="translate(-1899.939 -815.707)"/>
            <path id="패스_2160" d="M1884.6 903.975s-.051-.089-.036-.052c.16.406 1.128 2.562 1.237 3 .116.48-.058-.554-.058-.554z" class="cls-1" data-name="패스 2160" transform="translate(-1880.351 -886.239)"/>
            <path id="패스_2161" d="M1895.209 862.086s2.931 5 3.8 6.018c1.1 1.3-.131-1.942-.611-2.776a9.388 9.388 0 0 0-3.186-3.242" class="cls-1" data-name="패스 2161" transform="translate(-1894.809 -847.79)"/>
            <path id="패스_2162" d="M1879.588 938.879s-.051-.089-.037-.052c.16.406 1.149 2.636 1.259 3.072.116.48-.065-.65-.065-.65z" class="cls-1" data-name="패스 2162" transform="translate(-1874.961 -918.322)"/>
            <path id="패스_2163" d="M1892.865 894.706s3.317 5.08 4.182 6.1c1.1 1.3-.378-2.341-.858-3.182a9.33 9.33 0 0 0-3.324-2.917" class="cls-1" data-name="패스 2163" transform="translate(-1892.617 -877.774)"/>
            <path id="패스_2164" d="M1873.618 972.97s-.029-.044-.015 0c.189.487 1.4 3.138 1.535 3.655.153.569-.065-.768-.065-.768z" class="cls-1" data-name="패스 2164" transform="translate(-1868.831 -949.696)"/>
            <path id="패스_2165" d="M1889.3 935.732a38.827 38.827 0 0 0 2.539 3.249 19.477 19.477 0 0 0 2.16 1.972c1.193 1.056-.677-2.171-1.237-2.917a7.564 7.564 0 0 0-3.462-2.3" class="cls-1" data-name="패스 2165" transform="translate(-1889.274 -915.485)"/>
            <path id="패스_2166" d="M1869.5 1001.66s-.029-.044-.014 0c.189.487 1.491 3.352 1.615 3.877.029.126-.124-.967-.124-.967z" class="cls-1" data-name="패스 2166" transform="translate(-1864.418 -976.067)"/>
            <path id="패스_2167" d="M1876.433 972.737a46.474 46.474 0 0 0 2.851 3.67 24.048 24.048 0 0 0 2.415 2.237c1.331 1.2-.778-2.422-1.4-3.264a8.678 8.678 0 0 0-3.862-2.644" class="cls-1" data-name="패스 2167" transform="translate(-1875.997 -949.499)"/>
            <path id="패스_2168" d="M1868.647 1029.655a30.848 30.848 0 0 1 3.266 1.853c1.673 1.122 1.927 1.226 2.328 1.292 1.258.214-1.673-2.939-2.35-3.308a3.583 3.583 0 0 0-3.244.162" class="cls-1" data-name="패스 2168" transform="translate(-1867.796 -1001.381)"/>
            <path id="패스_2169" d="M1867.022 1047.544a.8.8 0 0 0-.058-.1 14.484 14.484 0 0 1 .786 1.625l-.058-.495z" class="cls-1" data-name="패스 2169" transform="translate(-1860.862 -1018.17)"/>
            <path id="패스_2170" d="M1864.633 1070.978s-.044-.059-.036-.044c.058.125.495.613.48.768 0 .037.022-.266.022-.266z" class="cls-1" data-name="패스 2170" transform="translate(-1858.021 -1039.759)"/>
            <path id="패스_2171" d="M1837.733 800.045s1.033 2.437 1.709 2.85a3.834 3.834 0 0 0-1.709-2.85" class="cls-1" data-name="패스 2171" transform="translate(-1830.227 -790.763)"/>
            <path id="패스_2172" d="M1842.667 820.147s1.767 1.477 2.517 1.506a3.026 3.026 0 0 0-2.517-1.506" class="cls-1" data-name="패스 2172" transform="translate(-1836.361 -809.241)"/>
            <path id="패스_2173" d="M1831.57 780.126s-.3 3.507.4 4.312a4.045 4.045 0 0 0-.4-4.312" class="cls-1" data-name="패스 2173" transform="translate(-1822.71 -772.454)"/>
            <path id="패스_2174" d="M1839.445 836.361s2.08 2.008 2.706 2.547c.146.126.24.17.3.148.167-.059-.007-.642-.2-1.012a3.366 3.366 0 0 0-2.808-1.683" class="cls-1" data-name="패스 2174" transform="translate(-1833.437 -824.141)"/>
            <path id="패스_2175" d="M1826.007 869.1s-.014-.007 0 .007a18.8 18.8 0 0 1 1.1 1.706c.094.273-.051-.4-.051-.4z" class="cls-1" data-name="패스 2175" transform="translate(-1816.988 -854.237)"/>
            <path id="패스_2176" d="M1833.635 838.512s-.029 0-.022.007a6.23 6.23 0 0 1 .727 1.322c.094.273-.022-.251-.022-.251z" class="cls-1" data-name="패스 2176" transform="translate(-1824.834 -826.122)"/>
            <path id="패스_2177" d="M1834.994 852.31a21.674 21.674 0 0 0 2.873 3.515c1.018.62.233-1.189 0-1.469s-1.448-1.986-2.873-2.045" class="cls-1" data-name="패스 2177" transform="translate(-1828.943 -838.805)"/>
            <path id="패스_2178" d="M1833.635 838.512s-.029 0-.022.007a6.23 6.23 0 0 1 .727 1.322c.094.273-.022-.251-.022-.251z" class="cls-1" data-name="패스 2178" transform="translate(-1824.834 -826.122)"/>
            <path id="패스_2179" d="M1820.58 895.416s-.014-.007 0 .007c.16.229 1.113 1.632 1.222 1.905.109.3-.073-.428-.073-.428z" class="cls-1" data-name="패스 2179" transform="translate(-1811.255 -878.425)"/>
            <path id="패스_2180" d="M1831.685 881.132a30.067 30.067 0 0 0 4.1 3.434c1.266.554.073-1.492-.269-1.765s-2.3-1.765-3.833-1.669" class="cls-1" data-name="패스 2180" transform="translate(-1826.659 -865.294)"/>
            <path id="패스_2181" d="M1815.195 923.315s-.051-.052-.036-.022c.175.258 1.258 1.573 1.375 1.883.124.34-.051-.428-.051-.428z" class="cls-1" data-name="패스 2181" transform="translate(-1805.565 -904.042)"/>
            <path id="패스_2182" d="M1827.025 909.483a43.912 43.912 0 0 0 4.51 3.441c1.309.613-.138-1.61-.706-2.112a6.337 6.337 0 0 0-3.8-1.329" class="cls-1" data-name="패스 2182" transform="translate(-1821.999 -891.355)"/>
            <path id="패스_2183" d="M1808.921 951.871s-.058-.052-.036-.03a24.675 24.675 0 0 1 1.455 2.016c.138.354-.058-.45-.058-.45z" class="cls-1" data-name="패스 2183" transform="translate(-1798.876 -930.287)"/>
            <path id="패스_2184" d="M1821.634 937.443a43.937 43.937 0 0 0 4.51 3.441c1.309.613-.138-1.61-.705-2.112a6.338 6.338 0 0 0-3.8-1.329" class="cls-1" data-name="패스 2184" transform="translate(-1816.178 -917.055)"/>
            <path id="패스_2185" d="M1803.193 979.739s-.058-.052-.036-.029c.189.273 1.36 1.743 1.484 2.068.138.354-.073-.532-.073-.532z" class="cls-1" data-name="패스 2185" transform="translate(-1792.719 -955.904)"/>
            <path id="패스_2186" d="M1819.234 966.392s3.942 2.85 4.968 3.33c1.309.613-.436-1.839-1-2.341a7.046 7.046 0 0 0-3.964-.99" class="cls-1" data-name="패스 2186" transform="translate(-1813.99 -943.664)"/>
            <path id="패스_2187" d="M1796.493 1008.04s-.036-.029-.014 0c.218.332 1.651 2.053 1.811 2.444.175.421-.073-.628-.073-.628z" class="cls-1" data-name="패스 2187" transform="translate(-1785.852 -981.937)"/>
            <path id="패스_2188" d="M1815.215 1001.483a22.084 22.084 0 0 0 3.019 1.632 14.2 14.2 0 0 0 2.582.7c1.426.362-.793-1.558-1.462-1.942a7.3 7.3 0 0 0-4.139-.391" class="cls-1" data-name="패스 2188" transform="translate(-1810.276 -975.802)"/>
            <path id="패스_2189" d="M1791.823 1031.065s-.036-.03-.014 0c.218.332 1.76 2.2 1.906 2.592.036.1-.138-.775-.138-.775z" class="cls-1" data-name="패스 2189" transform="translate(-1780.847 -1003.102)"/>
            <path id="패스_2190" d="M1800.128 1030.989a25.6 25.6 0 0 0 3.389 1.853 16.152 16.152 0 0 0 2.888.812c1.593.421-.909-1.728-1.658-2.164a8.224 8.224 0 0 0-4.619-.5" class="cls-1" data-name="패스 2190" transform="translate(-1794.716 -1002.93)"/>
            <path id="패스_2191" d="M1790.989 1065.1a35.626 35.626 0 0 1 3.913.1 7.225 7.225 0 0 0 2.786.044c1.513-.4-1.986-1.765-2.786-1.772a7.366 7.366 0 0 0-3.913 1.632" class="cls-1" data-name="패스 2191" transform="translate(-1785.126 -1032.898)"/>
            <path id="패스_2192" d="M1789 1064.694s-.08-.074-.066-.059c.124.17.887.8.931 1.034.007.052-.066-.4-.066-.4z" class="cls-1" data-name="패스 2192" transform="translate(-1776.767 -1033.969)"/>
            <path id="패스_2193" d="M1786.152 1082.117s-.051-.03-.044-.022c.065.081.582.3.575.436 0 .03.036-.236.036-.236z" class="cls-1" data-name="패스 2193" transform="translate(-1773.394 -1050.018)"/>
            <path id="패스_2194" d="M1834.674 800.5a17.124 17.124 0 0 1-.007 3.434 6.339 6.339 0 0 1 .007-3.434" class="cls-1" data-name="패스 2194" transform="translate(-1825.291 -791.183)"/>
            <path id="패스_2195" d="M1822.144 808.177a12.361 12.361 0 0 1-.858 2.806 4.849 4.849 0 0 1 .858-2.806" class="cls-1" data-name="패스 2195" transform="translate(-1811.619 -798.238)"/>
            <path id="패스_2196" d="M1836.473 793.923s1.258 2.762 1.142 3.862c-.007 0-1.36-1.1-1.142-3.862" class="cls-1" data-name="패스 2196" transform="translate(-1828.305 -785.136)"/>
            <path id="패스_2197" d="M1815.017 819.6s-.473 2.961-.625 3.8c-.036.2-.073.288-.109.31-.109.059-.2-.546-.211-.967a5.03 5.03 0 0 1 .946-3.138" class="cls-1" data-name="패스 2197" transform="translate(-1803.917 -808.737)"/>
            <path id="패스_2198" d="M1823.759 869.8s.007-.015 0 .007c-.015.258-.08 1.839-.044 2.1.036.288-.094-.362-.094-.362z" class="cls-1" data-name="패스 2198" transform="translate(-1813.423 -854.875)"/>
            <path id="패스_2199" d="M1831.351 842.425s.015-.015.015-.007a11.018 11.018 0 0 0 .029 1.551c.036.288-.065-.221-.065-.221z" class="cls-1" data-name="패스 2199" transform="translate(-1821.677 -829.71)"/>
            <path id="패스_2200" d="M1810.285 833.213a38.63 38.63 0 0 1-.415 4.711c-.342 1.145-.495-.856-.458-1.233s.146-2.555.873-3.478" class="cls-1" data-name="패스 2200" transform="translate(-1798.814 -821.251)"/>
            <path id="패스_2201" d="M1831.351 842.425s.015-.015.015-.007a11.018 11.018 0 0 0 .029 1.551c.036.288-.065-.221-.065-.221z" class="cls-1" data-name="패스 2201" transform="translate(-1821.677 -829.71)"/>
            <path id="패스_2202" d="M1817.454 894.194s.007-.015 0 .007c-.015.288-.08 2.053-.044 2.348.036.318-.094-.406-.094-.406z" class="cls-1" data-name="패스 2202" transform="translate(-1806.617 -877.299)"/>
            <path id="패스_2203" d="M1794.958 849.66a53.235 53.235 0 0 1-1.084 5.4c-.495 1.241-.5-1.211-.414-1.639s.662-2.895 1.5-3.758" class="cls-1" data-name="패스 2203" transform="translate(-1782.214 -836.369)"/>
            <path id="패스_2204" d="M1810.462 919.615s.015-.074.015-.044c-.015.325-.175 2.1-.138 2.422.036.362-.109-.391-.109-.391z" class="cls-1" data-name="패스 2204" transform="translate(-1799.072 -900.623)"/>
            <path id="패스_2205" d="M1786.064 873.508s-.909 4.615-1.3 5.649c-.494 1.314-.429-1.432-.291-2.208a8.348 8.348 0 0 1 1.593-3.441" class="cls-1" data-name="패스 2205" transform="translate(-1772.601 -858.289)"/>
            <path id="패스_2206" d="M1804.067 946.766s.015-.081.015-.052c-.015.347-.175 2.23-.138 2.584.036.384-.109-.413-.109-.413z" class="cls-1" data-name="패스 2206" transform="translate(-1792.167 -925.574)"/>
            <path id="패스_2207" d="M1780.034 900.188s-.909 4.615-1.3 5.649c-.495 1.314-.429-1.432-.291-2.208a8.264 8.264 0 0 1 1.593-3.441" class="cls-1" data-name="패스 2207" transform="translate(-1766.09 -882.813)"/>
            <path id="패스_2208" d="M1798.057 973.355s.015-.081.015-.052c-.015.347-.175 2.3-.138 2.643.036.384-.131-.487-.131-.487z" class="cls-1" data-name="패스 2208" transform="translate(-1785.677 -950.014)"/>
            <path id="패스_2209" d="M1769.663 922.848s-1.186 4.807-1.579 5.841c-.494 1.314-.349-1.809-.2-2.584a8.4 8.4 0 0 1 1.782-3.256" class="cls-1" data-name="패스 2209" transform="translate(-1754.875 -903.642)"/>
            <path id="패스_2210" d="M1790.47 998.527s.007-.044.007-.008c-.015.414-.225 2.74-.189 3.16.036.458-.16-.576-.16-.576z" class="cls-1" data-name="패스 2210" transform="translate(-1777.472 -973.185)"/>
            <path id="패스_2211" d="M1756.647 951.265a33.412 33.412 0 0 1-1.084 3.219 17.256 17.256 0 0 1-1.142 2.171c-.64 1.182-.066-1.794.16-2.525a7.273 7.273 0 0 1 2.066-2.865" class="cls-1" data-name="패스 2211" transform="translate(-1740.776 -929.763)"/>
            <path id="패스_2212" d="M1785.367 1020.456s.007-.044.007-.007c-.015.413-.24 2.924-.2 3.338.014.1-.167-.738-.167-.738z" class="cls-1" data-name="패스 2212" transform="translate(-1771.962 -993.342)"/>
            <path id="패스_2213" d="M1750.706 979.5s-.538 1.957-1.208 3.633a20.083 20.083 0 0 1-1.266 2.451c-.706 1.329-.058-2.008.2-2.828a8.28 8.28 0 0 1 2.277-3.256" class="cls-1" data-name="패스 2213" transform="translate(-1734.341 -955.714)"/>
            <path id="패스_2214" d="M1738.372 1025.8a31.466 31.466 0 0 0-2.037 2.481c-.989 1.4-1.164 1.558-1.455 1.75-.924.6.495-2.695.917-3.2a3.358 3.358 0 0 1 2.575-1.034" class="cls-1" data-name="패스 2214" transform="translate(-1720.944 -998.266)"/>
            <path id="패스_2215" d="M1782.682 1057.859a.712.712 0 0 0 .015-.089 10.648 10.648 0 0 0-.167 1.44c.015.052-.095-.377-.095-.377z" class="cls-1" data-name="패스 2215" transform="translate(-1769.08 -1027.658)"/>
            <path id="패스_2216" d="M1780.671 1076.662s.022-.052.014-.044c-.014.111-.211.613-.167.716a4.527 4.527 0 0 0-.094-.177z" class="cls-1" data-name="패스 2216" transform="translate(-1766.91 -1044.985)"/>
            <path id="패스_2217" d="M1706.4 889.772l-6.4 15.772-.327-.3z" class="cls-1" data-name="패스 2217" transform="translate(-1686.192 -873.239)"/>
            <path id="패스_2218" d="M1677.209 865.924s-1.266 1.735-1.935 1.92a2.722 2.722 0 0 1 1.935-1.92" class="cls-1" data-name="패스 2218" transform="translate(-1655.06 -851.318)"/>
            <path id="패스_2219" d="M1666.453 884.867a6.911 6.911 0 0 1-2.509.65 2.6 2.6 0 0 1 2.509-.65" class="cls-1" data-name="패스 2219" transform="translate(-1643.403 -868.674)"/>
            <path id="패스_2220" d="M1689.472 846.005s-.175 2.909-.917 3.4a2.892 2.892 0 0 1 .917-3.4" class="cls-1" data-name="패스 2220" transform="translate(-1668.364 -833.009)"/>
            <path id="패스_2221" d="M1665.735 898.391s-2.175 1.159-2.822 1.455c-.153.066-.247.081-.291.052-.153-.081.087-.517.306-.775a2.963 2.963 0 0 1 2.807-.731" class="cls-1" data-name="패스 2221" transform="translate(-1642.576 -881.061)"/>
            <path id="패스_2222" d="M1702.867 917.619s.015-.007 0 .007a13.81 13.81 0 0 0-1.229 1.13c-.124.2.094-.31.094-.31z" class="cls-1" data-name="패스 2222" transform="translate(-1682.821 -898.834)"/>
            <path id="패스_2223" d="M1695.862 893.427s.029.007.022.015a4.7 4.7 0 0 0-.844.9c-.124.2.051-.2.051-.2z" class="cls-1" data-name="패스 2223" transform="translate(-1675.306 -876.599)"/>
            <path id="패스_2224" d="M1668.781 911.783a16.347 16.347 0 0 1-3.1 2.2c-1.018.273-.065-1.019.189-1.189s1.593-1.277 2.91-1.012" class="cls-1" data-name="패스 2224" transform="translate(-1645.833 -893.433)"/>
            <path id="패스_2225" d="M1695.862 893.427s.029.007.022.015a4.7 4.7 0 0 0-.844.9c-.124.2.051-.2.051-.2z" class="cls-1" data-name="패스 2225" transform="translate(-1675.306 -876.599)"/>
            <path id="패스_2226" d="M1710.042 938.086s.015-.007 0 .007a17.235 17.235 0 0 0-1.367 1.27c-.138.222.124-.332.124-.332z" class="cls-1" data-name="패스 2226" transform="translate(-1690.556 -917.647)"/>
            <path id="패스_2227" d="M1661.728 937.146a24.993 24.993 0 0 1-4.219 1.853c-1.237.162.124-1.226.473-1.366a6.753 6.753 0 0 1 3.746-.487" class="cls-1" data-name="패스 2227" transform="translate(-1638.125 -916.67)"/>
            <path id="패스_2228" d="M1716.846 959.913s.058-.03.036-.015a15.179 15.179 0 0 0-1.506 1.218c-.16.244.1-.332.1-.332z" class="cls-1" data-name="패스 2228" transform="translate(-1697.927 -937.694)"/>
            <path id="패스_2229" d="M1665.736 959.478a36.319 36.319 0 0 1-4.6 1.765c-1.287.2.335-1.27.924-1.551a6.136 6.136 0 0 1 3.673-.214" class="cls-1" data-name="패스 2229" transform="translate(-1642.424 -937.141)"/>
            <path id="패스_2230" d="M1725.372 981.933s.058-.03.044-.015c-.2.185-1.44 1.071-1.6 1.307-.167.258.116-.354.116-.354z" class="cls-1" data-name="패스 2230" transform="translate(-1707.13 -957.935)"/>
            <path id="패스_2231" d="M1674.325 980.877a36.319 36.319 0 0 1-4.6 1.765c-1.287.2.334-1.27.924-1.551a6.2 6.2 0 0 1 3.673-.214" class="cls-1" data-name="패스 2231" transform="translate(-1651.697 -956.813)"/>
            <path id="패스_2232" d="M1733.989 1003.314s.058-.029.044-.015a20.494 20.494 0 0 0-1.629 1.337c-.167.258.131-.414.131-.414z" class="cls-1" data-name="패스 2232" transform="translate(-1716.43 -977.588)"/>
            <path id="패스_2233" d="M1675.962 1003.561s-3.993 1.418-5 1.58c-1.287.2.633-1.4 1.222-1.669a7.084 7.084 0 0 1 3.782.089" class="cls-1" data-name="패스 2233" transform="translate(-1653.436 -977.555)"/>
            <path id="패스_2234" d="M1740.266 1025.677s.036-.015.015.007c-.247.222-1.782 1.292-1.979 1.565-.218.3.146-.495.146-.495z" class="cls-1" data-name="패스 2234" transform="translate(-1723.151 -998.157)"/>
            <path id="패스_2235" d="M1677.6 1029.785a20.622 20.622 0 0 1-3 .642 14.51 14.51 0 0 1-2.473-.015c-1.36-.03.931-1.078 1.593-1.24a7.789 7.789 0 0 1 3.877.613" class="cls-1" data-name="패스 2235" transform="translate(-1655.173 -1001.32)"/>
            <path id="패스_2236" d="M1747.163 1043.4s.036-.015.014.007a25.692 25.692 0 0 0-2.087 1.669c-.044.067.225-.6.225-.6z" class="cls-1" data-name="패스 2236" transform="translate(-1730.594 -1014.451)"/>
            <path id="패스_2237" d="M1687.626 1051.882a23.355 23.355 0 0 1-3.36.731 16.139 16.139 0 0 1-2.764.007c-1.52-.015 1.062-1.2 1.8-1.381a8.721 8.721 0 0 1 4.32.642" class="cls-1" data-name="패스 2237" transform="translate(-1665.936 -1021.593)"/>
            <path id="패스_2238" d="M1699.326 1074.651s-2.029-.561-3.622-.8a8.016 8.016 0 0 1-2.575-.591c-1.345-.665 2.059-.975 2.8-.8a8.229 8.229 0 0 1 3.4 2.2" class="cls-1" data-name="패스 2238" transform="translate(-1678.575 -1041.112)"/>
            <path id="패스_2239" d="M1764.36 1067.21s.08-.044.073-.029c-.131.111-.924.45-.989.628l.109-.31z" class="cls-1" data-name="패스 2239" transform="translate(-1749.303 -1036.308)"/>
            <path id="패스_2240" d="M1772.657 1079.808s.051-.015.044-.007c-.073.052-.582.111-.582.229v-.2z" class="cls-1" data-name="패스 2240" transform="translate(-1758.263 -1047.909)"/>
            <path id="패스_2241" d="M1696.9 861.081a12.321 12.321 0 0 0-.429 2.784 4.467 4.467 0 0 0 .429-2.784" class="cls-1" data-name="패스 2241" transform="translate(-1676.493 -846.867)"/>
            <path id="패스_2242" d="M1705.249 864.1a10 10 0 0 0 .429 2.466 3.645 3.645 0 0 0-.429-2.466" class="cls-1" data-name="패스 2242" transform="translate(-1685.974 -849.638)"/>
            <path id="패스_2243" d="M1683.669 859.071s-1.513 1.957-1.542 2.872c0 0 1.4-.576 1.542-2.872" class="cls-1" data-name="패스 2243" transform="translate(-1662.066 -845.019)"/>
            <path id="패스_2244" d="M1712.664 871.772s.058 2.5.094 3.219c.007.17.029.251.065.273.094.074.247-.4.32-.738a4.084 4.084 0 0 0-.48-2.754" class="cls-1" data-name="패스 2244" transform="translate(-1694.029 -856.694)"/>
            <path id="패스_2245" d="M1717.279 914.459c-.029.222-.167 1.514-.233 1.721s.138-.273.138-.273z" class="cls-1" data-name="패스 2245" transform="translate(-1698.455 -895.925)"/>
            <path id="패스_2246" d="M1706.143 894.142s-.014-.015-.014-.007a7.39 7.39 0 0 1-.226 1.248c-.073.222.087-.162.087-.162z" class="cls-1" data-name="패스 2246" transform="translate(-1686.432 -877.247)"/>
            <path id="패스_2247" d="M1720.736 881.731a28.708 28.708 0 0 0-.218 3.914c.167 1 .567-.583.582-.9a6.171 6.171 0 0 0-.364-3.013" class="cls-1" data-name="패스 2247" transform="translate(-1702.589 -865.848)"/>
            <path id="패스_2248" d="M1706.143 894.142s-.014-.015-.014-.007a7.39 7.39 0 0 1-.226 1.248c-.073.222.087-.162.087-.162z" class="cls-1" data-name="패스 2248" transform="translate(-1686.432 -877.247)"/>
            <path id="패스_2249" d="M1726.354 932.824c-.029.244-.2 1.684-.262 1.92s.138-.31.138-.31z" class="cls-1" data-name="패스 2249" transform="translate(-1708.25 -912.806)"/>
            <path id="패스_2250" d="M1731.079 891.508a40.435 40.435 0 0 0 .313 4.615c.3 1.115.618-.864.589-1.241a8.283 8.283 0 0 0-.9-3.375" class="cls-1" data-name="패스 2250" transform="translate(-1714.277 -874.835)"/>
            <path id="패스_2251" d="M1736.059 951.855s0-.066-.007-.037c-.029.266-.109 1.735-.182 1.994-.08.281.153-.288.153-.288z" class="cls-1" data-name="패스 2251" transform="translate(-1718.733 -930.264)"/>
            <path id="패스_2252" d="M1740.84 908.777s.247 3.943.48 4.866c.291 1.181.582-1.063.545-1.721a7.214 7.214 0 0 0-1.025-3.146" class="cls-1" data-name="패스 2252" transform="translate(-1724.94 -890.708)"/>
            <path id="패스_2253" d="M1745.4 972.456s0-.066-.007-.044c-.029.281-.124 1.846-.2 2.119-.087.3.153-.31.153-.31z" class="cls-1" data-name="패스 2253" transform="translate(-1728.819 -949.196)"/>
            <path id="패스_2254" d="M1749.886 929.061s.247 3.943.48 4.866c.291 1.182.582-1.063.545-1.72a7.186 7.186 0 0 0-1.026-3.146" class="cls-1" data-name="패스 2254" transform="translate(-1734.706 -909.353)"/>
            <path id="패스_2255" d="M1754.455 992.649s0-.067-.007-.044c-.029.281-.131 1.9-.211 2.171-.087.3.182-.369.182-.369z" class="cls-1" data-name="패스 2255" transform="translate(-1738.591 -967.757)"/>
            <path id="패스_2256" d="M1760.024 945.051s.48 4.157.713 5.088c.291 1.181.553-1.388.516-2.045a7.538 7.538 0 0 0-1.229-3.042" class="cls-1" data-name="패스 2256" transform="translate(-1745.855 -924.051)"/>
            <path id="패스_2257" d="M1764.885 1011.383c-.051.332-.146 2.259-.233 2.592-.095.362.218-.428.218-.428z" class="cls-1" data-name="패스 2257" transform="translate(-1749.851 -985.007)"/>
            <path id="패스_2258" d="M1770.893 964.97a27.149 27.149 0 0 0 .589 2.85 15.4 15.4 0 0 0 .778 2.016c.437 1.1.291-1.44.175-2.082a6.79 6.79 0 0 0-1.542-2.784" class="cls-1" data-name="패스 2258" transform="translate(-1758.018 -942.36)"/>
            <path id="패스_2259" d="M1772.384 1027.921c-.051.332-.16 2.415-.254 2.747-.022.074.247-.561.247-.561z" class="cls-1" data-name="패스 2259" transform="translate(-1757.946 -1000.209)"/>
            <path id="패스_2260" d="M1778.124 986.534a30.213 30.213 0 0 0 .655 3.212 17.229 17.229 0 0 0 .858 2.274c.487 1.24.313-1.61.182-2.333a7.553 7.553 0 0 0-1.695-3.153" class="cls-1" data-name="패스 2260" transform="translate(-1765.999 -962.181)"/>
            <path id="패스_2261" d="M1781.942 1021.164s.931 1.314 1.557 2.466c.735 1.351.873 1.529 1.12 1.743.778.694-.116-2.3-.436-2.791a3.705 3.705 0 0 0-2.24-1.418" class="cls-1" data-name="패스 2261" transform="translate(-1771.271 -994.013)"/>
            <path id="패스_2262" d="M1778.195 1057.6a.257.257 0 0 0-.007-.074 8.259 8.259 0 0 1-.029 1.2c-.015.037.131-.281.131-.281z" class="cls-1" data-name="패스 2262" transform="translate(-1764.332 -1027.44)"/>
            <path id="패스_2263" d="M1781.646 1072.43s-.007-.052-.015-.037c0 .089.116.547.058.62-.015.015.109-.125.109-.125z" class="cls-1" data-name="패스 2263" transform="translate(-1768.117 -1041.099)"/>
        </g>
        <g id="Leaves-2" data-name="Leaves" transform="translate(58.749 71.964)">
            <path id="패스_2123-2" d="M1785.844 835.314l-4.1 20.624-.393-.251z" class="cls-1" data-name="패스 2123" transform="translate(-1770.388 -811.951)"/>
            <path id="패스_2124-2" d="M1862.74 753.354l-4.175 26.752.538-.089z" class="cls-1" data-name="패스 2124" transform="translate(-1840.456 -736.615)"/>
            <path id="패스_2125-2" d="M1902.606 699.994s.109 3.456.669 4.312a5.583 5.583 0 0 0-.669-4.312" class="cls-1" data-name="패스 2125" transform="translate(-1880.99 -698.798)"/>
            <path id="패스_2126-2" d="M1877.479 715.8s1.324 2.71 2.124 3.146a4.328 4.328 0 0 0-2.124-3.146" class="cls-1" data-name="패스 2126" transform="translate(-1858.242 -713.327)"/>
            <path id="패스_2127-2" d="M1913.016 685.191s-1.8 4.017-1.375 5.346a5.272 5.272 0 0 0 1.375-5.346" class="cls-1" data-name="패스 2127" transform="translate(-1889.247 -685.191)"/>
            <path id="패스_2128-2" d="M1866.423 733.253s1.44 3.515 1.891 4.5c.109.229.2.332.262.34.211.022.262-.775.211-1.307-.065-.724-.756-2.865-2.364-3.53" class="cls-1" data-name="패스 2128" transform="translate(-1848.13 -729.369)"/>
            <path id="패스_2129-2" d="M1893.818 792.237s-.015-.015-.007.015c.073.325.495 2.282.487 2.621-.015.377.109-.5.109-.5z" class="cls-1" data-name="패스 2129" transform="translate(-1873.267 -780.429)"/>
            <path id="패스_2130-2" d="M1903.721 754.285s-.036-.015-.029 0a9.186 9.186 0 0 1 .247 1.964c-.007.377.08-.31.08-.31z" class="cls-1" data-name="패스 2130" transform="translate(-1881.989 -746.701)"/>
            <path id="패스_2131-2" d="M1860.3 752.349s1 4.726 1.673 5.737c.851 1.292.757-1.292.618-1.75s-.757-3.146-2.291-3.987" class="cls-1" data-name="패스 2131" transform="translate(-1842.543 -744.7)"/>
            <path id="패스_2132-2" d="M1903.721 754.285s-.036-.015-.029 0a9.186 9.186 0 0 1 .247 1.964c-.007.377.08-.31.08-.31z" class="cls-1" data-name="패스 2132" transform="translate(-1881.989 -746.701)"/>
            <path id="패스_2133-2" d="M1886.874 825.554s-.014-.022-.007.015c.073.362.538 2.54.531 2.924 0 .421.1-.554.1-.554z" class="cls-1" data-name="패스 2133" transform="translate(-1866.922 -810.026)"/>
            <path id="패스_2134-2" d="M1833.8 779.943s2.138 5.25 3.047 6.3c1.157 1.337.706-1.735.451-2.245s-1.775-3.338-3.5-4.054" class="cls-1" data-name="패스 2134" transform="translate(-1818.262 -769.089)"/>
            <path id="패스_2135-2" d="M1878.685 860.573s-.036-.089-.029-.052c.087.4.72 2.555.713 2.983-.007.465.131-.539.131-.539z" class="cls-1" data-name="패스 2135" transform="translate(-1859.41 -841.114)"/>
            <path id="패스_2136-2" d="M1821.743 813.751a63.545 63.545 0 0 0 3.491 6.52c1.171 1.433.524-1.994.109-2.895a8.584 8.584 0 0 0-3.6-3.626" class="cls-1" data-name="패스 2136" transform="translate(-1807.237 -798.987)"/>
            <path id="패스_2137-2" d="M1872.289 897.366s-.036-.1-.029-.052c.087.428.749 2.725.749 3.183 0 .495.124-.569.124-.569z" class="cls-1" data-name="패스 2137" transform="translate(-1853.567 -873.789)"/>
            <path id="패스_2138-2" d="M1815.712 849.843a63.532 63.532 0 0 0 3.491 6.527c1.171 1.44.524-1.994.109-2.895a8.474 8.474 0 0 0-3.6-3.633" class="cls-1" data-name="패스 2138" transform="translate(-1801.737 -830.932)"/>
            <path id="패스_2139-2" d="M1866.258 933.457s-.036-.1-.029-.052c.087.428.756 2.806.756 3.256 0 .495.146-.672.146-.672z" class="cls-1" data-name="패스 2139" transform="translate(-1848.057 -905.863)"/>
            <path id="패스_2140-2" d="M1800.453 882.919s3.12 5.516 4.044 6.646c1.171 1.44.3-2.429-.116-3.33a9.173 9.173 0 0 0-3.928-3.316" class="cls-1" data-name="패스 2140" transform="translate(-1787.791 -860.187)"/>
            <path id="패스_2141-2" d="M1856.735 968.273s-.022-.052-.015 0c.1.517.946 3.338.96 3.884.015.6.182-.79.182-.79z" class="cls-1" data-name="패스 2141" transform="translate(-1839.36 -936.66)"/>
            <path id="패스_2142-2" d="M1780.625 924.4a31.826 31.826 0 0 0 2.619 3.574 19.5 19.5 0 0 0 2.531 2.23c1.411 1.2-.218-2.282-.786-3.094a8.9 8.9 0 0 0-4.364-2.71" class="cls-1" data-name="패스 2142" transform="translate(-1769.649 -897.172)"/>
            <path id="패스_2143-2" d="M1851.527 997.968s-.022-.052-.014 0c.1.517 1 3.567 1 4.113 0 .133.175-1 .175-1z" class="cls-1" data-name="패스 2143" transform="translate(-1834.602 -961.439)"/>
            <path id="패스_2144-2" d="M1774.686 962.5a35.97 35.97 0 0 0 2.931 4.032 21.071 21.071 0 0 0 2.822 2.525c1.571 1.359-.269-2.547-.909-3.47a10.19 10.19 0 0 0-4.844-3.087" class="cls-1" data-name="패스 2144" transform="translate(-1764.195 -928.861)"/>
            <path id="패스_2145-2" d="M1758.97 1022.965a42.269 42.269 0 0 1 4.248 2.223c2.1 1.314 2.459 1.447 3.033 1.558 1.826.347-1.433-3.168-2.313-3.611a7.867 7.867 0 0 0-4.968-.17" class="cls-1" data-name="패스 2145" transform="translate(-1749.791 -984.147)"/>
            <path id="패스_2146-2" d="M1853.865 1046.12a.452.452 0 0 0-.051-.1 9.369 9.369 0 0 1 .582 1.735c-.015.067.1-.51.1-.51z" class="cls-1" data-name="패스 2146" transform="translate(-1836.736 -1005.626)"/>
            <path id="패스_2147-2" d="M1853.949 1070.457s-.044-.059-.044-.052c.044.133.516.679.444.827-.015.037.138-.266.138-.266z" class="cls-1" data-name="패스 2147" transform="translate(-1836.825 -1028.043)"/>
            <path id="패스_2148-2" d="M1911.371 712.968a22.729 22.729 0 0 1-1.455 4.091 8.381 8.381 0 0 1 1.455-4.091" class="cls-1" data-name="패스 2148" transform="translate(-1887.719 -710.723)"/>
            <path id="패스_2149-2" d="M1916.236 729.781a14.68 14.68 0 0 1-2.117 2.88 5.653 5.653 0 0 1 2.117-2.88" class="cls-1" data-name="패스 2149" transform="translate(-1891.587 -726.177)"/>
            <path id="패스_2150-2" d="M1905.755 697.07s.218 3.965-.371 5.206c-.007 0-1.033-2.038.371-5.206" class="cls-1" data-name="패스 2150" transform="translate(-1883.209 -696.11)"/>
            <path id="패스_2151-2" d="M1913.658 747.141s-1.76 3.271-2.284 4.179c-.124.214-.2.3-.255.3-.138.007.015-.753.175-1.27.211-.672 1.164-2.68 2.364-3.212" class="cls-1" data-name="패스 2151" transform="translate(-1888.777 -742.135)"/>
            <path id="패스_2152-2" d="M1900.667 801.831s.015-.015 0 .015c-.124.3-.858 2.149-.931 2.481-.08.362.044-.487.044-.487z" class="cls-1" data-name="패스 2152" transform="translate(-1878.325 -788.981)"/>
            <path id="패스_2153-2" d="M1906.876 764.921s.022-.007.014 0a14.3 14.3 0 0 0-.618 1.861c-.08.362.022-.3.022-.3z" class="cls-1" data-name="패스 2153" transform="translate(-1884.337 -756.183)"/>
            <path id="패스_2154-2" d="M1909.89 765.872a48.43 48.43 0 0 1-2.437 5.383c-.858 1.181-.189-1.285.015-1.721s1.244-2.961 2.422-3.662" class="cls-1" data-name="패스 2154" transform="translate(-1885.06 -756.721)"/>
            <path id="패스_2155-2" d="M1906.876 764.921s.022-.007.014 0a14.3 14.3 0 0 0-.618 1.861c-.08.362.022-.3.022-.3z" class="cls-1" data-name="패스 2155" transform="translate(-1884.337 -756.183)"/>
            <path id="패스_2156-2" d="M1895.984 834.267s.015-.015 0 .015c-.131.34-.946 2.4-1.033 2.769-.094.4.065-.532.065-.532z" class="cls-1" data-name="패스 2156" transform="translate(-1873.917 -817.802)"/>
            <path id="패스_2157-2" d="M1908.086 794.015a63.248 63.248 0 0 1-3.455 5.833c-1.062 1.211-.044-1.713.24-2.178s1.935-3.087 3.215-3.655" class="cls-1" data-name="패스 2157" transform="translate(-1882.42 -781.617)"/>
            <path id="패스_2158-2" d="M1891.226 868.326s.044-.081.029-.044c-.146.377-1.069 2.4-1.164 2.813-.109.45.044-.524.044-.524z" class="cls-1" data-name="패스 2158" transform="translate(-1869.79 -848.045)"/>
            <path id="패스_2159-2" d="M1904.2 827.182s-2.931 5-3.8 6.018c-1.1 1.3.131-1.942.611-2.776a9.323 9.323 0 0 1 3.186-3.242" class="cls-1" data-name="패스 2159" transform="translate(-1878.556 -810.972)"/>
            <path id="패스_2160-2" d="M1885.8 903.975s.051-.089.036-.052c-.16.406-1.127 2.562-1.236 3-.116.48.058-.554.058-.554z" class="cls-1" data-name="패스 2160" transform="translate(-1864.771 -879.709)"/>
            <path id="패스_2161-2" d="M1899.449 862.086s-2.931 5-3.8 6.018c-1.1 1.3.131-1.942.611-2.776a9.388 9.388 0 0 1 3.186-3.242" class="cls-1" data-name="패스 2161" transform="translate(-1874.183 -841.891)"/>
            <path id="패스_2162-2" d="M1880.81 938.879s.051-.089.036-.052c-.16.406-1.149 2.636-1.259 3.072-.116.48.066-.65.066-.65z" class="cls-1" data-name="패스 2162" transform="translate(-1860.193 -910.734)"/>
            <path id="패스_2163-2" d="M1897.444 894.706s-3.317 5.08-4.182 6.1c-1.1 1.3.378-2.341.858-3.183a9.33 9.33 0 0 1 3.324-2.917" class="cls-1" data-name="패스 2163" transform="translate(-1872.024 -870.773)"/>
            <path id="패스_2164-2" d="M1875.173 972.97s.029-.044.014 0c-.189.487-1.4 3.138-1.535 3.655-.153.569.065-.768.065-.768z" class="cls-1" data-name="패스 2164" transform="translate(-1854.74 -940.908)"/>
            <path id="패스_2165-2" d="M1894.385 935.732a38.827 38.827 0 0 1-2.539 3.249 19.5 19.5 0 0 1-2.16 1.972c-1.193 1.056.677-2.171 1.236-2.917a7.566 7.566 0 0 1 3.462-2.3" class="cls-1" data-name="패스 2165" transform="translate(-1868.74 -907.394)"/>
            <path id="패스_2166-2" d="M1871.087 1001.66s.029-.044.015 0c-.189.487-1.491 3.352-1.615 3.877-.029.126.124-.967.124-.967z" class="cls-1" data-name="패스 2166" transform="translate(-1850.981 -964.836)"/>
            <path id="패스_2167-2" d="M1882.132 972.737a46.457 46.457 0 0 1-2.851 3.67 24.007 24.007 0 0 1-2.415 2.237c-1.331 1.2.778-2.422 1.4-3.264a8.678 8.678 0 0 1 3.862-2.644" class="cls-1" data-name="패스 2167" transform="translate(-1856.901 -938.268)"/>
            <path id="패스_2168-2" d="M1874.551 1029.655a30.848 30.848 0 0 0-3.266 1.853c-1.673 1.122-1.927 1.226-2.327 1.292-1.259.214 1.673-2.939 2.349-3.308a3.583 3.583 0 0 1 3.244.162" class="cls-1" data-name="패스 2168" transform="translate(-1849.735 -990.15)"/>
            <path id="패스_2169-2" d="M1867.692 1047.544a.793.793 0 0 1 .058-.1 14.463 14.463 0 0 0-.786 1.625l.058-.495z" class="cls-1" data-name="패스 2169" transform="translate(-1848.738 -1006.938)"/>
            <path id="패스_2170-2" d="M1865.061 1070.978s.044-.059.036-.044c-.058.125-.495.613-.48.768 0 .037-.022-.266-.022-.266z" class="cls-1" data-name="패스 2170" transform="translate(-1846.594 -1028.527)"/>
            <path id="패스_2171-2" d="M1839.442 800.045s-1.033 2.437-1.709 2.85a3.834 3.834 0 0 1 1.709-2.85" class="cls-1" data-name="패스 2171" transform="translate(-1821.99 -787.366)"/>
            <path id="패스_2172-2" d="M1845.184 820.147s-1.767 1.477-2.517 1.506a3.026 3.026 0 0 1 2.517-1.506" class="cls-1" data-name="패스 2172" transform="translate(-1826.44 -805.417)"/>
            <path id="패스_2173-2" d="M1832.358 780.126s.3 3.507-.4 4.312a4.046 4.046 0 0 1 .4-4.312" class="cls-1" data-name="패스 2173" transform="translate(-1816.351 -769.506)"/>
            <path id="패스_2174-2" d="M1842.516 836.361s-2.08 2.008-2.706 2.547c-.146.126-.24.17-.3.148-.167-.059.007-.642.2-1.012a3.366 3.366 0 0 1 2.807-1.683" class="cls-1" data-name="패스 2174" transform="translate(-1823.461 -819.691)"/>
            <path id="패스_2175-2" d="M1827.131 869.1s.014-.007 0 .007a18.866 18.866 0 0 0-1.1 1.706c-.095.273.051-.4.051-.4z" class="cls-1" data-name="패스 2175" transform="translate(-1811.312 -848.981)"/>
            <path id="패스_2176-2" d="M1834.355 838.512s.029 0 .022.007a6.23 6.23 0 0 0-.727 1.322c-.095.273.022-.251.022-.251z" class="cls-1" data-name="패스 2176" transform="translate(-1818.283 -821.79)"/>
            <path id="패스_2177-2" d="M1838.376 852.31a21.672 21.672 0 0 1-2.873 3.515c-1.018.62-.233-1.189 0-1.469s1.448-1.986 2.873-2.045" class="cls-1" data-name="패스 2177" transform="translate(-1819.379 -833.731)"/>
            <path id="패스_2178-2" d="M1834.355 838.512s.029 0 .022.007a6.23 6.23 0 0 0-.727 1.322c-.095.273.022-.251.022-.251z" class="cls-1" data-name="패스 2178" transform="translate(-1818.283 -821.79)"/>
            <path id="패스_2179-2" d="M1821.83 895.416s.015-.007 0 .007c-.16.229-1.113 1.632-1.222 1.905-.109.3.073-.428.073-.428z" class="cls-1" data-name="패스 2179" transform="translate(-1806.349 -872.377)"/>
            <path id="패스_2180-2" d="M1836.356 881.133a30.081 30.081 0 0 1-4.1 3.434c-1.266.554-.073-1.492.269-1.765s2.3-1.765 3.833-1.669" class="cls-1" data-name="패스 2180" transform="translate(-1816.263 -859.367)"/>
            <path id="패스_2181-2" d="M1816.538 923.315s.051-.052.036-.022c-.174.258-1.258 1.573-1.375 1.883-.124.34.051-.428.051-.428z" class="cls-1" data-name="패스 2181" transform="translate(-1801.394 -897.195)"/>
            <path id="패스_2182-2" d="M1832.066 909.483a43.908 43.908 0 0 1-4.51 3.441c-1.309.613.138-1.61.706-2.112a6.336 6.336 0 0 1 3.8-1.329" class="cls-1" data-name="패스 2182" transform="translate(-1811.985 -884.567)"/>
            <path id="패스_2183-2" d="M1810.347 951.871s.058-.052.036-.03a24.732 24.732 0 0 0-1.455 2.016c-.138.354.058-.45.058-.45z" class="cls-1" data-name="패스 2183" transform="translate(-1795.66 -922.586)"/>
            <path id="패스_2184-2" d="M1826.676 937.443a43.941 43.941 0 0 1-4.51 3.441c-1.309.613.138-1.61.706-2.112a6.338 6.338 0 0 1 3.8-1.329" class="cls-1" data-name="패스 2184" transform="translate(-1807.071 -909.421)"/>
            <path id="패스_2185-2" d="M1804.646 979.739s.058-.052.036-.029c-.189.273-1.36 1.743-1.484 2.068-.138.354.073-.532.073-.532z" class="cls-1" data-name="패스 2185" transform="translate(-1790.43 -947.385)"/>
            <path id="패스_2186-2" d="M1824.678 966.392s-3.942 2.85-4.968 3.33c-1.309.613.436-1.839 1-2.341a7.044 7.044 0 0 1 3.964-.99" class="cls-1" data-name="패스 2186" transform="translate(-1804.852 -935.186)"/>
            <path id="패스_2187-2" d="M1798.33 1008.04s.036-.029.014 0c-.218.332-1.651 2.053-1.811 2.444-.175.421.073-.628.073-.628z" class="cls-1" data-name="패스 2187" transform="translate(-1784.314 -970.706)"/>
            <path id="패스_2188-2" d="M1821.284 1001.483a22.1 22.1 0 0 1-3.019 1.632 14.208 14.208 0 0 1-2.582.7c-1.426.362.793-1.558 1.462-1.942a7.3 7.3 0 0 1 4.139-.391" class="cls-1" data-name="패스 2188" transform="translate(-1801.137 -966.553)"/>
            <path id="패스_2189-2" d="M1793.7 1031.065s.036-.03.015 0c-.218.332-1.76 2.2-1.906 2.592-.036.1.138-.775.138-.775z" class="cls-1" data-name="패스 2189" transform="translate(-1780.049 -991.871)"/>
            <path id="패스_2190-2" d="M1806.926 1030.989a25.6 25.6 0 0 1-3.389 1.853 16.146 16.146 0 0 1-2.888.812c-1.593.421.909-1.728 1.658-2.164a8.224 8.224 0 0 1 4.619-.5" class="cls-1" data-name="패스 2190" transform="translate(-1787.335 -991.699)"/>
            <path id="패스_2191-2" d="M1798.063 1065.1a35.628 35.628 0 0 0-3.913.1 7.226 7.226 0 0 1-2.786.044c-1.513-.4 1.986-1.765 2.786-1.772a7.367 7.367 0 0 1 3.913 1.632" class="cls-1" data-name="패스 2191" transform="translate(-1778.991 -1021.667)"/>
            <path id="패스_2192-2" d="M1789.8 1064.694s.08-.074.065-.059c-.124.17-.887.8-.931 1.034-.007.052.066-.4.066-.4z" class="cls-1" data-name="패스 2192" transform="translate(-1777.475 -1022.737)"/>
            <path id="패스_2193-2" d="M1786.675 1082.117s.051-.03.044-.022c-.065.081-.582.3-.574.436 0 .03-.036-.236-.036-.236z" class="cls-1" data-name="패스 2193" transform="translate(-1774.908 -1038.787)"/>
            <path id="패스_2194-2" d="M1834.534 800.5a17.133 17.133 0 0 0 .007 3.434 6.338 6.338 0 0 0-.007-3.434" class="cls-1" data-name="패스 2194" transform="translate(-1819.062 -787.707)"/>
            <path id="패스_2195-2" d="M1821.286 808.177a12.349 12.349 0 0 0 .858 2.806 4.849 4.849 0 0 0-.858-2.806" class="cls-1" data-name="패스 2195" transform="translate(-1807.021 -794.606)"/>
            <path id="패스_2196-2" d="M1837.6 793.923s-1.258 2.762-1.142 3.862c.007 0 1.36-1.1 1.142-3.862" class="cls-1" data-name="패스 2196" transform="translate(-1820.85 -781.81)"/>
            <path id="패스_2197-2" d="M1814.067 819.6s.473 2.961.625 3.8c.036.2.073.288.109.31.109.059.2-.546.211-.967a5.029 5.029 0 0 0-.946-3.138" class="cls-1" data-name="패스 2197" transform="translate(-1800.425 -804.592)"/>
            <path id="패스_2198-2" d="M1823.624 869.8s-.007-.015 0 .007c.015.258.08 1.839.044 2.1-.036.288.094-.362.094-.362z" class="cls-1" data-name="패스 2198" transform="translate(-1809.19 -849.53)"/>
            <path id="패스_2199-2" d="M1831.381 842.425s-.015-.015-.015-.007a11.036 11.036 0 0 1-.029 1.551c-.036.288.065-.221.065-.221z" class="cls-1" data-name="패스 2199" transform="translate(-1816.235 -825.236)"/>
            <path id="패스_2200-2" d="M1809.407 833.213a38.63 38.63 0 0 0 .415 4.711c.342 1.145.494-.856.458-1.233s-.146-2.555-.873-3.478" class="cls-1" data-name="패스 2200" transform="translate(-1796.172 -816.533)"/>
            <path id="패스_2201-2" d="M1831.381 842.425s-.015-.015-.015-.007a11.036 11.036 0 0 1-.029 1.551c-.036.288.065-.221.065-.221z" class="cls-1" data-name="패스 2201" transform="translate(-1816.235 -825.236)"/>
            <path id="패스_2202-2" d="M1817.319 894.194s-.007-.015 0 .007c.015.288.08 2.053.044 2.348-.036.318.094-.406.094-.406z" class="cls-1" data-name="패스 2202" transform="translate(-1803.432 -871.199)"/>
            <path id="패스_2203-2" d="M1793.417 849.66a53.269 53.269 0 0 0 1.084 5.4c.494 1.241.5-1.211.415-1.639s-.662-2.895-1.5-3.758" class="cls-1" data-name="패스 2203" transform="translate(-1781.541 -830.998)"/>
            <path id="패스_2204-2" d="M1810.244 919.615s-.014-.074-.014-.044c.014.325.174 2.1.138 2.422-.036.362.109-.391.109-.391z" class="cls-1" data-name="패스 2204" transform="translate(-1796.954 -893.764)"/>
            <path id="패스_2205-2" d="M1784.372 873.508s.909 4.615 1.3 5.649c.494 1.314.429-1.432.291-2.208a8.348 8.348 0 0 0-1.593-3.441" class="cls-1" data-name="패스 2205" transform="translate(-1773.277 -852.083)"/>
            <path id="패스_2206-2" d="M1803.848 946.766s-.014-.081-.014-.052c.014.347.175 2.23.138 2.584-.036.384.109-.413.109-.413z" class="cls-1" data-name="패스 2206" transform="translate(-1791.112 -917.878)"/>
            <path id="패스_2207-2" d="M1778.341 900.188s.909 4.615 1.3 5.649c.495 1.314.429-1.432.291-2.208a8.264 8.264 0 0 0-1.593-3.441" class="cls-1" data-name="패스 2207" transform="translate(-1767.772 -875.727)"/>
            <path id="패스_2208-2" d="M1797.817 973.355s-.015-.081-.015-.052c.015.347.175 2.3.138 2.643-.036.384.131-.487.131-.487z" class="cls-1" data-name="패스 2208" transform="translate(-1785.603 -941.521)"/>
            <path id="패스_2209-2" d="M1767.742 922.848s1.186 4.807 1.578 5.841c.495 1.314.349-1.809.2-2.584a8.4 8.4 0 0 0-1.782-3.256" class="cls-1" data-name="패스 2209" transform="translate(-1758.087 -895.763)"/>
            <path id="패스_2210-2" d="M1790.135 998.527s-.007-.044-.007-.008c.015.414.226 2.74.189 3.16-.036.458.16-.576.16-.576z" class="cls-1" data-name="패스 2210" transform="translate(-1778.59 -961.953)"/>
            <path id="패스_2211-2" d="M1754.128 951.265a33.412 33.412 0 0 0 1.084 3.219 17.223 17.223 0 0 0 1.142 2.171c.64 1.182.065-1.794-.16-2.525a7.273 7.273 0 0 0-2.066-2.865" class="cls-1" data-name="패스 2211" transform="translate(-1745.639 -921.099)"/>
            <path id="패스_2212-2" d="M1785.018 1020.456s-.007-.044-.007-.007c.014.413.24 2.924.2 3.338-.014.1.167-.738.167-.738z" class="cls-1" data-name="패스 2212" transform="translate(-1773.915 -982.111)"/>
            <path id="패스_2213-2" d="M1747.914 979.5s.538 1.957 1.207 3.633a20.083 20.083 0 0 0 1.266 2.451c.706 1.329.058-2.008-.2-2.828a8.278 8.278 0 0 0-2.277-3.256" class="cls-1" data-name="패스 2213" transform="translate(-1739.959 -944.483)"/>
            <path id="패스_2214-2" d="M1734.574 1025.8a31.448 31.448 0 0 1 2.037 2.481c.989 1.4 1.164 1.558 1.455 1.75.924.6-.495-2.695-.916-3.2a3.358 3.358 0 0 0-2.575-1.034" class="cls-1" data-name="패스 2214" transform="translate(-1727.755 -987.035)"/>
            <path id="패스_2215-2" d="M1782.45 1057.859a.683.683 0 0 1-.014-.089 10.667 10.667 0 0 1 .167 1.44c-.015.052.094-.377.094-.377z" class="cls-1" data-name="패스 2215" transform="translate(-1771.566 -1016.427)"/>
            <path id="패스_2216-2" d="M1780.44 1076.662s-.022-.052-.014-.044c.014.111.211.613.167.716-.014.022.094-.177.094-.177z" class="cls-1" data-name="패스 2216" transform="translate(-1769.73 -1033.753)"/>
            <path id="패스_2217-2" d="M1699.67 889.772l6.4 15.772.327-.3z" class="cls-1" data-name="패스 2217" transform="translate(-1696.274 -862.008)"/>
            <path id="패스_2218-2" d="M1675.274 865.924s1.266 1.735 1.935 1.92a2.722 2.722 0 0 0-1.935-1.92" class="cls-1" data-name="패스 2218" transform="translate(-1673.819 -846.13)"/>
            <path id="패스_2219-2" d="M1663.944 884.867a6.91 6.91 0 0 0 2.509.65 2.6 2.6 0 0 0-2.509-.65" class="cls-1" data-name="패스 2219" transform="translate(-1663.391 -863.152)"/>
            <path id="패스_2220-2" d="M1688.34 846.005s.175 2.909.916 3.4a2.892 2.892 0 0 0-.916-3.4" class="cls-1" data-name="패스 2220" transform="translate(-1685.845 -828.167)"/>
            <path id="패스_2221-2" d="M1662.574 898.391s2.175 1.159 2.822 1.455c.153.066.247.081.291.052.153-.081-.088-.517-.306-.775a2.963 2.963 0 0 0-2.808-.731" class="cls-1" data-name="패스 2221" transform="translate(-1662.13 -874.999)"/>
            <path id="패스_2222-2" d="M1701.606 917.619s-.015-.007 0 .007a13.827 13.827 0 0 1 1.229 1.13c.124.2-.094-.31-.094-.31z" class="cls-1" data-name="패스 2222" transform="translate(-1697.721 -892.313)"/>
            <path id="패스_2223-2" d="M1695.019 893.427s-.029.007-.022.015a4.689 4.689 0 0 1 .844.9c.124.2-.051-.2-.051-.2z" class="cls-1" data-name="패스 2223" transform="translate(-1691.971 -870.795)"/>
            <path id="패스_2224-2" d="M1665.223 911.783a16.345 16.345 0 0 0 3.1 2.2c1.018.273.065-1.019-.189-1.189s-1.593-1.277-2.91-1.012" class="cls-1" data-name="패스 2224" transform="translate(-1664.568 -886.855)"/>
            <path id="패스_2225-2" d="M1695.019 893.427s-.029.007-.022.015a4.689 4.689 0 0 1 .844.9c.124.2-.051-.2-.051-.2z" class="cls-1" data-name="패스 2225" transform="translate(-1691.971 -870.795)"/>
            <path id="패스_2226-2" d="M1708.641 938.086s-.015-.007 0 .007a17.214 17.214 0 0 1 1.367 1.27c.138.222-.124-.332-.124-.332z" class="cls-1" data-name="패스 2226" transform="translate(-1704.142 -910.52)"/>
            <path id="패스_2227-2" d="M1657 937.146a24.989 24.989 0 0 0 4.219 1.853c1.237.162-.124-1.226-.473-1.366a6.752 6.752 0 0 0-3.746-.487" class="cls-1" data-name="패스 2227" transform="translate(-1657 -909.424)"/>
            <path id="패스_2228-2" d="M1715.366 959.913s-.058-.03-.036-.015a15.192 15.192 0 0 1 1.505 1.218c.16.244-.1-.332-.1-.332z" class="cls-1" data-name="패스 2228" transform="translate(-1710.247 -929.964)"/>
            <path id="패스_2229-2" d="M1660.655 959.478a36.308 36.308 0 0 0 4.6 1.765c1.287.2-.335-1.27-.924-1.551a6.136 6.136 0 0 0-3.673-.214" class="cls-1" data-name="패스 2229" transform="translate(-1660.364 -929.26)"/>
            <path id="패스_2230-2" d="M1723.809 981.933s-.058-.03-.044-.015c.2.185 1.44 1.071 1.6 1.307.167.258-.116-.354-.116-.354z" class="cls-1" data-name="패스 2230" transform="translate(-1717.948 -949.561)"/>
            <path id="패스_2231-2" d="M1669.244 980.877a36.307 36.307 0 0 0 4.6 1.765c1.287.2-.335-1.27-.924-1.551a6.2 6.2 0 0 0-3.673-.214" class="cls-1" data-name="패스 2231" transform="translate(-1668.269 -948.317)"/>
            <path id="패스_2232-2" d="M1732.4 1003.314s-.058-.029-.044-.015a20.538 20.538 0 0 1 1.629 1.337c.167.258-.131-.414-.131-.414z" class="cls-1" data-name="패스 2232" transform="translate(-1725.789 -968.604)"/>
            <path id="패스_2233-2" d="M1670.523 1003.561s3.993 1.418 5 1.58c1.287.2-.633-1.4-1.222-1.669a7.083 7.083 0 0 0-3.782.089" class="cls-1" data-name="패스 2233" transform="translate(-1669.446 -968.43)"/>
            <path id="패스_2234-2" d="M1738.254 1025.677s-.037-.015-.015.007c.247.222 1.782 1.292 1.978 1.565.218.3-.145-.495-.145-.495z" class="cls-1" data-name="패스 2234" transform="translate(-1731.146 -986.926)"/>
            <path id="패스_2235-2" d="M1671.711 1029.785a20.618 20.618 0 0 0 3 .642 14.51 14.51 0 0 0 2.473-.015c1.36-.03-.931-1.078-1.593-1.24a7.789 7.789 0 0 0-3.877.613" class="cls-1" data-name="패스 2235" transform="translate(-1670.54 -990.088)"/>
            <path id="패스_2236-2" d="M1745.107 1043.4s-.037-.015-.015.007a25.65 25.65 0 0 1 2.087 1.669c.044.067-.225-.6-.225-.6z" class="cls-1" data-name="패스 2236" transform="translate(-1737.4 -1003.219)"/>
            <path id="패스_2237-2" d="M1681.031 1051.882a23.355 23.355 0 0 0 3.36.731 16.139 16.139 0 0 0 2.764.007c1.52-.015-1.062-1.2-1.8-1.381a8.722 8.722 0 0 0-4.321.642" class="cls-1" data-name="패스 2237" transform="translate(-1679.118 -1010.362)"/>
            <path id="패스_2238-2" d="M1692.818 1074.651s2.029-.561 3.622-.8a8.015 8.015 0 0 0 2.575-.591c1.346-.665-2.058-.975-2.8-.8a8.227 8.227 0 0 0-3.4 2.2" class="cls-1" data-name="패스 2238" transform="translate(-1689.967 -1029.881)"/>
            <path id="패스_2239-2" d="M1763.515 1067.21s-.08-.044-.073-.029c.131.111.924.45.989.628l-.109-.31z" class="cls-1" data-name="패스 2239" transform="translate(-1754.195 -1025.077)"/>
            <path id="패스_2240-2" d="M1772.163 1079.808s-.051-.015-.044-.007c.073.052.582.111.582.229v-.2z" class="cls-1" data-name="패스 2240" transform="translate(-1762.133 -1036.677)"/>
            <path id="패스_2241-2" d="M1696.511 861.081a12.335 12.335 0 0 1 .429 2.784 4.466 4.466 0 0 1-.429-2.784" class="cls-1" data-name="패스 2241" transform="translate(-1693.318 -841.676)"/>
            <path id="패스_2242-2" d="M1705.736 864.1a10.011 10.011 0 0 1-.429 2.466 3.646 3.646 0 0 1 .429-2.466" class="cls-1" data-name="패스 2242" transform="translate(-1701.409 -844.412)"/>
            <path id="패스_2243-2" d="M1682.127 859.071s1.513 1.957 1.542 2.872c0 0-1.4-.576-1.542-2.872" class="cls-1" data-name="패스 2243" transform="translate(-1680.127 -839.873)"/>
            <path id="패스_2244-2" d="M1713.2 871.772s-.058 2.5-.094 3.219c-.007.17-.029.251-.066.273-.094.074-.247-.4-.32-.738a4.085 4.085 0 0 1 .48-2.754" class="cls-1" data-name="패스 2244" transform="translate(-1707.837 -851.056)"/>
            <path id="패스_2245-2" d="M1717.031 914.459c.029.222.167 1.514.233 1.721s-.138-.273-.138-.273z" class="cls-1" data-name="패스 2245" transform="translate(-1711.83 -889.372)"/>
            <path id="패스_2246-2" d="M1705.884 894.142s.015-.015.015-.007a7.365 7.365 0 0 0 .225 1.248c.073.222-.087-.162-.087-.162z" class="cls-1" data-name="패스 2246" transform="translate(-1701.993 -871.361)"/>
            <path id="패스_2247-2" d="M1720.89 881.731a28.7 28.7 0 0 1 .218 3.914c-.167 1-.567-.583-.582-.9a6.171 6.171 0 0 1 .364-3.013" class="cls-1" data-name="패스 2247" transform="translate(-1714.98 -859.759)"/>
            <path id="패스_2248-2" d="M1705.884 894.142s.015-.015.015-.007a7.365 7.365 0 0 0 .225 1.248c.073.222-.087-.162-.087-.162z" class="cls-1" data-name="패스 2248" transform="translate(-1701.993 -871.361)"/>
            <path id="패스_2249-2" d="M1726.077 932.824c.029.244.2 1.684.262 1.92s-.138-.31-.138-.31z" class="cls-1" data-name="패스 2249" transform="translate(-1720.092 -905.682)"/>
            <path id="패스_2250-2" d="M1731.982 891.508a40.432 40.432 0 0 1-.313 4.615c-.3 1.115-.618-.864-.589-1.24a8.286 8.286 0 0 1 .9-3.375" class="cls-1" data-name="패스 2250" transform="translate(-1724.645 -868.284)"/>
            <path id="패스_2251-2" d="M1735.853 951.855s0-.066.007-.037c.029.266.109 1.735.182 1.994.08.281-.153-.288-.153-.288z" class="cls-1" data-name="패스 2251" transform="translate(-1729.022 -922.572)"/>
            <path id="패스_2252-2" d="M1741.869 908.777s-.247 3.943-.48 4.866c-.291 1.181-.582-1.063-.546-1.721a7.215 7.215 0 0 1 1.026-3.146" class="cls-1" data-name="패스 2252" transform="translate(-1733.556 -883.546)"/>
            <path id="패스_2253-2" d="M1745.173 972.456s0-.066.007-.044c.029.281.124 1.846.2 2.119.087.3-.153-.31-.153-.31z" class="cls-1" data-name="패스 2253" transform="translate(-1737.534 -940.875)"/>
            <path id="패스_2254-2" d="M1750.915 929.061s-.248 3.943-.48 4.866c-.291 1.182-.582-1.063-.545-1.72a7.183 7.183 0 0 1 1.026-3.146" class="cls-1" data-name="패스 2254" transform="translate(-1741.816 -901.541)"/>
            <path id="패스_2255-2" d="M1754.219 992.649s0-.067.008-.044c.029.281.131 1.9.211 2.171.087.3-.182-.369-.182-.369z" class="cls-1" data-name="패스 2255" transform="translate(-1745.796 -958.839)"/>
            <path id="패스_2256-2" d="M1761.257 945.051s-.48 4.157-.713 5.088c-.291 1.181-.553-1.388-.516-2.045a7.535 7.535 0 0 1 1.229-3.042" class="cls-1" data-name="패스 2256" transform="translate(-1751.067 -915.67)"/>
            <path id="패스_2257-2" d="M1764.635 1011.383c.051.332.146 2.259.233 2.592.095.362-.218-.428-.218-.428z" class="cls-1" data-name="패스 2257" transform="translate(-1755.309 -973.776)"/>
            <path id="패스_2258-2" d="M1772.554 964.97a27.056 27.056 0 0 1-.589 2.85 15.326 15.326 0 0 1-.778 2.016c-.436 1.1-.291-1.44-.174-2.082a6.785 6.785 0 0 1 1.542-2.784" class="cls-1" data-name="패스 2258" transform="translate(-1760.973 -933.418)"/>
            <path id="패스_2259-2" d="M1772.128 1027.921c.051.332.16 2.415.254 2.747.022.074-.247-.561-.247-.561z" class="cls-1" data-name="패스 2259" transform="translate(-1762.153 -988.978)"/>
            <path id="패스_2260-2" d="M1779.959 986.534a30.243 30.243 0 0 1-.655 3.212 17.225 17.225 0 0 1-.858 2.274c-.487 1.24-.313-1.61-.182-2.333a7.552 7.552 0 0 1 1.695-3.153" class="cls-1" data-name="패스 2260" transform="translate(-1767.568 -950.95)"/>
            <path id="패스_2261-2" d="M1784.928 1021.164s-.931 1.314-1.557 2.466c-.735 1.351-.873 1.529-1.12 1.743-.778.694.116-2.3.436-2.791a3.7 3.7 0 0 1 2.24-1.418" class="cls-1" data-name="패스 2261" transform="translate(-1771 -982.782)"/>
            <path id="패스_2262-2" d="M1778.252 1057.6a.252.252 0 0 1 .007-.074 8.225 8.225 0 0 0 .029 1.2c.015.037-.131-.281-.131-.281z" class="cls-1" data-name="패스 2262" transform="translate(-1767.665 -1016.209)"/>
            <path id="패스_2263-2" d="M1781.784 1072.43s.007-.052.015-.037c0 .089-.116.547-.058.62.015.015-.109-.125-.109-.125z" class="cls-1" data-name="패스 2263" transform="translate(-1770.836 -1029.868)"/>
        </g>
        <text id="休" class="cls-2" transform="translate(32.765 109.859)">
            <tspan x="0" y="0">休</tspan>
        </text>
    </g>
</svg>
