<svg xmlns="http://www.w3.org/2000/svg" width="493" height="210" viewBox="0 0 493 210">
    <defs>
        <style>
            .cls-1,.cls-2,.cls-3{fill:#fff}.cls-2,.cls-3{stroke:rgba(0,0,0,0)}.cls-2{font-size:20px;font-family:OpenSans-Bold,Open Sans;font-weight:700}.cls-3{font-size:18px;font-family:MalgunGothicBold,Malgun Gothic;letter-spacing:-.03em}.cls-4{font-family:OpenSans-ExtraBold,Open Sans;font-weight:800}
        </style>
    </defs>
    <g id="그룹_687" data-name="그룹 687" transform="translate(-476 -435)">
        <g id="CI_goorm_black" transform="translate(604.966 2599.922)">
            <path id="패스_2369" d="M36.536-2150.895a8.523 8.523 0 0 0-3.023.985A8.62 8.62 0 0 0 31-2147.8a8.452 8.452 0 0 0-1.876 4.826c-.019.3-.009 1.365.016 1.574.031.265.064.491.1.681a8.288 8.288 0 0 0 1.915 3.941 11.057 11.057 0 0 0 .839.828 8.253 8.253 0 0 0 4.284 1.925 6.718 6.718 0 0 0 1.1.069 6.693 6.693 0 0 0 .991-.051 8.31 8.31 0 0 0 4.212-1.763c.061-.049.114-.088.117-.088s.006 1.242-.006 1.4a4.724 4.724 0 0 1-.456 1.709 4.346 4.346 0 0 1-1.414 1.714 5.087 5.087 0 0 1-3.65.744 5.471 5.471 0 0 1-1.615-.494 5.774 5.774 0 0 1-2.117-1.733c-.073-.1-.143-.194-.155-.215s-.026-.036-.032-.036-.373.15-1.7.7l-.864.359-.555.229-.053.024.057.107a8.591 8.591 0 0 0 3.124 3.247 8.31 8.31 0 0 0 3.776 1.17c.242.019 1.184.019 1.466 0a8.808 8.808 0 0 0 3.518-.894 6.938 6.938 0 0 0 2.564-2.193 8.051 8.051 0 0 0 1.505-3.98c.026-.251.04-2.635.035-6.149a23.485 23.485 0 0 0-.065-3.416 8.53 8.53 0 0 0-3.883-6.073 8.467 8.467 0 0 0-3.233-1.218 6.25 6.25 0 0 0-1.347-.062 7.6 7.6 0 0 0-1.062.023zm1.705 3.6a5.079 5.079 0 0 1 3.018 1.5 5.1 5.1 0 0 1 1.341 4.595 5.085 5.085 0 0 1-1.439 2.629 5.089 5.089 0 0 1-3.168 1.428 6.43 6.43 0 0 1-1.2-.07 4.907 4.907 0 0 1-1.429-.46 4.965 4.965 0 0 1-1.486-1.109 5.067 5.067 0 0 1-1.292-2.643 5.1 5.1 0 0 1 .494-3.136 5.1 5.1 0 0 1 3.9-2.733 3.656 3.656 0 0 1 .688-.03 4.108 4.108 0 0 1 .573.024z" class="cls-1" data-name="패스 2369"/>
            <path id="패스_2370" d="M1721.97-2134.968a8.507 8.507 0 0 0-6.593 3.767 8.455 8.455 0 0 0-1.415 4.184 12.11 12.11 0 0 0 0 1.078 8.488 8.488 0 0 0 2.095 5.065c.153.175.616.638.787.786a8.488 8.488 0 0 0 3.96 1.947 7.854 7.854 0 0 0 1.644.156 7.854 7.854 0 0 0 1.644-.156 8.465 8.465 0 0 0 3.923-1.915c.188-.161.658-.627.823-.817a8.468 8.468 0 0 0 2.073-4.791 10.362 10.362 0 0 0 .023-1.341 8.446 8.446 0 0 0-1.686-4.574 8.231 8.231 0 0 0-.434-.535 8.918 8.918 0 0 0-.845-.828 8.473 8.473 0 0 0-3.907-1.884 8.848 8.848 0 0 0-2.092-.142zm1.015 3.438a5.082 5.082 0 0 1 2.736 1.164 6.6 6.6 0 0 1 .624.626 5.059 5.059 0 0 1 1.179 2.842 7.231 7.231 0 0 1 0 .864 5.022 5.022 0 0 1-.489 1.779 4.883 4.883 0 0 1-.99 1.394 5.036 5.036 0 0 1-1.934 1.213 4.758 4.758 0 0 1-1.557.271 4.691 4.691 0 0 1-1.367-.151 5.117 5.117 0 0 1-3.325-2.716 5.1 5.1 0 0 1-.231-3.876 5.108 5.108 0 0 1 3.093-3.136 5.314 5.314 0 0 1 1.362-.29 7.709 7.709 0 0 1 .899.015z" class="cls-1" data-name="패스 2370" transform="translate(-1665.684 -15.761)"/>
            <path id="패스_2371" d="M3405.538-2134.969c-.177.007-.547.04-.744.067a8.45 8.45 0 0 0-3.552 1.329 7.873 7.873 0 0 0-1.335 1.1 8.219 8.219 0 0 0-1.305 1.674c-.081.136-.321.579-.321.593s-.031.068-.067.145a8.549 8.549 0 0 0-.729 4.645 8.538 8.538 0 0 0 .969 3.01 8.521 8.521 0 0 0 6.482 4.377 6.843 6.843 0 0 0 .848.047 7.915 7.915 0 0 0 1.782-.15 8.488 8.488 0 0 0 3.98-1.965 9.8 9.8 0 0 0 1.041-1.1 8.457 8.457 0 0 0 1.794-4.422 9.059 9.059 0 0 0-.027-1.955 8.467 8.467 0 0 0-1.158-3.3 8.53 8.53 0 0 0-4.789-3.728 8.62 8.62 0 0 0-2.869-.367zm.955 3.446a4.951 4.951 0 0 1 1.671.491 4.913 4.913 0 0 1 1.4 1.013 5.066 5.066 0 0 1 1.439 3.167 6.833 6.833 0 0 1-.022 1.013 5.085 5.085 0 0 1-1.45 2.975 5.061 5.061 0 0 1-2.651 1.408 4.045 4.045 0 0 1-.935.081 4.06 4.06 0 0 1-.873-.064 5.094 5.094 0 0 1-3.513-2.4 5.158 5.158 0 0 1-.709-2.161 7.1 7.1 0 0 1 .005-.985 5.084 5.084 0 0 1 1.48-3.09 5.1 5.1 0 0 1 3.292-1.477 7.86 7.86 0 0 1 .866.029z" class="cls-1" data-name="패스 2371" transform="translate(-3330.019 -15.765)"/>
            <path id="패스_2372" d="M6108.693-2099.887a6.793 6.793 0 0 0-3.312 1.045 6.419 6.419 0 0 0-1.2.978l-.275.277-.249-.249c-.133-.138-.3-.294-.359-.349a6.8 6.8 0 0 0-4.041-1.677 9.005 9.005 0 0 0-.9 0 7.535 7.535 0 0 0-1.2.187 6.807 6.807 0 0 0-4.666 4.089 6.727 6.727 0 0 0-.471 2.157c-.008.125-.013 1.974-.013 4.965v4.766h3.411V-2093.389l.025-.159a3.386 3.386 0 0 1 .338-1.051 3.4 3.4 0 0 1 2.457-1.807 3.189 3.189 0 0 1 .668-.042 3.157 3.157 0 0 1 1.4.349 3.342 3.342 0 0 1 1.533 1.521 3.393 3.393 0 0 1 .328 1.03l.025.159V-2083.698h3.41v-4.772c0-3.275 0-4.811.012-4.9a3.394 3.394 0 0 1 .981-2.092 3.415 3.415 0 0 1 1.912-.962 2.7 2.7 0 0 1 .483-.024 2.565 2.565 0 0 1 .7.064 3.407 3.407 0 0 1 2.063 1.342 3.4 3.4 0 0 1 .6 1.486l.029.154v9.701h3.41v-4.681c0-5.574 0-5.109-.015-5.3a6.752 6.752 0 0 0-1.9-4.148 6.7 6.7 0 0 0-1.687-1.272 6.86 6.86 0 0 0-2.5-.758 7.561 7.561 0 0 0-.997-.027z" class="cls-1" data-name="패스 2372" transform="translate(-5993.968 -50.448)"/>
            <path id="패스_2373" d="M5125.317-2097.535a7.646 7.646 0 0 0-3.928 1.292 7.694 7.694 0 0 0-2.559 2.891 7.532 7.532 0 0 0-.789 2.672c-.041.369-.041.529-.041 4.917v4.38h3.409v-4.376c0-4.779 0-4.509.064-4.876a4.2 4.2 0 0 1 1.146-2.216 4.192 4.192 0 0 1 2.264-1.212 6.377 6.377 0 0 1 1.458-.071h1.014v-3.4h-1.268a12.902 12.902 0 0 0-.77-.001z" class="cls-1" data-name="패스 2373" transform="translate(-5031.041 -52.775)"/>
        </g>
        <g id="그룹_665" data-name="그룹 665" transform="translate(343.073 159.553)">
            <path id="패스_2359" d="M300.894 367.441h-1.143v1.71h1.143v3.068h1.778v-7.6h-1.778z" class="cls-1" data-name="패스 2359" transform="translate(41.43 29.031)"/>
            <path id="패스_2360" d="M305.268 366.354v-1.711h-5.338v1.711H302l-2.5 3.349 1.463 1.067 1.636-2.205 1.64 2.205 1.461-1.07-2.492-3.349z" class="cls-1" data-name="패스 2360" transform="translate(35.164 29.618)"/>
            <path id="사각형_1604" d="M0 0h1.782v7.6H0z" class="cls-1" data-name="사각형 1604" transform="translate(345.156 393.65)"/>
            <path id="패스_2361" d="M303.934 368.455a1.129 1.129 0 0 1-1.7 0 1.154 1.154 0 0 1-.36-.85 1.134 1.134 0 0 1 .36-.876 1.183 1.183 0 0 1 1.7 0 1.227 1.227 0 0 1 .361.876 1.258 1.258 0 0 1-.361.85m-.85-3.812a2.818 2.818 0 0 0-2.113.876 2.834 2.834 0 0 0 0 4.148 2.927 2.927 0 0 0 4.224 0 2.892 2.892 0 0 0 0-4.148 2.818 2.818 0 0 0-2.112-.876" class="cls-1" data-name="패스 2361" transform="translate(49.325 29.615)"/>
            <path id="사각형_1605" d="M0 0h1.782v7.6H0z" class="cls-1" data-name="사각형 1605" transform="translate(356.862 393.65)"/>
            <path id="패스_2362" d="M304.163 369.074h-1.056v-2.705h1.056zm2.577 0h-.8v-2.705h.8v-1.725h-6.183v1.725h.773v2.705h-.773v1.7h6.183z" class="cls-1" data-name="패스 2362" transform="translate(61.383 29.615)"/>
            <path id="패스_2363" d="M304.07 372.219v-7.6h-1.782v2.822h-1.458v1.71h1.459v3.45h1.782z" class="cls-1" data-name="패스 2363" transform="translate(68.137 29.031)"/>
            <path id="패스_2364" d="M304.3 369.051h-1.777v-.951h1.777zm0-4.122v1.471h-1.777v-1.442h-1.778v5.8h5.359v-5.822z" class="cls-1" data-name="패스 2364" transform="translate(66.112 36.696)"/>
            <path id="패스_2365" d="M312.066 367.363a1.353 1.353 0 0 1 0-2.705 1.353 1.353 0 1 1 0 2.705m-11.464 16.1a1.353 1.353 0 0 1-1.366-1.34 1.375 1.375 0 0 1 1.366-1.365 1.353 1.353 0 0 1 1.34 1.365 1.331 1.331 0 0 1-1.34 1.34m11.438-20.017a2.481 2.481 0 0 0-1.828.7 2.426 2.426 0 0 0-.7 1.8V382a3.127 3.127 0 0 1-.928 2.293 3.035 3.035 0 0 1-2.266.952 3.07 3.07 0 0 1-2.267-.927 3.251 3.251 0 0 1-.9-2.293 2.428 2.428 0 0 0-.7-1.8 2.485 2.485 0 0 0-1.829-.7 2.588 2.588 0 0 0-1.855.7 2.485 2.485 0 0 0-.7 1.829 8.288 8.288 0 0 0 14.117 5.874 8.047 8.047 0 0 0 2.4-5.9v-16.081a2.351 2.351 0 0 0-.721-1.8 2.487 2.487 0 0 0-1.829-.7" class="cls-1" data-name="패스 2365" transform="translate(-.001 -.001)"/>
            <path id="패스_2366" d="M313.248 367.662a1.353 1.353 0 0 1-1.34-1.366 1.331 1.331 0 0 1 1.34-1.34 1.352 1.352 0 0 1 1.365 1.34 1.375 1.375 0 0 1-1.365 1.366m-11.051 0a1.359 1.359 0 0 1-1.365-1.366 1.353 1.353 0 0 1 2.705 0 1.353 1.353 0 0 1-1.34 1.366m11.077-3.916a2.546 2.546 0 0 0-1.855.7 2.5 2.5 0 0 0-.722 1.828v8.476a3.01 3.01 0 0 1-.85 2.164 2.892 2.892 0 0 1-2.138.876 2.993 2.993 0 0 1-3.014-3.039V366.3a2.445 2.445 0 0 0-.72-1.829 2.68 2.68 0 0 0-3.658 0 2.528 2.528 0 0 0-.7 1.829v8.45a7.923 7.923 0 0 0 8.088 8.115 7.713 7.713 0 0 0 5.746-2.345 7.814 7.814 0 0 0 2.343-5.77v-8.48a2.388 2.388 0 0 0-2.524-2.524" class="cls-1" data-name="패스 2366" transform="translate(38.181 7.404)"/>
            <path id="패스_2367" d="M308.483 381.675a1.33 1.33 0 0 1-1.34-1.338 1.353 1.353 0 0 1 1.34-1.366 1.375 1.375 0 0 1 1.366 1.366 1.352 1.352 0 0 1-1.366 1.338m-7.11 10.82a1.358 1.358 0 0 1-1.365-1.365 1.353 1.353 0 0 1 2.705 0 1.37 1.37 0 0 1-1.34 1.365m6.981-28.749a9.415 9.415 0 0 0-9.557 9.584v18.006a2.428 2.428 0 0 0 2.524 2.551 2.608 2.608 0 0 0 1.855-.721 2.507 2.507 0 0 0 .721-1.83v-18.007a4.443 4.443 0 0 1 4.457-4.483 4.456 4.456 0 0 1 3.194 1.288 4.509 4.509 0 0 1 0 6.363 4.443 4.443 0 0 1-3.194 1.34 2.387 2.387 0 0 0-2.5 2.525 2.484 2.484 0 0 0 .7 1.829 2.351 2.351 0 0 0 1.8.721 9.584 9.584 0 1 0 0-19.166" class="cls-1" data-name="패스 2367" transform="translate(17.803 7.404)"/>
            <path id="패스_2368" d="M302.878 367.363a1.353 1.353 0 0 1 0-2.705 1.353 1.353 0 1 1 0 2.705m7.136 7.625a1.352 1.352 0 0 1-1.366-1.34 1.374 1.374 0 0 1 1.366-1.365 1.352 1.352 0 0 1 1.34 1.365 1.33 1.33 0 0 1-1.34 1.34m6.7-1.108a9.348 9.348 0 0 0-6.827-2.756 2.485 2.485 0 0 0-1.829.7 2.586 2.586 0 0 0-.7 1.854 2.386 2.386 0 0 0 2.5 2.525 4.531 4.531 0 0 1 4.534 4.508 4.244 4.244 0 0 1-1.34 3.168 4.318 4.318 0 0 1-3.168 1.314 4.238 4.238 0 0 1-3.168-1.314 4.332 4.332 0 0 1-1.314-3.194v-14.712a2.371 2.371 0 0 0-.721-1.829 2.487 2.487 0 0 0-1.83-.7 2.426 2.426 0 0 0-2.524 2.525v14.709a9.435 9.435 0 0 0 2.756 6.828 9.637 9.637 0 0 0 13.628-13.629" class="cls-1" data-name="패스 2368" transform="translate(55.713 -.001)"/>
        </g>
        <g id="그룹_669" data-name="그룹 669" transform="translate(-156.363 -1193)">
            <text id="Unity_Korea" class="cls-2" data-name="Unity Korea" transform="translate(834.773 1828.459)">
                <tspan x="0" y="0">Unity Korea</tspan>
            </text>
            <g id="그룹_664" data-name="그룹 664" transform="translate(796.779 1806)">
                <path id="패스_2358" d="M-107.692 87.27l-13.071 3.406L-122.7 94l-3.926-.029-9.568 9.3 9.568 9.3 3.924-.029 1.939 3.318 13.069 3.406 3.5-12.707-1.989-3.291 1.989-3.291zm-14.691 7.26l10-2.5-5.74 9.669H-129.6zm0 17.482l-7.222-7.17h11.481l5.74 9.669zm12.8.927l-5.742-9.667 5.742-9.671 2.772 9.671z" class="cls-1" data-name="패스 2358" transform="translate(136.191 -87.27)"/>
            </g>
        </g>
        <g id="그룹_667" data-name="그룹 667" transform="translate(-245.16 -1208)">
            <text id="Laftel" class="cls-2" transform="translate(1137.258 1769)">
                <tspan x="0" y="0">Laftel</tspan>
            </text>
            <g id="KakaoTalk_20190703_225158491" transform="translate(1086.591 1747)">
                <path id="패스_2403" d="M19.509-351.722a20.209 20.209 0 0 0-7.485 2.142 22.326 22.326 0 0 0-9.356 9.54A22.623 22.623 0 0 0 0-330.6a6.84 6.84 0 0 0 3.782 6.179c1.433.7-.3.637 17.28.661 13.975.016 15.671.008 16.236-.1a6.808 6.808 0 0 0 5.271-5.55c.334-1.919-.287-5.311-1.537-8.385a27.71 27.71 0 0 0-3.655-6.251A30.643 30.643 0 0 0 34-347.414a20.053 20.053 0 0 0-9.556-4.157 39.944 39.944 0 0 0-4.935-.151zm5.765 9.309a3.687 3.687 0 0 1 .8.326 2.676 2.676 0 0 1 1.043 1.123c.08.319.183.422.422.422.287 0 .358-.064.541-.478a2.971 2.971 0 0 1 1.362-1.258 2.242 2.242 0 0 1 1.131-.215 1.689 1.689 0 0 1 1.107.239 2.7 2.7 0 0 1 1.155 1.314c.326.693.35.677-.788.7-1.115.024-1.29.072-1.72.438a4.72 4.72 0 0 1-.645.462 1.5 1.5 0 0 0-.494 2.047 2.194 2.194 0 0 0 1.855 1.21l.287.008-.478.446a32.59 32.59 0 0 1-2.6 2.086l-.693.5-.812-.573a21.532 21.532 0 0 1-2.524-2.094l-.35-.358.279-.088a2.252 2.252 0 0 0 1.33-1.776 1.641 1.641 0 0 0-.8-1.378 3.55 3.55 0 0 1-.541-.43 1.307 1.307 0 0 0-.454-.327c-.08 0-.119-.08-.119-.247 0-.366-.127-.549-.4-.549a.447.447 0 0 0-.478.478c0 .223-.008.223-.287.135-.247-.072-.279-.111-.231-.287a2.832 2.832 0 0 1 1.21-1.648 2.217 2.217 0 0 1 1.892-.229zm-2.851 3.106c.135.088.223.1.446.024a.67.67 0 0 1 .852.39c.088.191.167.263.3.263a.64.64 0 0 1 .382.2.75.75 0 0 1 .048.964c-.518.844-1.967.8-2.787-.088a1.287 1.287 0 0 1-.366-1.2.733.733 0 0 1 1.126-.554zm9.293 0c.207.1.247.1.4 0a.782.782 0 0 1 .78-.016 1.278 1.278 0 0 1 .2 1.393 2.14 2.14 0 0 1-2.54.852c-.557-.263-.876-1.027-.589-1.4a.917.917 0 0 1 .589-.311c.08 0 .207-.111.279-.239a.6.6 0 0 1 .881-.28z" class="cls-1" data-name="패스 2403" transform="translate(0 351.75)"/>
            </g>
        </g>
        <g id="KakaoTalk_20180817_144514503" transform="translate(474.08 652.949)">
            <path id="패스_2389" d="M29.9-217.754a2.308 2.308 0 0 0-1.5 2c0 1.3.375 1.75 1.975 2.35 1.6.575 2.075 1.15 1.375 1.65a3.3 3.3 0 0 1-2.625-.2.568.568 0 0 0-.75.175c-.825 1 1.45 1.925 3.45 1.375 1.35-.375 2.075-1.125 2.075-2.175 0-1.1-.65-1.775-2.25-2.3-1.15-.4-1.375-.575-1.375-1.075 0-.525.125-.6.875-.6a7.281 7.281 0 0 1 1.55.2c.55.15.7.075.825-.325.275-.875-.3-1.25-1.85-1.225a8.13 8.13 0 0 0-1.775.15z" class="cls-1" data-name="패스 2389" transform="translate(-19.654 -.033)"/>
            <path id="패스_2390" d="M165.165-217.786c-.325.3-.175.825.2.825.3 0 .375.475.375 2.725 0 2.2-.075 2.75-.375 2.875a.6.6 0 0 0-.375.525c0 .3.4.375 2.225.375 2.65 0 3.675-.3 4.175-1.3a1.5 1.5 0 0 0-.525-2.15c-.6-.475-.6-.5-.125-.925a1.769 1.769 0 0 0 .175-2.225 2.727 2.727 0 0 0-1.3-.65c-1.15-.275-4.225-.325-4.45-.075zm3.6 1.325c.875.475.35 1.75-.75 1.75-.3 0-.375-1.55-.1-1.825.2-.225.275-.225.85.075zm.475 3.1a1.455 1.455 0 0 1 .2.95c-.05.45-.25.6-.875.65-.8.075-.825.05-.825-.925 0-.9.075-1.025.6-1.025a1.466 1.466 0 0 1 .9.35z" class="cls-1" data-name="패스 2390" transform="translate(-122.24)"/>
            <path id="패스_2391" d="M55.323-209.458a2.728 2.728 0 0 0-.925.925 5.527 5.527 0 0 0-.1 3.475c.5.95 3.525 1.25 4.2.425.45-.525-.025-.85-1.175-.825-1.1.025-1.125 0-1.35-.9a2.229 2.229 0 0 1 .125-1.625c.35-.725.8-.825 1.9-.475.525.175.575.125.5-.525s-.15-.7-1.325-.75a3.844 3.844 0 0 0-1.85.275z" class="cls-1" data-name="패스 2391" transform="translate(-39.048 -6.153)"/>
            <path id="패스_2392" d="M75-209.525a.875.875 0 0 0 .25.65 3.617 3.617 0 0 1 .25 1.75 3.616 3.616 0 0 1-.25 1.75.7.7 0 0 0-.25.525c0 .275.375.35 1.625.35 1.325 0 1.625-.075 1.625-.4a.632.632 0 0 0-.5-.525c-.4-.1-.5-.35-.5-1.175 0-1.8.2-2.15 1.05-1.975.8.15 1.2-.175 1.2-1 0-.475-.825-.575-1.85-.175-.425.15-.65.15-.65 0s-.45-.25-1-.25c-.825 0-1 .075-1 .475z" class="cls-1" data-name="패스 2392" transform="translate(-54.75 -5.961)"/>
            <path id="패스_2393" d="M95.4-209.475a3.3 3.3 0 0 0-.95 3.475 2.231 2.231 0 0 0 .725 1.225 5.394 5.394 0 0 0 3.05.325c.7-.15.875-.3.875-.8q0-.638-.375-.525c-1.325.35-1.85.325-2.175-.125-.525-.725-.4-.85.775-.85 1.65 0 1.9-.15 1.9-1.275 0-1.35-.675-1.975-2.1-1.975a2.632 2.632 0 0 0-1.725.525zm2.075 1.25c0 .35-.175.475-.625.475-.65 0-.825-.45-.35-.925a.562.562 0 0 1 .974.45z" class="cls-1" data-name="패스 2393" transform="translate(-69.224 -5.961)"/>
            <path id="패스_2394" d="M116.235-209.7a.687.687 0 0 0 .275.7 6.236 6.236 0 0 1 .825 2.375c.375 1.775.525 2.1 1 2.2 1.15.3 1.5-.125 2.1-2.4l.3-1.125.3 1.4c.425 2.025.525 2.225 1.25 2.225.8 0 1.4-.95 2-3.125a3.7 3.7 0 0 1 .65-1.625c.125 0 .225-.225.225-.5 0-.425-.175-.5-.975-.5-1.075 0-1.475.325-1.025.85.2.275.175.7-.075 1.7l-.35 1.325-.3-1.5c-.4-2-.55-2.225-1.575-2.325l-.9-.075-.3 1.65a6.379 6.379 0 0 1-.5 1.75c-.1.075-.275-.525-.375-1.325a6.176 6.176 0 0 0-.425-1.75c-.375-.45-1.925-.375-2.125.075z" class="cls-1" data-name="패스 2394" transform="translate(-85.66 -5.886)"/>
            <path id="패스_2395" d="M194.575-209.779c-.425.15-.4.95.025 1.3.25.225.5.225.975 0 .725-.325 1.425-.15 1.425.35 0 .225-.4.425-1.05.525-1.375.225-1.95.75-1.95 1.8 0 1.125.875 1.725 2.05 1.45a7.584 7.584 0 0 1 1.9-.125c.8.025 1.1-.05 1.225-.375.1-.25.05-.475-.125-.55-.2-.05-.3-.75-.3-1.925 0-1.625-.075-1.9-.55-2.225a6.547 6.547 0 0 0-3.625-.225zM197-206.2a.637.637 0 0 1-1.05.55.637.637 0 0 1 .55-1.05.449.449 0 0 1 .5.5z" class="cls-1" data-name="패스 2395" transform="translate(-144 -6.008)"/>
            <path id="패스_2396" d="M217.184-209.706c-.1.125 0 .45.225.7.575.65.55 3.225-.025 3.675-.75.525-.075.875 1.55.8 1.5-.075 2.175-.6 1.15-.875-.45-.1-.525-.325-.525-1.325 0-1.725.15-2 1-1.85.55.125.775.025 1-.375a1.055 1.055 0 0 0 .125-.775c-.2-.325-1.275-.325-1.9 0-.325.175-.475.175-.475 0 0-.325-1.925-.325-2.125.025z" class="cls-1" data-name="패스 2396" transform="translate(-161.309 -5.98)"/>
            <path id="패스_2397" d="M24.05-155.675l-.825 2.625h-3.35l-2.5-2.5a34.766 34.766 0 0 0-2.65-2.5 10.2 10.2 0 0 0-.875 2.5l-.725 2.5H2v19.5h5.375l2.775 2.775 2.8 2.8.425-1.475c.225-.825.6-2.075.8-2.8l.425-1.3h3.075l2.55 2.75A26.035 26.035 0 0 0 23-128.05c.1 0 .275-.3.375-.7.075-.375.45-1.6.775-2.725l.625-2.075h2.85l2.75 2.75a20.346 20.346 0 0 0 2.85 2.6 25.407 25.407 0 0 0 .9-2.675l.775-2.55 1.475-.075 1.475-.075 2.8 2.8 2.8 2.8.625-2.1c.35-1.15.725-2.4.8-2.775.175-.675.25-.7 1.75-.7h1.6l2.575 2.75c1.425 1.5 2.65 2.75 2.725 2.75a2.81 2.81 0 0 0 .45-1.075c.175-.575.55-1.8.825-2.725l.5-1.7H66v-19.5h-5.375l-2.55-2.55a17.328 17.328 0 0 0-2.7-2.425 20.365 20.365 0 0 0-.825 2.5l-.7 2.35-1.75.075-1.725.075-2.5-2.525a30.114 30.114 0 0 0-2.65-2.5 14.513 14.513 0 0 0-.85 2.5l-.7 2.5H41.9l-1.775.025-2.55-2.7-2.525-2.675-.825 2.675-.8 2.675h-3.3l-2.625-2.625-2.65-2.65zm-6.825 1.475l1.825 1.85-3.325 11.175-3.325 11.15-1.95-1.95-1.95-1.95L11.8-145c1.825-6.075 3.375-11.05 3.45-11.05a18.059 18.059 0 0 1 1.975 1.85zm10.225.05l1.75 1.9-.3 1.05c-.175.55-1.65 5.55-3.3 11.075-1.625 5.55-3.025 10.05-3.1 10-.075-.025-.95-.925-1.975-1.975l-1.825-1.925 3.05-10.2c1.7-5.6 3.175-10.575 3.3-11.025.125-.425.325-.8.45-.8a13.466 13.466 0 0 1 1.95 1.9zm9.25 10.925c-1.5 4.975-3 10-3.35 11.15l-.65 2.1-1.85-1.85A8.6 8.6 0 0 1 29-134.05c0-.3 5.875-20.25 6.4-21.725.075-.25.725.225 2.075 1.575l1.95 1.925zM47.725-154.2c1.525 1.525 1.825 1.95 1.7 2.45-.25.95-6.45 21.55-6.525 21.625A24.476 24.476 0 0 1 40.95-132l-1.925-1.925 3.3-11.05c1.825-6.1 3.35-11.075 3.425-11.075a18.058 18.058 0 0 1 1.975 1.85zm10.25 0l1.825 1.825-3.35 11.15-3.325 11.175-1.95-1.975-1.975-1.95L52.525-145c1.825-6.075 3.375-11.05 3.45-11.05a17.08 17.08 0 0 1 2 1.85zm-46.15 5.325c-.5 1.625-1.65 5.475-2.55 8.575L7.6-134.675l-2.3.075-2.3.075V-151.8h9.7zM22.75-151.6c0 .175-4.1 14.15-4.775 16.225-.25.8-.3.825-1.625.825-.75 0-1.35-.1-1.35-.225 0-.1.9-3.175 1.975-6.8C18.075-145.2 19.2-149 19.5-150l.525-1.8h1.35c.75 0 1.375.1 1.375.2zm10.15.225c-.05.25-1.225 4.125-2.55 8.625l-2.45 8.2h-1.325c-.9 0-1.325-.1-1.325-.325 0-.25 4.475-15.55 4.875-16.625.075-.175.625-.3 1.5-.3 1.225 0 1.4.05 1.275.425zm10.35-.375c0 .05-1.175 3.9-2.575 8.575l-2.55 8.5-1.475.075c-1.1.05-1.425 0-1.325-.25.05-.175 1.225-4.075 2.575-8.625l2.475-8.325h1.45a10.856 10.856 0 0 1 1.425.05zm8.225 6.5c-1.1 3.625-2.25 7.5-2.6 8.625l-.65 2.075H46.85c-1.225 0-1.4-.05-1.3-.45.075-.225 1.225-4.1 2.575-8.625l2.45-8.175h2.85zM65-143.175v8.625h-4.625c-3.175 0-4.625-.075-4.625-.275 0-.225 3.925-13.45 4.775-16.175l.275-.8H65z" class="cls-1" data-name="패스 2397" transform="translate(0 -44.661)"/>
            <path id="패스_2398" d="M47.4-99.2a.4.4 0 0 0 .4.4.4.4 0 0 0 .4-.4.4.4 0 0 0-.4-.4.4.4 0 0 0-.4.4z" class="cls-1" data-name="패스 2398" transform="translate(-34.05 -88.761)"/>
            <path id="패스_2399" d="M88.4-99.2a.4.4 0 0 0 .4.4.4.4 0 0 0 .4-.4.4.4 0 0 0-.4-.4.4.4 0 0 0-.4.4z" class="cls-1" data-name="패스 2399" transform="translate(-64.8 -88.761)"/>
            <path id="패스_2400" d="M128.683-99.394c.125.175.2.375.125.425-.05.075.1.125.325.15a.391.391 0 0 0 .45-.375c0-.275-.225-.45-.6-.45-.425-.05-.5.025-.3.25z" class="cls-1" data-name="패스 2400" transform="translate(-94.933 -88.717)"/>
            <path id="패스_2401" d="M169.4-99.175a.368.368 0 0 0 .4.4.413.413 0 0 0 .025-.825.438.438 0 0 0-.425.425z" class="cls-1" data-name="패스 2401" transform="translate(-125.55 -88.761)"/>
            <path id="패스_2402" d="M210.4-99.2a.4.4 0 0 0 .4.4.4.4 0 0 0 .4-.4.4.4 0 0 0-.4-.4.4.4 0 0 0-.4.4z" class="cls-1" data-name="패스 2402" transform="translate(-156.3 -88.761)"/>
        </g>
        <g id="KakaoTalk_20180821_152551119" transform="translate(417.998 1430.863)">
            <path id="패스_2374" d="M251.809-899.728c-.434.138-.809.395-.809.572 0 .049.069.059.158.03s.128-.02.1.02a8.148 8.148 0 0 0 1.549.908c1.924.987 2.457 1.322 2.665 1.678.178.286.168-.316.187 14.063.02 7.145.089 9.08.375 9.691.227.484.5.553.918.227a2.594 2.594 0 0 0 .75-1.52c.326-1.224.395-2.092.464-6.326l.059-3.257.3-.276a1.132 1.132 0 0 1 .375-.267 8.026 8.026 0 0 0 1.007-.868c.513-.474 1.125-1.036 1.372-1.263s.582-.572.77-.79.642-.71 1.017-1.115a10.621 10.621 0 0 0 .849-.987 4.484 4.484 0 0 1 .286-.4 2.876 2.876 0 0 0 .257-.326c.109-.158.2-.079.829.79.385.533.839 1.115 1.007 1.293a1.836 1.836 0 0 1 .306.385 26.713 26.713 0 0 0 1.826 2.26 5.261 5.261 0 0 0 .977.878l.345.188.247-.227a.741.741 0 0 0 .247-.642 4.046 4.046 0 0 0-.562-1.776 25.533 25.533 0 0 0-3.622-3.553 3.05 3.05 0 0 1-.8-.868c-.01-.1.02-.178.059-.178.069 0 .158-.217.178-.434a.212.212 0 0 1 .1-.148 6.519 6.519 0 0 0 .622-1.046c.286-.543.572-1.1.651-1.234a.933.933 0 0 0-.178-1.164c-.168-.178-.345-.286-.395-.257s-.089.01-.089-.039a5.53 5.53 0 0 0-1.658-.839c-.118-.01-.217-.049-.217-.089s-.217-.079-.474-.079c-.345 0-.533.049-.641.178a.582.582 0 0 0-.168.247 4.367 4.367 0 0 0 .9.859 2.246 2.246 0 0 1 .78.878 26.43 26.43 0 0 1-2.29 4.7c-.049.049-.336.454-.642.888s-.7.967-.878 1.174-.306.434-.266.493.03.079-.01.04c-.069-.059-.3.168-.957.937-.128.148-.513.563-.849.938l-.622.661v-1.431c-.02-7.234.01-10.254.1-10.777a1.337 1.337 0 0 0-.424-1.5c-.316-.227-.957-.493-.957-.385 0 .03-.059.01-.118-.039a11.157 11.157 0 0 0-2.1-.622 28.16 28.16 0 0 1-1.194-.257 2.824 2.824 0 0 0-1.712.003z" class="cls-1" data-name="패스 2374" transform="translate(-173.878)"/>
            <path id="패스_2375" d="M452.73-896.911c.039.049-.03.069-.138.04a.572.572 0 0 0-.592.414c0 .069.148.2.326.286s.464.257.641.355.316.168.316.138.128.039.286.148a1.037 1.037 0 0 0 .434.207.432.432 0 0 1 .266.148.415.415 0 0 0 .247.148c.355 0 .365.158.4 7.027.079 12.938.1 13.491.582 13.58.306.069.622-.188.77-.612.336-.908.395-1.688.424-5.724.02-2.22.049-4.056.069-4.066s.809-.04 1.767-.04l1.737-.02.434.464a6.017 6.017 0 0 0 2.5 1.589 8.514 8.514 0 0 0 3.7-.01 5.428 5.428 0 0 0 2.773-2.359 5.888 5.888 0 0 0 .355-3.464 4.234 4.234 0 0 0-1.846-2.289 8.8 8.8 0 0 0-2.092-.72c-.128 0-.178-.079-.178-.286a1.041 1.041 0 0 0-.868-.819 5.322 5.322 0 0 0-.73.01c-.118.02-.1.385.02.454a.3.3 0 0 1 .1.247c0 .148-.119.207-.563.3-2.1.434-3.286 1.2-3.977 2.566a3.269 3.269 0 0 0-.286 1.53l-.059 1.086-.395.029a2.709 2.709 0 0 0-.888.267c-.9.424-1.53.533-1.54.247 0-.079 0-2.329.01-5l.01-4.856-.326-.237a1.957 1.957 0 0 0-1.184-.4c-.04.03-.079 0-.079-.049 0-.109-.642-.256-1.056-.247-.128 0-.227-.039-.227-.079a1.263 1.263 0 0 0-.6-.079c-.326-.013-.573.026-.543.076zm13.718 6.533a3.745 3.745 0 0 1 1.569 1.293 4.273 4.273 0 0 1 .326.878 2.824 2.824 0 0 1-.138 1.895 3.365 3.365 0 0 1-.948 1.352.486.486 0 0 0-.247.138 4.711 4.711 0 0 1-1.984.582 4.12 4.12 0 0 1-3.168-1.589c-.326-.444-.335-.493-.335-1.352a1.843 1.843 0 0 1 .365-1.441 3.633 3.633 0 0 1 2.448-1.619 2.935 2.935 0 0 0 1.184-.355c.168-.088.139-.098.928.218z" class="cls-1" data-name="패스 2375" transform="translate(-355.041 -2.58)"/>
            <path id="패스_2376" d="M651.881-896.912c.03.049-.059.089-.2.1a.649.649 0 0 0-.395.158c-.257.257-.069.5.582.76a9.216 9.216 0 0 1 2.023.957l.217.2.03 9.958c.03 9.662.039 9.968.217 10.274.247.395.425.474.7.286.444-.3.671-1.253.76-3.237.03-.642.119-.79.326-.582a5.452 5.452 0 0 0 1.431.5 5.843 5.843 0 0 0 .888-.257c1.283-.444 3.02-.543 9.524-.533 3.148 0 6.1.039 6.553.089 1.174.118 1.589-.01 1.776-.553.128-.365.128-.424-.03-.671-.256-.395-.878-.6-2.2-.74a4.208 4.208 0 0 0-2.349.178 14.1 14.1 0 0 1-3.06.316c-5.477.247-12.534.276-12.761.059-.069-.069-.039-14.508.029-15.406.079-1.007-.108-1.263-1.135-1.52-1.219-.316-3.035-.514-2.926-.336z" class="cls-1" data-name="패스 2376" transform="translate(-534.562 -2.599)"/>
            <path id="패스_2377" d="M715.973-869.435c-.79.415-1.244.474-4.589.582-1.786.059-3.425.118-3.622.138s-.375 0-.375-.039a9.717 9.717 0 0 0-2.793-.395 2.386 2.386 0 0 0-1.2.158c-.454.3-.247.582.691.948a5.365 5.365 0 0 1 1.48.77c.039.059.069 1.668.059 3.582 0 3.257.069 4.214.286 4.214.039 0 .1.079.118.178.1.355.691.691 1.51.859.7.138 1.224.148 5.083.059 5.921-.148 6.277-.168 6.652-.385.266-.148.306-.237.336-.641.03-.454.03-.454-.414-.661a3.544 3.544 0 0 0-1.648-.2 3.043 3.043 0 0 0-1.757.266 4.6 4.6 0 0 1-2.132.335 47.873 47.873 0 0 1-5.724.01l-.3-.079-.03-1.7-.02-1.7 1.944-.01c2.142 0 3.81-.04 6.721-.138l1.9-.069.276-.276c.256-.266.286-.395.227-.977-.01-.079-.079-.109-.178-.069-.079.029-.128.02-.089-.03.069-.119-.543-.218-1.54-.257a3.086 3.086 0 0 0-1.608.3l-.819.316-3.425.079-3.415.069v-3.474h2.507a22.942 22.942 0 0 0 2.566-.079 2.649 2.649 0 0 1 .819-.049c.424.02 1.786 0 3.02-.059l2.26-.089.286-.276c.158-.158.276-.326.247-.395a.235.235 0 0 1 .059-.217c.158-.158-.187-.592-.523-.661a12.043 12.043 0 0 0-1.4-.1c-.919-.026-1.16.004-1.446.162z" class="cls-1" data-name="패스 2377" transform="translate(-581.413 -27.273)"/>
            <path id="패스_2378" d="M65.5-863.543c-.069.069-.059.227.039.5.2.543.1.957-.217.957a10.6 10.6 0 0 0-2.161.523 9 9 0 0 0-2.448 1.125c-.533.335-1.776 1.579-1.7 1.707.03.059.02.1-.03.1a4.3 4.3 0 0 0-.74 1.55 10.862 10.862 0 0 0 .03 3.869 6.151 6.151 0 0 0 1.767 2.941 7.937 7.937 0 0 0 1.135.987 1.692 1.692 0 0 1 .355.227 9.132 9.132 0 0 0 1.974.957c1.184.424 4.145.72 4.145.414 0-.049.039-.079.089-.039a4.442 4.442 0 0 0 1.49-.227.508.508 0 0 1 .3-.1 6.839 6.839 0 0 0 1.895-.928 9.8 9.8 0 0 0 2.211-2.151 2.657 2.657 0 0 1 .247-.395 5.808 5.808 0 0 0 .553-1.283 12.2 12.2 0 0 0 .128-3.5 5.834 5.834 0 0 0-.493-1.51A4.863 4.863 0 0 0 72.8-859.5c-1.165-1.155-1.934-1.549-4.362-2.23-.493-.138-.563-.187-.681-.513-.148-.415-.78-1.155-.908-1.066-.049.029-.089.01-.089-.049-.001-.205-1.077-.373-1.26-.185zm3 3.158a8.435 8.435 0 0 1 1.174.553 8.041 8.041 0 0 1 1.47 1.2c-.039 0 .02.1.138.227a4.812 4.812 0 0 1 1.007 2.4.68.68 0 0 0 .069.365 5.842 5.842 0 0 1-.188 2.24 4 4 0 0 1-1.352 2.033 6.986 6.986 0 0 1-2.734 1.461 6.8 6.8 0 0 1-5.468-1.145 4.668 4.668 0 0 1-1.865-2.536 7.206 7.206 0 0 1 0-2.438 4.993 4.993 0 0 1 2.221-2.892c.237-.158.395-.316.355-.355s-.01-.049.059-.01a.633.633 0 0 0 .444-.109 4.189 4.189 0 0 1 .76-.316c.247-.069.641-.2.878-.266a2.9 2.9 0 0 1 .641-.138 2.458 2.458 0 0 0 .75-.286 2.8 2.8 0 0 1 .7-.3 4.018 4.018 0 0 1 .941.312z" class="cls-1" data-name="패스 2378" transform="translate(0 -32.662)"/>
            <path id="패스_2379" d="M113.647-652.547c-.493.069-.809.227-.918.474-.1.207-.069.257.207.415a5.47 5.47 0 0 0 .957.365 9.45 9.45 0 0 1 2.714 1.046c.02.039.049 1.263.049 2.724l.01 2.655.3.6a1.763 1.763 0 0 0 .76.908c1.1.681.553.651 9.257.582 8.28-.069 8.932-.108 9.316-.513a1.088 1.088 0 0 0-.02-1.549 7.962 7.962 0 0 0-2.832-.375 4.163 4.163 0 0 0-2.546.651c-.967.444-1.944.533-6.77.6-3.553.049-3.859.04-4.224-.128-.681-.306-.681-.306-.681-4.175v-3.444l-.247-.306a1.228 1.228 0 0 0-.77-.395 37.138 37.138 0 0 0-4.562-.135z" class="cls-1" data-name="패스 2379" transform="translate(-49.207 -222.884)"/>
            <path id="패스_2380" d="M384.551-628.458a.776.776 0 0 0-.227.395c-.049.207-.01.326.188.523a.532.532 0 0 0 .8.039.887.887 0 0 0 .03-.859.761.761 0 0 0-.791-.098z" class="cls-1" data-name="패스 2380" transform="translate(-294.027 -244.555)"/>
            <path id="패스_2381" d="M600.395-628.653a.644.644 0 0 0-.395.6c0 .257.247.553.385.474.049-.039.119 0 .138.059.039.1.079.089.158-.02.059-.079.109-.109.109-.059s.089.01.2-.089a.575.575 0 0 0-.595-.965z" class="cls-1" data-name="패스 2381" transform="translate(-488.435 -244.409)"/>
            <path id="패스_2382" d="M727.72-628.766c-.691.04-.72.049-.72.276 0 .2.049.247.276.247a.909.909 0 0 1 .444.138c.148.118.168.385.168 3.049 0 3.119.01 3.069-.494 3.079-.187 0-.247.059-.257.217-.01.227 0 .227 1.2.227h1.224v-.247c0-.207-.039-.237-.286-.207-.5.059-.523 0-.484-1.461l.03-1.352.415-.395c.523-.483.878-.5 1.332-.1l.326.286.03 1.362a7.7 7.7 0 0 1-.059 1.5.634.634 0 0 1-.375.158c-.158.02-.316.04-.355.049s-.079.1-.079.207c0 .187.069.2 1.332.2 1.332 0 1.332 0 1.332-.227 0-.2-.049-.237-.365-.247a1.024 1.024 0 0 1-.434-.089 10.3 10.3 0 0 1-.109-1.609c-.03-1.4-.049-1.569-.266-1.9a1.449 1.449 0 0 0-1.194-.661 2.546 2.546 0 0 0-1.372.6l-.207.227v-1.7c0-1.559-.01-1.7-.168-1.678-.095.017-.5.042-.885.051z" class="cls-1" data-name="패스 2382" transform="translate(-602.901 -244.296)"/>
            <path id="패스_2383" d="M815.273-619.734a1.693 1.693 0 0 1-.247 1.007c-.188.326-.849.75-.967.632-.03-.039-.059.059-.059.2 0 .247.03.266.395.266h.395v.464c.03 2.961.039 3.059.286 3.326a1.266 1.266 0 0 0 1.441.316 1.392 1.392 0 0 0 .938-1.362c0-.4-.03-.474-.2-.474s-.2.069-.2.365c0 .711-.75 1.244-1.135.819-.118-.128-.148-.454-.158-1.589v-1.648c.01-.207.049-.217.7-.217.671 0 .691-.01.691-.247s-.02-.247-.691-.247h-.691l-.01-.375c-.01-.2-.01-.622 0-.938.01-.533 0-.562-.237-.562-.192-.002-.241.047-.251.264z" class="cls-1" data-name="패스 2383" transform="translate(-681.315 -252.243)"/>
            <path id="패스_2384" d="M650.735-603.021c-1.016.385-1.382.809-1.382 1.579a1.594 1.594 0 0 0 .484 1.086c.128.1.109.148-.168.385a.706.706 0 0 0-.316.691.733.733 0 0 0 .365.73c.335.276.345.306.148.306a.821.821 0 0 0-.474.247.6.6 0 0 0-.207.6 1.256 1.256 0 0 0 .217.533 2.673 2.673 0 0 0 1.776.484 2.476 2.476 0 0 0 1.925-.6.949.949 0 0 0 .395-.928c0-.563-.059-.671-.523-.967-.217-.148-.513-.187-1.559-.207-.957-.02-1.323-.059-1.382-.158-.247-.395 0-.562.849-.592 1.026-.03 1.835-.335 1.658-.612-.03-.049-.02-.079.03-.04.168.1.414-.178.523-.582a1.749 1.749 0 0 0-.207-1.3c-.079-.089-.059-.118.069-.118a.547.547 0 0 1 .335.217c.375.454.977-.079.641-.582a.885.885 0 0 0-1.184-.02c-.207.2-.227.2-.533.039a2.955 2.955 0 0 0-1.48-.191zm.79.434c.158 0 .592.533.592.711 0 .1.039.178.1.178s.059.089 0 .257a1.346 1.346 0 0 0-.1.444.755.755 0 0 1-.266.434.834.834 0 0 1-1.165.01.771.771 0 0 0-.266-.207c-.089.089-.079-1.036.01-1.263.118-.3.681-.691.878-.612a.81.81 0 0 0 .216.048zm1.066 4.55c.316.2.355.444.128.809-.108.178-.207.286-.207.247s-.187-.01-.4.069a1.872 1.872 0 0 1-2.062-.375c-.129-.237-.129-.276.059-.533a.976.976 0 0 1 .543-.345 4.619 4.619 0 0 1 1.938.128z" class="cls-1" data-name="패스 2384" transform="translate(-532.755 -267.485)"/>
            <path id="패스_2385" d="M377.276-601.931c-.2.03-.276.1-.276.237s.069.188.326.188c.622 0 .671.158.641 1.984l-.03 1.619-.415.089c-.355.079-.424.138-.424.325 0 .227.01.227 1.322.227h1.322v-.247c0-.2-.049-.247-.267-.247-.6 0-.622-.059-.622-2.25V-602l-.651.01c-.363.01-.778.039-.926.059z" class="cls-1" data-name="패스 2385" transform="translate(-287.443 -268.466)"/>
            <path id="패스_2386" d="M434.128-601.851a.251.251 0 0 0-.128.237c0 .128.069.187.237.187.513 0 .563.168.533 2-.03 1.431-.049 1.7-.178 1.707-.079.01-.247.02-.365.02-.168.02-.227.079-.227.267v.247h1.234c1.224 0 1.234 0 1.234-.227 0-.187-.079-.247-.365-.326l-.375-.089v-1.234a10.938 10.938 0 0 1 .049-1.372 1.6 1.6 0 0 1 .849-.8.76.76 0 0 1 .967.3c.227.276.237.355.247 1.6a7.652 7.652 0 0 1-.069 1.441c-.079.118-.276.187-.582.207-.069.01-.128.118-.128.257v.247h2.467v-.247c0-.227-.168-.316-.513-.257-.188.03-.276-.493-.286-1.737-.01-1.579-.109-1.954-.572-2.27a2 2 0 0 0-2.319.375l-.158.227v-.257c0-.523-.069-.573-.78-.562a3.522 3.522 0 0 0-.772.059z" class="cls-1" data-name="패스 2386" transform="translate(-338.818 -268.547)"/>
            <path id="패스_2387" d="M523.992-601.793a1.551 1.551 0 0 0-.523.553c-.178.375-.217 1.115-.049 1.115a.054.054 0 0 1 .049.089c-.039.049.069.227.227.385a2.038 2.038 0 0 0 1.313.454.4.4 0 0 1 .138.079.462.462 0 0 0 .3.079c.928 0 1.105.977.237 1.322-.7.276-1.362-.059-1.836-.928-.168-.306-.336-.493-.444-.493-.158 0-.178.089-.158.9.02.73.049.928.188 1.007s.207.059.345-.118l.187-.227.385.207a2 2 0 0 0 2.369-.464 1.57 1.57 0 0 0-.049-1.648 1.553 1.553 0 0 0-1.086-.553 2.526 2.526 0 0 1-1.352-.454c-.385-.286-.414-.5-.089-.809a1.434 1.434 0 0 1 1.332-.118 2.04 2.04 0 0 1 .72.948.3.3 0 0 0 .267.227c.217.03.227.01.168-.276a6.9 6.9 0 0 1-.059-.9c0-.5-.03-.582-.188-.582a.42.42 0 0 0-.3.138c-.109.128-.168.128-.454 0a2.09 2.09 0 0 0-1.638.067z" class="cls-1" data-name="패스 2387" transform="translate(-419.247 -268.466)"/>
            <path id="패스_2388" d="M593.13-601.931c-.395.059-.385.424 0 .424.6 0 .632.089.642 1.934l.01 1.668-.415.089c-.336.079-.414.138-.414.325 0 .227.01.227 1.332.227h1.332v-.247c0-.207-.049-.247-.3-.257-.158-.01-.355-.02-.414-.029-.1-.01-.138-.513-.158-2.112l-.02-2.092-.671.01c-.362.011-.776.04-.924.06z" class="cls-1" data-name="패스 2388" transform="translate(-481.979 -268.466)"/>
        </g>
        <g id="그룹_677" data-name="그룹 677" transform="translate(391 19.979)">
            <path id="패스_2404" d="M87.978 608.406h3.109v-9.346l4.014 6.094h.082L99.239 599v9.408h3.15v-14.413h-3.418l-3.788 6.094-3.783-6.094h-3.422v14.411z" class="cls-1" data-name="패스 2404" transform="translate(-2.221 -.724)"/>
            <path id="패스_2405" d="M151.629 608.406h3.17v-14.411h-3.17v14.411z" class="cls-1" data-name="패스 2405" transform="translate(-49.686 -.724)"/>
            <path id="패스_2406" d="M175.962 607.929a7.366 7.366 0 0 0 5.908-2.573l-2.018-2.038a5.2 5.2 0 0 1-3.788 1.688 4.28 4.28 0 0 1-4.179-4.529v-.041a4.27 4.27 0 0 1 4.179-4.488 5.318 5.318 0 0 1 3.685 1.626l2.018-2.326a7.435 7.435 0 0 0-5.682-2.223 7.324 7.324 0 0 0-7.514 7.452v.041a7.274 7.274 0 0 0 7.391 7.411z" class="cls-1" data-name="패스 2406" transform="translate(-62.319)"/>
            <path id="패스_2407" d="M281.088 607.929a7.452 7.452 0 0 0 7.679-7.452v-.041a7.662 7.662 0 0 0-15.316.041v.041a7.383 7.383 0 0 0 7.638 7.411zm.041-2.923a4.378 4.378 0 0 1-4.364-4.529v-.041a4.31 4.31 0 0 1 4.323-4.488 4.378 4.378 0 0 1 4.365 4.529v.041a4.309 4.309 0 0 1-4.323 4.488z" class="cls-1" data-name="패스 2407" transform="translate(-140.528)"/>
            <path id="패스_2408" d="M224.211 608.658h3.17v-6.773l4.5 6.773h3.705l-3.52-5.146c2.465 0 4.169-1.425 4.169-4.467V599a4.524 4.524 0 0 0-1.235-3.291 5.743 5.743 0 0 0-4.2-1.462h-6.588v14.411zm3.17-11.549h3.15c1.544 0 2.491.7 2.491 2.059v.041c0 1.215-.885 2.038-2.429 2.038l-3.211-4.138z" class="cls-1" data-name="패스 2408" transform="translate(-103.81 -.912)"/>
            <path id="패스_2409" d="M91.114 674.116c3.109 0 5.291-1.606 5.291-4.467v-.041c0-2.511-1.647-3.561-4.57-4.323-2.491-.638-3.109-.947-3.109-1.894v-.041c0-.7.638-1.256 1.853-1.256a6.763 6.763 0 0 1 3.747 1.421l1.647-2.388a8.341 8.341 0 0 0-5.352-1.832c-2.944 0-5.043 1.729-5.043 4.344v.041c0 2.862 1.873 3.664 4.776 4.405 2.409.618 2.9 1.029 2.9 1.832v.041c0 .844-.782 1.359-2.079 1.359a6.61 6.61 0 0 1-4.3-1.75L85 671.811a9.169 9.169 0 0 0 6.114 2.306z" class="cls-1" data-name="패스 2409" transform="translate(0 -49.418)"/>
            <path id="패스_2410" d="M415.322 674.6h3.171v-6.863l4.5 6.863h3.707l-3.52-5.237c2.465 0 4.168-1.425 4.168-4.467v-.041a4.524 4.524 0 0 0-1.235-3.294 5.741 5.741 0 0 0-4.2-1.461h-6.588v14.5zm3.171-11.639h3.149c1.544 0 2.491.7 2.491 2.059v.041c0 1.215-.885 2.038-2.429 2.038l-3.211-4.138z" class="cls-1" data-name="패스 2410" transform="translate(-246.322 -50.022)"/>
            <path id="패스_2411" d="M240.966 659.983h-3.314l-4.606 9.758-3.232-9.8H227.1l-3.232 9.8-4.606-9.758h-13.957v2.923h4.385v11.577h3.17v-11.577h4.318L222.4 674.5h2.759l3.253-9.429 3.252 9.429h2.759l6.541-14.513zm-43.834 2.882h7.8v-2.882h-10.97v14.5h3.17v-5.669h6.876v-2.882h-6.876v-3.067z" class="cls-1" data-name="패스 2411" transform="translate(-81.253 -49.901)"/>
            <path id="패스_2412" d="M361.667 674.3h13.093l-6.453-14.6-6.64 14.6zm3.724-2.365l2.917-6.47 2.646 6.47z" class="cls-1" data-name="패스 2412" transform="translate(-206.311 -49.72)"/>
            <path id="패스_2413" d="M466.406 674.419h10.972v-2.892h-7.823V668.5h6.793v-2.82h-6.793v-2.923h7.826v-2.82h-10.975v14.482z" class="cls-1" data-name="패스 2413" transform="translate(-284.416 -49.897)"/>
            <path id="패스_2414" d="M146.411 666.584v-.041a7.662 7.662 0 0 0-15.316.041v.041a7.662 7.662 0 0 0 15.316-.041zm-4.517.721h-2.42v2.42h-1.442v-2.42h-2.42v-1.442h2.42v-2.42h1.442v2.42h2.42v1.442z" class="cls-1" data-name="패스 2414" transform="translate(-34.373 -49.297)"/>
        </g>
        <text id="이지스_퍼블리싱" class="cls-3" data-name="이지스 퍼블리싱" transform="translate(841 636)">
            <tspan x="0" y="0">이지스</tspan><tspan y="0" class="cls-4"> </tspan><tspan y="0">퍼블리싱</tspan>
        </text>
    </g>
</svg>
